%TF.GenerationSoftware,KiCad,Pcbnew,7.0.9*%
%TF.CreationDate,2024-03-10T22:23:53-07:00*%
%TF.ProjectId,P2.0,50322e30-2e6b-4696-9361-645f70636258,rev?*%
%TF.SameCoordinates,Original*%
%TF.FileFunction,Soldermask,Top*%
%TF.FilePolarity,Negative*%
%FSLAX46Y46*%
G04 Gerber Fmt 4.6, Leading zero omitted, Abs format (unit mm)*
G04 Created by KiCad (PCBNEW 7.0.9) date 2024-03-10 22:23:53*
%MOMM*%
%LPD*%
G01*
G04 APERTURE LIST*
G04 Aperture macros list*
%AMRoundRect*
0 Rectangle with rounded corners*
0 $1 Rounding radius*
0 $2 $3 $4 $5 $6 $7 $8 $9 X,Y pos of 4 corners*
0 Add a 4 corners polygon primitive as box body*
4,1,4,$2,$3,$4,$5,$6,$7,$8,$9,$2,$3,0*
0 Add four circle primitives for the rounded corners*
1,1,$1+$1,$2,$3*
1,1,$1+$1,$4,$5*
1,1,$1+$1,$6,$7*
1,1,$1+$1,$8,$9*
0 Add four rect primitives between the rounded corners*
20,1,$1+$1,$2,$3,$4,$5,0*
20,1,$1+$1,$4,$5,$6,$7,0*
20,1,$1+$1,$6,$7,$8,$9,0*
20,1,$1+$1,$8,$9,$2,$3,0*%
G04 Aperture macros list end*
%ADD10RoundRect,0.102000X-0.380000X-1.200000X0.380000X-1.200000X0.380000X1.200000X-0.380000X1.200000X0*%
%ADD11RoundRect,0.102000X-0.800000X0.400000X-0.800000X-0.400000X0.800000X-0.400000X0.800000X0.400000X0*%
%ADD12RoundRect,0.140000X0.140000X0.170000X-0.140000X0.170000X-0.140000X-0.170000X0.140000X-0.170000X0*%
%ADD13RoundRect,0.135000X-0.135000X-0.185000X0.135000X-0.185000X0.135000X0.185000X-0.135000X0.185000X0*%
%ADD14RoundRect,0.147500X-0.172500X0.147500X-0.172500X-0.147500X0.172500X-0.147500X0.172500X0.147500X0*%
%ADD15RoundRect,0.150000X0.512500X0.150000X-0.512500X0.150000X-0.512500X-0.150000X0.512500X-0.150000X0*%
%ADD16RoundRect,0.140000X0.170000X-0.140000X0.170000X0.140000X-0.170000X0.140000X-0.170000X-0.140000X0*%
%ADD17O,1.700000X1.700000*%
%ADD18R,1.700000X1.700000*%
%ADD19RoundRect,0.102000X-0.425000X-0.375000X0.425000X-0.375000X0.425000X0.375000X-0.425000X0.375000X0*%
%ADD20RoundRect,0.140000X-0.170000X0.140000X-0.170000X-0.140000X0.170000X-0.140000X0.170000X0.140000X0*%
%ADD21RoundRect,0.147500X-0.147500X-0.172500X0.147500X-0.172500X0.147500X0.172500X-0.147500X0.172500X0*%
%ADD22RoundRect,0.225000X0.225000X0.250000X-0.225000X0.250000X-0.225000X-0.250000X0.225000X-0.250000X0*%
%ADD23RoundRect,0.218750X-0.218750X-0.256250X0.218750X-0.256250X0.218750X0.256250X-0.218750X0.256250X0*%
%ADD24R,0.762000X0.203200*%
%ADD25R,0.203200X0.762000*%
%ADD26R,4.699000X4.699000*%
%ADD27RoundRect,0.135000X0.185000X-0.135000X0.185000X0.135000X-0.185000X0.135000X-0.185000X-0.135000X0*%
%ADD28RoundRect,0.135000X-0.185000X0.135000X-0.185000X-0.135000X0.185000X-0.135000X0.185000X0.135000X0*%
G04 APERTURE END LIST*
D10*
%TO.C,J2*%
X78250000Y-61500000D03*
X78250000Y-57600000D03*
X76980000Y-61500000D03*
X76980000Y-57600000D03*
X75710000Y-61500000D03*
X75710000Y-57600000D03*
%TD*%
D11*
%TO.C,AE1*%
X93300000Y-68362500D03*
X93300000Y-64962500D03*
%TD*%
D12*
%TO.C,C11*%
X83780000Y-67000000D03*
X82820000Y-67000000D03*
%TD*%
D13*
%TO.C,R18*%
X85490000Y-65250000D03*
X86510000Y-65250000D03*
%TD*%
D12*
%TO.C,C17*%
X89520000Y-56400000D03*
X90480000Y-56400000D03*
%TD*%
D14*
%TO.C,L2*%
X93300000Y-62262500D03*
X93300000Y-63232500D03*
%TD*%
D15*
%TO.C,U4*%
X82500000Y-65750000D03*
X82500000Y-64800000D03*
X82500000Y-63850000D03*
X80225000Y-63850000D03*
X80225000Y-65750000D03*
%TD*%
D16*
%TO.C,C14*%
X81300000Y-59300000D03*
X81300000Y-60260000D03*
%TD*%
D17*
%TO.C,J1*%
X76500000Y-54290000D03*
D18*
X76500000Y-51750000D03*
%TD*%
D19*
%TO.C,Y1*%
X90378999Y-52279001D03*
X91728999Y-52279001D03*
X91728999Y-53329001D03*
X90378999Y-53329001D03*
%TD*%
D20*
%TO.C,C13*%
X88278999Y-52319001D03*
X88278999Y-53279001D03*
%TD*%
D12*
%TO.C,C12*%
X80805000Y-55650000D03*
X79845000Y-55650000D03*
%TD*%
D21*
%TO.C,L3*%
X92330000Y-61250000D03*
X93300000Y-61250000D03*
%TD*%
D16*
%TO.C,C18*%
X92878999Y-53279001D03*
X92878999Y-52319001D03*
%TD*%
D22*
%TO.C,C19*%
X83125000Y-52950000D03*
X81575000Y-52950000D03*
%TD*%
D20*
%TO.C,C16*%
X89228999Y-52319001D03*
X89228999Y-53279001D03*
%TD*%
D22*
%TO.C,C20*%
X81100000Y-54450000D03*
X79550000Y-54450000D03*
%TD*%
D16*
%TO.C,C15*%
X93300000Y-60300000D03*
X93300000Y-59340000D03*
%TD*%
D23*
%TO.C,D1*%
X84925000Y-67300000D03*
X86500000Y-67300000D03*
%TD*%
D18*
%TO.C,BT1*%
X76525000Y-64800000D03*
D17*
X76525000Y-67340000D03*
%TD*%
D16*
%TO.C,C10*%
X78800000Y-65760000D03*
X78800000Y-64800000D03*
%TD*%
D24*
%TO.C,U5*%
X82458000Y-55150000D03*
X82458000Y-55550002D03*
X82458000Y-55950001D03*
X82458000Y-56350000D03*
X82458000Y-56750002D03*
X82458000Y-57150001D03*
X82458000Y-57550001D03*
X82458000Y-57950000D03*
X82458000Y-58350002D03*
X82458000Y-58750001D03*
X82458000Y-59150000D03*
X82458000Y-59550002D03*
D25*
X83178999Y-60271001D03*
X83579001Y-60271001D03*
X83979000Y-60271001D03*
X84378999Y-60271001D03*
X84779001Y-60271001D03*
X85179000Y-60271001D03*
X85579000Y-60271001D03*
X85978999Y-60271001D03*
X86379001Y-60271001D03*
X86779000Y-60271001D03*
X87178999Y-60271001D03*
X87579001Y-60271001D03*
D24*
X88300000Y-59550002D03*
X88300000Y-59150000D03*
X88300000Y-58750001D03*
X88300000Y-58350002D03*
X88300000Y-57950000D03*
X88300000Y-57550001D03*
X88300000Y-57150001D03*
X88300000Y-56750002D03*
X88300000Y-56350000D03*
X88300000Y-55950001D03*
X88300000Y-55550002D03*
X88300000Y-55150000D03*
D25*
X87579001Y-54429001D03*
X87178999Y-54429001D03*
X86779000Y-54429001D03*
X86379001Y-54429001D03*
X85978999Y-54429001D03*
X85579000Y-54429001D03*
X85179000Y-54429001D03*
X84779001Y-54429001D03*
X84378999Y-54429001D03*
X83979000Y-54429001D03*
X83579001Y-54429001D03*
X83178999Y-54429001D03*
D26*
X85379000Y-57350001D03*
%TD*%
D27*
%TO.C,R20*%
X81325000Y-57885000D03*
X81325000Y-56865000D03*
%TD*%
D28*
%TO.C,R13*%
X92700000Y-56790000D03*
X92700000Y-57810000D03*
%TD*%
M02*
