%TF.GenerationSoftware,KiCad,Pcbnew,7.0.9*%
%TF.CreationDate,2024-03-10T22:23:53-07:00*%
%TF.ProjectId,P2.0,50322e30-2e6b-4696-9361-645f70636258,rev?*%
%TF.SameCoordinates,Original*%
%TF.FileFunction,Legend,Top*%
%TF.FilePolarity,Positive*%
%FSLAX46Y46*%
G04 Gerber Fmt 4.6, Leading zero omitted, Abs format (unit mm)*
G04 Created by KiCad (PCBNEW 7.0.9) date 2024-03-10 22:23:53*
%MOMM*%
%LPD*%
G01*
G04 APERTURE LIST*
G04 Aperture macros list*
%AMRoundRect*
0 Rectangle with rounded corners*
0 $1 Rounding radius*
0 $2 $3 $4 $5 $6 $7 $8 $9 X,Y pos of 4 corners*
0 Add a 4 corners polygon primitive as box body*
4,1,4,$2,$3,$4,$5,$6,$7,$8,$9,$2,$3,0*
0 Add four circle primitives for the rounded corners*
1,1,$1+$1,$2,$3*
1,1,$1+$1,$4,$5*
1,1,$1+$1,$6,$7*
1,1,$1+$1,$8,$9*
0 Add four rect primitives between the rounded corners*
20,1,$1+$1,$2,$3,$4,$5,0*
20,1,$1+$1,$4,$5,$6,$7,0*
20,1,$1+$1,$6,$7,$8,$9,0*
20,1,$1+$1,$8,$9,$2,$3,0*%
G04 Aperture macros list end*
%ADD10C,0.150000*%
%ADD11C,0.200000*%
%ADD12C,0.127000*%
%ADD13C,0.120000*%
%ADD14C,0.152400*%
%ADD15RoundRect,0.102000X-0.380000X-1.200000X0.380000X-1.200000X0.380000X1.200000X-0.380000X1.200000X0*%
%ADD16RoundRect,0.102000X-0.800000X0.400000X-0.800000X-0.400000X0.800000X-0.400000X0.800000X0.400000X0*%
%ADD17RoundRect,0.140000X0.140000X0.170000X-0.140000X0.170000X-0.140000X-0.170000X0.140000X-0.170000X0*%
%ADD18RoundRect,0.135000X-0.135000X-0.185000X0.135000X-0.185000X0.135000X0.185000X-0.135000X0.185000X0*%
%ADD19RoundRect,0.147500X-0.172500X0.147500X-0.172500X-0.147500X0.172500X-0.147500X0.172500X0.147500X0*%
%ADD20RoundRect,0.150000X0.512500X0.150000X-0.512500X0.150000X-0.512500X-0.150000X0.512500X-0.150000X0*%
%ADD21RoundRect,0.140000X0.170000X-0.140000X0.170000X0.140000X-0.170000X0.140000X-0.170000X-0.140000X0*%
%ADD22O,1.700000X1.700000*%
%ADD23R,1.700000X1.700000*%
%ADD24RoundRect,0.102000X-0.425000X-0.375000X0.425000X-0.375000X0.425000X0.375000X-0.425000X0.375000X0*%
%ADD25RoundRect,0.140000X-0.170000X0.140000X-0.170000X-0.140000X0.170000X-0.140000X0.170000X0.140000X0*%
%ADD26RoundRect,0.147500X-0.147500X-0.172500X0.147500X-0.172500X0.147500X0.172500X-0.147500X0.172500X0*%
%ADD27RoundRect,0.225000X0.225000X0.250000X-0.225000X0.250000X-0.225000X-0.250000X0.225000X-0.250000X0*%
%ADD28RoundRect,0.218750X-0.218750X-0.256250X0.218750X-0.256250X0.218750X0.256250X-0.218750X0.256250X0*%
%ADD29R,0.762000X0.203200*%
%ADD30R,0.203200X0.762000*%
%ADD31R,4.699000X4.699000*%
%ADD32RoundRect,0.135000X0.185000X-0.135000X0.185000X0.135000X-0.185000X0.135000X-0.185000X-0.135000X0*%
%ADD33RoundRect,0.135000X-0.185000X0.135000X-0.185000X-0.135000X0.185000X-0.135000X0.185000X0.135000X0*%
G04 APERTURE END LIST*
D10*
X91765723Y-67248935D02*
X91765723Y-66867982D01*
X91994295Y-67325125D02*
X91194295Y-67058458D01*
X91194295Y-67058458D02*
X91994295Y-66791792D01*
X91994295Y-66525125D02*
X91194295Y-66525125D01*
X91194295Y-66525125D02*
X91994295Y-66067982D01*
X91994295Y-66067982D02*
X91194295Y-66067982D01*
X91194295Y-65801316D02*
X91194295Y-65344173D01*
X91994295Y-65572745D02*
X91194295Y-65572745D01*
X88100000Y-62387500D02*
X94350000Y-62387500D01*
X94350000Y-68862500D01*
X88100000Y-68862500D01*
X88100000Y-62387500D01*
X78558207Y-67107390D02*
X78482017Y-67069295D01*
X78482017Y-67069295D02*
X78367731Y-67069295D01*
X78367731Y-67069295D02*
X78253445Y-67107390D01*
X78253445Y-67107390D02*
X78177255Y-67183580D01*
X78177255Y-67183580D02*
X78139160Y-67259771D01*
X78139160Y-67259771D02*
X78101064Y-67412152D01*
X78101064Y-67412152D02*
X78101064Y-67526438D01*
X78101064Y-67526438D02*
X78139160Y-67678819D01*
X78139160Y-67678819D02*
X78177255Y-67755009D01*
X78177255Y-67755009D02*
X78253445Y-67831200D01*
X78253445Y-67831200D02*
X78367731Y-67869295D01*
X78367731Y-67869295D02*
X78443922Y-67869295D01*
X78443922Y-67869295D02*
X78558207Y-67831200D01*
X78558207Y-67831200D02*
X78596303Y-67793104D01*
X78596303Y-67793104D02*
X78596303Y-67526438D01*
X78596303Y-67526438D02*
X78443922Y-67526438D01*
X78939160Y-67869295D02*
X78939160Y-67069295D01*
X78939160Y-67069295D02*
X79396303Y-67869295D01*
X79396303Y-67869295D02*
X79396303Y-67069295D01*
X79777255Y-67869295D02*
X79777255Y-67069295D01*
X79777255Y-67069295D02*
X79967731Y-67069295D01*
X79967731Y-67069295D02*
X80082017Y-67107390D01*
X80082017Y-67107390D02*
X80158207Y-67183580D01*
X80158207Y-67183580D02*
X80196302Y-67259771D01*
X80196302Y-67259771D02*
X80234398Y-67412152D01*
X80234398Y-67412152D02*
X80234398Y-67526438D01*
X80234398Y-67526438D02*
X80196302Y-67678819D01*
X80196302Y-67678819D02*
X80158207Y-67755009D01*
X80158207Y-67755009D02*
X80082017Y-67831200D01*
X80082017Y-67831200D02*
X79967731Y-67869295D01*
X79967731Y-67869295D02*
X79777255Y-67869295D01*
X78410826Y-63610247D02*
X78525112Y-63648342D01*
X78525112Y-63648342D02*
X78563207Y-63686438D01*
X78563207Y-63686438D02*
X78601303Y-63762628D01*
X78601303Y-63762628D02*
X78601303Y-63876914D01*
X78601303Y-63876914D02*
X78563207Y-63953104D01*
X78563207Y-63953104D02*
X78525112Y-63991200D01*
X78525112Y-63991200D02*
X78448922Y-64029295D01*
X78448922Y-64029295D02*
X78144160Y-64029295D01*
X78144160Y-64029295D02*
X78144160Y-63229295D01*
X78144160Y-63229295D02*
X78410826Y-63229295D01*
X78410826Y-63229295D02*
X78487017Y-63267390D01*
X78487017Y-63267390D02*
X78525112Y-63305485D01*
X78525112Y-63305485D02*
X78563207Y-63381676D01*
X78563207Y-63381676D02*
X78563207Y-63457866D01*
X78563207Y-63457866D02*
X78525112Y-63534057D01*
X78525112Y-63534057D02*
X78487017Y-63572152D01*
X78487017Y-63572152D02*
X78410826Y-63610247D01*
X78410826Y-63610247D02*
X78144160Y-63610247D01*
X78944160Y-63724533D02*
X79553684Y-63724533D01*
X79248922Y-64029295D02*
X79248922Y-63419771D01*
X78314160Y-53375247D02*
X78580826Y-53375247D01*
X78695112Y-53794295D02*
X78314160Y-53794295D01*
X78314160Y-53794295D02*
X78314160Y-52994295D01*
X78314160Y-52994295D02*
X78695112Y-52994295D01*
X79037970Y-53489533D02*
X79647494Y-53489533D01*
X79342732Y-53794295D02*
X79342732Y-53184771D01*
X78314160Y-52025247D02*
X78580826Y-52025247D01*
X78695112Y-52444295D02*
X78314160Y-52444295D01*
X78314160Y-52444295D02*
X78314160Y-51644295D01*
X78314160Y-51644295D02*
X78695112Y-51644295D01*
X79037970Y-52139533D02*
X79647494Y-52139533D01*
X80538095Y-61804819D02*
X80538095Y-62614342D01*
X80538095Y-62614342D02*
X80585714Y-62709580D01*
X80585714Y-62709580D02*
X80633333Y-62757200D01*
X80633333Y-62757200D02*
X80728571Y-62804819D01*
X80728571Y-62804819D02*
X80919047Y-62804819D01*
X80919047Y-62804819D02*
X81014285Y-62757200D01*
X81014285Y-62757200D02*
X81061904Y-62709580D01*
X81061904Y-62709580D02*
X81109523Y-62614342D01*
X81109523Y-62614342D02*
X81109523Y-61804819D01*
X82014285Y-62138152D02*
X82014285Y-62804819D01*
X81776190Y-61757200D02*
X81538095Y-62471485D01*
X81538095Y-62471485D02*
X82157142Y-62471485D01*
X84563095Y-61329819D02*
X84563095Y-62139342D01*
X84563095Y-62139342D02*
X84610714Y-62234580D01*
X84610714Y-62234580D02*
X84658333Y-62282200D01*
X84658333Y-62282200D02*
X84753571Y-62329819D01*
X84753571Y-62329819D02*
X84944047Y-62329819D01*
X84944047Y-62329819D02*
X85039285Y-62282200D01*
X85039285Y-62282200D02*
X85086904Y-62234580D01*
X85086904Y-62234580D02*
X85134523Y-62139342D01*
X85134523Y-62139342D02*
X85134523Y-61329819D01*
X86086904Y-61329819D02*
X85610714Y-61329819D01*
X85610714Y-61329819D02*
X85563095Y-61806009D01*
X85563095Y-61806009D02*
X85610714Y-61758390D01*
X85610714Y-61758390D02*
X85705952Y-61710771D01*
X85705952Y-61710771D02*
X85944047Y-61710771D01*
X85944047Y-61710771D02*
X86039285Y-61758390D01*
X86039285Y-61758390D02*
X86086904Y-61806009D01*
X86086904Y-61806009D02*
X86134523Y-61901247D01*
X86134523Y-61901247D02*
X86134523Y-62139342D01*
X86134523Y-62139342D02*
X86086904Y-62234580D01*
X86086904Y-62234580D02*
X86039285Y-62282200D01*
X86039285Y-62282200D02*
X85944047Y-62329819D01*
X85944047Y-62329819D02*
X85705952Y-62329819D01*
X85705952Y-62329819D02*
X85610714Y-62282200D01*
X85610714Y-62282200D02*
X85563095Y-62234580D01*
X81825000Y-53604819D02*
X81825000Y-53842914D01*
X81586905Y-53747676D02*
X81825000Y-53842914D01*
X81825000Y-53842914D02*
X82063095Y-53747676D01*
X81682143Y-54033390D02*
X81825000Y-53842914D01*
X81825000Y-53842914D02*
X81967857Y-54033390D01*
D11*
%TO.C,J2*%
X75180000Y-56150000D02*
G75*
G03*
X75180000Y-56150000I-100000J0D01*
G01*
D12*
X78885000Y-59120000D02*
X78885000Y-59980000D01*
X75075000Y-59980000D02*
X75075000Y-59120000D01*
D11*
%TO.C,AE1*%
X92000000Y-64062500D02*
G75*
G03*
X92000000Y-64062500I-100000J0D01*
G01*
D12*
X92500000Y-65682500D02*
X92500000Y-67642500D01*
X94100000Y-65682500D02*
X94100000Y-67642500D01*
D13*
%TO.C,C11*%
X83407836Y-67360000D02*
X83192164Y-67360000D01*
X83407836Y-66640000D02*
X83192164Y-66640000D01*
%TO.C,R18*%
X85846359Y-64870000D02*
X86153641Y-64870000D01*
X85846359Y-65630000D02*
X86153641Y-65630000D01*
%TO.C,C17*%
X90107836Y-56040000D02*
X89892164Y-56040000D01*
X90107836Y-56760000D02*
X89892164Y-56760000D01*
%TO.C,U4*%
X81362500Y-66360000D02*
X83162500Y-66360000D01*
X81362500Y-66360000D02*
X80562500Y-66360000D01*
X81362500Y-63240000D02*
X82162500Y-63240000D01*
X81362500Y-63240000D02*
X80562500Y-63240000D01*
%TO.C,C14*%
X81660000Y-59887836D02*
X81660000Y-59672164D01*
X80940000Y-59887836D02*
X80940000Y-59672164D01*
%TO.C,J1*%
X77830000Y-53020000D02*
X77830000Y-55620000D01*
X75170000Y-55620000D02*
X77830000Y-55620000D01*
X75170000Y-53020000D02*
X77830000Y-53020000D01*
X75170000Y-53020000D02*
X75170000Y-55620000D01*
X75170000Y-51750000D02*
X75170000Y-50420000D01*
X75170000Y-50420000D02*
X76500000Y-50420000D01*
D11*
%TO.C,Y1*%
X89453999Y-53254001D02*
G75*
G03*
X89453999Y-53254001I-100000J0D01*
G01*
D13*
%TO.C,C13*%
X88638999Y-52691165D02*
X88638999Y-52906837D01*
X87918999Y-52691165D02*
X87918999Y-52906837D01*
%TO.C,C12*%
X80432836Y-56010000D02*
X80217164Y-56010000D01*
X80432836Y-55290000D02*
X80217164Y-55290000D01*
%TO.C,C18*%
X92518999Y-52906837D02*
X92518999Y-52691165D01*
X93238999Y-52906837D02*
X93238999Y-52691165D01*
%TO.C,C19*%
X82490580Y-53460000D02*
X82209420Y-53460000D01*
X82490580Y-52440000D02*
X82209420Y-52440000D01*
%TO.C,C16*%
X89588999Y-52691165D02*
X89588999Y-52906837D01*
X88868999Y-52691165D02*
X88868999Y-52906837D01*
%TO.C,C20*%
X80465580Y-54960000D02*
X80184420Y-54960000D01*
X80465580Y-53940000D02*
X80184420Y-53940000D01*
%TO.C,C15*%
X92940000Y-59927836D02*
X92940000Y-59712164D01*
X93660000Y-59927836D02*
X93660000Y-59712164D01*
%TO.C,D1*%
X84227500Y-66565000D02*
X84227500Y-68035000D01*
X84227500Y-68035000D02*
X86512500Y-68035000D01*
X86512500Y-66565000D02*
X84227500Y-66565000D01*
%TO.C,BT1*%
X75195000Y-66070000D02*
X75195000Y-68670000D01*
X75195000Y-66070000D02*
X77855000Y-66070000D01*
X75195000Y-68670000D02*
X77855000Y-68670000D01*
X76525000Y-63470000D02*
X77855000Y-63470000D01*
X77855000Y-63470000D02*
X77855000Y-64800000D01*
X77855000Y-66070000D02*
X77855000Y-68670000D01*
%TO.C,C10*%
X78440000Y-65387836D02*
X78440000Y-65172164D01*
X79160000Y-65387836D02*
X79160000Y-65172164D01*
D14*
%TO.C,U5*%
X82254800Y-54225801D02*
X82254800Y-54715660D01*
X82254800Y-59984342D02*
X82254800Y-60474201D01*
X82254800Y-60474201D02*
X82744659Y-60474201D01*
X82744659Y-54225801D02*
X82254800Y-54225801D01*
X88013341Y-60474201D02*
X88503200Y-60474201D01*
X88503200Y-54225801D02*
X88013341Y-54225801D01*
X88503200Y-54715660D02*
X88503200Y-54225801D01*
X88503200Y-60474201D02*
X88503200Y-59984342D01*
G36*
X81823000Y-58940501D02*
G01*
X81569000Y-58940501D01*
X81569000Y-58559501D01*
X81823000Y-58559501D01*
X81823000Y-58940501D01*
G37*
G36*
X86169499Y-61160001D02*
G01*
X85788499Y-61160001D01*
X85788499Y-60906001D01*
X86169499Y-60906001D01*
X86169499Y-61160001D01*
G37*
G36*
X86569501Y-53794001D02*
G01*
X86188501Y-53794001D01*
X86188501Y-53540001D01*
X86569501Y-53540001D01*
X86569501Y-53794001D01*
G37*
G36*
X89189000Y-57740501D02*
G01*
X88935000Y-57740501D01*
X88935000Y-57359501D01*
X89189000Y-57359501D01*
X89189000Y-57740501D01*
G37*
D13*
%TO.C,R20*%
X81705000Y-57528641D02*
X81705000Y-57221359D01*
X80945000Y-57528641D02*
X80945000Y-57221359D01*
%TO.C,R13*%
X92320000Y-57146359D02*
X92320000Y-57453641D01*
X93080000Y-57146359D02*
X93080000Y-57453641D01*
%TD*%
%LPC*%
D15*
%TO.C,J2*%
X78250000Y-61500000D03*
X78250000Y-57600000D03*
X76980000Y-61500000D03*
X76980000Y-57600000D03*
X75710000Y-61500000D03*
X75710000Y-57600000D03*
%TD*%
D16*
%TO.C,AE1*%
X93300000Y-68362500D03*
X93300000Y-64962500D03*
%TD*%
D17*
%TO.C,C11*%
X83780000Y-67000000D03*
X82820000Y-67000000D03*
%TD*%
D18*
%TO.C,R18*%
X85490000Y-65250000D03*
X86510000Y-65250000D03*
%TD*%
D17*
%TO.C,C17*%
X89520000Y-56400000D03*
X90480000Y-56400000D03*
%TD*%
D19*
%TO.C,L2*%
X93300000Y-62262500D03*
X93300000Y-63232500D03*
%TD*%
D20*
%TO.C,U4*%
X82500000Y-65750000D03*
X82500000Y-64800000D03*
X82500000Y-63850000D03*
X80225000Y-63850000D03*
X80225000Y-65750000D03*
%TD*%
D21*
%TO.C,C14*%
X81300000Y-59300000D03*
X81300000Y-60260000D03*
%TD*%
D22*
%TO.C,J1*%
X76500000Y-54290000D03*
D23*
X76500000Y-51750000D03*
%TD*%
D24*
%TO.C,Y1*%
X90378999Y-52279001D03*
X91728999Y-52279001D03*
X91728999Y-53329001D03*
X90378999Y-53329001D03*
%TD*%
D25*
%TO.C,C13*%
X88278999Y-52319001D03*
X88278999Y-53279001D03*
%TD*%
D17*
%TO.C,C12*%
X80805000Y-55650000D03*
X79845000Y-55650000D03*
%TD*%
D26*
%TO.C,L3*%
X92330000Y-61250000D03*
X93300000Y-61250000D03*
%TD*%
D21*
%TO.C,C18*%
X92878999Y-53279001D03*
X92878999Y-52319001D03*
%TD*%
D27*
%TO.C,C19*%
X83125000Y-52950000D03*
X81575000Y-52950000D03*
%TD*%
D25*
%TO.C,C16*%
X89228999Y-52319001D03*
X89228999Y-53279001D03*
%TD*%
D27*
%TO.C,C20*%
X81100000Y-54450000D03*
X79550000Y-54450000D03*
%TD*%
D21*
%TO.C,C15*%
X93300000Y-60300000D03*
X93300000Y-59340000D03*
%TD*%
D28*
%TO.C,D1*%
X84925000Y-67300000D03*
X86500000Y-67300000D03*
%TD*%
D23*
%TO.C,BT1*%
X76525000Y-64800000D03*
D22*
X76525000Y-67340000D03*
%TD*%
D21*
%TO.C,C10*%
X78800000Y-65760000D03*
X78800000Y-64800000D03*
%TD*%
D29*
%TO.C,U5*%
X82458000Y-55150000D03*
X82458000Y-55550002D03*
X82458000Y-55950001D03*
X82458000Y-56350000D03*
X82458000Y-56750002D03*
X82458000Y-57150001D03*
X82458000Y-57550001D03*
X82458000Y-57950000D03*
X82458000Y-58350002D03*
X82458000Y-58750001D03*
X82458000Y-59150000D03*
X82458000Y-59550002D03*
D30*
X83178999Y-60271001D03*
X83579001Y-60271001D03*
X83979000Y-60271001D03*
X84378999Y-60271001D03*
X84779001Y-60271001D03*
X85179000Y-60271001D03*
X85579000Y-60271001D03*
X85978999Y-60271001D03*
X86379001Y-60271001D03*
X86779000Y-60271001D03*
X87178999Y-60271001D03*
X87579001Y-60271001D03*
D29*
X88300000Y-59550002D03*
X88300000Y-59150000D03*
X88300000Y-58750001D03*
X88300000Y-58350002D03*
X88300000Y-57950000D03*
X88300000Y-57550001D03*
X88300000Y-57150001D03*
X88300000Y-56750002D03*
X88300000Y-56350000D03*
X88300000Y-55950001D03*
X88300000Y-55550002D03*
X88300000Y-55150000D03*
D30*
X87579001Y-54429001D03*
X87178999Y-54429001D03*
X86779000Y-54429001D03*
X86379001Y-54429001D03*
X85978999Y-54429001D03*
X85579000Y-54429001D03*
X85179000Y-54429001D03*
X84779001Y-54429001D03*
X84378999Y-54429001D03*
X83979000Y-54429001D03*
X83579001Y-54429001D03*
X83178999Y-54429001D03*
D31*
X85379000Y-57350001D03*
%TD*%
D32*
%TO.C,R20*%
X81325000Y-57885000D03*
X81325000Y-56865000D03*
%TD*%
D33*
%TO.C,R13*%
X92700000Y-56790000D03*
X92700000Y-57810000D03*
%TD*%
%LPD*%
M02*
