%TF.GenerationSoftware,KiCad,Pcbnew,7.0.9*%
%TF.CreationDate,2024-03-10T22:23:52-07:00*%
%TF.ProjectId,P2.0,50322e30-2e6b-4696-9361-645f70636258,rev?*%
%TF.SameCoordinates,Original*%
%TF.FileFunction,Copper,L4,Bot*%
%TF.FilePolarity,Positive*%
%FSLAX46Y46*%
G04 Gerber Fmt 4.6, Leading zero omitted, Abs format (unit mm)*
G04 Created by KiCad (PCBNEW 7.0.9) date 2024-03-10 22:23:52*
%MOMM*%
%LPD*%
G01*
G04 APERTURE LIST*
G04 Aperture macros list*
%AMRoundRect*
0 Rectangle with rounded corners*
0 $1 Rounding radius*
0 $2 $3 $4 $5 $6 $7 $8 $9 X,Y pos of 4 corners*
0 Add a 4 corners polygon primitive as box body*
4,1,4,$2,$3,$4,$5,$6,$7,$8,$9,$2,$3,0*
0 Add four circle primitives for the rounded corners*
1,1,$1+$1,$2,$3*
1,1,$1+$1,$4,$5*
1,1,$1+$1,$6,$7*
1,1,$1+$1,$8,$9*
0 Add four rect primitives between the rounded corners*
20,1,$1+$1,$2,$3,$4,$5,0*
20,1,$1+$1,$4,$5,$6,$7,0*
20,1,$1+$1,$6,$7,$8,$9,0*
20,1,$1+$1,$8,$9,$2,$3,0*%
G04 Aperture macros list end*
%TA.AperFunction,SMDPad,CuDef*%
%ADD10R,0.500000X0.250000*%
%TD*%
%TA.AperFunction,SMDPad,CuDef*%
%ADD11R,0.900000X1.600000*%
%TD*%
%TA.AperFunction,SMDPad,CuDef*%
%ADD12R,1.450000X2.400000*%
%TD*%
%TA.AperFunction,SMDPad,CuDef*%
%ADD13RoundRect,0.062500X-0.412500X-0.062500X0.412500X-0.062500X0.412500X0.062500X-0.412500X0.062500X0*%
%TD*%
%TA.AperFunction,SMDPad,CuDef*%
%ADD14R,1.000000X2.650000*%
%TD*%
%TA.AperFunction,ComponentPad*%
%ADD15O,1.700000X1.700000*%
%TD*%
%TA.AperFunction,ComponentPad*%
%ADD16R,1.700000X1.700000*%
%TD*%
%TA.AperFunction,SMDPad,CuDef*%
%ADD17RoundRect,0.140000X-0.170000X0.140000X-0.170000X-0.140000X0.170000X-0.140000X0.170000X0.140000X0*%
%TD*%
%TA.AperFunction,SMDPad,CuDef*%
%ADD18RoundRect,0.135000X-0.135000X-0.185000X0.135000X-0.185000X0.135000X0.185000X-0.135000X0.185000X0*%
%TD*%
%TA.AperFunction,SMDPad,CuDef*%
%ADD19RoundRect,0.135000X-0.185000X0.135000X-0.185000X-0.135000X0.185000X-0.135000X0.185000X0.135000X0*%
%TD*%
%TA.AperFunction,SMDPad,CuDef*%
%ADD20RoundRect,0.140000X0.140000X0.170000X-0.140000X0.170000X-0.140000X-0.170000X0.140000X-0.170000X0*%
%TD*%
%TA.AperFunction,SMDPad,CuDef*%
%ADD21RoundRect,0.140000X0.170000X-0.140000X0.170000X0.140000X-0.170000X0.140000X-0.170000X-0.140000X0*%
%TD*%
%TA.AperFunction,SMDPad,CuDef*%
%ADD22RoundRect,0.140000X-0.140000X-0.170000X0.140000X-0.170000X0.140000X0.170000X-0.140000X0.170000X0*%
%TD*%
%TA.AperFunction,SMDPad,CuDef*%
%ADD23RoundRect,0.135000X0.185000X-0.135000X0.185000X0.135000X-0.185000X0.135000X-0.185000X-0.135000X0*%
%TD*%
%TA.AperFunction,SMDPad,CuDef*%
%ADD24RoundRect,0.250000X0.475000X-0.250000X0.475000X0.250000X-0.475000X0.250000X-0.475000X-0.250000X0*%
%TD*%
%TA.AperFunction,SMDPad,CuDef*%
%ADD25RoundRect,0.218750X-0.218750X-0.256250X0.218750X-0.256250X0.218750X0.256250X-0.218750X0.256250X0*%
%TD*%
%TA.AperFunction,SMDPad,CuDef*%
%ADD26RoundRect,0.135000X0.135000X0.185000X-0.135000X0.185000X-0.135000X-0.185000X0.135000X-0.185000X0*%
%TD*%
%TA.AperFunction,ViaPad*%
%ADD27C,0.600000*%
%TD*%
%TA.AperFunction,ViaPad*%
%ADD28C,0.800000*%
%TD*%
%TA.AperFunction,Conductor*%
%ADD29C,0.300000*%
%TD*%
%TA.AperFunction,Conductor*%
%ADD30C,0.150000*%
%TD*%
%TA.AperFunction,Conductor*%
%ADD31C,0.200000*%
%TD*%
%TA.AperFunction,Conductor*%
%ADD32C,1.000000*%
%TD*%
%TA.AperFunction,Conductor*%
%ADD33C,0.500000*%
%TD*%
G04 APERTURE END LIST*
D10*
%TO.P,U2,1,OUT1*%
%TO.N,Net-(U2-OUT1)*%
X89400000Y-58300000D03*
%TO.P,U2,2,IN1-*%
%TO.N,Net-(U2-IN1-)*%
X89400000Y-57800000D03*
%TO.P,U2,3,IN1+*%
%TO.N,Net-(U2-IN1+)*%
X89400000Y-57300000D03*
%TO.P,U2,4,V-*%
%TO.N,-3V3*%
X89400000Y-56800000D03*
%TO.P,U2,5,IN2+*%
%TO.N,Net-(U2-IN2+)*%
X91300000Y-56800000D03*
%TO.P,U2,6,IN2-*%
%TO.N,Net-(U2-IN2-)*%
X91300000Y-57300000D03*
%TO.P,U2,7,OUT2*%
%TO.N,Net-(U2-OUT2)*%
X91300000Y-57800000D03*
%TO.P,U2,8,V+*%
%TO.N,+3V3*%
X91300000Y-58300000D03*
D11*
%TO.P,U2,9*%
%TO.N,-3V3*%
X90350000Y-57550000D03*
%TD*%
D12*
%TO.P,U1,9*%
%TO.N,-3V3*%
X83980000Y-55050000D03*
D13*
%TO.P,U1,8,+VS*%
%TO.N,+3V3*%
X85380000Y-55800000D03*
%TO.P,U1,7,OUT*%
%TO.N,Net-(U1-OUT)*%
X85380000Y-55300000D03*
%TO.P,U1,6,REF*%
%TO.N,GND*%
X85380000Y-54800000D03*
%TO.P,U1,5,-VS*%
%TO.N,-3V3*%
X85380000Y-54300000D03*
%TO.P,U1,4,+IN*%
%TO.N,/EEG-*%
X82580000Y-54300000D03*
%TO.P,U1,3,RG*%
%TO.N,Net-(R3-Pad2)*%
X82580000Y-54800000D03*
%TO.P,U1,2,RG*%
%TO.N,Net-(R3-Pad1)*%
X82580000Y-55300000D03*
%TO.P,U1,1,-IN*%
%TO.N,/EEG+*%
X82580000Y-55800000D03*
%TD*%
D10*
%TO.P,U3,1,OSEL*%
%TO.N,Net-(U3-OSEL)*%
X81200000Y-67000000D03*
%TO.P,U3,2,MODE*%
%TO.N,Net-(BT1-+)*%
X81200000Y-66500000D03*
%TO.P,U3,3,EN*%
X81200000Y-66000000D03*
%TO.P,U3,4,VIN*%
X81200000Y-65500000D03*
%TO.P,U3,5,SW*%
%TO.N,Net-(U3-SW)*%
X81200000Y-65000000D03*
%TO.P,U3,6,SUP*%
%TO.N,Net-(BT1-+)*%
X81200000Y-64500000D03*
%TO.P,U3,7,PGND*%
%TO.N,GND*%
X83100000Y-64500000D03*
%TO.P,U3,8,AGND*%
X83100000Y-65000000D03*
%TO.P,U3,9,VOUT*%
%TO.N,+3V3*%
X83100000Y-65500000D03*
%TO.P,U3,10,VOUT*%
X83100000Y-66000000D03*
%TO.P,U3,11,ICHG*%
%TO.N,GND*%
X83100000Y-66500000D03*
%TO.P,U3,12,VCHG*%
X83100000Y-67000000D03*
D14*
%TO.P,U3,13*%
X82150000Y-65750000D03*
%TD*%
D15*
%TO.P,J1,2,Pin_2*%
%TO.N,/EEG+*%
X76500000Y-54290000D03*
D16*
%TO.P,J1,1,Pin_1*%
%TO.N,/EEG-*%
X76500000Y-51750000D03*
%TD*%
%TO.P,BT1,1,+*%
%TO.N,Net-(BT1-+)*%
X76525000Y-64800000D03*
D15*
%TO.P,BT1,2,-*%
%TO.N,GND*%
X76525000Y-67340000D03*
%TD*%
D17*
%TO.P,C4,1*%
%TO.N,GND*%
X89850000Y-53840000D03*
%TO.P,C4,2*%
%TO.N,Net-(U2-IN2+)*%
X89850000Y-54800000D03*
%TD*%
D18*
%TO.P,R17,2*%
%TO.N,STAGE_3_OUT*%
X78500000Y-57200000D03*
%TO.P,R17,1*%
%TO.N,+3V3*%
X77480000Y-57200000D03*
%TD*%
D19*
%TO.P,R1,1*%
%TO.N,/EEG+*%
X81280000Y-55990000D03*
%TO.P,R1,2*%
%TO.N,GND*%
X81280000Y-57010000D03*
%TD*%
D20*
%TO.P,C24,1*%
%TO.N,GND*%
X90380000Y-55750000D03*
%TO.P,C24,2*%
%TO.N,-3V3*%
X89420000Y-55750000D03*
%TD*%
D21*
%TO.P,C26,1*%
%TO.N,GND*%
X86600000Y-66700000D03*
%TO.P,C26,2*%
%TO.N,+3V3*%
X86600000Y-65740000D03*
%TD*%
D22*
%TO.P,C5,2*%
%TO.N,Net-(C3-Pad2)*%
X92230000Y-52700000D03*
%TO.P,C5,1*%
%TO.N,Net-(C5-Pad1)*%
X91270000Y-52700000D03*
%TD*%
D19*
%TO.P,R5,2*%
%TO.N,Net-(U2-IN1+)*%
X88250000Y-55720000D03*
%TO.P,R5,1*%
%TO.N,Net-(C1-Pad2)*%
X88250000Y-54700000D03*
%TD*%
D21*
%TO.P,C25,1*%
%TO.N,GND*%
X91300000Y-60230000D03*
%TO.P,C25,2*%
%TO.N,+3V3*%
X91300000Y-59270000D03*
%TD*%
D23*
%TO.P,R2,1*%
%TO.N,/EEG-*%
X81280000Y-54110000D03*
%TO.P,R2,2*%
%TO.N,GND*%
X81280000Y-53090000D03*
%TD*%
D21*
%TO.P,C8,1*%
%TO.N,GND*%
X79600000Y-67060000D03*
%TO.P,C8,2*%
%TO.N,Net-(BT1-+)*%
X79600000Y-66100000D03*
%TD*%
D22*
%TO.P,C23,1*%
%TO.N,GND*%
X84420000Y-52800000D03*
%TO.P,C23,2*%
%TO.N,-3V3*%
X85380000Y-52800000D03*
%TD*%
D21*
%TO.P,C1,2*%
%TO.N,Net-(C1-Pad2)*%
X87300000Y-54700000D03*
%TO.P,C1,1*%
%TO.N,Net-(U1-OUT)*%
X87300000Y-55660000D03*
%TD*%
%TO.P,C7,1*%
%TO.N,Net-(C7-Pad1)*%
X79550000Y-60110000D03*
%TO.P,C7,2*%
%TO.N,STAGE_3_OUT*%
X79550000Y-59150000D03*
%TD*%
D24*
%TO.P,C9,1*%
%TO.N,GND*%
X85100000Y-67200000D03*
%TO.P,C9,2*%
%TO.N,+3V3*%
X85100000Y-65300000D03*
%TD*%
D18*
%TO.P,R14,1*%
%TO.N,Net-(C3-Pad2)*%
X78490000Y-61450000D03*
%TO.P,R14,2*%
%TO.N,Net-(C7-Pad1)*%
X79510000Y-61450000D03*
%TD*%
D25*
%TO.P,L1,2,2*%
%TO.N,Net-(U3-SW)*%
X79987500Y-64700000D03*
%TO.P,L1,1,1*%
%TO.N,Net-(BT1-+)*%
X78412500Y-64700000D03*
%TD*%
D26*
%TO.P,R10,2*%
%TO.N,Net-(C5-Pad1)*%
X86280000Y-60300000D03*
%TO.P,R10,1*%
%TO.N,Net-(C2-Pad2)*%
X87300000Y-60300000D03*
%TD*%
D19*
%TO.P,R11,1*%
%TO.N,Net-(C5-Pad1)*%
X90800000Y-53790000D03*
%TO.P,R11,2*%
%TO.N,Net-(U2-IN2+)*%
X90800000Y-54810000D03*
%TD*%
D26*
%TO.P,R16,1*%
%TO.N,STAGE_3_OUT*%
X78500000Y-58190000D03*
%TO.P,R16,2*%
%TO.N,GND*%
X77480000Y-58190000D03*
%TD*%
%TO.P,R8,1*%
%TO.N,Net-(C3-Pad2)*%
X92260000Y-51750000D03*
%TO.P,R8,2*%
%TO.N,GND*%
X91240000Y-51750000D03*
%TD*%
D22*
%TO.P,C22,1*%
%TO.N,GND*%
X84420000Y-57300000D03*
%TO.P,C22,2*%
%TO.N,+3V3*%
X85380000Y-57300000D03*
%TD*%
D17*
%TO.P,C6,1*%
%TO.N,Net-(U2-IN2-)*%
X92875000Y-56295000D03*
%TO.P,C6,2*%
%TO.N,Net-(C3-Pad2)*%
X92875000Y-57255000D03*
%TD*%
D21*
%TO.P,C3,1*%
%TO.N,Net-(U2-OUT2)*%
X92875000Y-59105000D03*
%TO.P,C3,2*%
%TO.N,Net-(C3-Pad2)*%
X92875000Y-58145000D03*
%TD*%
D23*
%TO.P,R4,1*%
%TO.N,Net-(C1-Pad2)*%
X88250000Y-53810000D03*
%TO.P,R4,2*%
%TO.N,GND*%
X88250000Y-52790000D03*
%TD*%
%TO.P,R3,1*%
%TO.N,Net-(R3-Pad1)*%
X80080000Y-55570000D03*
%TO.P,R3,2*%
%TO.N,Net-(R3-Pad2)*%
X80080000Y-54550000D03*
%TD*%
%TO.P,R6,1*%
%TO.N,Net-(U2-OUT1)*%
X88200000Y-58660000D03*
%TO.P,R6,2*%
%TO.N,Net-(U2-IN1-)*%
X88200000Y-57640000D03*
%TD*%
D20*
%TO.P,C2,2*%
%TO.N,Net-(C2-Pad2)*%
X88170000Y-60300000D03*
%TO.P,C2,1*%
%TO.N,Net-(U2-OUT1)*%
X89130000Y-60300000D03*
%TD*%
D18*
%TO.P,R19,1*%
%TO.N,Net-(U3-OSEL)*%
X81090000Y-68000000D03*
%TO.P,R19,2*%
%TO.N,GND*%
X82110000Y-68000000D03*
%TD*%
D26*
%TO.P,R9,2*%
%TO.N,GND*%
X86280000Y-59300000D03*
%TO.P,R9,1*%
%TO.N,Net-(C2-Pad2)*%
X87300000Y-59300000D03*
%TD*%
%TO.P,R7,1*%
%TO.N,Net-(U2-IN1-)*%
X87260000Y-57650000D03*
%TO.P,R7,2*%
%TO.N,GND*%
X86240000Y-57650000D03*
%TD*%
D19*
%TO.P,R12,1*%
%TO.N,GND*%
X91750000Y-53640000D03*
%TO.P,R12,2*%
%TO.N,Net-(U2-IN2-)*%
X91750000Y-54660000D03*
%TD*%
D27*
%TO.N,GND*%
X91200000Y-55800000D03*
X80400000Y-58700000D03*
%TO.N,+3V3*%
X80400000Y-59500000D03*
%TO.N,Net-(C5-Pad1)*%
X86500000Y-61300000D03*
%TO.N,+3V3*%
X90200000Y-60100000D03*
%TO.N,GND*%
X93900000Y-58600000D03*
%TO.N,Net-(C3-Pad2)*%
X93900000Y-57800000D03*
%TO.N,+3V3*%
X77950000Y-55750000D03*
X77050000Y-55750000D03*
%TO.N,GND*%
X79350000Y-56700000D03*
%TO.N,-3V3*%
X75400000Y-59400000D03*
%TO.N,Net-(U2-IN2-)*%
X92700000Y-55500000D03*
%TO.N,GND*%
X92350000Y-50850000D03*
%TO.N,Net-(C5-Pad1)*%
X87200000Y-50900000D03*
%TO.N,-3V3*%
X89050000Y-54200000D03*
%TO.N,GND*%
X89800000Y-51400000D03*
X86200000Y-51050000D03*
X83700000Y-51050000D03*
X81200000Y-51050000D03*
X79100000Y-51050000D03*
X83300000Y-68500000D03*
X83300000Y-67800000D03*
X83100000Y-63050000D03*
X83500000Y-61400000D03*
%TO.N,+3V3*%
X84300000Y-61400000D03*
%TO.N,GND*%
X85300000Y-61400000D03*
%TO.N,-3V3*%
X85400000Y-51900000D03*
%TO.N,GND*%
X78800000Y-63200000D03*
%TO.N,STAGE_3_OUT*%
X80400000Y-57025000D03*
X80400000Y-57875000D03*
%TO.N,GND*%
X79100000Y-53250000D03*
X86650000Y-53400000D03*
D28*
X91000000Y-61700000D03*
D27*
X87450000Y-52300000D03*
X83850000Y-65000000D03*
X88300000Y-50900000D03*
X77900000Y-59400000D03*
X90350000Y-50900000D03*
X92850000Y-54100000D03*
X84400000Y-51900000D03*
X89250000Y-50900000D03*
X76800000Y-63200000D03*
X84100000Y-68500000D03*
X80450000Y-51950000D03*
X86600000Y-68500000D03*
%TO.N,+3V3*%
X83900000Y-64000000D03*
X87450000Y-53300000D03*
X85200000Y-64000000D03*
X80250000Y-53250000D03*
%TO.N,-3V3*%
X80200000Y-68300000D03*
X78700000Y-68300000D03*
%TD*%
D29*
%TO.N,GND*%
X91150000Y-55750000D02*
X91200000Y-55800000D01*
X90380000Y-55750000D02*
X91150000Y-55750000D01*
D30*
%TO.N,Net-(U2-IN2+)*%
X91505000Y-55205000D02*
X91195000Y-55205000D01*
X91775000Y-55475000D02*
X91505000Y-55205000D01*
X91775000Y-56325000D02*
X91775000Y-55475000D01*
X91300000Y-56800000D02*
X91775000Y-56325000D01*
X91195000Y-55205000D02*
X90800000Y-54810000D01*
D31*
%TO.N,Net-(U2-IN1+)*%
X88250000Y-56625000D02*
X88250000Y-55720000D01*
X88925000Y-57300000D02*
X88250000Y-56625000D01*
X89400000Y-57300000D02*
X88925000Y-57300000D01*
D29*
%TO.N,Net-(C3-Pad2)*%
X92269239Y-49850000D02*
X93100000Y-50680761D01*
X93100000Y-50680761D02*
X93100000Y-51400000D01*
X75300000Y-50550000D02*
X76000000Y-49850000D01*
X76000000Y-49850000D02*
X92269239Y-49850000D01*
X75300000Y-58260000D02*
X75300000Y-50550000D01*
X78490000Y-61450000D02*
X75300000Y-58260000D01*
%TO.N,Net-(C5-Pad1)*%
X86280000Y-61080000D02*
X86500000Y-61300000D01*
X86280000Y-60300000D02*
X86280000Y-61080000D01*
%TO.N,Net-(U2-OUT1)*%
X89400000Y-58300000D02*
X89400000Y-60030000D01*
X89400000Y-60030000D02*
X89130000Y-60300000D01*
%TO.N,Net-(U2-OUT2)*%
X92705000Y-59105000D02*
X92875000Y-59105000D01*
X92215000Y-58615000D02*
X92705000Y-59105000D01*
X91875000Y-57800000D02*
X92215000Y-58140000D01*
X91300000Y-57800000D02*
X91875000Y-57800000D01*
X92215000Y-58140000D02*
X92215000Y-58615000D01*
%TO.N,Net-(C3-Pad2)*%
X93420000Y-57800000D02*
X92875000Y-57255000D01*
X94100000Y-57800000D02*
X93420000Y-57800000D01*
%TO.N,+3V3*%
X91030000Y-59270000D02*
X90200000Y-60100000D01*
X91300000Y-59270000D02*
X91030000Y-59270000D01*
X84300000Y-58689999D02*
X84300000Y-61400000D01*
X85380000Y-57609999D02*
X84300000Y-58689999D01*
X85380000Y-57300000D02*
X85380000Y-57609999D01*
%TO.N,Net-(C1-Pad2)*%
X88250000Y-54700000D02*
X87300000Y-54700000D01*
%TO.N,Net-(C2-Pad2)*%
X87300000Y-60300000D02*
X88170000Y-60300000D01*
X87300000Y-59300000D02*
X87300000Y-60300000D01*
%TO.N,Net-(C3-Pad2)*%
X92750000Y-51750000D02*
X93100000Y-51400000D01*
X92260000Y-51750000D02*
X92750000Y-51750000D01*
%TO.N,GND*%
X83100000Y-64500000D02*
X83100000Y-63050000D01*
%TO.N,+3V3*%
X78100000Y-55750000D02*
X77950000Y-55900000D01*
X77950000Y-55750000D02*
X78100000Y-55750000D01*
X77950000Y-55900000D02*
X77950000Y-55750000D01*
X77480000Y-56370000D02*
X77950000Y-55900000D01*
X77480000Y-57200000D02*
X77480000Y-56370000D01*
%TO.N,-3V3*%
X89050000Y-55380000D02*
X89420000Y-55750000D01*
X89050000Y-54200000D02*
X89050000Y-55380000D01*
%TO.N,GND*%
X87940000Y-52790000D02*
X87450000Y-52300000D01*
X88250000Y-52790000D02*
X87940000Y-52790000D01*
X89850000Y-53840000D02*
X88800000Y-52790000D01*
X88800000Y-52790000D02*
X88250000Y-52790000D01*
%TO.N,Net-(C1-Pad2)*%
X88250000Y-54700000D02*
X88250000Y-53810000D01*
%TO.N,Net-(U2-IN2+)*%
X89850000Y-54800000D02*
X90790000Y-54800000D01*
X90790000Y-54800000D02*
X90800000Y-54810000D01*
%TO.N,Net-(C7-Pad1)*%
X79540000Y-61450000D02*
X79540000Y-60120000D01*
X79540000Y-60120000D02*
X79550000Y-60110000D01*
%TO.N,Net-(U2-IN1-)*%
X88150000Y-57640000D02*
X87270000Y-57640000D01*
X87270000Y-57640000D02*
X87260000Y-57650000D01*
X88310000Y-57800000D02*
X89400000Y-57800000D01*
X88150000Y-57640000D02*
X88310000Y-57800000D01*
%TO.N,Net-(U2-OUT1)*%
X88510000Y-58300000D02*
X88150000Y-58660000D01*
X89400000Y-58300000D02*
X88510000Y-58300000D01*
%TO.N,Net-(C5-Pad1)*%
X87900000Y-51600000D02*
X87200000Y-50900000D01*
X88616846Y-51600000D02*
X87900000Y-51600000D01*
X91270000Y-52700000D02*
X89716846Y-52700000D01*
X89716846Y-52700000D02*
X88616846Y-51600000D01*
X90800000Y-53170000D02*
X90800000Y-53790000D01*
X91270000Y-52700000D02*
X90800000Y-53170000D01*
%TO.N,Net-(C3-Pad2)*%
X92260000Y-52670000D02*
X92230000Y-52700000D01*
X92260000Y-51750000D02*
X92260000Y-52670000D01*
D30*
X93460000Y-56670000D02*
X92875000Y-57255000D01*
X93460000Y-53650001D02*
X93460000Y-56670000D01*
X92509999Y-52700000D02*
X93460000Y-53650001D01*
X92230000Y-52700000D02*
X92509999Y-52700000D01*
D29*
X92875000Y-58145000D02*
X92875000Y-57255000D01*
%TO.N,Net-(U2-IN2-)*%
X92079239Y-54660000D02*
X91750000Y-54660000D01*
X92700000Y-55280761D02*
X92079239Y-54660000D01*
X92700000Y-55500000D02*
X92700000Y-55280761D01*
X92700000Y-55500000D02*
X92700000Y-56120000D01*
X92700000Y-56120000D02*
X92875000Y-56295000D01*
%TO.N,GND*%
X81280000Y-52780000D02*
X80450000Y-51950000D01*
X81280000Y-53090000D02*
X81280000Y-52780000D01*
X77480000Y-58190000D02*
X77900000Y-58610000D01*
X77900000Y-58610000D02*
X77900000Y-59400000D01*
X82800000Y-68000000D02*
X83300000Y-68500000D01*
X82110000Y-68000000D02*
X82800000Y-68000000D01*
X83100000Y-67600000D02*
X83300000Y-67800000D01*
X83100000Y-67000000D02*
X83100000Y-67600000D01*
%TO.N,+3V3*%
X91300000Y-59270000D02*
X91300000Y-58300000D01*
%TO.N,-3V3*%
X85380000Y-51920000D02*
X85400000Y-51900000D01*
X85380000Y-52800000D02*
X85380000Y-51920000D01*
D31*
X89875000Y-56800000D02*
X89400000Y-56800000D01*
X90350000Y-57275000D02*
X89875000Y-56800000D01*
X90350000Y-57550000D02*
X90350000Y-57275000D01*
D30*
%TO.N,Net-(U2-IN2-)*%
X92875000Y-56354220D02*
X91929220Y-57300000D01*
X91929220Y-57300000D02*
X91300000Y-57300000D01*
X92875000Y-56295000D02*
X92875000Y-56354220D01*
D31*
%TO.N,/EEG-*%
X82505000Y-54375000D02*
X82580000Y-54300000D01*
X82015614Y-54375000D02*
X82505000Y-54375000D01*
%TO.N,/EEG+*%
X82505000Y-55725000D02*
X82580000Y-55800000D01*
%TO.N,/EEG-*%
X81280000Y-54110000D02*
X81570000Y-54400000D01*
%TO.N,/EEG+*%
X82015614Y-55725000D02*
X82505000Y-55725000D01*
X81990614Y-55700000D02*
X82015614Y-55725000D01*
X81570000Y-55700000D02*
X81990614Y-55700000D01*
%TO.N,/EEG-*%
X81990614Y-54400000D02*
X82015614Y-54375000D01*
X81570000Y-54400000D02*
X81990614Y-54400000D01*
%TO.N,/EEG+*%
X81280000Y-55990000D02*
X81570000Y-55700000D01*
%TO.N,/EEG-*%
X80799999Y-54110000D02*
X81280000Y-54110000D01*
X80669999Y-53980000D02*
X80799999Y-54110000D01*
X79711076Y-53980000D02*
X80669999Y-53980000D01*
X79460000Y-54231076D02*
X79711076Y-53980000D01*
X79460000Y-54710000D02*
X79460000Y-54231076D01*
%TO.N,/EEG+*%
X80799999Y-55990000D02*
X81280000Y-55990000D01*
%TO.N,/EEG-*%
X76500000Y-51750000D02*
X79460000Y-54710000D01*
%TO.N,/EEG+*%
X80649999Y-56140000D02*
X80799999Y-55990000D01*
X78403603Y-54290000D02*
X79388603Y-55275000D01*
X79388603Y-55817527D02*
X79711076Y-56140000D01*
X79711076Y-56140000D02*
X80649999Y-56140000D01*
X76500000Y-54290000D02*
X78403603Y-54290000D01*
X79388603Y-55275000D02*
X79388603Y-55817527D01*
%TO.N,Net-(R3-Pad1)*%
X80350000Y-55300000D02*
X80080000Y-55570000D01*
X82580000Y-55300000D02*
X80350000Y-55300000D01*
%TO.N,Net-(R3-Pad2)*%
X80330000Y-54800000D02*
X80080000Y-54550000D01*
X82580000Y-54800000D02*
X80330000Y-54800000D01*
D29*
%TO.N,-3V3*%
X84730000Y-54300000D02*
X83980000Y-55050000D01*
X85380000Y-54300000D02*
X84730000Y-54300000D01*
D31*
X89400000Y-55770000D02*
X89420000Y-55750000D01*
X89400000Y-56800000D02*
X89400000Y-55770000D01*
D29*
%TO.N,Net-(BT1-+)*%
X77825000Y-66100000D02*
X76525000Y-64800000D01*
X79600000Y-66100000D02*
X77825000Y-66100000D01*
%TO.N,GND*%
X79600000Y-67060000D02*
X79110000Y-67550000D01*
X79110000Y-67550000D02*
X76735000Y-67550000D01*
X76735000Y-67550000D02*
X76525000Y-67340000D01*
%TO.N,Net-(BT1-+)*%
X77250000Y-65525000D02*
X76525000Y-64800000D01*
X81175000Y-65525000D02*
X77250000Y-65525000D01*
X81200000Y-65500000D02*
X81175000Y-65525000D01*
X81200000Y-66500000D02*
X81200000Y-65500000D01*
X77450000Y-63875000D02*
X76525000Y-64800000D01*
X80575000Y-63875000D02*
X77450000Y-63875000D01*
X81200000Y-64500000D02*
X80575000Y-63875000D01*
%TO.N,Net-(U1-OUT)*%
X86940000Y-55300000D02*
X87300000Y-55660000D01*
X85380000Y-55300000D02*
X86940000Y-55300000D01*
%TO.N,GND*%
X84420000Y-51920000D02*
X84400000Y-51900000D01*
X84420000Y-52800000D02*
X84420000Y-51920000D01*
X86650000Y-54090096D02*
X86650000Y-53400000D01*
X85940096Y-54800000D02*
X86650000Y-54090096D01*
X85380000Y-54800000D02*
X85940096Y-54800000D01*
%TO.N,-3V3*%
X85380000Y-52800000D02*
X85380000Y-54300000D01*
%TO.N,+3V3*%
X85380000Y-57300000D02*
X85380000Y-55800000D01*
D32*
%TO.N,Net-(BT1-+)*%
X78312500Y-64800000D02*
X78412500Y-64700000D01*
X76525000Y-64800000D02*
X78312500Y-64800000D01*
D29*
%TO.N,GND*%
X83900000Y-65000000D02*
X83100000Y-65000000D01*
X83100000Y-66500000D02*
X83100000Y-67000000D01*
X82500000Y-65400000D02*
X82500000Y-64500000D01*
X82500000Y-64500000D02*
X83100000Y-64500000D01*
X82525000Y-65000000D02*
X83100000Y-65000000D01*
X82150000Y-65750000D02*
X82500000Y-65400000D01*
X82150000Y-65375000D02*
X82525000Y-65000000D01*
X82150000Y-65750000D02*
X82150000Y-65375000D01*
%TO.N,+3V3*%
X84400000Y-66000000D02*
X85100000Y-65300000D01*
X83100000Y-65500000D02*
X83399938Y-65799938D01*
X84600062Y-65799938D02*
X85100000Y-65300000D01*
D33*
X85100000Y-65300000D02*
X85100000Y-64800000D01*
X85100000Y-64800000D02*
X84300000Y-64000000D01*
X85540000Y-65740000D02*
X85100000Y-65300000D01*
X86600000Y-65740000D02*
X85540000Y-65740000D01*
D29*
X83100000Y-65500000D02*
X83100000Y-66000000D01*
X83100000Y-66000000D02*
X84400000Y-66000000D01*
X83399938Y-65799938D02*
X84600062Y-65799938D01*
D33*
X84300000Y-64000000D02*
X83900000Y-64000000D01*
D29*
%TO.N,Net-(U3-SW)*%
X81200000Y-65000000D02*
X80287500Y-65000000D01*
X80287500Y-65000000D02*
X79987500Y-64700000D01*
%TO.N,Net-(U3-OSEL)*%
X81090000Y-67110000D02*
X81200000Y-67000000D01*
X81090000Y-68000000D02*
X81090000Y-67110000D01*
%TD*%
%TA.AperFunction,Conductor*%
%TO.N,+3V3*%
G36*
X86743039Y-63319685D02*
G01*
X86788794Y-63372489D01*
X86800000Y-63424000D01*
X86800000Y-65959307D01*
X86777511Y-65978794D01*
X86726000Y-65990000D01*
X86474000Y-65990000D01*
X86406961Y-65970315D01*
X86361206Y-65917511D01*
X86350000Y-65866000D01*
X86350000Y-64959968D01*
X86315793Y-64902785D01*
X86314574Y-64897626D01*
X86314503Y-64897294D01*
X86259358Y-64730880D01*
X86259356Y-64730875D01*
X86167315Y-64581654D01*
X86043345Y-64457684D01*
X85894124Y-64365643D01*
X85894119Y-64365641D01*
X85727697Y-64310494D01*
X85727690Y-64310493D01*
X85624986Y-64300000D01*
X85350000Y-64300000D01*
X85350000Y-65426000D01*
X85330315Y-65493039D01*
X85277511Y-65538794D01*
X85226000Y-65550000D01*
X84974000Y-65550000D01*
X84906961Y-65530315D01*
X84861206Y-65477511D01*
X84850000Y-65426000D01*
X84850000Y-64300000D01*
X84575029Y-64300000D01*
X84575012Y-64300001D01*
X84472302Y-64310494D01*
X84305880Y-64365641D01*
X84305875Y-64365643D01*
X84156654Y-64457684D01*
X84123082Y-64491256D01*
X84061759Y-64524741D01*
X84000467Y-64522551D01*
X83921962Y-64499500D01*
X83921961Y-64499500D01*
X83778039Y-64499500D01*
X83778035Y-64499500D01*
X83758934Y-64505109D01*
X83689064Y-64505109D01*
X83630287Y-64467334D01*
X83601262Y-64403778D01*
X83600000Y-64386132D01*
X83600000Y-63865038D01*
X83619685Y-63797999D01*
X83627786Y-63788050D01*
X83627456Y-63787798D01*
X83632838Y-63780758D01*
X83632843Y-63780754D01*
X83677490Y-63700937D01*
X83697175Y-63633898D01*
X83705500Y-63576000D01*
X83705500Y-63424000D01*
X83725185Y-63356961D01*
X83777989Y-63311206D01*
X83829500Y-63300000D01*
X86676000Y-63300000D01*
X86743039Y-63319685D01*
G37*
%TD.AperFunction*%
%TD*%
%TA.AperFunction,Conductor*%
%TO.N,GND*%
G36*
X86850000Y-67478788D02*
G01*
X86860173Y-67488193D01*
X86896038Y-67548155D01*
X86900000Y-67579248D01*
X86900000Y-68675500D01*
X86880315Y-68742539D01*
X86827511Y-68788294D01*
X86776000Y-68799500D01*
X83824000Y-68799500D01*
X83756961Y-68779815D01*
X83711206Y-68727011D01*
X83700000Y-68675500D01*
X83700000Y-67811335D01*
X83719685Y-67744296D01*
X83772489Y-67698541D01*
X83841647Y-67688597D01*
X83905203Y-67717622D01*
X83935766Y-67763430D01*
X83937592Y-67762579D01*
X83940643Y-67769124D01*
X84032684Y-67918345D01*
X84156654Y-68042315D01*
X84305875Y-68134356D01*
X84305880Y-68134358D01*
X84472302Y-68189505D01*
X84472309Y-68189506D01*
X84575019Y-68199999D01*
X84849999Y-68199999D01*
X84850000Y-68199998D01*
X84850000Y-67074000D01*
X84869685Y-67006961D01*
X84922489Y-66961206D01*
X84974000Y-66950000D01*
X85226000Y-66950000D01*
X85293039Y-66969685D01*
X85338794Y-67022489D01*
X85350000Y-67074000D01*
X85350000Y-68199999D01*
X85624972Y-68199999D01*
X85624986Y-68199998D01*
X85727697Y-68189505D01*
X85894119Y-68134358D01*
X85894124Y-68134356D01*
X86043345Y-68042315D01*
X86167315Y-67918345D01*
X86259356Y-67769124D01*
X86259358Y-67769119D01*
X86314505Y-67602697D01*
X86314506Y-67602689D01*
X86320019Y-67548733D01*
X86346415Y-67484041D01*
X86350000Y-67480183D01*
X86350000Y-66700000D01*
X86850000Y-66700000D01*
X86850000Y-67478788D01*
G37*
%TD.AperFunction*%
%TD*%
%TA.AperFunction,Conductor*%
%TO.N,GND*%
G36*
X83699540Y-56619685D02*
G01*
X83745295Y-56672489D01*
X83755239Y-56741647D01*
X83739233Y-56787121D01*
X83687968Y-56873804D01*
X83687966Y-56873809D01*
X83642855Y-57029081D01*
X83642854Y-57029087D01*
X83641209Y-57049999D01*
X83641210Y-57050000D01*
X84546000Y-57050000D01*
X84613039Y-57069685D01*
X84658794Y-57122489D01*
X84670000Y-57174000D01*
X84670000Y-57426000D01*
X84650315Y-57493039D01*
X84597511Y-57538794D01*
X84546000Y-57550000D01*
X83641210Y-57550000D01*
X83642854Y-57570910D01*
X83687968Y-57726195D01*
X83770278Y-57865374D01*
X83770285Y-57865383D01*
X83884616Y-57979714D01*
X83884625Y-57979721D01*
X84023804Y-58062031D01*
X84138978Y-58095492D01*
X84197864Y-58133099D01*
X84227071Y-58196571D01*
X84217325Y-58265758D01*
X84192065Y-58302250D01*
X84086954Y-58407361D01*
X84067103Y-58423483D01*
X84059331Y-58428561D01*
X84039143Y-58454497D01*
X84034067Y-58460247D01*
X84031634Y-58462680D01*
X84031623Y-58462693D01*
X84018954Y-58480437D01*
X83987483Y-58520871D01*
X83983975Y-58527352D01*
X83980760Y-58533931D01*
X83966138Y-58583044D01*
X83949498Y-58631515D01*
X83948294Y-58638732D01*
X83947382Y-58646045D01*
X83949500Y-58697229D01*
X83949500Y-60993963D01*
X83929815Y-61061002D01*
X83919214Y-61075164D01*
X83874625Y-61126623D01*
X83874622Y-61126628D01*
X83814834Y-61257543D01*
X83794353Y-61400000D01*
X83814834Y-61542456D01*
X83828953Y-61573371D01*
X83874623Y-61673373D01*
X83968872Y-61782143D01*
X84089947Y-61859953D01*
X84089950Y-61859954D01*
X84089949Y-61859954D01*
X84228036Y-61900499D01*
X84228038Y-61900500D01*
X84228039Y-61900500D01*
X84371962Y-61900500D01*
X84371962Y-61900499D01*
X84510053Y-61859953D01*
X84631128Y-61782143D01*
X84725377Y-61673373D01*
X84785165Y-61542457D01*
X84805647Y-61400000D01*
X84785165Y-61257543D01*
X84725377Y-61126627D01*
X84725374Y-61126623D01*
X84680786Y-61075164D01*
X84651762Y-61011608D01*
X84650500Y-60993963D01*
X84650500Y-58886542D01*
X84670185Y-58819503D01*
X84686815Y-58798865D01*
X85359552Y-58126127D01*
X85420873Y-58092644D01*
X85490564Y-58097628D01*
X85546498Y-58139499D01*
X85553963Y-58150689D01*
X85599262Y-58227286D01*
X85599268Y-58227294D01*
X85712705Y-58340731D01*
X85712713Y-58340737D01*
X85779264Y-58380095D01*
X85826947Y-58431164D01*
X85839451Y-58499905D01*
X85812806Y-58564495D01*
X85779267Y-58593557D01*
X85752716Y-58609259D01*
X85752705Y-58609268D01*
X85639268Y-58722705D01*
X85639261Y-58722714D01*
X85557593Y-58860808D01*
X85557592Y-58860811D01*
X85512833Y-59014871D01*
X85512832Y-59014877D01*
X85510069Y-59050000D01*
X86030000Y-59050000D01*
X86030000Y-58510000D01*
X86026319Y-58506319D01*
X85992834Y-58444996D01*
X85990000Y-58418638D01*
X85990000Y-57524000D01*
X86009685Y-57456961D01*
X86062489Y-57411206D01*
X86114000Y-57400000D01*
X86366000Y-57400000D01*
X86433039Y-57419685D01*
X86478794Y-57472489D01*
X86490000Y-57524000D01*
X86490000Y-58440000D01*
X86493681Y-58443681D01*
X86527166Y-58505004D01*
X86530000Y-58531362D01*
X86530000Y-59426000D01*
X86510315Y-59493039D01*
X86457511Y-59538794D01*
X86406000Y-59550000D01*
X85510069Y-59550000D01*
X85512832Y-59585122D01*
X85512833Y-59585128D01*
X85557592Y-59739188D01*
X85557593Y-59739191D01*
X85639261Y-59877285D01*
X85639268Y-59877294D01*
X85752705Y-59990731D01*
X85758874Y-59995516D01*
X85757270Y-59997583D01*
X85796298Y-60039373D01*
X85809500Y-60095049D01*
X85809500Y-60524316D01*
X85815931Y-60573171D01*
X85865935Y-60680404D01*
X85893181Y-60707650D01*
X85926666Y-60768973D01*
X85929500Y-60795331D01*
X85929500Y-61030788D01*
X85926861Y-61056232D01*
X85924957Y-61065311D01*
X85924957Y-61065317D01*
X85929023Y-61097937D01*
X85929500Y-61105614D01*
X85929500Y-61109038D01*
X85933087Y-61130541D01*
X85939427Y-61181393D01*
X85941520Y-61188426D01*
X85943907Y-61195377D01*
X85943908Y-61195381D01*
X85943909Y-61195382D01*
X85968295Y-61240445D01*
X85984516Y-61273626D01*
X85995853Y-61310438D01*
X86014834Y-61442456D01*
X86060504Y-61542457D01*
X86074623Y-61573373D01*
X86168872Y-61682143D01*
X86289947Y-61759953D01*
X86289950Y-61759954D01*
X86289949Y-61759954D01*
X86428036Y-61800499D01*
X86428038Y-61800500D01*
X86526000Y-61800500D01*
X86593039Y-61820185D01*
X86638794Y-61872989D01*
X86650000Y-61924500D01*
X86650000Y-62151000D01*
X86630315Y-62218039D01*
X86577511Y-62263794D01*
X86526000Y-62275000D01*
X83500000Y-62275000D01*
X83500000Y-62000000D01*
X80750000Y-62000000D01*
X80750000Y-59906612D01*
X80769685Y-59839573D01*
X80780281Y-59825416D01*
X80825377Y-59773373D01*
X80885165Y-59642457D01*
X80905647Y-59500000D01*
X80885165Y-59357543D01*
X80825377Y-59226627D01*
X80825374Y-59226623D01*
X80780286Y-59174587D01*
X80751262Y-59111031D01*
X80750000Y-59093386D01*
X80750000Y-58281903D01*
X80765777Y-58221374D01*
X80766244Y-58220539D01*
X80780744Y-58199881D01*
X80825377Y-58148373D01*
X80885165Y-58017457D01*
X80904006Y-57886411D01*
X80933031Y-57822856D01*
X80991809Y-57785081D01*
X81028560Y-57781262D01*
X81030000Y-57779931D01*
X81030000Y-57260000D01*
X81530000Y-57260000D01*
X81530000Y-57779930D01*
X81565122Y-57777167D01*
X81565128Y-57777166D01*
X81719188Y-57732407D01*
X81719191Y-57732406D01*
X81857285Y-57650738D01*
X81857294Y-57650731D01*
X81970731Y-57537294D01*
X81970738Y-57537285D01*
X82052404Y-57399194D01*
X82092844Y-57260000D01*
X81530000Y-57260000D01*
X81030000Y-57260000D01*
X81030000Y-56884000D01*
X81049685Y-56816961D01*
X81102489Y-56771206D01*
X81154000Y-56760000D01*
X82092844Y-56760000D01*
X82092436Y-56758594D01*
X82092636Y-56688725D01*
X82130579Y-56630055D01*
X82194217Y-56601212D01*
X82211513Y-56600000D01*
X83632501Y-56600000D01*
X83699540Y-56619685D01*
G37*
%TD.AperFunction*%
%TD*%
%TA.AperFunction,Conductor*%
%TO.N,STAGE_3_OUT*%
G36*
X80543039Y-56460185D02*
G01*
X80588794Y-56512989D01*
X80600000Y-56564500D01*
X80600000Y-58075500D01*
X80580315Y-58142539D01*
X80527511Y-58188294D01*
X80476000Y-58199500D01*
X80328036Y-58199500D01*
X80189949Y-58240045D01*
X80068872Y-58317857D01*
X80068871Y-58317857D01*
X80032952Y-58359309D01*
X79974173Y-58397082D01*
X79904647Y-58397181D01*
X79820912Y-58372854D01*
X79800000Y-58371209D01*
X79800000Y-59276000D01*
X79780315Y-59343039D01*
X79727511Y-59388794D01*
X79676000Y-59400000D01*
X79424000Y-59400000D01*
X79356961Y-59380315D01*
X79311206Y-59327511D01*
X79300000Y-59276000D01*
X79300000Y-58440000D01*
X78374000Y-58440000D01*
X78306961Y-58420315D01*
X78261206Y-58367511D01*
X78250000Y-58316000D01*
X78250000Y-57074000D01*
X78269685Y-57006961D01*
X78322489Y-56961206D01*
X78374000Y-56950000D01*
X78626000Y-56950000D01*
X78693039Y-56969685D01*
X78738794Y-57022489D01*
X78750000Y-57074000D01*
X78750000Y-57940000D01*
X79269931Y-57940000D01*
X79267167Y-57904877D01*
X79267166Y-57904871D01*
X79222407Y-57750811D01*
X79219569Y-57744252D01*
X79211006Y-57674909D01*
X79219569Y-57645748D01*
X79222407Y-57639188D01*
X79267166Y-57485129D01*
X79267167Y-57485123D01*
X79270000Y-57449130D01*
X79270000Y-57324500D01*
X79289685Y-57257461D01*
X79342489Y-57211706D01*
X79394000Y-57200500D01*
X79421962Y-57200500D01*
X79421962Y-57200499D01*
X79560053Y-57159953D01*
X79681128Y-57082143D01*
X79775377Y-56973373D01*
X79835165Y-56842457D01*
X79855647Y-56700000D01*
X79847187Y-56641158D01*
X79838703Y-56582146D01*
X79848647Y-56512988D01*
X79894402Y-56460184D01*
X79961441Y-56440500D01*
X80476000Y-56440500D01*
X80543039Y-56460185D01*
G37*
%TD.AperFunction*%
%TD*%
%TA.AperFunction,Conductor*%
%TO.N,GND*%
G36*
X92770042Y-53349659D02*
G01*
X93148181Y-53727798D01*
X93181666Y-53789121D01*
X93184500Y-53815479D01*
X93184500Y-54076000D01*
X93164815Y-54143039D01*
X93112011Y-54188794D01*
X93060500Y-54200000D01*
X92637263Y-54200000D01*
X92570224Y-54180315D01*
X92524469Y-54127511D01*
X92514525Y-54058353D01*
X92520621Y-54036797D01*
X92520229Y-54036684D01*
X92562844Y-53890000D01*
X91624000Y-53890000D01*
X91556961Y-53870315D01*
X91511206Y-53817511D01*
X91500000Y-53766000D01*
X91500000Y-53514000D01*
X91519685Y-53446961D01*
X91572489Y-53401206D01*
X91624000Y-53390000D01*
X92562845Y-53390000D01*
X92583200Y-53362889D01*
X92639192Y-53321097D01*
X92708891Y-53316211D01*
X92770042Y-53349659D01*
G37*
%TD.AperFunction*%
%TA.AperFunction,Conductor*%
G36*
X87011501Y-50220185D02*
G01*
X87057256Y-50272989D01*
X87067200Y-50342147D01*
X87038175Y-50405703D01*
X86995977Y-50437293D01*
X86989948Y-50440046D01*
X86868873Y-50517856D01*
X86774623Y-50626626D01*
X86774622Y-50626628D01*
X86714834Y-50757543D01*
X86694353Y-50900000D01*
X86714834Y-51042456D01*
X86722509Y-51059261D01*
X86774623Y-51173373D01*
X86868872Y-51282143D01*
X86989947Y-51359953D01*
X86989950Y-51359954D01*
X86989949Y-51359954D01*
X87081908Y-51386955D01*
X87124633Y-51399500D01*
X87128036Y-51400499D01*
X87128038Y-51400500D01*
X87128039Y-51400500D01*
X87153456Y-51400500D01*
X87220495Y-51420185D01*
X87241137Y-51436819D01*
X87617362Y-51813044D01*
X87633489Y-51832902D01*
X87638563Y-51840669D01*
X87638565Y-51840671D01*
X87664505Y-51860860D01*
X87670268Y-51865950D01*
X87672693Y-51868375D01*
X87672695Y-51868377D01*
X87690437Y-51881044D01*
X87734872Y-51915629D01*
X87775685Y-51972339D01*
X87779359Y-52042112D01*
X87744727Y-52102795D01*
X87721831Y-52120213D01*
X87672716Y-52149259D01*
X87672705Y-52149268D01*
X87559268Y-52262705D01*
X87559261Y-52262714D01*
X87514075Y-52339121D01*
X87463006Y-52386805D01*
X87407343Y-52400000D01*
X85900526Y-52400000D01*
X85833487Y-52380315D01*
X85787732Y-52327511D01*
X85777788Y-52258353D01*
X85806813Y-52194798D01*
X85825374Y-52173377D01*
X85825374Y-52173375D01*
X85825377Y-52173373D01*
X85885165Y-52042457D01*
X85905647Y-51900000D01*
X85885165Y-51757543D01*
X85825377Y-51626627D01*
X85731128Y-51517857D01*
X85610053Y-51440047D01*
X85610051Y-51440046D01*
X85610049Y-51440045D01*
X85610050Y-51440045D01*
X85471963Y-51399500D01*
X85471961Y-51399500D01*
X85328039Y-51399500D01*
X85328036Y-51399500D01*
X85189949Y-51440045D01*
X85068873Y-51517856D01*
X84974623Y-51626626D01*
X84974622Y-51626628D01*
X84914834Y-51757543D01*
X84893091Y-51908778D01*
X84890566Y-51908415D01*
X84874668Y-51962560D01*
X84821864Y-52008315D01*
X84752706Y-52018259D01*
X84735759Y-52014598D01*
X84670001Y-51995493D01*
X84670000Y-51995494D01*
X84670000Y-52400000D01*
X84170000Y-52400000D01*
X84170000Y-51995494D01*
X84169998Y-51995493D01*
X84023809Y-52037965D01*
X84023806Y-52037967D01*
X83884625Y-52120278D01*
X83884616Y-52120285D01*
X83770285Y-52234616D01*
X83770278Y-52234625D01*
X83708480Y-52339121D01*
X83657411Y-52386805D01*
X83601748Y-52400000D01*
X81807911Y-52400000D01*
X81744789Y-52382732D01*
X81719189Y-52367592D01*
X81565130Y-52322834D01*
X81530000Y-52320068D01*
X81530000Y-52400000D01*
X81030000Y-52400000D01*
X81030000Y-52320068D01*
X81029999Y-52320068D01*
X80994869Y-52322834D01*
X80994868Y-52322834D01*
X80840810Y-52367592D01*
X80840809Y-52367592D01*
X80815211Y-52382732D01*
X80752089Y-52400000D01*
X78024000Y-52400000D01*
X77956961Y-52380315D01*
X77911206Y-52327511D01*
X77900000Y-52276000D01*
X77900000Y-50324500D01*
X77919685Y-50257461D01*
X77972489Y-50211706D01*
X78024000Y-50200500D01*
X86944462Y-50200500D01*
X87011501Y-50220185D01*
G37*
%TD.AperFunction*%
%TA.AperFunction,Conductor*%
G36*
X92139734Y-50220185D02*
G01*
X92160376Y-50236819D01*
X92713181Y-50789624D01*
X92746666Y-50850947D01*
X92749500Y-50877305D01*
X92749500Y-51165481D01*
X92729815Y-51232520D01*
X92677011Y-51278275D01*
X92607853Y-51288219D01*
X92573096Y-51277863D01*
X92483173Y-51235932D01*
X92483172Y-51235931D01*
X92434317Y-51229500D01*
X92434316Y-51229500D01*
X92085684Y-51229500D01*
X92085683Y-51229500D01*
X92036822Y-51235932D01*
X92027994Y-51238505D01*
X91958124Y-51238362D01*
X91899424Y-51200468D01*
X91886569Y-51182575D01*
X91880736Y-51172711D01*
X91880731Y-51172705D01*
X91767294Y-51059268D01*
X91767285Y-51059261D01*
X91629191Y-50977593D01*
X91629188Y-50977591D01*
X91490001Y-50937153D01*
X91490000Y-50937154D01*
X91490000Y-51876000D01*
X91470315Y-51943039D01*
X91417511Y-51988794D01*
X91366000Y-52000000D01*
X90470069Y-52000000D01*
X90472832Y-52035122D01*
X90472833Y-52035128D01*
X90518091Y-52190905D01*
X90517892Y-52260775D01*
X90479950Y-52319445D01*
X90416311Y-52348288D01*
X90399015Y-52349500D01*
X89913390Y-52349500D01*
X89846351Y-52329815D01*
X89825709Y-52313181D01*
X89012528Y-51500000D01*
X90470069Y-51500000D01*
X90990000Y-51500000D01*
X90990000Y-50937154D01*
X90989998Y-50937153D01*
X90850811Y-50977591D01*
X90850808Y-50977593D01*
X90712714Y-51059261D01*
X90712705Y-51059268D01*
X90599268Y-51172705D01*
X90599261Y-51172714D01*
X90517593Y-51310808D01*
X90517592Y-51310811D01*
X90472833Y-51464871D01*
X90472832Y-51464877D01*
X90470069Y-51500000D01*
X89012528Y-51500000D01*
X88899483Y-51386955D01*
X88883357Y-51367098D01*
X88878283Y-51359331D01*
X88852333Y-51339133D01*
X88846587Y-51334059D01*
X88844153Y-51331625D01*
X88844152Y-51331624D01*
X88844151Y-51331623D01*
X88837694Y-51327013D01*
X88826407Y-51318955D01*
X88785972Y-51287483D01*
X88785968Y-51287481D01*
X88779494Y-51283977D01*
X88772915Y-51280760D01*
X88723800Y-51266138D01*
X88675332Y-51249498D01*
X88668115Y-51248294D01*
X88660799Y-51247382D01*
X88611571Y-51249419D01*
X88609615Y-51249500D01*
X88096544Y-51249500D01*
X88029505Y-51229815D01*
X88008863Y-51213181D01*
X87736503Y-50940821D01*
X87703018Y-50879498D01*
X87701449Y-50870805D01*
X87685165Y-50757543D01*
X87625377Y-50626627D01*
X87531128Y-50517857D01*
X87410053Y-50440047D01*
X87410052Y-50440046D01*
X87410051Y-50440046D01*
X87404023Y-50437293D01*
X87351221Y-50391536D01*
X87331538Y-50324496D01*
X87351224Y-50257458D01*
X87404030Y-50211704D01*
X87455538Y-50200500D01*
X92072695Y-50200500D01*
X92139734Y-50220185D01*
G37*
%TD.AperFunction*%
%TD*%
%TA.AperFunction,Conductor*%
%TO.N,GND*%
G36*
X83500000Y-62275000D02*
G01*
X83500000Y-63576000D01*
X83480315Y-63643039D01*
X83427511Y-63688794D01*
X83376000Y-63700000D01*
X80947044Y-63700000D01*
X80880005Y-63680315D01*
X80859363Y-63663681D01*
X80857637Y-63661955D01*
X80841511Y-63642098D01*
X80836437Y-63634331D01*
X80810487Y-63614133D01*
X80804741Y-63609059D01*
X80802307Y-63606625D01*
X80802306Y-63606624D01*
X80802305Y-63606623D01*
X80795848Y-63602013D01*
X80784561Y-63593955D01*
X80744126Y-63562483D01*
X80744122Y-63562481D01*
X80737648Y-63558977D01*
X80731069Y-63555760D01*
X80681954Y-63541138D01*
X80633486Y-63524498D01*
X80626269Y-63523294D01*
X80618953Y-63522382D01*
X80569725Y-63524419D01*
X80567769Y-63524500D01*
X77499212Y-63524500D01*
X77473766Y-63521861D01*
X77464686Y-63519957D01*
X77464685Y-63519957D01*
X77464683Y-63519957D01*
X77432062Y-63524023D01*
X77424386Y-63524500D01*
X77420960Y-63524500D01*
X77404832Y-63527191D01*
X77399455Y-63528088D01*
X77348606Y-63534427D01*
X77341547Y-63536528D01*
X77334622Y-63538906D01*
X77289556Y-63563294D01*
X77243516Y-63585800D01*
X77237564Y-63590049D01*
X77231742Y-63594581D01*
X77197042Y-63632275D01*
X77165636Y-63663681D01*
X77104313Y-63697166D01*
X77077955Y-63700000D01*
X75074500Y-63700000D01*
X75007461Y-63680315D01*
X74961706Y-63627511D01*
X74950500Y-63576000D01*
X74950500Y-62124000D01*
X74970185Y-62056961D01*
X75022989Y-62011206D01*
X75074500Y-62000000D01*
X80750000Y-62000000D01*
X83500000Y-62000000D01*
X83500000Y-62275000D01*
G37*
%TD.AperFunction*%
%TD*%
%TA.AperFunction,Conductor*%
%TO.N,GND*%
G36*
X93627286Y-58219684D02*
G01*
X93671569Y-58248142D01*
X93685291Y-58256961D01*
X93689949Y-58259954D01*
X93828036Y-58300499D01*
X93828038Y-58300500D01*
X93828039Y-58300500D01*
X93971962Y-58300500D01*
X93971962Y-58300499D01*
X94110053Y-58259953D01*
X94110057Y-58259950D01*
X94118115Y-58256271D01*
X94118868Y-58257920D01*
X94175497Y-58241291D01*
X94242537Y-58260974D01*
X94288293Y-58313777D01*
X94299500Y-58365291D01*
X94299500Y-61876000D01*
X94279815Y-61943039D01*
X94227011Y-61988794D01*
X94175500Y-62000000D01*
X86924000Y-62000000D01*
X86856961Y-61980315D01*
X86811206Y-61927511D01*
X86800000Y-61876000D01*
X86800000Y-61764315D01*
X86819685Y-61697276D01*
X86830287Y-61683112D01*
X86831124Y-61682144D01*
X86831128Y-61682143D01*
X86925377Y-61573373D01*
X86985165Y-61442457D01*
X87005647Y-61300000D01*
X86985165Y-61157543D01*
X86925377Y-61026627D01*
X86894172Y-60990614D01*
X86865148Y-60927058D01*
X86875092Y-60857899D01*
X86920848Y-60805096D01*
X86987887Y-60785412D01*
X87040286Y-60797028D01*
X87076827Y-60814068D01*
X87113469Y-60818892D01*
X87125683Y-60820500D01*
X87125684Y-60820500D01*
X87474317Y-60820500D01*
X87490601Y-60818356D01*
X87523173Y-60814068D01*
X87630404Y-60764065D01*
X87648785Y-60745683D01*
X87710104Y-60712200D01*
X87779795Y-60717183D01*
X87824145Y-60745685D01*
X87831684Y-60753224D01*
X87940513Y-60803972D01*
X87990099Y-60810500D01*
X88349900Y-60810499D01*
X88399487Y-60803972D01*
X88508316Y-60753224D01*
X88562319Y-60699221D01*
X88623642Y-60665736D01*
X88693334Y-60670720D01*
X88737681Y-60699221D01*
X88791684Y-60753224D01*
X88900513Y-60803972D01*
X88950099Y-60810500D01*
X89309900Y-60810499D01*
X89359487Y-60803972D01*
X89468316Y-60753224D01*
X89553224Y-60668316D01*
X89603972Y-60559487D01*
X89610500Y-60509901D01*
X89610499Y-60509885D01*
X89610613Y-60508159D01*
X89610794Y-60507662D01*
X89611030Y-60505876D01*
X89611429Y-60505928D01*
X89634629Y-60442547D01*
X89690305Y-60400334D01*
X89759965Y-60394923D01*
X89821492Y-60428032D01*
X89828057Y-60435040D01*
X89868872Y-60482143D01*
X89989947Y-60559953D01*
X89989950Y-60559954D01*
X89989949Y-60559954D01*
X90128036Y-60600499D01*
X90128038Y-60600500D01*
X90128039Y-60600500D01*
X90271961Y-60600500D01*
X90393103Y-60564930D01*
X90462972Y-60564930D01*
X90521750Y-60602704D01*
X90534769Y-60620786D01*
X90620278Y-60765374D01*
X90620285Y-60765383D01*
X90734616Y-60879714D01*
X90734625Y-60879721D01*
X90873804Y-60962031D01*
X91029089Y-61007145D01*
X91050000Y-61008789D01*
X91050000Y-60480000D01*
X91550000Y-60480000D01*
X91550000Y-61008789D01*
X91570910Y-61007145D01*
X91726195Y-60962031D01*
X91865374Y-60879721D01*
X91865383Y-60879714D01*
X91979714Y-60765383D01*
X91979721Y-60765374D01*
X92062031Y-60626195D01*
X92104504Y-60480000D01*
X91550000Y-60480000D01*
X91050000Y-60480000D01*
X91050000Y-60104000D01*
X91069685Y-60036961D01*
X91112340Y-60000000D01*
X92600000Y-60000000D01*
X92600000Y-59709499D01*
X92619685Y-59642460D01*
X92672489Y-59596705D01*
X92723996Y-59585499D01*
X93084900Y-59585499D01*
X93134487Y-59578972D01*
X93243316Y-59528224D01*
X93328224Y-59443316D01*
X93378972Y-59334487D01*
X93385500Y-59284901D01*
X93385499Y-58925100D01*
X93378972Y-58875513D01*
X93328224Y-58766684D01*
X93274221Y-58712681D01*
X93240736Y-58651358D01*
X93245720Y-58581666D01*
X93274221Y-58537319D01*
X93275775Y-58535765D01*
X93328224Y-58483316D01*
X93378972Y-58374487D01*
X93385500Y-58324901D01*
X93385500Y-58324000D01*
X93385576Y-58323739D01*
X93385766Y-58320850D01*
X93386412Y-58320892D01*
X93405185Y-58256961D01*
X93457989Y-58211206D01*
X93509500Y-58200000D01*
X93560248Y-58200000D01*
X93627286Y-58219684D01*
G37*
%TD.AperFunction*%
%TD*%
M02*
