<?xml version="1.0" standalone="no"?>
<!DOCTYPE svg PUBLIC "-//W3C//DTD SVG 20010904//EN"
 "http://www.w3.org/TR/2001/REC-SVG-20010904/DTD/svg10.dtd">
<svg version="1.0" xmlns="http://www.w3.org/2000/svg"
 width="450px" height="490px" viewBox="0 0 1161.000000 1280.000000"
 preserveAspectRatio="xMidYMid meet">
<metadata>
Created by potrace 1.15, written by Peter Selinger 2001-2017
</metadata>
<g transform="translate(0.000000,1280.000000) scale(0.100000,-0.100000)"
fill="white" stroke="none">
<path d="M5770 12790 c-252 -16 -543 -53 -775 -99 -250 -49 -667 -181 -965
-306 -861 -362 -1555 -955 -2003 -1713 -211 -356 -365 -746 -451 -1142 -35
-159 -66 -375 -66 -457 0 -125 39 -313 90 -431 l23 -53 -66 -97 c-133 -197
-306 -419 -763 -982 -584 -719 -808 -1086 -792 -1300 11 -148 108 -242 415
-400 91 -46 114 -54 225 -71 151 -23 208 -39 260 -75 81 -57 91 -128 38 -294
-18 -58 -39 -132 -46 -166 -16 -78 -38 -122 -109 -215 -73 -95 -105 -161 -105
-220 0 -103 45 -171 188 -282 59 -46 108 -91 110 -101 7 -36 -9 -64 -89 -152
-106 -115 -139 -167 -139 -217 0 -51 8 -64 112 -181 172 -193 232 -306 231
-436 0 -67 -10 -103 -91 -346 -136 -405 -162 -531 -141 -683 18 -132 105 -284
242 -419 139 -139 273 -220 472 -287 150 -50 225 -54 1062 -54 378 -1 757 -4
841 -8 l153 -6 40 -51 c102 -128 213 -424 294 -786 40 -177 105 -530 125 -673
l12 -87 3129 0 c1721 0 3129 2 3129 4 0 2 -27 138 -60 302 -60 305 -84 431
-119 634 -11 63 -31 180 -45 260 -14 80 -41 251 -61 380 -19 129 -40 262 -45
295 -14 79 -78 593 -90 720 -32 323 -41 456 -47 685 -7 308 3 412 53 571 115
364 247 600 725 1289 348 502 414 629 588 1117 131 370 243 833 301 1243 59
415 64 937 14 1332 -169 1338 -885 2435 -2047 3137 -635 383 -1408 643 -2262
760 -334 46 -575 62 -975 66 -212 2 -446 0 -520 -5z"/>
</g>
</svg>
