M48
; DRILL file {KiCad 7.0.10} date Mon Mar 11 17:01:23 2024
; FORMAT={-:-/ absolute / metric / decimal}
; #@! TF.CreationDate,2024-03-11T17:01:23-07:00
; #@! TF.GenerationSoftware,Kicad,Pcbnew,7.0.10
; #@! TF.FileFunction,Plated,1,4,PTH
FMAT,2
METRIC
; #@! TA.AperFunction,Plated,PTH,ViaDrill
T1C0.300
; #@! TA.AperFunction,Plated,PTH,ViaDrill
T2C0.400
; #@! TA.AperFunction,Plated,PTH,ComponentDrill
T3C1.000
%
G90
G05
T1
X75.4Y-59.4
X76.8Y-63.2
X77.05Y-55.75
X77.9Y-59.4
X77.95Y-55.75
X78.7Y-68.3
X78.8Y-63.2
X79.1Y-51.05
X79.1Y-52.9
X79.35Y-56.7
X80.2Y-68.3
X80.25Y-52.9
X80.4Y-57.025
X80.4Y-57.875
X80.4Y-58.7
X80.4Y-59.5
X80.45Y-51.95
X81.2Y-51.05
X83.1Y-63.05
X83.3Y-67.8
X83.3Y-68.5
X83.5Y-61.4
X83.7Y-51.05
X83.85Y-65.0
X83.9Y-64.0
X84.1Y-68.5
X84.3Y-61.4
X85.15Y-51.1
X85.2Y-64.0
X85.3Y-61.4
X86.2Y-51.05
X86.5Y-61.3
X86.6Y-68.5
X86.65Y-53.4
X87.2Y-50.9
X87.45Y-52.3
X87.45Y-53.3
X88.3Y-50.9
X89.05Y-54.2
X89.25Y-50.9
X89.8Y-51.4
X90.2Y-60.1
X90.35Y-50.9
X91.2Y-55.8
X92.35Y-50.85
X92.7Y-55.5
X92.85Y-54.1
X93.9Y-57.8
X93.9Y-58.6
T2
X91.0Y-61.7
T3
X76.5Y-51.75
X76.5Y-54.29
X76.525Y-64.8
X76.525Y-67.34
M30
