%TF.GenerationSoftware,KiCad,Pcbnew,7.0.9*%
%TF.CreationDate,2024-03-10T22:23:52-07:00*%
%TF.ProjectId,P2.0,50322e30-2e6b-4696-9361-645f70636258,rev?*%
%TF.SameCoordinates,Original*%
%TF.FileFunction,Copper,L3,Inr*%
%TF.FilePolarity,Positive*%
%FSLAX46Y46*%
G04 Gerber Fmt 4.6, Leading zero omitted, Abs format (unit mm)*
G04 Created by KiCad (PCBNEW 7.0.9) date 2024-03-10 22:23:52*
%MOMM*%
%LPD*%
G01*
G04 APERTURE LIST*
%TA.AperFunction,ComponentPad*%
%ADD10O,1.700000X1.700000*%
%TD*%
%TA.AperFunction,ComponentPad*%
%ADD11R,1.700000X1.700000*%
%TD*%
%TA.AperFunction,ViaPad*%
%ADD12C,0.600000*%
%TD*%
%TA.AperFunction,ViaPad*%
%ADD13C,0.800000*%
%TD*%
%TA.AperFunction,Conductor*%
%ADD14C,0.300000*%
%TD*%
G04 APERTURE END LIST*
D10*
%TO.N,/EEG+*%
%TO.C,J1*%
X76500000Y-54290000D03*
D11*
%TO.N,/EEG-*%
X76500000Y-51750000D03*
%TD*%
%TO.N,Net-(BT1-+)*%
%TO.C,BT1*%
X76525000Y-64800000D03*
D10*
%TO.N,GND*%
X76525000Y-67340000D03*
%TD*%
D12*
%TO.N,GND*%
X91200000Y-55800000D03*
X80400000Y-58700000D03*
%TO.N,+3V3*%
X80400000Y-59500000D03*
%TO.N,Net-(C5-Pad1)*%
X86500000Y-61300000D03*
%TO.N,+3V3*%
X90200000Y-60100000D03*
%TO.N,GND*%
X93900000Y-58600000D03*
%TO.N,Net-(C3-Pad2)*%
X93900000Y-57800000D03*
%TO.N,+3V3*%
X77950000Y-55750000D03*
X77050000Y-55750000D03*
%TO.N,GND*%
X79350000Y-56700000D03*
%TO.N,-3V3*%
X75400000Y-59400000D03*
%TO.N,Net-(U2-IN2-)*%
X92700000Y-55500000D03*
%TO.N,GND*%
X92350000Y-50850000D03*
%TO.N,Net-(C5-Pad1)*%
X87200000Y-50900000D03*
%TO.N,-3V3*%
X89050000Y-54200000D03*
%TO.N,GND*%
X89800000Y-51400000D03*
X86200000Y-51050000D03*
X83700000Y-51050000D03*
X81200000Y-51050000D03*
X79100000Y-51050000D03*
X83300000Y-68500000D03*
X83300000Y-67800000D03*
X83100000Y-63050000D03*
X83500000Y-61400000D03*
%TO.N,+3V3*%
X84300000Y-61400000D03*
%TO.N,GND*%
X85300000Y-61400000D03*
%TO.N,-3V3*%
X85400000Y-51900000D03*
%TO.N,GND*%
X78800000Y-63200000D03*
%TO.N,STAGE_3_OUT*%
X80400000Y-57025000D03*
X80400000Y-57875000D03*
%TO.N,GND*%
X79100000Y-53250000D03*
X86650000Y-53400000D03*
D13*
X91000000Y-61700000D03*
D12*
X87450000Y-52300000D03*
X83850000Y-65000000D03*
X88300000Y-50900000D03*
X77900000Y-59400000D03*
X90350000Y-50900000D03*
X92850000Y-54100000D03*
X84400000Y-51900000D03*
X89250000Y-50900000D03*
X76800000Y-63200000D03*
X84100000Y-68500000D03*
X80450000Y-51950000D03*
X86600000Y-68500000D03*
%TO.N,+3V3*%
X83900000Y-64000000D03*
X87450000Y-53300000D03*
X85200000Y-64000000D03*
X80250000Y-53250000D03*
%TO.N,-3V3*%
X80200000Y-68300000D03*
X78700000Y-68300000D03*
%TD*%
D14*
%TO.N,Net-(C5-Pad1)*%
X87819239Y-61300000D02*
X86500000Y-61300000D01*
X93500000Y-55619239D02*
X87819239Y-61300000D01*
X91719239Y-52050000D02*
X93500000Y-53830761D01*
X88350000Y-52050000D02*
X91719239Y-52050000D01*
X87200000Y-50900000D02*
X88350000Y-52050000D01*
X93500000Y-53830761D02*
X93500000Y-55619239D01*
%TO.N,-3V3*%
X85400000Y-51830761D02*
X85400000Y-51900000D01*
X83969239Y-50400000D02*
X85400000Y-51830761D01*
X75300000Y-50550000D02*
X75450000Y-50400000D01*
X75450000Y-50400000D02*
X83969239Y-50400000D01*
X75300000Y-59300000D02*
X75300000Y-50550000D01*
X75400000Y-59400000D02*
X75300000Y-59300000D01*
X75300000Y-59500000D02*
X75400000Y-59400000D01*
X75300000Y-68450000D02*
X75300000Y-59500000D01*
X75400000Y-68550000D02*
X75300000Y-68450000D01*
X78450000Y-68550000D02*
X75400000Y-68550000D01*
X78700000Y-68300000D02*
X78450000Y-68550000D01*
X86530761Y-54200000D02*
X89050000Y-54200000D01*
X85400000Y-53069239D02*
X86530761Y-54200000D01*
X85400000Y-51900000D02*
X85400000Y-53069239D01*
X78700000Y-68300000D02*
X80200000Y-68300000D01*
%TD*%
%TA.AperFunction,Conductor*%
%TO.N,+3V3*%
G36*
X75435500Y-49710509D02*
G01*
X75451993Y-49702359D01*
X75473387Y-49700500D01*
X83900401Y-49700500D01*
X83919661Y-49706155D01*
X83922801Y-49704300D01*
X83953262Y-49700500D01*
X94175500Y-49700500D01*
X94242539Y-49720185D01*
X94288294Y-49772989D01*
X94299500Y-49824500D01*
X94299500Y-57129922D01*
X94279815Y-57196961D01*
X94227011Y-57242716D01*
X94157853Y-57252660D01*
X94128048Y-57244483D01*
X94056765Y-57214957D01*
X94056760Y-57214955D01*
X93900001Y-57194318D01*
X93899999Y-57194318D01*
X93743239Y-57214955D01*
X93743237Y-57214956D01*
X93597160Y-57275463D01*
X93471718Y-57371718D01*
X93375463Y-57497160D01*
X93314956Y-57643237D01*
X93314955Y-57643239D01*
X93294318Y-57799998D01*
X93294318Y-57800001D01*
X93314955Y-57956760D01*
X93314956Y-57956762D01*
X93375464Y-58102841D01*
X93392095Y-58124516D01*
X93417287Y-58189686D01*
X93403247Y-58258130D01*
X93392095Y-58275484D01*
X93375464Y-58297158D01*
X93314956Y-58443237D01*
X93314955Y-58443239D01*
X93294318Y-58599998D01*
X93294318Y-58600001D01*
X93314955Y-58756760D01*
X93314956Y-58756762D01*
X93356376Y-58856760D01*
X93375464Y-58902841D01*
X93471718Y-59028282D01*
X93597159Y-59124536D01*
X93743238Y-59185044D01*
X93821619Y-59195363D01*
X93899999Y-59205682D01*
X93900000Y-59205682D01*
X93900001Y-59205682D01*
X93952254Y-59198802D01*
X94056762Y-59185044D01*
X94128049Y-59155515D01*
X94197516Y-59148047D01*
X94259995Y-59179322D01*
X94295648Y-59239410D01*
X94299500Y-59270077D01*
X94299500Y-62263500D01*
X94279815Y-62330539D01*
X94227011Y-62376294D01*
X94175500Y-62387500D01*
X91607300Y-62387500D01*
X91540261Y-62367815D01*
X91494506Y-62315011D01*
X91484562Y-62245853D01*
X91513587Y-62182297D01*
X91525072Y-62170686D01*
X91528181Y-62167931D01*
X91528181Y-62167930D01*
X91528183Y-62167929D01*
X91624818Y-62027930D01*
X91685140Y-61868872D01*
X91705645Y-61700000D01*
X91685140Y-61531128D01*
X91624818Y-61372070D01*
X91528183Y-61232071D01*
X91400852Y-61119266D01*
X91400849Y-61119263D01*
X91250226Y-61040210D01*
X91085056Y-60999500D01*
X90914944Y-60999500D01*
X90749773Y-61040210D01*
X90599150Y-61119263D01*
X90471816Y-61232072D01*
X90375182Y-61372068D01*
X90314860Y-61531125D01*
X90314859Y-61531130D01*
X90294355Y-61700000D01*
X90314859Y-61868869D01*
X90314860Y-61868874D01*
X90375182Y-62027931D01*
X90471818Y-62167931D01*
X90474928Y-62170686D01*
X90476550Y-62173271D01*
X90476791Y-62173544D01*
X90476745Y-62173584D01*
X90512054Y-62229876D01*
X90511286Y-62299741D01*
X90472867Y-62358100D01*
X90408996Y-62386425D01*
X90392700Y-62387500D01*
X88000000Y-62387500D01*
X88000000Y-68675500D01*
X87980315Y-68742539D01*
X87927511Y-68788294D01*
X87876000Y-68799500D01*
X87307647Y-68799500D01*
X87240608Y-68779815D01*
X87194853Y-68727011D01*
X87184708Y-68659315D01*
X87205682Y-68500001D01*
X87205682Y-68499998D01*
X87185044Y-68343239D01*
X87185044Y-68343238D01*
X87124536Y-68197159D01*
X87028282Y-68071718D01*
X86902841Y-67975464D01*
X86860324Y-67957853D01*
X86756762Y-67914956D01*
X86756760Y-67914955D01*
X86600001Y-67894318D01*
X86599999Y-67894318D01*
X86443239Y-67914955D01*
X86443237Y-67914956D01*
X86297160Y-67975463D01*
X86171718Y-68071718D01*
X86075463Y-68197160D01*
X86014956Y-68343237D01*
X86014955Y-68343239D01*
X85994318Y-68499998D01*
X85994318Y-68500001D01*
X86015292Y-68659315D01*
X86004526Y-68728350D01*
X85958146Y-68780606D01*
X85892353Y-68799500D01*
X84807647Y-68799500D01*
X84740608Y-68779815D01*
X84694853Y-68727011D01*
X84684708Y-68659315D01*
X84705682Y-68500001D01*
X84705682Y-68499998D01*
X84685044Y-68343239D01*
X84685044Y-68343238D01*
X84624536Y-68197159D01*
X84528282Y-68071718D01*
X84402841Y-67975464D01*
X84360324Y-67957853D01*
X84256762Y-67914956D01*
X84256760Y-67914955D01*
X84100001Y-67894318D01*
X84099999Y-67894318D01*
X84044137Y-67901672D01*
X83975101Y-67890906D01*
X83922846Y-67844526D01*
X83905013Y-67794918D01*
X83885044Y-67643239D01*
X83885044Y-67643238D01*
X83824536Y-67497159D01*
X83728282Y-67371718D01*
X83602841Y-67275464D01*
X83456762Y-67214956D01*
X83456760Y-67214955D01*
X83300001Y-67194318D01*
X83299999Y-67194318D01*
X83143239Y-67214955D01*
X83143237Y-67214956D01*
X82997160Y-67275463D01*
X82871718Y-67371718D01*
X82775463Y-67497160D01*
X82714956Y-67643237D01*
X82714955Y-67643239D01*
X82694318Y-67799998D01*
X82694318Y-67800001D01*
X82714955Y-67956760D01*
X82714957Y-67956765D01*
X82775342Y-68102548D01*
X82782811Y-68172017D01*
X82775342Y-68197452D01*
X82714957Y-68343234D01*
X82714955Y-68343239D01*
X82694318Y-68499998D01*
X82694318Y-68500001D01*
X82715292Y-68659315D01*
X82704526Y-68728350D01*
X82658146Y-68780606D01*
X82592353Y-68799500D01*
X80825082Y-68799500D01*
X80758043Y-68779815D01*
X80712288Y-68727011D01*
X80702344Y-68657853D01*
X80722141Y-68610845D01*
X80720472Y-68609881D01*
X80724534Y-68602843D01*
X80724536Y-68602841D01*
X80785044Y-68456762D01*
X80805682Y-68300000D01*
X80785044Y-68143238D01*
X80724536Y-67997159D01*
X80628282Y-67871718D01*
X80502841Y-67775464D01*
X80356762Y-67714956D01*
X80356760Y-67714955D01*
X80200001Y-67694318D01*
X80199999Y-67694318D01*
X80043239Y-67714955D01*
X80043237Y-67714956D01*
X79897157Y-67775464D01*
X79834067Y-67823876D01*
X79768898Y-67849070D01*
X79758581Y-67849500D01*
X79141419Y-67849500D01*
X79074380Y-67829815D01*
X79065933Y-67823876D01*
X79002842Y-67775464D01*
X78856762Y-67714956D01*
X78856760Y-67714955D01*
X78700001Y-67694318D01*
X78699999Y-67694318D01*
X78543239Y-67714955D01*
X78543237Y-67714956D01*
X78397160Y-67775463D01*
X78271718Y-67871718D01*
X78175462Y-67997161D01*
X78164780Y-68022952D01*
X78120939Y-68077356D01*
X78054645Y-68099421D01*
X78050219Y-68099500D01*
X77632322Y-68099500D01*
X77565283Y-68079815D01*
X77519528Y-68027011D01*
X77509584Y-67957853D01*
X77521321Y-67920229D01*
X77535922Y-67890906D01*
X77602405Y-67757389D01*
X77660756Y-67552310D01*
X77680429Y-67340000D01*
X77660756Y-67127690D01*
X77602405Y-66922611D01*
X77602403Y-66922606D01*
X77602403Y-66922605D01*
X77507367Y-66731746D01*
X77378872Y-66561593D01*
X77221302Y-66417948D01*
X77040019Y-66305702D01*
X77040017Y-66305701D01*
X76880083Y-66243743D01*
X76841198Y-66228679D01*
X76668453Y-66196387D01*
X76606174Y-66164720D01*
X76570901Y-66104407D01*
X76573835Y-66034599D01*
X76614044Y-65977459D01*
X76678762Y-65951128D01*
X76691240Y-65950499D01*
X77419856Y-65950499D01*
X77419864Y-65950499D01*
X77419879Y-65950497D01*
X77419882Y-65950497D01*
X77444987Y-65947586D01*
X77444988Y-65947585D01*
X77444991Y-65947585D01*
X77547765Y-65902206D01*
X77627206Y-65822765D01*
X77672585Y-65719991D01*
X77675500Y-65694865D01*
X77675500Y-65000001D01*
X83244318Y-65000001D01*
X83264955Y-65156760D01*
X83264956Y-65156762D01*
X83325464Y-65302841D01*
X83421718Y-65428282D01*
X83547159Y-65524536D01*
X83693238Y-65585044D01*
X83771619Y-65595363D01*
X83849999Y-65605682D01*
X83850000Y-65605682D01*
X83850001Y-65605682D01*
X83902254Y-65598802D01*
X84006762Y-65585044D01*
X84152841Y-65524536D01*
X84278282Y-65428282D01*
X84374536Y-65302841D01*
X84435044Y-65156762D01*
X84455682Y-65000000D01*
X84435044Y-64843238D01*
X84374536Y-64697159D01*
X84278282Y-64571718D01*
X84152841Y-64475464D01*
X84006762Y-64414956D01*
X84006760Y-64414955D01*
X83850001Y-64394318D01*
X83849999Y-64394318D01*
X83693239Y-64414955D01*
X83693237Y-64414956D01*
X83547160Y-64475463D01*
X83421718Y-64571718D01*
X83325463Y-64697160D01*
X83264956Y-64843237D01*
X83264955Y-64843239D01*
X83244318Y-64999998D01*
X83244318Y-65000001D01*
X77675500Y-65000001D01*
X77675499Y-63905136D01*
X77675497Y-63905117D01*
X77672586Y-63880012D01*
X77672585Y-63880010D01*
X77672585Y-63880009D01*
X77627206Y-63777235D01*
X77547765Y-63697794D01*
X77444993Y-63652415D01*
X77444986Y-63652413D01*
X77434046Y-63651144D01*
X77369723Y-63623862D01*
X77330361Y-63566135D01*
X77328457Y-63496291D01*
X77333772Y-63480542D01*
X77385044Y-63356762D01*
X77405682Y-63200001D01*
X78194318Y-63200001D01*
X78214955Y-63356760D01*
X78214956Y-63356762D01*
X78275464Y-63502841D01*
X78371718Y-63628282D01*
X78497159Y-63724536D01*
X78643238Y-63785044D01*
X78721619Y-63795363D01*
X78799999Y-63805682D01*
X78800000Y-63805682D01*
X78800001Y-63805682D01*
X78852254Y-63798802D01*
X78956762Y-63785044D01*
X79102841Y-63724536D01*
X79228282Y-63628282D01*
X79324536Y-63502841D01*
X79385044Y-63356762D01*
X79405682Y-63200000D01*
X79385934Y-63050001D01*
X82494318Y-63050001D01*
X82514955Y-63206760D01*
X82514956Y-63206762D01*
X82575464Y-63352841D01*
X82671718Y-63478282D01*
X82797159Y-63574536D01*
X82943238Y-63635044D01*
X83021619Y-63645363D01*
X83099999Y-63655682D01*
X83100000Y-63655682D01*
X83100001Y-63655682D01*
X83176216Y-63645648D01*
X83256762Y-63635044D01*
X83402841Y-63574536D01*
X83528282Y-63478282D01*
X83624536Y-63352841D01*
X83685044Y-63206762D01*
X83705682Y-63050000D01*
X83685044Y-62893238D01*
X83624536Y-62747159D01*
X83528282Y-62621718D01*
X83402841Y-62525464D01*
X83256762Y-62464956D01*
X83256760Y-62464955D01*
X83100001Y-62444318D01*
X83099999Y-62444318D01*
X82943239Y-62464955D01*
X82943237Y-62464956D01*
X82797160Y-62525463D01*
X82671718Y-62621718D01*
X82575463Y-62747160D01*
X82514956Y-62893237D01*
X82514955Y-62893239D01*
X82494318Y-63049998D01*
X82494318Y-63050001D01*
X79385934Y-63050001D01*
X79385044Y-63043238D01*
X79324536Y-62897159D01*
X79228282Y-62771718D01*
X79102841Y-62675464D01*
X78956762Y-62614956D01*
X78956760Y-62614955D01*
X78800001Y-62594318D01*
X78799999Y-62594318D01*
X78643239Y-62614955D01*
X78643237Y-62614956D01*
X78497160Y-62675463D01*
X78371718Y-62771718D01*
X78275463Y-62897160D01*
X78214956Y-63043237D01*
X78214955Y-63043239D01*
X78194318Y-63199998D01*
X78194318Y-63200001D01*
X77405682Y-63200001D01*
X77405682Y-63200000D01*
X77385044Y-63043238D01*
X77324536Y-62897159D01*
X77228282Y-62771718D01*
X77102841Y-62675464D01*
X76956762Y-62614956D01*
X76956760Y-62614955D01*
X76800001Y-62594318D01*
X76799999Y-62594318D01*
X76643239Y-62614955D01*
X76643237Y-62614956D01*
X76497160Y-62675463D01*
X76371718Y-62771718D01*
X76275463Y-62897160D01*
X76214956Y-63043237D01*
X76214955Y-63043239D01*
X76194318Y-63199998D01*
X76194318Y-63200001D01*
X76214955Y-63356760D01*
X76214956Y-63356762D01*
X76265194Y-63478047D01*
X76272663Y-63547517D01*
X76241388Y-63609996D01*
X76181299Y-63645648D01*
X76150633Y-63649500D01*
X75874500Y-63649500D01*
X75807461Y-63629815D01*
X75761706Y-63577011D01*
X75750500Y-63525500D01*
X75750500Y-61400001D01*
X82894318Y-61400001D01*
X82914955Y-61556760D01*
X82914956Y-61556762D01*
X82975207Y-61702222D01*
X82975464Y-61702841D01*
X83071718Y-61828282D01*
X83197159Y-61924536D01*
X83343238Y-61985044D01*
X83421619Y-61995363D01*
X83499999Y-62005682D01*
X83500000Y-62005682D01*
X83500001Y-62005682D01*
X83552254Y-61998802D01*
X83656762Y-61985044D01*
X83802841Y-61924536D01*
X83928282Y-61828282D01*
X84024536Y-61702841D01*
X84085044Y-61556762D01*
X84105682Y-61400000D01*
X84085044Y-61243238D01*
X84024536Y-61097159D01*
X83928282Y-60971718D01*
X83802841Y-60875464D01*
X83793797Y-60871718D01*
X83656762Y-60814956D01*
X83656760Y-60814955D01*
X83500001Y-60794318D01*
X83499999Y-60794318D01*
X83343239Y-60814955D01*
X83343237Y-60814956D01*
X83197160Y-60875463D01*
X83071718Y-60971718D01*
X82975463Y-61097160D01*
X82914956Y-61243237D01*
X82914955Y-61243239D01*
X82894318Y-61399998D01*
X82894318Y-61400001D01*
X75750500Y-61400001D01*
X75750500Y-59949115D01*
X75770185Y-59882076D01*
X75799011Y-59850742D01*
X75828282Y-59828282D01*
X75924536Y-59702841D01*
X75985044Y-59556762D01*
X76005682Y-59400001D01*
X77294318Y-59400001D01*
X77314955Y-59556760D01*
X77314956Y-59556762D01*
X77375464Y-59702841D01*
X77471718Y-59828282D01*
X77597159Y-59924536D01*
X77743238Y-59985044D01*
X77821619Y-59995363D01*
X77899999Y-60005682D01*
X77900000Y-60005682D01*
X77900001Y-60005682D01*
X77952254Y-59998802D01*
X78056762Y-59985044D01*
X78202841Y-59924536D01*
X78328282Y-59828282D01*
X78424536Y-59702841D01*
X78485044Y-59556762D01*
X78505682Y-59400000D01*
X78485044Y-59243238D01*
X78424536Y-59097159D01*
X78328282Y-58971718D01*
X78202841Y-58875464D01*
X78157690Y-58856762D01*
X78056762Y-58814956D01*
X78056760Y-58814955D01*
X77900001Y-58794318D01*
X77899999Y-58794318D01*
X77743239Y-58814955D01*
X77743237Y-58814956D01*
X77597160Y-58875463D01*
X77471718Y-58971718D01*
X77375463Y-59097160D01*
X77314956Y-59243237D01*
X77314955Y-59243239D01*
X77294318Y-59399998D01*
X77294318Y-59400001D01*
X76005682Y-59400001D01*
X76005682Y-59400000D01*
X75985044Y-59243238D01*
X75924536Y-59097159D01*
X75828282Y-58971718D01*
X75828279Y-58971716D01*
X75828278Y-58971714D01*
X75799013Y-58949258D01*
X75757811Y-58892830D01*
X75750500Y-58850883D01*
X75750500Y-56700001D01*
X78744318Y-56700001D01*
X78764955Y-56856760D01*
X78764956Y-56856762D01*
X78825464Y-57002841D01*
X78921718Y-57128282D01*
X79047159Y-57224536D01*
X79193238Y-57285044D01*
X79271619Y-57295363D01*
X79349999Y-57305682D01*
X79350000Y-57305682D01*
X79350001Y-57305682D01*
X79402254Y-57298802D01*
X79506762Y-57285044D01*
X79652841Y-57224536D01*
X79661095Y-57218202D01*
X79726260Y-57193007D01*
X79794705Y-57207043D01*
X79844697Y-57255855D01*
X79851143Y-57269125D01*
X79875463Y-57327840D01*
X79911277Y-57374515D01*
X79936470Y-57439684D01*
X79922431Y-57508129D01*
X79911277Y-57525485D01*
X79875464Y-57572158D01*
X79814956Y-57718237D01*
X79814955Y-57718239D01*
X79794318Y-57874998D01*
X79794318Y-57875001D01*
X79814955Y-58031760D01*
X79814956Y-58031762D01*
X79875464Y-58177841D01*
X79884553Y-58189686D01*
X79901686Y-58212014D01*
X79926879Y-58277184D01*
X79912840Y-58345629D01*
X79901686Y-58362986D01*
X79875463Y-58397160D01*
X79814956Y-58543237D01*
X79814955Y-58543239D01*
X79794318Y-58699998D01*
X79794318Y-58700001D01*
X79814955Y-58856760D01*
X79814956Y-58856762D01*
X79875464Y-59002841D01*
X79971718Y-59128282D01*
X80097159Y-59224536D01*
X80243238Y-59285044D01*
X80321619Y-59295363D01*
X80399999Y-59305682D01*
X80400000Y-59305682D01*
X80400001Y-59305682D01*
X80452254Y-59298802D01*
X80556762Y-59285044D01*
X80702841Y-59224536D01*
X80828282Y-59128282D01*
X80924536Y-59002841D01*
X80985044Y-58856762D01*
X81005682Y-58700000D01*
X80985044Y-58543238D01*
X80924538Y-58397163D01*
X80924538Y-58397162D01*
X80924536Y-58397159D01*
X80898313Y-58362985D01*
X80873120Y-58297818D01*
X80887158Y-58229373D01*
X80898310Y-58212018D01*
X80924536Y-58177841D01*
X80985044Y-58031762D01*
X81005682Y-57875000D01*
X80985044Y-57718238D01*
X80924536Y-57572159D01*
X80924535Y-57572157D01*
X80888723Y-57525487D01*
X80863528Y-57460318D01*
X80877566Y-57391873D01*
X80888723Y-57374513D01*
X80924535Y-57327842D01*
X80924534Y-57327842D01*
X80924536Y-57327841D01*
X80985044Y-57181762D01*
X81005682Y-57025000D01*
X81002764Y-57002839D01*
X80985044Y-56868239D01*
X80985044Y-56868238D01*
X80924536Y-56722159D01*
X80828282Y-56596718D01*
X80702841Y-56500464D01*
X80556762Y-56439956D01*
X80556760Y-56439955D01*
X80400001Y-56419318D01*
X80399999Y-56419318D01*
X80243239Y-56439955D01*
X80243237Y-56439956D01*
X80097156Y-56500465D01*
X80088900Y-56506800D01*
X80023730Y-56531992D01*
X79955286Y-56517952D01*
X79905298Y-56469136D01*
X79898862Y-56455889D01*
X79874536Y-56397159D01*
X79778282Y-56271718D01*
X79652841Y-56175464D01*
X79506762Y-56114956D01*
X79506760Y-56114955D01*
X79350001Y-56094318D01*
X79349999Y-56094318D01*
X79193239Y-56114955D01*
X79193237Y-56114956D01*
X79047160Y-56175463D01*
X78921718Y-56271718D01*
X78825463Y-56397160D01*
X78764956Y-56543237D01*
X78764955Y-56543239D01*
X78744318Y-56699998D01*
X78744318Y-56700001D01*
X75750500Y-56700001D01*
X75750500Y-55800001D01*
X90594318Y-55800001D01*
X90614955Y-55956760D01*
X90614956Y-55956762D01*
X90671933Y-56094318D01*
X90675464Y-56102841D01*
X90771718Y-56228282D01*
X90897159Y-56324536D01*
X91043238Y-56385044D01*
X91121619Y-56395363D01*
X91199999Y-56405682D01*
X91200000Y-56405682D01*
X91200001Y-56405682D01*
X91264739Y-56397159D01*
X91356762Y-56385044D01*
X91502841Y-56324536D01*
X91628282Y-56228282D01*
X91724536Y-56102841D01*
X91785044Y-55956762D01*
X91805682Y-55800000D01*
X91785044Y-55643238D01*
X91724536Y-55497159D01*
X91628282Y-55371718D01*
X91502841Y-55275464D01*
X91356762Y-55214956D01*
X91356760Y-55214955D01*
X91200001Y-55194318D01*
X91199999Y-55194318D01*
X91043239Y-55214955D01*
X91043237Y-55214956D01*
X90897160Y-55275463D01*
X90771718Y-55371718D01*
X90675463Y-55497160D01*
X90614956Y-55643237D01*
X90614955Y-55643239D01*
X90594318Y-55799998D01*
X90594318Y-55800001D01*
X75750500Y-55800001D01*
X75750500Y-55401736D01*
X75770185Y-55334697D01*
X75822989Y-55288942D01*
X75892147Y-55278998D01*
X75939776Y-55296308D01*
X75984981Y-55324298D01*
X76183802Y-55401321D01*
X76393390Y-55440500D01*
X76393392Y-55440500D01*
X76606608Y-55440500D01*
X76606610Y-55440500D01*
X76816198Y-55401321D01*
X77015019Y-55324298D01*
X77196302Y-55212052D01*
X77353872Y-55068407D01*
X77482366Y-54898255D01*
X77508755Y-54845258D01*
X77577403Y-54707394D01*
X77577403Y-54707393D01*
X77577405Y-54707389D01*
X77635756Y-54502310D01*
X77655429Y-54290000D01*
X77635756Y-54077690D01*
X77577405Y-53872611D01*
X77577403Y-53872606D01*
X77577403Y-53872605D01*
X77482367Y-53681746D01*
X77353872Y-53511593D01*
X77352743Y-53510564D01*
X77196302Y-53367948D01*
X77015019Y-53255702D01*
X77015017Y-53255701D01*
X77000303Y-53250001D01*
X78494318Y-53250001D01*
X78514955Y-53406760D01*
X78514956Y-53406762D01*
X78541261Y-53470269D01*
X78575464Y-53552841D01*
X78671718Y-53678282D01*
X78797159Y-53774536D01*
X78943238Y-53835044D01*
X79021619Y-53845363D01*
X79099999Y-53855682D01*
X79100000Y-53855682D01*
X79100001Y-53855682D01*
X79152254Y-53848802D01*
X79256762Y-53835044D01*
X79402841Y-53774536D01*
X79528282Y-53678282D01*
X79624536Y-53552841D01*
X79685044Y-53406762D01*
X79704931Y-53255702D01*
X79705682Y-53250001D01*
X79705682Y-53249998D01*
X79685044Y-53093239D01*
X79685044Y-53093238D01*
X79624536Y-52947159D01*
X79528282Y-52821718D01*
X79402841Y-52725464D01*
X79305770Y-52685256D01*
X79256762Y-52664956D01*
X79256760Y-52664955D01*
X79100001Y-52644318D01*
X79099999Y-52644318D01*
X78943239Y-52664955D01*
X78943237Y-52664956D01*
X78797160Y-52725463D01*
X78671718Y-52821718D01*
X78575463Y-52947160D01*
X78514956Y-53093237D01*
X78514955Y-53093239D01*
X78494318Y-53249998D01*
X78494318Y-53250001D01*
X77000303Y-53250001D01*
X76880336Y-53203526D01*
X76816198Y-53178679D01*
X76643453Y-53146387D01*
X76581174Y-53114720D01*
X76545901Y-53054407D01*
X76548835Y-52984599D01*
X76589044Y-52927459D01*
X76653762Y-52901128D01*
X76666240Y-52900499D01*
X77394856Y-52900499D01*
X77394864Y-52900499D01*
X77394879Y-52900497D01*
X77394882Y-52900497D01*
X77419987Y-52897586D01*
X77419988Y-52897585D01*
X77419991Y-52897585D01*
X77522765Y-52852206D01*
X77602206Y-52772765D01*
X77647585Y-52669991D01*
X77650500Y-52644865D01*
X77650499Y-50974499D01*
X77670184Y-50907461D01*
X77722987Y-50861706D01*
X77774499Y-50850500D01*
X78379188Y-50850500D01*
X78446227Y-50870185D01*
X78491982Y-50922989D01*
X78502126Y-50990685D01*
X78494318Y-51049998D01*
X78494318Y-51050000D01*
X78494318Y-51050001D01*
X78514955Y-51206760D01*
X78514956Y-51206762D01*
X78573355Y-51347751D01*
X78575464Y-51352841D01*
X78671718Y-51478282D01*
X78797159Y-51574536D01*
X78943238Y-51635044D01*
X79005174Y-51643198D01*
X79099999Y-51655682D01*
X79100000Y-51655682D01*
X79100001Y-51655682D01*
X79170261Y-51646432D01*
X79256762Y-51635044D01*
X79402841Y-51574536D01*
X79528282Y-51478282D01*
X79624536Y-51352841D01*
X79685044Y-51206762D01*
X79705682Y-51050000D01*
X79697873Y-50990685D01*
X79708638Y-50921650D01*
X79755018Y-50869394D01*
X79820812Y-50850500D01*
X80479188Y-50850500D01*
X80546227Y-50870185D01*
X80591982Y-50922989D01*
X80602126Y-50990685D01*
X80594318Y-51049998D01*
X80594318Y-51050000D01*
X80594318Y-51050001D01*
X80615201Y-51208627D01*
X80604435Y-51277662D01*
X80558055Y-51329918D01*
X80490786Y-51348803D01*
X80476077Y-51347751D01*
X80450001Y-51344318D01*
X80449999Y-51344318D01*
X80293239Y-51364955D01*
X80293237Y-51364956D01*
X80147160Y-51425463D01*
X80021718Y-51521718D01*
X79925463Y-51647160D01*
X79864956Y-51793237D01*
X79864955Y-51793239D01*
X79844318Y-51949998D01*
X79844318Y-51950001D01*
X79864955Y-52106760D01*
X79864956Y-52106762D01*
X79925464Y-52252841D01*
X80021718Y-52378282D01*
X80147159Y-52474536D01*
X80293238Y-52535044D01*
X80306721Y-52536819D01*
X80449999Y-52555682D01*
X80450000Y-52555682D01*
X80450001Y-52555682D01*
X80502254Y-52548802D01*
X80606762Y-52535044D01*
X80752841Y-52474536D01*
X80878282Y-52378282D01*
X80974536Y-52252841D01*
X81035044Y-52106762D01*
X81055682Y-51950000D01*
X81035044Y-51793238D01*
X81035043Y-51793236D01*
X81034798Y-51791373D01*
X81045563Y-51722337D01*
X81091943Y-51670081D01*
X81159212Y-51651196D01*
X81173905Y-51652246D01*
X81200000Y-51655682D01*
X81356762Y-51635044D01*
X81502841Y-51574536D01*
X81628282Y-51478282D01*
X81724536Y-51352841D01*
X81785044Y-51206762D01*
X81805682Y-51050000D01*
X81797873Y-50990685D01*
X81808638Y-50921650D01*
X81855018Y-50869394D01*
X81920812Y-50850500D01*
X82979188Y-50850500D01*
X83046227Y-50870185D01*
X83091982Y-50922989D01*
X83102126Y-50990685D01*
X83094318Y-51049998D01*
X83094318Y-51050000D01*
X83094318Y-51050001D01*
X83114955Y-51206760D01*
X83114956Y-51206762D01*
X83173355Y-51347751D01*
X83175464Y-51352841D01*
X83271718Y-51478282D01*
X83397159Y-51574536D01*
X83543238Y-51635044D01*
X83700000Y-51655682D01*
X83700002Y-51655681D01*
X83701388Y-51655864D01*
X83765284Y-51684130D01*
X83803756Y-51742454D01*
X83808142Y-51794987D01*
X83794318Y-51899997D01*
X83794318Y-51900001D01*
X83814955Y-52056760D01*
X83814956Y-52056762D01*
X83850775Y-52143238D01*
X83875464Y-52202841D01*
X83971718Y-52328282D01*
X84097159Y-52424536D01*
X84243238Y-52485044D01*
X84255931Y-52486715D01*
X84399999Y-52505682D01*
X84400000Y-52505682D01*
X84400001Y-52505682D01*
X84452254Y-52498802D01*
X84556762Y-52485044D01*
X84702841Y-52424536D01*
X84750014Y-52388338D01*
X84815183Y-52363145D01*
X84883627Y-52377183D01*
X84933617Y-52425997D01*
X84949500Y-52486715D01*
X84949500Y-53040456D01*
X84949110Y-53047394D01*
X84947724Y-53059693D01*
X84944729Y-53086273D01*
X84955788Y-53144718D01*
X84964652Y-53203529D01*
X84967162Y-53211666D01*
X84969978Y-53219714D01*
X84982411Y-53243237D01*
X84997777Y-53272311D01*
X85012192Y-53302245D01*
X85023576Y-53325883D01*
X85028362Y-53332904D01*
X85033431Y-53339771D01*
X85033434Y-53339777D01*
X85075495Y-53381838D01*
X85107604Y-53416444D01*
X85115947Y-53425435D01*
X85123210Y-53431227D01*
X85122689Y-53431880D01*
X85134930Y-53441273D01*
X86191851Y-54498193D01*
X86196487Y-54503380D01*
X86220882Y-54533970D01*
X86220882Y-54533971D01*
X86270032Y-54567480D01*
X86317879Y-54602793D01*
X86325415Y-54606776D01*
X86333080Y-54610467D01*
X86333088Y-54610472D01*
X86378685Y-54624536D01*
X86389938Y-54628007D01*
X86446058Y-54647645D01*
X86446060Y-54647645D01*
X86446062Y-54647646D01*
X86446063Y-54647646D01*
X86454459Y-54649234D01*
X86462856Y-54650500D01*
X86462859Y-54650500D01*
X86522320Y-54650500D01*
X86581770Y-54652725D01*
X86581770Y-54652724D01*
X86581771Y-54652725D01*
X86581771Y-54652724D01*
X86591003Y-54651685D01*
X86591096Y-54652513D01*
X86606400Y-54650500D01*
X88608581Y-54650500D01*
X88675620Y-54670185D01*
X88684067Y-54676124D01*
X88747157Y-54724535D01*
X88747158Y-54724535D01*
X88747159Y-54724536D01*
X88893238Y-54785044D01*
X88971619Y-54795363D01*
X89049999Y-54805682D01*
X89050000Y-54805682D01*
X89050001Y-54805682D01*
X89102254Y-54798802D01*
X89206762Y-54785044D01*
X89352841Y-54724536D01*
X89478282Y-54628282D01*
X89574536Y-54502841D01*
X89635044Y-54356762D01*
X89655682Y-54200000D01*
X89635044Y-54043238D01*
X89574536Y-53897159D01*
X89478282Y-53771718D01*
X89352841Y-53675464D01*
X89343797Y-53671718D01*
X89206762Y-53614956D01*
X89206760Y-53614955D01*
X89050001Y-53594318D01*
X89049999Y-53594318D01*
X88893239Y-53614955D01*
X88893237Y-53614956D01*
X88747157Y-53675464D01*
X88684067Y-53723876D01*
X88618898Y-53749070D01*
X88608581Y-53749500D01*
X87340788Y-53749500D01*
X87273749Y-53729815D01*
X87227994Y-53677011D01*
X87218050Y-53607853D01*
X87226227Y-53578047D01*
X87227854Y-53574119D01*
X87235044Y-53556762D01*
X87251768Y-53429729D01*
X87255682Y-53400001D01*
X87255682Y-53399998D01*
X87240073Y-53281437D01*
X87235044Y-53243238D01*
X87174536Y-53097159D01*
X87161301Y-53079911D01*
X87136107Y-53014744D01*
X87150145Y-52946299D01*
X87198958Y-52896308D01*
X87267049Y-52880644D01*
X87291774Y-52884651D01*
X87293230Y-52885040D01*
X87293238Y-52885044D01*
X87410616Y-52900497D01*
X87449999Y-52905682D01*
X87450000Y-52905682D01*
X87450001Y-52905682D01*
X87502254Y-52898802D01*
X87606762Y-52885044D01*
X87752841Y-52824536D01*
X87878282Y-52728282D01*
X87974536Y-52602841D01*
X88003759Y-52532289D01*
X88047597Y-52477890D01*
X88113891Y-52455825D01*
X88154863Y-52461254D01*
X88183202Y-52469995D01*
X88209178Y-52478008D01*
X88249691Y-52492183D01*
X88265301Y-52497646D01*
X88265307Y-52497646D01*
X88273698Y-52499234D01*
X88282095Y-52500500D01*
X88282098Y-52500500D01*
X88341559Y-52500500D01*
X88401009Y-52502725D01*
X88401009Y-52502724D01*
X88401010Y-52502725D01*
X88401010Y-52502724D01*
X88410242Y-52501685D01*
X88410335Y-52502513D01*
X88425639Y-52500500D01*
X91481273Y-52500500D01*
X91548312Y-52520185D01*
X91568954Y-52536819D01*
X92481376Y-53449241D01*
X92514861Y-53510564D01*
X92509877Y-53580256D01*
X92469182Y-53635297D01*
X92421720Y-53671715D01*
X92325463Y-53797160D01*
X92264956Y-53943237D01*
X92264955Y-53943239D01*
X92244318Y-54099998D01*
X92244318Y-54100001D01*
X92264955Y-54256760D01*
X92264956Y-54256762D01*
X92306376Y-54356760D01*
X92325464Y-54402841D01*
X92421718Y-54528282D01*
X92547159Y-54624536D01*
X92547160Y-54624536D01*
X92547161Y-54624537D01*
X92601519Y-54647052D01*
X92650499Y-54667341D01*
X92650700Y-54667424D01*
X92705104Y-54711265D01*
X92727169Y-54777559D01*
X92709890Y-54845258D01*
X92658753Y-54892869D01*
X92619435Y-54904924D01*
X92543238Y-54914956D01*
X92543237Y-54914956D01*
X92397160Y-54975463D01*
X92271718Y-55071718D01*
X92175463Y-55197160D01*
X92114956Y-55343237D01*
X92114955Y-55343239D01*
X92094318Y-55499998D01*
X92094318Y-55500001D01*
X92114955Y-55656760D01*
X92114956Y-55656762D01*
X92174287Y-55800001D01*
X92175464Y-55802841D01*
X92271718Y-55928282D01*
X92319181Y-55964702D01*
X92360384Y-56021129D01*
X92364539Y-56090875D01*
X92331376Y-56150758D01*
X87668955Y-60813181D01*
X87607632Y-60846666D01*
X87581274Y-60849500D01*
X86941419Y-60849500D01*
X86874380Y-60829815D01*
X86865933Y-60823876D01*
X86802842Y-60775464D01*
X86656762Y-60714956D01*
X86656760Y-60714955D01*
X86500001Y-60694318D01*
X86499999Y-60694318D01*
X86343239Y-60714955D01*
X86343237Y-60714956D01*
X86197160Y-60775463D01*
X86071718Y-60871718D01*
X85975460Y-60997163D01*
X85971401Y-61004196D01*
X85968774Y-61002679D01*
X85933965Y-61045843D01*
X85867663Y-61067884D01*
X85799970Y-61050580D01*
X85764907Y-61019448D01*
X85745793Y-60994539D01*
X85728282Y-60971718D01*
X85602841Y-60875464D01*
X85593797Y-60871718D01*
X85456762Y-60814956D01*
X85456760Y-60814955D01*
X85300001Y-60794318D01*
X85299999Y-60794318D01*
X85143239Y-60814955D01*
X85143237Y-60814956D01*
X84997160Y-60875463D01*
X84871718Y-60971718D01*
X84775463Y-61097160D01*
X84714956Y-61243237D01*
X84714955Y-61243239D01*
X84694318Y-61399998D01*
X84694318Y-61400001D01*
X84714955Y-61556760D01*
X84714956Y-61556762D01*
X84775207Y-61702222D01*
X84775464Y-61702841D01*
X84871718Y-61828282D01*
X84997159Y-61924536D01*
X85143238Y-61985044D01*
X85221619Y-61995363D01*
X85299999Y-62005682D01*
X85300000Y-62005682D01*
X85300001Y-62005682D01*
X85352254Y-61998802D01*
X85456762Y-61985044D01*
X85602841Y-61924536D01*
X85728282Y-61828282D01*
X85824536Y-61702841D01*
X85824536Y-61702838D01*
X85824539Y-61702836D01*
X85828599Y-61695804D01*
X85831236Y-61697326D01*
X85865964Y-61654205D01*
X85932251Y-61632118D01*
X85999956Y-61649376D01*
X86035092Y-61680551D01*
X86071715Y-61728279D01*
X86071716Y-61728280D01*
X86071718Y-61728282D01*
X86197159Y-61824536D01*
X86343238Y-61885044D01*
X86421619Y-61895363D01*
X86499999Y-61905682D01*
X86500000Y-61905682D01*
X86500001Y-61905682D01*
X86552254Y-61898802D01*
X86656762Y-61885044D01*
X86802841Y-61824536D01*
X86865933Y-61776123D01*
X86931102Y-61750930D01*
X86941419Y-61750500D01*
X87790456Y-61750500D01*
X87797394Y-61750889D01*
X87829289Y-61754483D01*
X87836273Y-61755270D01*
X87836273Y-61755269D01*
X87836274Y-61755270D01*
X87894718Y-61744211D01*
X87953526Y-61735348D01*
X87953529Y-61735346D01*
X87961686Y-61732830D01*
X87969708Y-61730023D01*
X87969711Y-61730023D01*
X88022311Y-61702222D01*
X88075881Y-61676425D01*
X88075881Y-61676424D01*
X88075883Y-61676424D01*
X88082934Y-61671616D01*
X88089777Y-61666566D01*
X88131839Y-61624503D01*
X88175433Y-61584055D01*
X88175435Y-61584050D01*
X88181226Y-61576790D01*
X88181882Y-61577313D01*
X88191271Y-61565070D01*
X93798205Y-55958135D01*
X93803373Y-55953516D01*
X93833970Y-55929118D01*
X93867480Y-55879967D01*
X93902793Y-55832121D01*
X93902794Y-55832118D01*
X93906778Y-55824580D01*
X93910474Y-55816907D01*
X93928006Y-55760066D01*
X93947645Y-55703941D01*
X93947646Y-55703939D01*
X93947646Y-55703934D01*
X93949228Y-55695575D01*
X93950500Y-55687138D01*
X93950500Y-55627665D01*
X93952724Y-55568231D01*
X93951684Y-55559000D01*
X93952513Y-55558906D01*
X93950500Y-55543605D01*
X93950500Y-53859543D01*
X93950889Y-53852604D01*
X93955270Y-53813726D01*
X93944211Y-53755281D01*
X93935348Y-53696474D01*
X93935347Y-53696472D01*
X93932836Y-53688332D01*
X93930024Y-53680294D01*
X93930023Y-53680289D01*
X93928290Y-53677011D01*
X93923218Y-53667415D01*
X93902226Y-53627697D01*
X93876425Y-53574119D01*
X93876422Y-53574116D01*
X93876421Y-53574113D01*
X93871642Y-53567103D01*
X93866568Y-53560230D01*
X93866565Y-53560223D01*
X93824516Y-53518174D01*
X93784055Y-53474567D01*
X93776792Y-53468775D01*
X93777312Y-53468122D01*
X93765067Y-53458725D01*
X92058147Y-51751805D01*
X92053510Y-51746617D01*
X92050815Y-51743238D01*
X92029118Y-51716030D01*
X92013104Y-51705112D01*
X91979967Y-51682519D01*
X91932121Y-51647207D01*
X91924536Y-51643198D01*
X91916916Y-51639529D01*
X91892400Y-51631967D01*
X91860061Y-51621992D01*
X91839393Y-51614760D01*
X91803934Y-51602352D01*
X91795565Y-51600768D01*
X91787143Y-51599500D01*
X91787141Y-51599500D01*
X91727665Y-51599500D01*
X91668229Y-51597275D01*
X91658995Y-51598316D01*
X91658901Y-51597486D01*
X91643603Y-51599500D01*
X90790116Y-51599500D01*
X90723077Y-51579815D01*
X90677322Y-51527011D01*
X90667378Y-51457853D01*
X90696403Y-51394297D01*
X90714625Y-51377126D01*
X90778282Y-51328282D01*
X90874536Y-51202841D01*
X90935044Y-51056762D01*
X90948802Y-50952254D01*
X90955682Y-50900001D01*
X90955682Y-50899998D01*
X90949100Y-50850001D01*
X91744318Y-50850001D01*
X91764955Y-51006760D01*
X91764956Y-51006762D01*
X91825464Y-51152841D01*
X91921718Y-51278282D01*
X92047159Y-51374536D01*
X92193238Y-51435044D01*
X92271619Y-51445363D01*
X92349999Y-51455682D01*
X92350000Y-51455682D01*
X92350001Y-51455682D01*
X92402254Y-51448802D01*
X92506762Y-51435044D01*
X92652841Y-51374536D01*
X92778282Y-51278282D01*
X92874536Y-51152841D01*
X92935044Y-51006762D01*
X92955682Y-50850000D01*
X92935044Y-50693238D01*
X92874536Y-50547159D01*
X92778282Y-50421718D01*
X92652841Y-50325464D01*
X92627472Y-50314956D01*
X92506762Y-50264956D01*
X92506760Y-50264955D01*
X92350001Y-50244318D01*
X92349999Y-50244318D01*
X92193239Y-50264955D01*
X92193237Y-50264956D01*
X92047160Y-50325463D01*
X91921718Y-50421718D01*
X91825463Y-50547160D01*
X91764956Y-50693237D01*
X91764955Y-50693239D01*
X91744318Y-50849998D01*
X91744318Y-50850001D01*
X90949100Y-50850001D01*
X90935044Y-50743239D01*
X90935044Y-50743238D01*
X90874536Y-50597159D01*
X90778282Y-50471718D01*
X90652841Y-50375464D01*
X90506762Y-50314956D01*
X90506760Y-50314955D01*
X90350001Y-50294318D01*
X90349999Y-50294318D01*
X90193239Y-50314955D01*
X90193237Y-50314956D01*
X90047160Y-50375463D01*
X90047159Y-50375464D01*
X89921718Y-50471718D01*
X89898374Y-50502140D01*
X89841948Y-50543341D01*
X89772202Y-50547496D01*
X89711281Y-50513283D01*
X89701630Y-50502146D01*
X89678282Y-50471718D01*
X89552841Y-50375464D01*
X89406762Y-50314956D01*
X89406760Y-50314955D01*
X89250001Y-50294318D01*
X89249999Y-50294318D01*
X89093239Y-50314955D01*
X89093237Y-50314956D01*
X88947157Y-50375464D01*
X88850486Y-50449643D01*
X88785317Y-50474837D01*
X88716872Y-50460798D01*
X88699514Y-50449643D01*
X88602842Y-50375464D01*
X88456762Y-50314956D01*
X88456760Y-50314955D01*
X88300001Y-50294318D01*
X88299999Y-50294318D01*
X88143239Y-50314955D01*
X88143237Y-50314956D01*
X87997160Y-50375463D01*
X87997159Y-50375464D01*
X87871718Y-50471718D01*
X87848374Y-50502140D01*
X87791948Y-50543341D01*
X87722202Y-50547496D01*
X87661281Y-50513283D01*
X87651630Y-50502146D01*
X87628282Y-50471718D01*
X87502841Y-50375464D01*
X87356762Y-50314956D01*
X87356760Y-50314955D01*
X87200001Y-50294318D01*
X87199999Y-50294318D01*
X87043239Y-50314955D01*
X87043237Y-50314956D01*
X86897160Y-50375463D01*
X86771715Y-50471720D01*
X86721603Y-50537028D01*
X86665175Y-50578231D01*
X86595429Y-50582385D01*
X86547742Y-50559917D01*
X86502842Y-50525464D01*
X86356762Y-50464956D01*
X86356760Y-50464955D01*
X86200001Y-50444318D01*
X86199999Y-50444318D01*
X86043239Y-50464955D01*
X86043237Y-50464956D01*
X85897160Y-50525463D01*
X85771718Y-50621718D01*
X85675463Y-50747160D01*
X85614956Y-50893237D01*
X85614955Y-50893239D01*
X85594318Y-51049998D01*
X85594318Y-51050001D01*
X85597879Y-51077051D01*
X85587113Y-51146087D01*
X85540733Y-51198342D01*
X85473464Y-51217227D01*
X85406663Y-51196746D01*
X85387259Y-51180917D01*
X84308147Y-50101805D01*
X84303510Y-50096617D01*
X84289632Y-50079215D01*
X84279118Y-50066030D01*
X84229967Y-50032519D01*
X84182121Y-49997207D01*
X84174536Y-49993198D01*
X84166916Y-49989529D01*
X84142400Y-49981967D01*
X84110061Y-49971992D01*
X84089081Y-49964651D01*
X84053934Y-49952352D01*
X84045565Y-49950768D01*
X84037143Y-49949500D01*
X84037141Y-49949500D01*
X83977665Y-49949500D01*
X83948625Y-49948413D01*
X83934426Y-49943660D01*
X83914284Y-49947720D01*
X83908994Y-49948316D01*
X83908900Y-49947486D01*
X83893603Y-49949500D01*
X75478783Y-49949500D01*
X75471844Y-49949110D01*
X75459503Y-49947720D01*
X75441509Y-49940159D01*
X75436347Y-49943477D01*
X75424465Y-49946338D01*
X75409815Y-49949110D01*
X75374520Y-49955788D01*
X75361832Y-49957700D01*
X75315716Y-49964651D01*
X75307558Y-49967167D01*
X75299522Y-49969979D01*
X75246927Y-49997777D01*
X75193356Y-50023576D01*
X75186310Y-50028379D01*
X75179458Y-50033436D01*
X75162181Y-50050714D01*
X75100858Y-50084199D01*
X75031166Y-50079215D01*
X74975233Y-50037343D01*
X74950816Y-49971879D01*
X74950500Y-49963033D01*
X74950500Y-49824500D01*
X74970185Y-49757461D01*
X75022989Y-49711706D01*
X75074500Y-49700500D01*
X75401412Y-49700500D01*
X75435500Y-49710509D01*
G37*
%TD.AperFunction*%
%TD*%
M02*
