%TF.GenerationSoftware,KiCad,Pcbnew,7.0.10*%
%TF.CreationDate,2024-01-17T15:02:14-08:00*%
%TF.ProjectId,P1.2,50312e32-2e6b-4696-9361-645f70636258,rev?*%
%TF.SameCoordinates,Original*%
%TF.FileFunction,Drillmap*%
%TF.FilePolarity,Positive*%
%FSLAX45Y45*%
G04 Gerber Fmt 4.5, Leading zero omitted, Abs format (unit mm)*
G04 Created by KiCad (PCBNEW 7.0.10) date 2024-01-17 15:02:14*
%MOMM*%
%LPD*%
G01*
G04 APERTURE LIST*
%ADD10C,0.100000*%
%ADD11C,0.200000*%
%ADD12C,0.127000*%
G04 APERTURE END LIST*
D10*
X7620000Y-5080000D02*
X20066000Y-5080000D01*
X20066000Y-15265400D01*
X7620000Y-15265400D01*
X7620000Y-5080000D01*
D11*
D10*
X12730800Y-12476800D02*
X12770800Y-12516800D01*
X12770800Y-12476800D02*
X12730800Y-12516800D01*
X12730800Y-12947341D02*
X12770800Y-12987341D01*
X12770800Y-12947341D02*
X12730800Y-12987341D01*
X13569000Y-10343200D02*
X13609000Y-10383200D01*
X13609000Y-10343200D02*
X13569000Y-10383200D01*
X9819000Y-13724000D02*
G75*
G03*
X9739000Y-13724000I-40000J0D01*
G01*
X9739000Y-13724000D02*
G75*
G03*
X9819000Y-13724000I40000J0D01*
G01*
X9819000Y-14486000D02*
G75*
G03*
X9739000Y-14486000I-40000J0D01*
G01*
X9739000Y-14486000D02*
G75*
G03*
X9819000Y-14486000I40000J0D01*
G01*
X10027594Y-5508000D02*
G75*
G03*
X9947594Y-5508000I-40000J0D01*
G01*
X9947594Y-5508000D02*
G75*
G03*
X10027594Y-5508000I40000J0D01*
G01*
X10027594Y-6524000D02*
G75*
G03*
X9947594Y-6524000I-40000J0D01*
G01*
X9947594Y-6524000D02*
G75*
G03*
X10027594Y-6524000I40000J0D01*
G01*
X10027594Y-7032000D02*
G75*
G03*
X9947594Y-7032000I-40000J0D01*
G01*
X9947594Y-7032000D02*
G75*
G03*
X10027594Y-7032000I40000J0D01*
G01*
X10027594Y-8048000D02*
G75*
G03*
X9947594Y-8048000I-40000J0D01*
G01*
X9947594Y-8048000D02*
G75*
G03*
X10027594Y-8048000I40000J0D01*
G01*
X10403200Y-12453606D02*
G75*
G03*
X10323200Y-12453606I-40000J0D01*
G01*
X10323200Y-12453606D02*
G75*
G03*
X10403200Y-12453606I40000J0D01*
G01*
X10403200Y-12953606D02*
G75*
G03*
X10323200Y-12953606I-40000J0D01*
G01*
X10323200Y-12953606D02*
G75*
G03*
X10403200Y-12953606I40000J0D01*
G01*
X10581000Y-13724000D02*
G75*
G03*
X10501000Y-13724000I-40000J0D01*
G01*
X10501000Y-13724000D02*
G75*
G03*
X10581000Y-13724000I40000J0D01*
G01*
X10637194Y-5508000D02*
G75*
G03*
X10557194Y-5508000I-40000J0D01*
G01*
X10557194Y-5508000D02*
G75*
G03*
X10637194Y-5508000I40000J0D01*
G01*
X10637194Y-6524000D02*
G75*
G03*
X10557194Y-6524000I-40000J0D01*
G01*
X10557194Y-6524000D02*
G75*
G03*
X10637194Y-6524000I40000J0D01*
G01*
X10835000Y-14486000D02*
G75*
G03*
X10755000Y-14486000I-40000J0D01*
G01*
X10755000Y-14486000D02*
G75*
G03*
X10835000Y-14486000I40000J0D01*
G01*
X11428594Y-6507490D02*
G75*
G03*
X11348594Y-6507490I-40000J0D01*
G01*
X11348594Y-6507490D02*
G75*
G03*
X11428594Y-6507490I40000J0D01*
G01*
X11428594Y-6761490D02*
G75*
G03*
X11348594Y-6761490I-40000J0D01*
G01*
X11348594Y-6761490D02*
G75*
G03*
X11428594Y-6761490I40000J0D01*
G01*
X11428594Y-7015490D02*
G75*
G03*
X11348594Y-7015490I-40000J0D01*
G01*
X11348594Y-7015490D02*
G75*
G03*
X11428594Y-7015490I40000J0D01*
G01*
X11428594Y-7269490D02*
G75*
G03*
X11348594Y-7269490I-40000J0D01*
G01*
X11348594Y-7269490D02*
G75*
G03*
X11428594Y-7269490I40000J0D01*
G01*
X11679689Y-11455400D02*
G75*
G03*
X11599689Y-11455400I-40000J0D01*
G01*
X11599689Y-11455400D02*
G75*
G03*
X11679689Y-11455400I40000J0D01*
G01*
X11929689Y-11455400D02*
G75*
G03*
X11849689Y-11455400I-40000J0D01*
G01*
X11849689Y-11455400D02*
G75*
G03*
X11929689Y-11455400I40000J0D01*
G01*
X12130400Y-12242800D02*
G75*
G03*
X12050400Y-12242800I-40000J0D01*
G01*
X12050400Y-12242800D02*
G75*
G03*
X12130400Y-12242800I40000J0D01*
G01*
X12130400Y-13258800D02*
G75*
G03*
X12050400Y-13258800I-40000J0D01*
G01*
X12050400Y-13258800D02*
G75*
G03*
X12130400Y-13258800I40000J0D01*
G01*
X12190594Y-6507490D02*
G75*
G03*
X12110594Y-6507490I-40000J0D01*
G01*
X12110594Y-6507490D02*
G75*
G03*
X12190594Y-6507490I40000J0D01*
G01*
X12190594Y-6761490D02*
G75*
G03*
X12110594Y-6761490I-40000J0D01*
G01*
X12110594Y-6761490D02*
G75*
G03*
X12190594Y-6761490I40000J0D01*
G01*
X12190594Y-7015490D02*
G75*
G03*
X12110594Y-7015490I-40000J0D01*
G01*
X12110594Y-7015490D02*
G75*
G03*
X12190594Y-7015490I40000J0D01*
G01*
X12190594Y-7269490D02*
G75*
G03*
X12110594Y-7269490I-40000J0D01*
G01*
X12110594Y-7269490D02*
G75*
G03*
X12190594Y-7269490I40000J0D01*
G01*
X12486000Y-10106711D02*
G75*
G03*
X12406000Y-10106711I-40000J0D01*
G01*
X12406000Y-10106711D02*
G75*
G03*
X12486000Y-10106711I40000J0D01*
G01*
X12486000Y-10356711D02*
G75*
G03*
X12406000Y-10356711I-40000J0D01*
G01*
X12406000Y-10356711D02*
G75*
G03*
X12486000Y-10356711I40000J0D01*
G01*
X12740000Y-13470000D02*
G75*
G03*
X12660000Y-13470000I-40000J0D01*
G01*
X12660000Y-13470000D02*
G75*
G03*
X12740000Y-13470000I40000J0D01*
G01*
X12740000Y-13970000D02*
G75*
G03*
X12660000Y-13970000I-40000J0D01*
G01*
X12660000Y-13970000D02*
G75*
G03*
X12740000Y-13970000I40000J0D01*
G01*
X12822689Y-6756400D02*
G75*
G03*
X12742689Y-6756400I-40000J0D01*
G01*
X12742689Y-6756400D02*
G75*
G03*
X12822689Y-6756400I40000J0D01*
G01*
X12867000Y-7620000D02*
G75*
G03*
X12787000Y-7620000I-40000J0D01*
G01*
X12787000Y-7620000D02*
G75*
G03*
X12867000Y-7620000I40000J0D01*
G01*
X12867000Y-8636000D02*
G75*
G03*
X12787000Y-8636000I-40000J0D01*
G01*
X12787000Y-8636000D02*
G75*
G03*
X12867000Y-8636000I40000J0D01*
G01*
X13072689Y-6756400D02*
G75*
G03*
X12992689Y-6756400I-40000J0D01*
G01*
X12992689Y-6756400D02*
G75*
G03*
X13072689Y-6756400I40000J0D01*
G01*
X13299800Y-9348200D02*
G75*
G03*
X13219800Y-9348200I-40000J0D01*
G01*
X13219800Y-9348200D02*
G75*
G03*
X13299800Y-9348200I40000J0D01*
G01*
X13299800Y-9602200D02*
G75*
G03*
X13219800Y-9602200I-40000J0D01*
G01*
X13219800Y-9602200D02*
G75*
G03*
X13299800Y-9602200I40000J0D01*
G01*
X13299800Y-9856200D02*
G75*
G03*
X13219800Y-9856200I-40000J0D01*
G01*
X13219800Y-9856200D02*
G75*
G03*
X13299800Y-9856200I40000J0D01*
G01*
X13299800Y-10110200D02*
G75*
G03*
X13219800Y-10110200I-40000J0D01*
G01*
X13219800Y-10110200D02*
G75*
G03*
X13299800Y-10110200I40000J0D01*
G01*
X13375000Y-7620000D02*
G75*
G03*
X13295000Y-7620000I-40000J0D01*
G01*
X13295000Y-7620000D02*
G75*
G03*
X13375000Y-7620000I40000J0D01*
G01*
X13375000Y-8636000D02*
G75*
G03*
X13295000Y-8636000I-40000J0D01*
G01*
X13295000Y-8636000D02*
G75*
G03*
X13375000Y-8636000I40000J0D01*
G01*
X13556800Y-10922000D02*
G75*
G03*
X13476800Y-10922000I-40000J0D01*
G01*
X13476800Y-10922000D02*
G75*
G03*
X13556800Y-10922000I40000J0D01*
G01*
X13908400Y-7620000D02*
G75*
G03*
X13828400Y-7620000I-40000J0D01*
G01*
X13828400Y-7620000D02*
G75*
G03*
X13908400Y-7620000I40000J0D01*
G01*
X13908400Y-8636000D02*
G75*
G03*
X13828400Y-8636000I-40000J0D01*
G01*
X13828400Y-8636000D02*
G75*
G03*
X13908400Y-8636000I40000J0D01*
G01*
X14056800Y-10922000D02*
G75*
G03*
X13976800Y-10922000I-40000J0D01*
G01*
X13976800Y-10922000D02*
G75*
G03*
X14056800Y-10922000I40000J0D01*
G01*
X14061800Y-9348200D02*
G75*
G03*
X13981800Y-9348200I-40000J0D01*
G01*
X13981800Y-9348200D02*
G75*
G03*
X14061800Y-9348200I40000J0D01*
G01*
X14061800Y-9602200D02*
G75*
G03*
X13981800Y-9602200I-40000J0D01*
G01*
X13981800Y-9602200D02*
G75*
G03*
X14061800Y-9602200I40000J0D01*
G01*
X14061800Y-9856200D02*
G75*
G03*
X13981800Y-9856200I-40000J0D01*
G01*
X13981800Y-9856200D02*
G75*
G03*
X14061800Y-9856200I40000J0D01*
G01*
X14061800Y-10110200D02*
G75*
G03*
X13981800Y-10110200I-40000J0D01*
G01*
X13981800Y-10110200D02*
G75*
G03*
X14061800Y-10110200I40000J0D01*
G01*
X14518000Y-9398000D02*
G75*
G03*
X14438000Y-9398000I-40000J0D01*
G01*
X14438000Y-9398000D02*
G75*
G03*
X14518000Y-9398000I40000J0D01*
G01*
X14518000Y-10414000D02*
G75*
G03*
X14438000Y-10414000I-40000J0D01*
G01*
X14438000Y-10414000D02*
G75*
G03*
X14518000Y-10414000I40000J0D01*
G01*
X14594200Y-6703111D02*
G75*
G03*
X14514200Y-6703111I-40000J0D01*
G01*
X14514200Y-6703111D02*
G75*
G03*
X14594200Y-6703111I40000J0D01*
G01*
X14594200Y-6953111D02*
G75*
G03*
X14514200Y-6953111I-40000J0D01*
G01*
X14514200Y-6953111D02*
G75*
G03*
X14594200Y-6953111I40000J0D01*
G01*
X14594200Y-7620000D02*
G75*
G03*
X14514200Y-7620000I-40000J0D01*
G01*
X14514200Y-7620000D02*
G75*
G03*
X14594200Y-7620000I40000J0D01*
G01*
X14594200Y-7874000D02*
G75*
G03*
X14514200Y-7874000I-40000J0D01*
G01*
X14514200Y-7874000D02*
G75*
G03*
X14594200Y-7874000I40000J0D01*
G01*
X14594200Y-8128000D02*
G75*
G03*
X14514200Y-8128000I-40000J0D01*
G01*
X14514200Y-8128000D02*
G75*
G03*
X14594200Y-8128000I40000J0D01*
G01*
X14949800Y-10414000D02*
G75*
G03*
X14869800Y-10414000I-40000J0D01*
G01*
X14869800Y-10414000D02*
G75*
G03*
X14949800Y-10414000I40000J0D01*
G01*
X14949800Y-11430000D02*
G75*
G03*
X14869800Y-11430000I-40000J0D01*
G01*
X14869800Y-11430000D02*
G75*
G03*
X14949800Y-11430000I40000J0D01*
G01*
X15026000Y-9406000D02*
G75*
G03*
X14946000Y-9406000I-40000J0D01*
G01*
X14946000Y-9406000D02*
G75*
G03*
X15026000Y-9406000I40000J0D01*
G01*
X15026000Y-9906000D02*
G75*
G03*
X14946000Y-9906000I-40000J0D01*
G01*
X14946000Y-9906000D02*
G75*
G03*
X15026000Y-9906000I40000J0D01*
G01*
X15534000Y-6350000D02*
G75*
G03*
X15454000Y-6350000I-40000J0D01*
G01*
X15454000Y-6350000D02*
G75*
G03*
X15534000Y-6350000I40000J0D01*
G01*
X15534000Y-7366000D02*
G75*
G03*
X15454000Y-7366000I-40000J0D01*
G01*
X15454000Y-7366000D02*
G75*
G03*
X15534000Y-7366000I40000J0D01*
G01*
X15788000Y-9406000D02*
G75*
G03*
X15708000Y-9406000I-40000J0D01*
G01*
X15708000Y-9406000D02*
G75*
G03*
X15788000Y-9406000I40000J0D01*
G01*
X15788000Y-9906000D02*
G75*
G03*
X15708000Y-9906000I-40000J0D01*
G01*
X15708000Y-9906000D02*
G75*
G03*
X15788000Y-9906000I40000J0D01*
G01*
X15792000Y-8382000D02*
G75*
G03*
X15712000Y-8382000I-40000J0D01*
G01*
X15712000Y-8382000D02*
G75*
G03*
X15792000Y-8382000I40000J0D01*
G01*
X16042000Y-6350000D02*
G75*
G03*
X15962000Y-6350000I-40000J0D01*
G01*
X15962000Y-6350000D02*
G75*
G03*
X16042000Y-6350000I40000J0D01*
G01*
X16042000Y-7366000D02*
G75*
G03*
X15962000Y-7366000I-40000J0D01*
G01*
X15962000Y-7366000D02*
G75*
G03*
X16042000Y-7366000I40000J0D01*
G01*
X16292000Y-8382000D02*
G75*
G03*
X16212000Y-8382000I-40000J0D01*
G01*
X16212000Y-8382000D02*
G75*
G03*
X16292000Y-8382000I40000J0D01*
G01*
X16550000Y-8890000D02*
G75*
G03*
X16470000Y-8890000I-40000J0D01*
G01*
X16470000Y-8890000D02*
G75*
G03*
X16550000Y-8890000I40000J0D01*
G01*
X16550000Y-9906000D02*
G75*
G03*
X16470000Y-9906000I-40000J0D01*
G01*
X16470000Y-9906000D02*
G75*
G03*
X16550000Y-9906000I40000J0D01*
G01*
X16854800Y-6604000D02*
G75*
G03*
X16774800Y-6604000I-40000J0D01*
G01*
X16774800Y-6604000D02*
G75*
G03*
X16854800Y-6604000I40000J0D01*
G01*
X16854800Y-6858000D02*
G75*
G03*
X16774800Y-6858000I-40000J0D01*
G01*
X16774800Y-6858000D02*
G75*
G03*
X16854800Y-6858000I40000J0D01*
G01*
X16854800Y-7112000D02*
G75*
G03*
X16774800Y-7112000I-40000J0D01*
G01*
X16774800Y-7112000D02*
G75*
G03*
X16854800Y-7112000I40000J0D01*
G01*
X17058000Y-9398000D02*
G75*
G03*
X16978000Y-9398000I-40000J0D01*
G01*
X16978000Y-9398000D02*
G75*
G03*
X17058000Y-9398000I40000J0D01*
G01*
X17058000Y-10414000D02*
G75*
G03*
X16978000Y-10414000I-40000J0D01*
G01*
X16978000Y-10414000D02*
G75*
G03*
X17058000Y-10414000I40000J0D01*
G01*
X17547089Y-9398000D02*
G75*
G03*
X17467089Y-9398000I-40000J0D01*
G01*
X17467089Y-9398000D02*
G75*
G03*
X17547089Y-9398000I40000J0D01*
G01*
X17566000Y-6350000D02*
G75*
G03*
X17486000Y-6350000I-40000J0D01*
G01*
X17486000Y-6350000D02*
G75*
G03*
X17566000Y-6350000I40000J0D01*
G01*
X17566000Y-7366000D02*
G75*
G03*
X17486000Y-7366000I-40000J0D01*
G01*
X17486000Y-7366000D02*
G75*
G03*
X17566000Y-7366000I40000J0D01*
G01*
X17797089Y-9398000D02*
G75*
G03*
X17717089Y-9398000I-40000J0D01*
G01*
X17717089Y-9398000D02*
G75*
G03*
X17797089Y-9398000I40000J0D01*
G01*
X17820000Y-7874000D02*
G75*
G03*
X17740000Y-7874000I-40000J0D01*
G01*
X17740000Y-7874000D02*
G75*
G03*
X17820000Y-7874000I40000J0D01*
G01*
X17820000Y-8890000D02*
G75*
G03*
X17740000Y-8890000I-40000J0D01*
G01*
X17740000Y-8890000D02*
G75*
G03*
X17820000Y-8890000I40000J0D01*
G01*
X17820000Y-10414500D02*
G75*
G03*
X17740000Y-10414500I-40000J0D01*
G01*
X17740000Y-10414500D02*
G75*
G03*
X17820000Y-10414500I40000J0D01*
G01*
X17820000Y-10668500D02*
G75*
G03*
X17740000Y-10668500I-40000J0D01*
G01*
X17740000Y-10668500D02*
G75*
G03*
X17820000Y-10668500I40000J0D01*
G01*
X17820000Y-10922500D02*
G75*
G03*
X17740000Y-10922500I-40000J0D01*
G01*
X17740000Y-10922500D02*
G75*
G03*
X17820000Y-10922500I40000J0D01*
G01*
X17820000Y-11176500D02*
G75*
G03*
X17740000Y-11176500I-40000J0D01*
G01*
X17740000Y-11176500D02*
G75*
G03*
X17820000Y-11176500I40000J0D01*
G01*
X17820000Y-11430500D02*
G75*
G03*
X17740000Y-11430500I-40000J0D01*
G01*
X17740000Y-11430500D02*
G75*
G03*
X17820000Y-11430500I40000J0D01*
G01*
X17820000Y-11684500D02*
G75*
G03*
X17740000Y-11684500I-40000J0D01*
G01*
X17740000Y-11684500D02*
G75*
G03*
X17820000Y-11684500I40000J0D01*
G01*
X17820000Y-11938500D02*
G75*
G03*
X17740000Y-11938500I-40000J0D01*
G01*
X17740000Y-11938500D02*
G75*
G03*
X17820000Y-11938500I40000J0D01*
G01*
X18074000Y-6350000D02*
G75*
G03*
X17994000Y-6350000I-40000J0D01*
G01*
X17994000Y-6350000D02*
G75*
G03*
X18074000Y-6350000I40000J0D01*
G01*
X18074000Y-7366000D02*
G75*
G03*
X17994000Y-7366000I-40000J0D01*
G01*
X17994000Y-7366000D02*
G75*
G03*
X18074000Y-7366000I40000J0D01*
G01*
X18328000Y-7874000D02*
G75*
G03*
X18248000Y-7874000I-40000J0D01*
G01*
X18248000Y-7874000D02*
G75*
G03*
X18328000Y-7874000I40000J0D01*
G01*
X18328000Y-8890000D02*
G75*
G03*
X18248000Y-8890000I-40000J0D01*
G01*
X18248000Y-8890000D02*
G75*
G03*
X18328000Y-8890000I40000J0D01*
G01*
X18582000Y-10414500D02*
G75*
G03*
X18502000Y-10414500I-40000J0D01*
G01*
X18502000Y-10414500D02*
G75*
G03*
X18582000Y-10414500I40000J0D01*
G01*
X18582000Y-10668500D02*
G75*
G03*
X18502000Y-10668500I-40000J0D01*
G01*
X18502000Y-10668500D02*
G75*
G03*
X18582000Y-10668500I40000J0D01*
G01*
X18582000Y-10922500D02*
G75*
G03*
X18502000Y-10922500I-40000J0D01*
G01*
X18502000Y-10922500D02*
G75*
G03*
X18582000Y-10922500I40000J0D01*
G01*
X18582000Y-11176500D02*
G75*
G03*
X18502000Y-11176500I-40000J0D01*
G01*
X18502000Y-11176500D02*
G75*
G03*
X18582000Y-11176500I40000J0D01*
G01*
X18582000Y-11430500D02*
G75*
G03*
X18502000Y-11430500I-40000J0D01*
G01*
X18502000Y-11430500D02*
G75*
G03*
X18582000Y-11430500I40000J0D01*
G01*
X18582000Y-11684500D02*
G75*
G03*
X18502000Y-11684500I-40000J0D01*
G01*
X18502000Y-11684500D02*
G75*
G03*
X18582000Y-11684500I40000J0D01*
G01*
X18582000Y-11938500D02*
G75*
G03*
X18502000Y-11938500I-40000J0D01*
G01*
X18502000Y-11938500D02*
G75*
G03*
X18582000Y-11938500I40000J0D01*
G01*
X19090000Y-10922000D02*
G75*
G03*
X19010000Y-10922000I-40000J0D01*
G01*
X19010000Y-10922000D02*
G75*
G03*
X19090000Y-10922000I40000J0D01*
G01*
X19090000Y-11938000D02*
G75*
G03*
X19010000Y-11938000I-40000J0D01*
G01*
X19010000Y-11938000D02*
G75*
G03*
X19090000Y-11938000I40000J0D01*
G01*
X19598000Y-10922000D02*
G75*
G03*
X19518000Y-10922000I-40000J0D01*
G01*
X19518000Y-10922000D02*
G75*
G03*
X19598000Y-10922000I40000J0D01*
G01*
X19598000Y-11938000D02*
G75*
G03*
X19518000Y-11938000I-40000J0D01*
G01*
X19518000Y-11938000D02*
G75*
G03*
X19598000Y-11938000I40000J0D01*
G01*
X9041900Y-14441000D02*
X9041900Y-14531000D01*
X8996900Y-14486000D02*
X9086900Y-14486000D01*
X9295900Y-14441000D02*
X9295900Y-14531000D01*
X9250900Y-14486000D02*
X9340900Y-14486000D01*
X10830023Y-10137683D02*
X10830023Y-10067637D01*
X10759977Y-10067637D01*
X10759977Y-10137683D01*
X10830023Y-10137683D01*
X10830023Y-10899683D02*
X10830023Y-10829637D01*
X10759977Y-10829637D01*
X10759977Y-10899683D01*
X10830023Y-10899683D01*
X11084023Y-10137683D02*
X11084023Y-10067637D01*
X11013977Y-10067637D01*
X11013977Y-10137683D01*
X11084023Y-10137683D01*
X11084023Y-10899683D02*
X11084023Y-10829637D01*
X11013977Y-10829637D01*
X11013977Y-10899683D01*
X11084023Y-10899683D01*
X11338023Y-10137683D02*
X11338023Y-10067637D01*
X11267977Y-10067637D01*
X11267977Y-10137683D01*
X11338023Y-10137683D01*
X11338023Y-10899683D02*
X11338023Y-10829637D01*
X11267977Y-10829637D01*
X11267977Y-10899683D01*
X11338023Y-10899683D01*
X11592023Y-10137683D02*
X11592023Y-10067637D01*
X11521977Y-10067637D01*
X11521977Y-10137683D01*
X11592023Y-10137683D01*
X11592023Y-10899683D02*
X11592023Y-10829637D01*
X11521977Y-10829637D01*
X11521977Y-10899683D01*
X11592023Y-10899683D01*
X8971594Y-7902327D02*
X9021594Y-7852327D01*
X8971594Y-7802327D01*
X8921594Y-7852327D01*
X8971594Y-7902327D01*
X8979200Y-5832059D02*
X9029200Y-5782059D01*
X8979200Y-5732059D01*
X8929200Y-5782059D01*
X8979200Y-5832059D01*
X10795000Y-11480000D02*
X10845000Y-11430000D01*
X10795000Y-11380000D01*
X10745000Y-11430000D01*
X10795000Y-11480000D01*
X11379200Y-12057606D02*
X11429200Y-12007606D01*
X11379200Y-11957606D01*
X11329200Y-12007606D01*
X11379200Y-12057606D01*
X11379200Y-13457606D02*
X11429200Y-13407606D01*
X11379200Y-13357606D01*
X11329200Y-13407606D01*
X11379200Y-13457606D01*
X11430000Y-14782000D02*
X11480000Y-14732000D01*
X11430000Y-14682000D01*
X11380000Y-14732000D01*
X11430000Y-14782000D01*
X13208000Y-5892000D02*
X13258000Y-5842000D01*
X13208000Y-5792000D01*
X13158000Y-5842000D01*
X13208000Y-5892000D01*
X13817600Y-14528000D02*
X13867600Y-14478000D01*
X13817600Y-14428000D01*
X13767600Y-14478000D01*
X13817600Y-14528000D01*
X14478000Y-5892000D02*
X14528000Y-5842000D01*
X14478000Y-5792000D01*
X14428000Y-5842000D01*
X14478000Y-5892000D01*
X14579600Y-14528000D02*
X14629600Y-14478000D01*
X14579600Y-14428000D01*
X14529600Y-14478000D01*
X14579600Y-14528000D01*
X15341600Y-14528000D02*
X15391600Y-14478000D01*
X15341600Y-14428000D01*
X15291600Y-14478000D01*
X15341600Y-14528000D01*
X15962600Y-13128500D02*
X16012600Y-13078500D01*
X15962600Y-13028500D01*
X15912600Y-13078500D01*
X15962600Y-13128500D01*
X15962600Y-13382500D02*
X16012600Y-13332500D01*
X15962600Y-13282500D01*
X15912600Y-13332500D01*
X15962600Y-13382500D01*
X15962600Y-13636500D02*
X16012600Y-13586500D01*
X15962600Y-13536500D01*
X15912600Y-13586500D01*
X15962600Y-13636500D01*
X15962600Y-13890500D02*
X16012600Y-13840500D01*
X15962600Y-13790500D01*
X15912600Y-13840500D01*
X15962600Y-13890500D01*
X15962600Y-14144500D02*
X16012600Y-14094500D01*
X15962600Y-14044500D01*
X15912600Y-14094500D01*
X15962600Y-14144500D01*
X15962600Y-14398500D02*
X16012600Y-14348500D01*
X15962600Y-14298500D01*
X15912600Y-14348500D01*
X15962600Y-14398500D01*
X18262600Y-13128500D02*
X18312600Y-13078500D01*
X18262600Y-13028500D01*
X18212600Y-13078500D01*
X18262600Y-13128500D01*
X18262600Y-13382500D02*
X18312600Y-13332500D01*
X18262600Y-13282500D01*
X18212600Y-13332500D01*
X18262600Y-13382500D01*
X18262600Y-13636500D02*
X18312600Y-13586500D01*
X18262600Y-13536500D01*
X18212600Y-13586500D01*
X18262600Y-13636500D01*
X18262600Y-13890500D02*
X18312600Y-13840500D01*
X18262600Y-13790500D01*
X18212600Y-13840500D01*
X18262600Y-13890500D01*
X18262600Y-14144500D02*
X18312600Y-14094500D01*
X18262600Y-14044500D01*
X18212600Y-14094500D01*
X18262600Y-14144500D01*
X18262600Y-14398500D02*
X18312600Y-14348500D01*
X18262600Y-14298500D01*
X18212600Y-14348500D01*
X18262600Y-14398500D01*
X19558000Y-9956000D02*
X19608000Y-9906000D01*
X19558000Y-9856000D01*
X19508000Y-9906000D01*
X19558000Y-9956000D01*
X19558100Y-8579059D02*
X19608100Y-8529059D01*
X19558100Y-8479059D01*
X19508100Y-8529059D01*
X19558100Y-8579059D01*
D12*
X8908094Y-6460500D02*
X9035094Y-6587500D01*
X9035094Y-6460500D02*
X8908094Y-6587500D01*
X9035094Y-6524000D02*
G75*
G03*
X8908094Y-6524000I-63500J0D01*
G01*
X8908094Y-6524000D02*
G75*
G03*
X9035094Y-6524000I63500J0D01*
G01*
X8908094Y-6968500D02*
X9035094Y-7095500D01*
X9035094Y-6968500D02*
X8908094Y-7095500D01*
X9035094Y-7032000D02*
G75*
G03*
X8908094Y-7032000I-63500J0D01*
G01*
X8908094Y-7032000D02*
G75*
G03*
X9035094Y-7032000I63500J0D01*
G01*
D11*
X7875777Y-15581884D02*
X7875777Y-15381884D01*
X7875777Y-15381884D02*
X7923396Y-15381884D01*
X7923396Y-15381884D02*
X7951967Y-15391408D01*
X7951967Y-15391408D02*
X7971015Y-15410455D01*
X7971015Y-15410455D02*
X7980539Y-15429503D01*
X7980539Y-15429503D02*
X7990062Y-15467598D01*
X7990062Y-15467598D02*
X7990062Y-15496169D01*
X7990062Y-15496169D02*
X7980539Y-15534265D01*
X7980539Y-15534265D02*
X7971015Y-15553312D01*
X7971015Y-15553312D02*
X7951967Y-15572360D01*
X7951967Y-15572360D02*
X7923396Y-15581884D01*
X7923396Y-15581884D02*
X7875777Y-15581884D01*
X8075777Y-15581884D02*
X8075777Y-15448550D01*
X8075777Y-15486646D02*
X8085301Y-15467598D01*
X8085301Y-15467598D02*
X8094824Y-15458074D01*
X8094824Y-15458074D02*
X8113872Y-15448550D01*
X8113872Y-15448550D02*
X8132920Y-15448550D01*
X8199586Y-15581884D02*
X8199586Y-15448550D01*
X8199586Y-15381884D02*
X8190062Y-15391408D01*
X8190062Y-15391408D02*
X8199586Y-15400931D01*
X8199586Y-15400931D02*
X8209110Y-15391408D01*
X8209110Y-15391408D02*
X8199586Y-15381884D01*
X8199586Y-15381884D02*
X8199586Y-15400931D01*
X8323396Y-15581884D02*
X8304348Y-15572360D01*
X8304348Y-15572360D02*
X8294824Y-15553312D01*
X8294824Y-15553312D02*
X8294824Y-15381884D01*
X8428158Y-15581884D02*
X8409110Y-15572360D01*
X8409110Y-15572360D02*
X8399586Y-15553312D01*
X8399586Y-15553312D02*
X8399586Y-15381884D01*
X8656729Y-15581884D02*
X8656729Y-15381884D01*
X8656729Y-15381884D02*
X8723396Y-15524741D01*
X8723396Y-15524741D02*
X8790063Y-15381884D01*
X8790063Y-15381884D02*
X8790063Y-15581884D01*
X8971015Y-15581884D02*
X8971015Y-15477122D01*
X8971015Y-15477122D02*
X8961491Y-15458074D01*
X8961491Y-15458074D02*
X8942444Y-15448550D01*
X8942444Y-15448550D02*
X8904348Y-15448550D01*
X8904348Y-15448550D02*
X8885301Y-15458074D01*
X8971015Y-15572360D02*
X8951967Y-15581884D01*
X8951967Y-15581884D02*
X8904348Y-15581884D01*
X8904348Y-15581884D02*
X8885301Y-15572360D01*
X8885301Y-15572360D02*
X8875777Y-15553312D01*
X8875777Y-15553312D02*
X8875777Y-15534265D01*
X8875777Y-15534265D02*
X8885301Y-15515217D01*
X8885301Y-15515217D02*
X8904348Y-15505693D01*
X8904348Y-15505693D02*
X8951967Y-15505693D01*
X8951967Y-15505693D02*
X8971015Y-15496169D01*
X9066253Y-15448550D02*
X9066253Y-15648550D01*
X9066253Y-15458074D02*
X9085301Y-15448550D01*
X9085301Y-15448550D02*
X9123396Y-15448550D01*
X9123396Y-15448550D02*
X9142444Y-15458074D01*
X9142444Y-15458074D02*
X9151967Y-15467598D01*
X9151967Y-15467598D02*
X9161491Y-15486646D01*
X9161491Y-15486646D02*
X9161491Y-15543788D01*
X9161491Y-15543788D02*
X9151967Y-15562836D01*
X9151967Y-15562836D02*
X9142444Y-15572360D01*
X9142444Y-15572360D02*
X9123396Y-15581884D01*
X9123396Y-15581884D02*
X9085301Y-15581884D01*
X9085301Y-15581884D02*
X9066253Y-15572360D01*
X9247205Y-15562836D02*
X9256729Y-15572360D01*
X9256729Y-15572360D02*
X9247205Y-15581884D01*
X9247205Y-15581884D02*
X9237682Y-15572360D01*
X9237682Y-15572360D02*
X9247205Y-15562836D01*
X9247205Y-15562836D02*
X9247205Y-15581884D01*
X9247205Y-15458074D02*
X9256729Y-15467598D01*
X9256729Y-15467598D02*
X9247205Y-15477122D01*
X9247205Y-15477122D02*
X9237682Y-15467598D01*
X9237682Y-15467598D02*
X9247205Y-15458074D01*
X9247205Y-15458074D02*
X9247205Y-15477122D01*
D10*
X7575000Y-15890400D02*
X7615000Y-15930400D01*
X7615000Y-15890400D02*
X7575000Y-15930400D01*
D11*
X7913872Y-15801884D02*
X7932920Y-15801884D01*
X7932920Y-15801884D02*
X7951967Y-15811408D01*
X7951967Y-15811408D02*
X7961491Y-15820931D01*
X7961491Y-15820931D02*
X7971015Y-15839979D01*
X7971015Y-15839979D02*
X7980539Y-15878074D01*
X7980539Y-15878074D02*
X7980539Y-15925693D01*
X7980539Y-15925693D02*
X7971015Y-15963788D01*
X7971015Y-15963788D02*
X7961491Y-15982836D01*
X7961491Y-15982836D02*
X7951967Y-15992360D01*
X7951967Y-15992360D02*
X7932920Y-16001884D01*
X7932920Y-16001884D02*
X7913872Y-16001884D01*
X7913872Y-16001884D02*
X7894824Y-15992360D01*
X7894824Y-15992360D02*
X7885301Y-15982836D01*
X7885301Y-15982836D02*
X7875777Y-15963788D01*
X7875777Y-15963788D02*
X7866253Y-15925693D01*
X7866253Y-15925693D02*
X7866253Y-15878074D01*
X7866253Y-15878074D02*
X7875777Y-15839979D01*
X7875777Y-15839979D02*
X7885301Y-15820931D01*
X7885301Y-15820931D02*
X7894824Y-15811408D01*
X7894824Y-15811408D02*
X7913872Y-15801884D01*
X8066253Y-15982836D02*
X8075777Y-15992360D01*
X8075777Y-15992360D02*
X8066253Y-16001884D01*
X8066253Y-16001884D02*
X8056729Y-15992360D01*
X8056729Y-15992360D02*
X8066253Y-15982836D01*
X8066253Y-15982836D02*
X8066253Y-16001884D01*
X8247205Y-15868550D02*
X8247205Y-16001884D01*
X8199586Y-15792360D02*
X8151967Y-15935217D01*
X8151967Y-15935217D02*
X8275777Y-15935217D01*
X8390063Y-15801884D02*
X8409110Y-15801884D01*
X8409110Y-15801884D02*
X8428158Y-15811408D01*
X8428158Y-15811408D02*
X8437682Y-15820931D01*
X8437682Y-15820931D02*
X8447205Y-15839979D01*
X8447205Y-15839979D02*
X8456729Y-15878074D01*
X8456729Y-15878074D02*
X8456729Y-15925693D01*
X8456729Y-15925693D02*
X8447205Y-15963788D01*
X8447205Y-15963788D02*
X8437682Y-15982836D01*
X8437682Y-15982836D02*
X8428158Y-15992360D01*
X8428158Y-15992360D02*
X8409110Y-16001884D01*
X8409110Y-16001884D02*
X8390063Y-16001884D01*
X8390063Y-16001884D02*
X8371015Y-15992360D01*
X8371015Y-15992360D02*
X8361491Y-15982836D01*
X8361491Y-15982836D02*
X8351967Y-15963788D01*
X8351967Y-15963788D02*
X8342443Y-15925693D01*
X8342443Y-15925693D02*
X8342443Y-15878074D01*
X8342443Y-15878074D02*
X8351967Y-15839979D01*
X8351967Y-15839979D02*
X8361491Y-15820931D01*
X8361491Y-15820931D02*
X8371015Y-15811408D01*
X8371015Y-15811408D02*
X8390063Y-15801884D01*
X8580539Y-15801884D02*
X8599586Y-15801884D01*
X8599586Y-15801884D02*
X8618634Y-15811408D01*
X8618634Y-15811408D02*
X8628158Y-15820931D01*
X8628158Y-15820931D02*
X8637682Y-15839979D01*
X8637682Y-15839979D02*
X8647205Y-15878074D01*
X8647205Y-15878074D02*
X8647205Y-15925693D01*
X8647205Y-15925693D02*
X8637682Y-15963788D01*
X8637682Y-15963788D02*
X8628158Y-15982836D01*
X8628158Y-15982836D02*
X8618634Y-15992360D01*
X8618634Y-15992360D02*
X8599586Y-16001884D01*
X8599586Y-16001884D02*
X8580539Y-16001884D01*
X8580539Y-16001884D02*
X8561491Y-15992360D01*
X8561491Y-15992360D02*
X8551967Y-15982836D01*
X8551967Y-15982836D02*
X8542444Y-15963788D01*
X8542444Y-15963788D02*
X8532920Y-15925693D01*
X8532920Y-15925693D02*
X8532920Y-15878074D01*
X8532920Y-15878074D02*
X8542444Y-15839979D01*
X8542444Y-15839979D02*
X8551967Y-15820931D01*
X8551967Y-15820931D02*
X8561491Y-15811408D01*
X8561491Y-15811408D02*
X8580539Y-15801884D01*
X8732920Y-16001884D02*
X8732920Y-15868550D01*
X8732920Y-15887598D02*
X8742444Y-15878074D01*
X8742444Y-15878074D02*
X8761491Y-15868550D01*
X8761491Y-15868550D02*
X8790063Y-15868550D01*
X8790063Y-15868550D02*
X8809110Y-15878074D01*
X8809110Y-15878074D02*
X8818634Y-15897122D01*
X8818634Y-15897122D02*
X8818634Y-16001884D01*
X8818634Y-15897122D02*
X8828158Y-15878074D01*
X8828158Y-15878074D02*
X8847205Y-15868550D01*
X8847205Y-15868550D02*
X8875777Y-15868550D01*
X8875777Y-15868550D02*
X8894825Y-15878074D01*
X8894825Y-15878074D02*
X8904348Y-15897122D01*
X8904348Y-15897122D02*
X8904348Y-16001884D01*
X8999586Y-16001884D02*
X8999586Y-15868550D01*
X8999586Y-15887598D02*
X9009110Y-15878074D01*
X9009110Y-15878074D02*
X9028158Y-15868550D01*
X9028158Y-15868550D02*
X9056729Y-15868550D01*
X9056729Y-15868550D02*
X9075777Y-15878074D01*
X9075777Y-15878074D02*
X9085301Y-15897122D01*
X9085301Y-15897122D02*
X9085301Y-16001884D01*
X9085301Y-15897122D02*
X9094825Y-15878074D01*
X9094825Y-15878074D02*
X9113872Y-15868550D01*
X9113872Y-15868550D02*
X9142444Y-15868550D01*
X9142444Y-15868550D02*
X9161491Y-15878074D01*
X9161491Y-15878074D02*
X9171015Y-15897122D01*
X9171015Y-15897122D02*
X9171015Y-16001884D01*
X9561491Y-15792360D02*
X9390063Y-16049503D01*
X9818634Y-15801884D02*
X9837682Y-15801884D01*
X9837682Y-15801884D02*
X9856729Y-15811408D01*
X9856729Y-15811408D02*
X9866253Y-15820931D01*
X9866253Y-15820931D02*
X9875777Y-15839979D01*
X9875777Y-15839979D02*
X9885301Y-15878074D01*
X9885301Y-15878074D02*
X9885301Y-15925693D01*
X9885301Y-15925693D02*
X9875777Y-15963788D01*
X9875777Y-15963788D02*
X9866253Y-15982836D01*
X9866253Y-15982836D02*
X9856729Y-15992360D01*
X9856729Y-15992360D02*
X9837682Y-16001884D01*
X9837682Y-16001884D02*
X9818634Y-16001884D01*
X9818634Y-16001884D02*
X9799587Y-15992360D01*
X9799587Y-15992360D02*
X9790063Y-15982836D01*
X9790063Y-15982836D02*
X9780539Y-15963788D01*
X9780539Y-15963788D02*
X9771015Y-15925693D01*
X9771015Y-15925693D02*
X9771015Y-15878074D01*
X9771015Y-15878074D02*
X9780539Y-15839979D01*
X9780539Y-15839979D02*
X9790063Y-15820931D01*
X9790063Y-15820931D02*
X9799587Y-15811408D01*
X9799587Y-15811408D02*
X9818634Y-15801884D01*
X9971015Y-15982836D02*
X9980539Y-15992360D01*
X9980539Y-15992360D02*
X9971015Y-16001884D01*
X9971015Y-16001884D02*
X9961491Y-15992360D01*
X9961491Y-15992360D02*
X9971015Y-15982836D01*
X9971015Y-15982836D02*
X9971015Y-16001884D01*
X10104348Y-15801884D02*
X10123396Y-15801884D01*
X10123396Y-15801884D02*
X10142444Y-15811408D01*
X10142444Y-15811408D02*
X10151968Y-15820931D01*
X10151968Y-15820931D02*
X10161491Y-15839979D01*
X10161491Y-15839979D02*
X10171015Y-15878074D01*
X10171015Y-15878074D02*
X10171015Y-15925693D01*
X10171015Y-15925693D02*
X10161491Y-15963788D01*
X10161491Y-15963788D02*
X10151968Y-15982836D01*
X10151968Y-15982836D02*
X10142444Y-15992360D01*
X10142444Y-15992360D02*
X10123396Y-16001884D01*
X10123396Y-16001884D02*
X10104348Y-16001884D01*
X10104348Y-16001884D02*
X10085301Y-15992360D01*
X10085301Y-15992360D02*
X10075777Y-15982836D01*
X10075777Y-15982836D02*
X10066253Y-15963788D01*
X10066253Y-15963788D02*
X10056729Y-15925693D01*
X10056729Y-15925693D02*
X10056729Y-15878074D01*
X10056729Y-15878074D02*
X10066253Y-15839979D01*
X10066253Y-15839979D02*
X10075777Y-15820931D01*
X10075777Y-15820931D02*
X10085301Y-15811408D01*
X10085301Y-15811408D02*
X10104348Y-15801884D01*
X10361491Y-16001884D02*
X10247206Y-16001884D01*
X10304348Y-16001884D02*
X10304348Y-15801884D01*
X10304348Y-15801884D02*
X10285301Y-15830455D01*
X10285301Y-15830455D02*
X10266253Y-15849503D01*
X10266253Y-15849503D02*
X10247206Y-15859027D01*
X10542444Y-15801884D02*
X10447206Y-15801884D01*
X10447206Y-15801884D02*
X10437682Y-15897122D01*
X10437682Y-15897122D02*
X10447206Y-15887598D01*
X10447206Y-15887598D02*
X10466253Y-15878074D01*
X10466253Y-15878074D02*
X10513872Y-15878074D01*
X10513872Y-15878074D02*
X10532920Y-15887598D01*
X10532920Y-15887598D02*
X10542444Y-15897122D01*
X10542444Y-15897122D02*
X10551968Y-15916169D01*
X10551968Y-15916169D02*
X10551968Y-15963788D01*
X10551968Y-15963788D02*
X10542444Y-15982836D01*
X10542444Y-15982836D02*
X10532920Y-15992360D01*
X10532920Y-15992360D02*
X10513872Y-16001884D01*
X10513872Y-16001884D02*
X10466253Y-16001884D01*
X10466253Y-16001884D02*
X10447206Y-15992360D01*
X10447206Y-15992360D02*
X10437682Y-15982836D01*
X10618634Y-15801884D02*
X10751968Y-15801884D01*
X10751968Y-15801884D02*
X10666253Y-16001884D01*
X10818634Y-15801884D02*
X10818634Y-15839979D01*
X10894825Y-15801884D02*
X10894825Y-15839979D01*
X11190063Y-16078074D02*
X11180539Y-16068550D01*
X11180539Y-16068550D02*
X11161491Y-16039979D01*
X11161491Y-16039979D02*
X11151968Y-16020931D01*
X11151968Y-16020931D02*
X11142444Y-15992360D01*
X11142444Y-15992360D02*
X11132920Y-15944741D01*
X11132920Y-15944741D02*
X11132920Y-15906646D01*
X11132920Y-15906646D02*
X11142444Y-15859027D01*
X11142444Y-15859027D02*
X11151968Y-15830455D01*
X11151968Y-15830455D02*
X11161491Y-15811408D01*
X11161491Y-15811408D02*
X11180539Y-15782836D01*
X11180539Y-15782836D02*
X11190063Y-15773312D01*
X11247206Y-15801884D02*
X11371015Y-15801884D01*
X11371015Y-15801884D02*
X11304348Y-15878074D01*
X11304348Y-15878074D02*
X11332920Y-15878074D01*
X11332920Y-15878074D02*
X11351968Y-15887598D01*
X11351968Y-15887598D02*
X11361491Y-15897122D01*
X11361491Y-15897122D02*
X11371015Y-15916169D01*
X11371015Y-15916169D02*
X11371015Y-15963788D01*
X11371015Y-15963788D02*
X11361491Y-15982836D01*
X11361491Y-15982836D02*
X11351968Y-15992360D01*
X11351968Y-15992360D02*
X11332920Y-16001884D01*
X11332920Y-16001884D02*
X11275777Y-16001884D01*
X11275777Y-16001884D02*
X11256729Y-15992360D01*
X11256729Y-15992360D02*
X11247206Y-15982836D01*
X11609110Y-16001884D02*
X11609110Y-15801884D01*
X11694825Y-16001884D02*
X11694825Y-15897122D01*
X11694825Y-15897122D02*
X11685301Y-15878074D01*
X11685301Y-15878074D02*
X11666253Y-15868550D01*
X11666253Y-15868550D02*
X11637682Y-15868550D01*
X11637682Y-15868550D02*
X11618634Y-15878074D01*
X11618634Y-15878074D02*
X11609110Y-15887598D01*
X11818634Y-16001884D02*
X11799587Y-15992360D01*
X11799587Y-15992360D02*
X11790063Y-15982836D01*
X11790063Y-15982836D02*
X11780539Y-15963788D01*
X11780539Y-15963788D02*
X11780539Y-15906646D01*
X11780539Y-15906646D02*
X11790063Y-15887598D01*
X11790063Y-15887598D02*
X11799587Y-15878074D01*
X11799587Y-15878074D02*
X11818634Y-15868550D01*
X11818634Y-15868550D02*
X11847206Y-15868550D01*
X11847206Y-15868550D02*
X11866253Y-15878074D01*
X11866253Y-15878074D02*
X11875777Y-15887598D01*
X11875777Y-15887598D02*
X11885301Y-15906646D01*
X11885301Y-15906646D02*
X11885301Y-15963788D01*
X11885301Y-15963788D02*
X11875777Y-15982836D01*
X11875777Y-15982836D02*
X11866253Y-15992360D01*
X11866253Y-15992360D02*
X11847206Y-16001884D01*
X11847206Y-16001884D02*
X11818634Y-16001884D01*
X11999587Y-16001884D02*
X11980539Y-15992360D01*
X11980539Y-15992360D02*
X11971015Y-15973312D01*
X11971015Y-15973312D02*
X11971015Y-15801884D01*
X12151968Y-15992360D02*
X12132920Y-16001884D01*
X12132920Y-16001884D02*
X12094825Y-16001884D01*
X12094825Y-16001884D02*
X12075777Y-15992360D01*
X12075777Y-15992360D02*
X12066253Y-15973312D01*
X12066253Y-15973312D02*
X12066253Y-15897122D01*
X12066253Y-15897122D02*
X12075777Y-15878074D01*
X12075777Y-15878074D02*
X12094825Y-15868550D01*
X12094825Y-15868550D02*
X12132920Y-15868550D01*
X12132920Y-15868550D02*
X12151968Y-15878074D01*
X12151968Y-15878074D02*
X12161491Y-15897122D01*
X12161491Y-15897122D02*
X12161491Y-15916169D01*
X12161491Y-15916169D02*
X12066253Y-15935217D01*
X12237682Y-15992360D02*
X12256730Y-16001884D01*
X12256730Y-16001884D02*
X12294825Y-16001884D01*
X12294825Y-16001884D02*
X12313872Y-15992360D01*
X12313872Y-15992360D02*
X12323396Y-15973312D01*
X12323396Y-15973312D02*
X12323396Y-15963788D01*
X12323396Y-15963788D02*
X12313872Y-15944741D01*
X12313872Y-15944741D02*
X12294825Y-15935217D01*
X12294825Y-15935217D02*
X12266253Y-15935217D01*
X12266253Y-15935217D02*
X12247206Y-15925693D01*
X12247206Y-15925693D02*
X12237682Y-15906646D01*
X12237682Y-15906646D02*
X12237682Y-15897122D01*
X12237682Y-15897122D02*
X12247206Y-15878074D01*
X12247206Y-15878074D02*
X12266253Y-15868550D01*
X12266253Y-15868550D02*
X12294825Y-15868550D01*
X12294825Y-15868550D02*
X12313872Y-15878074D01*
X12390063Y-16078074D02*
X12399587Y-16068550D01*
X12399587Y-16068550D02*
X12418634Y-16039979D01*
X12418634Y-16039979D02*
X12428158Y-16020931D01*
X12428158Y-16020931D02*
X12437682Y-15992360D01*
X12437682Y-15992360D02*
X12447206Y-15944741D01*
X12447206Y-15944741D02*
X12447206Y-15906646D01*
X12447206Y-15906646D02*
X12437682Y-15859027D01*
X12437682Y-15859027D02*
X12428158Y-15830455D01*
X12428158Y-15830455D02*
X12418634Y-15811408D01*
X12418634Y-15811408D02*
X12399587Y-15782836D01*
X12399587Y-15782836D02*
X12390063Y-15773312D01*
D10*
X7615000Y-16174400D02*
G75*
G03*
X7535000Y-16174400I-40000J0D01*
G01*
X7535000Y-16174400D02*
G75*
G03*
X7615000Y-16174400I40000J0D01*
G01*
D11*
X7913872Y-16065884D02*
X7932920Y-16065884D01*
X7932920Y-16065884D02*
X7951967Y-16075408D01*
X7951967Y-16075408D02*
X7961491Y-16084931D01*
X7961491Y-16084931D02*
X7971015Y-16103979D01*
X7971015Y-16103979D02*
X7980539Y-16142074D01*
X7980539Y-16142074D02*
X7980539Y-16189693D01*
X7980539Y-16189693D02*
X7971015Y-16227788D01*
X7971015Y-16227788D02*
X7961491Y-16246836D01*
X7961491Y-16246836D02*
X7951967Y-16256360D01*
X7951967Y-16256360D02*
X7932920Y-16265884D01*
X7932920Y-16265884D02*
X7913872Y-16265884D01*
X7913872Y-16265884D02*
X7894824Y-16256360D01*
X7894824Y-16256360D02*
X7885301Y-16246836D01*
X7885301Y-16246836D02*
X7875777Y-16227788D01*
X7875777Y-16227788D02*
X7866253Y-16189693D01*
X7866253Y-16189693D02*
X7866253Y-16142074D01*
X7866253Y-16142074D02*
X7875777Y-16103979D01*
X7875777Y-16103979D02*
X7885301Y-16084931D01*
X7885301Y-16084931D02*
X7894824Y-16075408D01*
X7894824Y-16075408D02*
X7913872Y-16065884D01*
X8066253Y-16246836D02*
X8075777Y-16256360D01*
X8075777Y-16256360D02*
X8066253Y-16265884D01*
X8066253Y-16265884D02*
X8056729Y-16256360D01*
X8056729Y-16256360D02*
X8066253Y-16246836D01*
X8066253Y-16246836D02*
X8066253Y-16265884D01*
X8190062Y-16151598D02*
X8171015Y-16142074D01*
X8171015Y-16142074D02*
X8161491Y-16132550D01*
X8161491Y-16132550D02*
X8151967Y-16113503D01*
X8151967Y-16113503D02*
X8151967Y-16103979D01*
X8151967Y-16103979D02*
X8161491Y-16084931D01*
X8161491Y-16084931D02*
X8171015Y-16075408D01*
X8171015Y-16075408D02*
X8190062Y-16065884D01*
X8190062Y-16065884D02*
X8228158Y-16065884D01*
X8228158Y-16065884D02*
X8247205Y-16075408D01*
X8247205Y-16075408D02*
X8256729Y-16084931D01*
X8256729Y-16084931D02*
X8266253Y-16103979D01*
X8266253Y-16103979D02*
X8266253Y-16113503D01*
X8266253Y-16113503D02*
X8256729Y-16132550D01*
X8256729Y-16132550D02*
X8247205Y-16142074D01*
X8247205Y-16142074D02*
X8228158Y-16151598D01*
X8228158Y-16151598D02*
X8190062Y-16151598D01*
X8190062Y-16151598D02*
X8171015Y-16161122D01*
X8171015Y-16161122D02*
X8161491Y-16170646D01*
X8161491Y-16170646D02*
X8151967Y-16189693D01*
X8151967Y-16189693D02*
X8151967Y-16227788D01*
X8151967Y-16227788D02*
X8161491Y-16246836D01*
X8161491Y-16246836D02*
X8171015Y-16256360D01*
X8171015Y-16256360D02*
X8190062Y-16265884D01*
X8190062Y-16265884D02*
X8228158Y-16265884D01*
X8228158Y-16265884D02*
X8247205Y-16256360D01*
X8247205Y-16256360D02*
X8256729Y-16246836D01*
X8256729Y-16246836D02*
X8266253Y-16227788D01*
X8266253Y-16227788D02*
X8266253Y-16189693D01*
X8266253Y-16189693D02*
X8256729Y-16170646D01*
X8256729Y-16170646D02*
X8247205Y-16161122D01*
X8247205Y-16161122D02*
X8228158Y-16151598D01*
X8390063Y-16065884D02*
X8409110Y-16065884D01*
X8409110Y-16065884D02*
X8428158Y-16075408D01*
X8428158Y-16075408D02*
X8437682Y-16084931D01*
X8437682Y-16084931D02*
X8447205Y-16103979D01*
X8447205Y-16103979D02*
X8456729Y-16142074D01*
X8456729Y-16142074D02*
X8456729Y-16189693D01*
X8456729Y-16189693D02*
X8447205Y-16227788D01*
X8447205Y-16227788D02*
X8437682Y-16246836D01*
X8437682Y-16246836D02*
X8428158Y-16256360D01*
X8428158Y-16256360D02*
X8409110Y-16265884D01*
X8409110Y-16265884D02*
X8390063Y-16265884D01*
X8390063Y-16265884D02*
X8371015Y-16256360D01*
X8371015Y-16256360D02*
X8361491Y-16246836D01*
X8361491Y-16246836D02*
X8351967Y-16227788D01*
X8351967Y-16227788D02*
X8342443Y-16189693D01*
X8342443Y-16189693D02*
X8342443Y-16142074D01*
X8342443Y-16142074D02*
X8351967Y-16103979D01*
X8351967Y-16103979D02*
X8361491Y-16084931D01*
X8361491Y-16084931D02*
X8371015Y-16075408D01*
X8371015Y-16075408D02*
X8390063Y-16065884D01*
X8580539Y-16065884D02*
X8599586Y-16065884D01*
X8599586Y-16065884D02*
X8618634Y-16075408D01*
X8618634Y-16075408D02*
X8628158Y-16084931D01*
X8628158Y-16084931D02*
X8637682Y-16103979D01*
X8637682Y-16103979D02*
X8647205Y-16142074D01*
X8647205Y-16142074D02*
X8647205Y-16189693D01*
X8647205Y-16189693D02*
X8637682Y-16227788D01*
X8637682Y-16227788D02*
X8628158Y-16246836D01*
X8628158Y-16246836D02*
X8618634Y-16256360D01*
X8618634Y-16256360D02*
X8599586Y-16265884D01*
X8599586Y-16265884D02*
X8580539Y-16265884D01*
X8580539Y-16265884D02*
X8561491Y-16256360D01*
X8561491Y-16256360D02*
X8551967Y-16246836D01*
X8551967Y-16246836D02*
X8542444Y-16227788D01*
X8542444Y-16227788D02*
X8532920Y-16189693D01*
X8532920Y-16189693D02*
X8532920Y-16142074D01*
X8532920Y-16142074D02*
X8542444Y-16103979D01*
X8542444Y-16103979D02*
X8551967Y-16084931D01*
X8551967Y-16084931D02*
X8561491Y-16075408D01*
X8561491Y-16075408D02*
X8580539Y-16065884D01*
X8732920Y-16265884D02*
X8732920Y-16132550D01*
X8732920Y-16151598D02*
X8742444Y-16142074D01*
X8742444Y-16142074D02*
X8761491Y-16132550D01*
X8761491Y-16132550D02*
X8790063Y-16132550D01*
X8790063Y-16132550D02*
X8809110Y-16142074D01*
X8809110Y-16142074D02*
X8818634Y-16161122D01*
X8818634Y-16161122D02*
X8818634Y-16265884D01*
X8818634Y-16161122D02*
X8828158Y-16142074D01*
X8828158Y-16142074D02*
X8847205Y-16132550D01*
X8847205Y-16132550D02*
X8875777Y-16132550D01*
X8875777Y-16132550D02*
X8894825Y-16142074D01*
X8894825Y-16142074D02*
X8904348Y-16161122D01*
X8904348Y-16161122D02*
X8904348Y-16265884D01*
X8999586Y-16265884D02*
X8999586Y-16132550D01*
X8999586Y-16151598D02*
X9009110Y-16142074D01*
X9009110Y-16142074D02*
X9028158Y-16132550D01*
X9028158Y-16132550D02*
X9056729Y-16132550D01*
X9056729Y-16132550D02*
X9075777Y-16142074D01*
X9075777Y-16142074D02*
X9085301Y-16161122D01*
X9085301Y-16161122D02*
X9085301Y-16265884D01*
X9085301Y-16161122D02*
X9094825Y-16142074D01*
X9094825Y-16142074D02*
X9113872Y-16132550D01*
X9113872Y-16132550D02*
X9142444Y-16132550D01*
X9142444Y-16132550D02*
X9161491Y-16142074D01*
X9161491Y-16142074D02*
X9171015Y-16161122D01*
X9171015Y-16161122D02*
X9171015Y-16265884D01*
X9561491Y-16056360D02*
X9390063Y-16313503D01*
X9818634Y-16065884D02*
X9837682Y-16065884D01*
X9837682Y-16065884D02*
X9856729Y-16075408D01*
X9856729Y-16075408D02*
X9866253Y-16084931D01*
X9866253Y-16084931D02*
X9875777Y-16103979D01*
X9875777Y-16103979D02*
X9885301Y-16142074D01*
X9885301Y-16142074D02*
X9885301Y-16189693D01*
X9885301Y-16189693D02*
X9875777Y-16227788D01*
X9875777Y-16227788D02*
X9866253Y-16246836D01*
X9866253Y-16246836D02*
X9856729Y-16256360D01*
X9856729Y-16256360D02*
X9837682Y-16265884D01*
X9837682Y-16265884D02*
X9818634Y-16265884D01*
X9818634Y-16265884D02*
X9799587Y-16256360D01*
X9799587Y-16256360D02*
X9790063Y-16246836D01*
X9790063Y-16246836D02*
X9780539Y-16227788D01*
X9780539Y-16227788D02*
X9771015Y-16189693D01*
X9771015Y-16189693D02*
X9771015Y-16142074D01*
X9771015Y-16142074D02*
X9780539Y-16103979D01*
X9780539Y-16103979D02*
X9790063Y-16084931D01*
X9790063Y-16084931D02*
X9799587Y-16075408D01*
X9799587Y-16075408D02*
X9818634Y-16065884D01*
X9971015Y-16246836D02*
X9980539Y-16256360D01*
X9980539Y-16256360D02*
X9971015Y-16265884D01*
X9971015Y-16265884D02*
X9961491Y-16256360D01*
X9961491Y-16256360D02*
X9971015Y-16246836D01*
X9971015Y-16246836D02*
X9971015Y-16265884D01*
X10104348Y-16065884D02*
X10123396Y-16065884D01*
X10123396Y-16065884D02*
X10142444Y-16075408D01*
X10142444Y-16075408D02*
X10151968Y-16084931D01*
X10151968Y-16084931D02*
X10161491Y-16103979D01*
X10161491Y-16103979D02*
X10171015Y-16142074D01*
X10171015Y-16142074D02*
X10171015Y-16189693D01*
X10171015Y-16189693D02*
X10161491Y-16227788D01*
X10161491Y-16227788D02*
X10151968Y-16246836D01*
X10151968Y-16246836D02*
X10142444Y-16256360D01*
X10142444Y-16256360D02*
X10123396Y-16265884D01*
X10123396Y-16265884D02*
X10104348Y-16265884D01*
X10104348Y-16265884D02*
X10085301Y-16256360D01*
X10085301Y-16256360D02*
X10075777Y-16246836D01*
X10075777Y-16246836D02*
X10066253Y-16227788D01*
X10066253Y-16227788D02*
X10056729Y-16189693D01*
X10056729Y-16189693D02*
X10056729Y-16142074D01*
X10056729Y-16142074D02*
X10066253Y-16103979D01*
X10066253Y-16103979D02*
X10075777Y-16084931D01*
X10075777Y-16084931D02*
X10085301Y-16075408D01*
X10085301Y-16075408D02*
X10104348Y-16065884D01*
X10237682Y-16065884D02*
X10361491Y-16065884D01*
X10361491Y-16065884D02*
X10294825Y-16142074D01*
X10294825Y-16142074D02*
X10323396Y-16142074D01*
X10323396Y-16142074D02*
X10342444Y-16151598D01*
X10342444Y-16151598D02*
X10351968Y-16161122D01*
X10351968Y-16161122D02*
X10361491Y-16180169D01*
X10361491Y-16180169D02*
X10361491Y-16227788D01*
X10361491Y-16227788D02*
X10351968Y-16246836D01*
X10351968Y-16246836D02*
X10342444Y-16256360D01*
X10342444Y-16256360D02*
X10323396Y-16265884D01*
X10323396Y-16265884D02*
X10266253Y-16265884D01*
X10266253Y-16265884D02*
X10247206Y-16256360D01*
X10247206Y-16256360D02*
X10237682Y-16246836D01*
X10551968Y-16265884D02*
X10437682Y-16265884D01*
X10494825Y-16265884D02*
X10494825Y-16065884D01*
X10494825Y-16065884D02*
X10475777Y-16094455D01*
X10475777Y-16094455D02*
X10456729Y-16113503D01*
X10456729Y-16113503D02*
X10437682Y-16123027D01*
X10732920Y-16065884D02*
X10637682Y-16065884D01*
X10637682Y-16065884D02*
X10628158Y-16161122D01*
X10628158Y-16161122D02*
X10637682Y-16151598D01*
X10637682Y-16151598D02*
X10656729Y-16142074D01*
X10656729Y-16142074D02*
X10704349Y-16142074D01*
X10704349Y-16142074D02*
X10723396Y-16151598D01*
X10723396Y-16151598D02*
X10732920Y-16161122D01*
X10732920Y-16161122D02*
X10742444Y-16180169D01*
X10742444Y-16180169D02*
X10742444Y-16227788D01*
X10742444Y-16227788D02*
X10732920Y-16246836D01*
X10732920Y-16246836D02*
X10723396Y-16256360D01*
X10723396Y-16256360D02*
X10704349Y-16265884D01*
X10704349Y-16265884D02*
X10656729Y-16265884D01*
X10656729Y-16265884D02*
X10637682Y-16256360D01*
X10637682Y-16256360D02*
X10628158Y-16246836D01*
X10818634Y-16065884D02*
X10818634Y-16103979D01*
X10894825Y-16065884D02*
X10894825Y-16103979D01*
X11190063Y-16342074D02*
X11180539Y-16332550D01*
X11180539Y-16332550D02*
X11161491Y-16303979D01*
X11161491Y-16303979D02*
X11151968Y-16284931D01*
X11151968Y-16284931D02*
X11142444Y-16256360D01*
X11142444Y-16256360D02*
X11132920Y-16208741D01*
X11132920Y-16208741D02*
X11132920Y-16170646D01*
X11132920Y-16170646D02*
X11142444Y-16123027D01*
X11142444Y-16123027D02*
X11151968Y-16094455D01*
X11151968Y-16094455D02*
X11161491Y-16075408D01*
X11161491Y-16075408D02*
X11180539Y-16046836D01*
X11180539Y-16046836D02*
X11190063Y-16037312D01*
X11371015Y-16265884D02*
X11256729Y-16265884D01*
X11313872Y-16265884D02*
X11313872Y-16065884D01*
X11313872Y-16065884D02*
X11294825Y-16094455D01*
X11294825Y-16094455D02*
X11275777Y-16113503D01*
X11275777Y-16113503D02*
X11256729Y-16123027D01*
X11494825Y-16065884D02*
X11513872Y-16065884D01*
X11513872Y-16065884D02*
X11532920Y-16075408D01*
X11532920Y-16075408D02*
X11542444Y-16084931D01*
X11542444Y-16084931D02*
X11551968Y-16103979D01*
X11551968Y-16103979D02*
X11561491Y-16142074D01*
X11561491Y-16142074D02*
X11561491Y-16189693D01*
X11561491Y-16189693D02*
X11551968Y-16227788D01*
X11551968Y-16227788D02*
X11542444Y-16246836D01*
X11542444Y-16246836D02*
X11532920Y-16256360D01*
X11532920Y-16256360D02*
X11513872Y-16265884D01*
X11513872Y-16265884D02*
X11494825Y-16265884D01*
X11494825Y-16265884D02*
X11475777Y-16256360D01*
X11475777Y-16256360D02*
X11466253Y-16246836D01*
X11466253Y-16246836D02*
X11456729Y-16227788D01*
X11456729Y-16227788D02*
X11447206Y-16189693D01*
X11447206Y-16189693D02*
X11447206Y-16142074D01*
X11447206Y-16142074D02*
X11456729Y-16103979D01*
X11456729Y-16103979D02*
X11466253Y-16084931D01*
X11466253Y-16084931D02*
X11475777Y-16075408D01*
X11475777Y-16075408D02*
X11494825Y-16065884D01*
X11685301Y-16065884D02*
X11704349Y-16065884D01*
X11704349Y-16065884D02*
X11723396Y-16075408D01*
X11723396Y-16075408D02*
X11732920Y-16084931D01*
X11732920Y-16084931D02*
X11742444Y-16103979D01*
X11742444Y-16103979D02*
X11751968Y-16142074D01*
X11751968Y-16142074D02*
X11751968Y-16189693D01*
X11751968Y-16189693D02*
X11742444Y-16227788D01*
X11742444Y-16227788D02*
X11732920Y-16246836D01*
X11732920Y-16246836D02*
X11723396Y-16256360D01*
X11723396Y-16256360D02*
X11704349Y-16265884D01*
X11704349Y-16265884D02*
X11685301Y-16265884D01*
X11685301Y-16265884D02*
X11666253Y-16256360D01*
X11666253Y-16256360D02*
X11656729Y-16246836D01*
X11656729Y-16246836D02*
X11647206Y-16227788D01*
X11647206Y-16227788D02*
X11637682Y-16189693D01*
X11637682Y-16189693D02*
X11637682Y-16142074D01*
X11637682Y-16142074D02*
X11647206Y-16103979D01*
X11647206Y-16103979D02*
X11656729Y-16084931D01*
X11656729Y-16084931D02*
X11666253Y-16075408D01*
X11666253Y-16075408D02*
X11685301Y-16065884D01*
X11990063Y-16265884D02*
X11990063Y-16065884D01*
X12075777Y-16265884D02*
X12075777Y-16161122D01*
X12075777Y-16161122D02*
X12066253Y-16142074D01*
X12066253Y-16142074D02*
X12047206Y-16132550D01*
X12047206Y-16132550D02*
X12018634Y-16132550D01*
X12018634Y-16132550D02*
X11999587Y-16142074D01*
X11999587Y-16142074D02*
X11990063Y-16151598D01*
X12199587Y-16265884D02*
X12180539Y-16256360D01*
X12180539Y-16256360D02*
X12171015Y-16246836D01*
X12171015Y-16246836D02*
X12161491Y-16227788D01*
X12161491Y-16227788D02*
X12161491Y-16170646D01*
X12161491Y-16170646D02*
X12171015Y-16151598D01*
X12171015Y-16151598D02*
X12180539Y-16142074D01*
X12180539Y-16142074D02*
X12199587Y-16132550D01*
X12199587Y-16132550D02*
X12228158Y-16132550D01*
X12228158Y-16132550D02*
X12247206Y-16142074D01*
X12247206Y-16142074D02*
X12256730Y-16151598D01*
X12256730Y-16151598D02*
X12266253Y-16170646D01*
X12266253Y-16170646D02*
X12266253Y-16227788D01*
X12266253Y-16227788D02*
X12256730Y-16246836D01*
X12256730Y-16246836D02*
X12247206Y-16256360D01*
X12247206Y-16256360D02*
X12228158Y-16265884D01*
X12228158Y-16265884D02*
X12199587Y-16265884D01*
X12380539Y-16265884D02*
X12361491Y-16256360D01*
X12361491Y-16256360D02*
X12351968Y-16237312D01*
X12351968Y-16237312D02*
X12351968Y-16065884D01*
X12532920Y-16256360D02*
X12513872Y-16265884D01*
X12513872Y-16265884D02*
X12475777Y-16265884D01*
X12475777Y-16265884D02*
X12456730Y-16256360D01*
X12456730Y-16256360D02*
X12447206Y-16237312D01*
X12447206Y-16237312D02*
X12447206Y-16161122D01*
X12447206Y-16161122D02*
X12456730Y-16142074D01*
X12456730Y-16142074D02*
X12475777Y-16132550D01*
X12475777Y-16132550D02*
X12513872Y-16132550D01*
X12513872Y-16132550D02*
X12532920Y-16142074D01*
X12532920Y-16142074D02*
X12542444Y-16161122D01*
X12542444Y-16161122D02*
X12542444Y-16180169D01*
X12542444Y-16180169D02*
X12447206Y-16199217D01*
X12618634Y-16256360D02*
X12637682Y-16265884D01*
X12637682Y-16265884D02*
X12675777Y-16265884D01*
X12675777Y-16265884D02*
X12694825Y-16256360D01*
X12694825Y-16256360D02*
X12704349Y-16237312D01*
X12704349Y-16237312D02*
X12704349Y-16227788D01*
X12704349Y-16227788D02*
X12694825Y-16208741D01*
X12694825Y-16208741D02*
X12675777Y-16199217D01*
X12675777Y-16199217D02*
X12647206Y-16199217D01*
X12647206Y-16199217D02*
X12628158Y-16189693D01*
X12628158Y-16189693D02*
X12618634Y-16170646D01*
X12618634Y-16170646D02*
X12618634Y-16161122D01*
X12618634Y-16161122D02*
X12628158Y-16142074D01*
X12628158Y-16142074D02*
X12647206Y-16132550D01*
X12647206Y-16132550D02*
X12675777Y-16132550D01*
X12675777Y-16132550D02*
X12694825Y-16142074D01*
X12771015Y-16342074D02*
X12780539Y-16332550D01*
X12780539Y-16332550D02*
X12799587Y-16303979D01*
X12799587Y-16303979D02*
X12809111Y-16284931D01*
X12809111Y-16284931D02*
X12818634Y-16256360D01*
X12818634Y-16256360D02*
X12828158Y-16208741D01*
X12828158Y-16208741D02*
X12828158Y-16170646D01*
X12828158Y-16170646D02*
X12818634Y-16123027D01*
X12818634Y-16123027D02*
X12809111Y-16094455D01*
X12809111Y-16094455D02*
X12799587Y-16075408D01*
X12799587Y-16075408D02*
X12780539Y-16046836D01*
X12780539Y-16046836D02*
X12771015Y-16037312D01*
D10*
X7570000Y-16393400D02*
X7570000Y-16483400D01*
X7525000Y-16438400D02*
X7615000Y-16438400D01*
D11*
X7913872Y-16329884D02*
X7932920Y-16329884D01*
X7932920Y-16329884D02*
X7951967Y-16339408D01*
X7951967Y-16339408D02*
X7961491Y-16348931D01*
X7961491Y-16348931D02*
X7971015Y-16367979D01*
X7971015Y-16367979D02*
X7980539Y-16406074D01*
X7980539Y-16406074D02*
X7980539Y-16453693D01*
X7980539Y-16453693D02*
X7971015Y-16491788D01*
X7971015Y-16491788D02*
X7961491Y-16510836D01*
X7961491Y-16510836D02*
X7951967Y-16520360D01*
X7951967Y-16520360D02*
X7932920Y-16529884D01*
X7932920Y-16529884D02*
X7913872Y-16529884D01*
X7913872Y-16529884D02*
X7894824Y-16520360D01*
X7894824Y-16520360D02*
X7885301Y-16510836D01*
X7885301Y-16510836D02*
X7875777Y-16491788D01*
X7875777Y-16491788D02*
X7866253Y-16453693D01*
X7866253Y-16453693D02*
X7866253Y-16406074D01*
X7866253Y-16406074D02*
X7875777Y-16367979D01*
X7875777Y-16367979D02*
X7885301Y-16348931D01*
X7885301Y-16348931D02*
X7894824Y-16339408D01*
X7894824Y-16339408D02*
X7913872Y-16329884D01*
X8066253Y-16510836D02*
X8075777Y-16520360D01*
X8075777Y-16520360D02*
X8066253Y-16529884D01*
X8066253Y-16529884D02*
X8056729Y-16520360D01*
X8056729Y-16520360D02*
X8066253Y-16510836D01*
X8066253Y-16510836D02*
X8066253Y-16529884D01*
X8171015Y-16529884D02*
X8209110Y-16529884D01*
X8209110Y-16529884D02*
X8228158Y-16520360D01*
X8228158Y-16520360D02*
X8237682Y-16510836D01*
X8237682Y-16510836D02*
X8256729Y-16482265D01*
X8256729Y-16482265D02*
X8266253Y-16444169D01*
X8266253Y-16444169D02*
X8266253Y-16367979D01*
X8266253Y-16367979D02*
X8256729Y-16348931D01*
X8256729Y-16348931D02*
X8247205Y-16339408D01*
X8247205Y-16339408D02*
X8228158Y-16329884D01*
X8228158Y-16329884D02*
X8190062Y-16329884D01*
X8190062Y-16329884D02*
X8171015Y-16339408D01*
X8171015Y-16339408D02*
X8161491Y-16348931D01*
X8161491Y-16348931D02*
X8151967Y-16367979D01*
X8151967Y-16367979D02*
X8151967Y-16415598D01*
X8151967Y-16415598D02*
X8161491Y-16434646D01*
X8161491Y-16434646D02*
X8171015Y-16444169D01*
X8171015Y-16444169D02*
X8190062Y-16453693D01*
X8190062Y-16453693D02*
X8228158Y-16453693D01*
X8228158Y-16453693D02*
X8247205Y-16444169D01*
X8247205Y-16444169D02*
X8256729Y-16434646D01*
X8256729Y-16434646D02*
X8266253Y-16415598D01*
X8390063Y-16329884D02*
X8409110Y-16329884D01*
X8409110Y-16329884D02*
X8428158Y-16339408D01*
X8428158Y-16339408D02*
X8437682Y-16348931D01*
X8437682Y-16348931D02*
X8447205Y-16367979D01*
X8447205Y-16367979D02*
X8456729Y-16406074D01*
X8456729Y-16406074D02*
X8456729Y-16453693D01*
X8456729Y-16453693D02*
X8447205Y-16491788D01*
X8447205Y-16491788D02*
X8437682Y-16510836D01*
X8437682Y-16510836D02*
X8428158Y-16520360D01*
X8428158Y-16520360D02*
X8409110Y-16529884D01*
X8409110Y-16529884D02*
X8390063Y-16529884D01*
X8390063Y-16529884D02*
X8371015Y-16520360D01*
X8371015Y-16520360D02*
X8361491Y-16510836D01*
X8361491Y-16510836D02*
X8351967Y-16491788D01*
X8351967Y-16491788D02*
X8342443Y-16453693D01*
X8342443Y-16453693D02*
X8342443Y-16406074D01*
X8342443Y-16406074D02*
X8351967Y-16367979D01*
X8351967Y-16367979D02*
X8361491Y-16348931D01*
X8361491Y-16348931D02*
X8371015Y-16339408D01*
X8371015Y-16339408D02*
X8390063Y-16329884D01*
X8580539Y-16329884D02*
X8599586Y-16329884D01*
X8599586Y-16329884D02*
X8618634Y-16339408D01*
X8618634Y-16339408D02*
X8628158Y-16348931D01*
X8628158Y-16348931D02*
X8637682Y-16367979D01*
X8637682Y-16367979D02*
X8647205Y-16406074D01*
X8647205Y-16406074D02*
X8647205Y-16453693D01*
X8647205Y-16453693D02*
X8637682Y-16491788D01*
X8637682Y-16491788D02*
X8628158Y-16510836D01*
X8628158Y-16510836D02*
X8618634Y-16520360D01*
X8618634Y-16520360D02*
X8599586Y-16529884D01*
X8599586Y-16529884D02*
X8580539Y-16529884D01*
X8580539Y-16529884D02*
X8561491Y-16520360D01*
X8561491Y-16520360D02*
X8551967Y-16510836D01*
X8551967Y-16510836D02*
X8542444Y-16491788D01*
X8542444Y-16491788D02*
X8532920Y-16453693D01*
X8532920Y-16453693D02*
X8532920Y-16406074D01*
X8532920Y-16406074D02*
X8542444Y-16367979D01*
X8542444Y-16367979D02*
X8551967Y-16348931D01*
X8551967Y-16348931D02*
X8561491Y-16339408D01*
X8561491Y-16339408D02*
X8580539Y-16329884D01*
X8732920Y-16529884D02*
X8732920Y-16396550D01*
X8732920Y-16415598D02*
X8742444Y-16406074D01*
X8742444Y-16406074D02*
X8761491Y-16396550D01*
X8761491Y-16396550D02*
X8790063Y-16396550D01*
X8790063Y-16396550D02*
X8809110Y-16406074D01*
X8809110Y-16406074D02*
X8818634Y-16425122D01*
X8818634Y-16425122D02*
X8818634Y-16529884D01*
X8818634Y-16425122D02*
X8828158Y-16406074D01*
X8828158Y-16406074D02*
X8847205Y-16396550D01*
X8847205Y-16396550D02*
X8875777Y-16396550D01*
X8875777Y-16396550D02*
X8894825Y-16406074D01*
X8894825Y-16406074D02*
X8904348Y-16425122D01*
X8904348Y-16425122D02*
X8904348Y-16529884D01*
X8999586Y-16529884D02*
X8999586Y-16396550D01*
X8999586Y-16415598D02*
X9009110Y-16406074D01*
X9009110Y-16406074D02*
X9028158Y-16396550D01*
X9028158Y-16396550D02*
X9056729Y-16396550D01*
X9056729Y-16396550D02*
X9075777Y-16406074D01*
X9075777Y-16406074D02*
X9085301Y-16425122D01*
X9085301Y-16425122D02*
X9085301Y-16529884D01*
X9085301Y-16425122D02*
X9094825Y-16406074D01*
X9094825Y-16406074D02*
X9113872Y-16396550D01*
X9113872Y-16396550D02*
X9142444Y-16396550D01*
X9142444Y-16396550D02*
X9161491Y-16406074D01*
X9161491Y-16406074D02*
X9171015Y-16425122D01*
X9171015Y-16425122D02*
X9171015Y-16529884D01*
X9561491Y-16320360D02*
X9390063Y-16577503D01*
X9818634Y-16329884D02*
X9837682Y-16329884D01*
X9837682Y-16329884D02*
X9856729Y-16339408D01*
X9856729Y-16339408D02*
X9866253Y-16348931D01*
X9866253Y-16348931D02*
X9875777Y-16367979D01*
X9875777Y-16367979D02*
X9885301Y-16406074D01*
X9885301Y-16406074D02*
X9885301Y-16453693D01*
X9885301Y-16453693D02*
X9875777Y-16491788D01*
X9875777Y-16491788D02*
X9866253Y-16510836D01*
X9866253Y-16510836D02*
X9856729Y-16520360D01*
X9856729Y-16520360D02*
X9837682Y-16529884D01*
X9837682Y-16529884D02*
X9818634Y-16529884D01*
X9818634Y-16529884D02*
X9799587Y-16520360D01*
X9799587Y-16520360D02*
X9790063Y-16510836D01*
X9790063Y-16510836D02*
X9780539Y-16491788D01*
X9780539Y-16491788D02*
X9771015Y-16453693D01*
X9771015Y-16453693D02*
X9771015Y-16406074D01*
X9771015Y-16406074D02*
X9780539Y-16367979D01*
X9780539Y-16367979D02*
X9790063Y-16348931D01*
X9790063Y-16348931D02*
X9799587Y-16339408D01*
X9799587Y-16339408D02*
X9818634Y-16329884D01*
X9971015Y-16510836D02*
X9980539Y-16520360D01*
X9980539Y-16520360D02*
X9971015Y-16529884D01*
X9971015Y-16529884D02*
X9961491Y-16520360D01*
X9961491Y-16520360D02*
X9971015Y-16510836D01*
X9971015Y-16510836D02*
X9971015Y-16529884D01*
X10104348Y-16329884D02*
X10123396Y-16329884D01*
X10123396Y-16329884D02*
X10142444Y-16339408D01*
X10142444Y-16339408D02*
X10151968Y-16348931D01*
X10151968Y-16348931D02*
X10161491Y-16367979D01*
X10161491Y-16367979D02*
X10171015Y-16406074D01*
X10171015Y-16406074D02*
X10171015Y-16453693D01*
X10171015Y-16453693D02*
X10161491Y-16491788D01*
X10161491Y-16491788D02*
X10151968Y-16510836D01*
X10151968Y-16510836D02*
X10142444Y-16520360D01*
X10142444Y-16520360D02*
X10123396Y-16529884D01*
X10123396Y-16529884D02*
X10104348Y-16529884D01*
X10104348Y-16529884D02*
X10085301Y-16520360D01*
X10085301Y-16520360D02*
X10075777Y-16510836D01*
X10075777Y-16510836D02*
X10066253Y-16491788D01*
X10066253Y-16491788D02*
X10056729Y-16453693D01*
X10056729Y-16453693D02*
X10056729Y-16406074D01*
X10056729Y-16406074D02*
X10066253Y-16367979D01*
X10066253Y-16367979D02*
X10075777Y-16348931D01*
X10075777Y-16348931D02*
X10085301Y-16339408D01*
X10085301Y-16339408D02*
X10104348Y-16329884D01*
X10237682Y-16329884D02*
X10361491Y-16329884D01*
X10361491Y-16329884D02*
X10294825Y-16406074D01*
X10294825Y-16406074D02*
X10323396Y-16406074D01*
X10323396Y-16406074D02*
X10342444Y-16415598D01*
X10342444Y-16415598D02*
X10351968Y-16425122D01*
X10351968Y-16425122D02*
X10361491Y-16444169D01*
X10361491Y-16444169D02*
X10361491Y-16491788D01*
X10361491Y-16491788D02*
X10351968Y-16510836D01*
X10351968Y-16510836D02*
X10342444Y-16520360D01*
X10342444Y-16520360D02*
X10323396Y-16529884D01*
X10323396Y-16529884D02*
X10266253Y-16529884D01*
X10266253Y-16529884D02*
X10247206Y-16520360D01*
X10247206Y-16520360D02*
X10237682Y-16510836D01*
X10542444Y-16329884D02*
X10447206Y-16329884D01*
X10447206Y-16329884D02*
X10437682Y-16425122D01*
X10437682Y-16425122D02*
X10447206Y-16415598D01*
X10447206Y-16415598D02*
X10466253Y-16406074D01*
X10466253Y-16406074D02*
X10513872Y-16406074D01*
X10513872Y-16406074D02*
X10532920Y-16415598D01*
X10532920Y-16415598D02*
X10542444Y-16425122D01*
X10542444Y-16425122D02*
X10551968Y-16444169D01*
X10551968Y-16444169D02*
X10551968Y-16491788D01*
X10551968Y-16491788D02*
X10542444Y-16510836D01*
X10542444Y-16510836D02*
X10532920Y-16520360D01*
X10532920Y-16520360D02*
X10513872Y-16529884D01*
X10513872Y-16529884D02*
X10466253Y-16529884D01*
X10466253Y-16529884D02*
X10447206Y-16520360D01*
X10447206Y-16520360D02*
X10437682Y-16510836D01*
X10723396Y-16396550D02*
X10723396Y-16529884D01*
X10675777Y-16320360D02*
X10628158Y-16463217D01*
X10628158Y-16463217D02*
X10751968Y-16463217D01*
X10818634Y-16329884D02*
X10818634Y-16367979D01*
X10894825Y-16329884D02*
X10894825Y-16367979D01*
X11190063Y-16606074D02*
X11180539Y-16596550D01*
X11180539Y-16596550D02*
X11161491Y-16567979D01*
X11161491Y-16567979D02*
X11151968Y-16548931D01*
X11151968Y-16548931D02*
X11142444Y-16520360D01*
X11142444Y-16520360D02*
X11132920Y-16472741D01*
X11132920Y-16472741D02*
X11132920Y-16434646D01*
X11132920Y-16434646D02*
X11142444Y-16387027D01*
X11142444Y-16387027D02*
X11151968Y-16358455D01*
X11151968Y-16358455D02*
X11161491Y-16339408D01*
X11161491Y-16339408D02*
X11180539Y-16310836D01*
X11180539Y-16310836D02*
X11190063Y-16301312D01*
X11256729Y-16348931D02*
X11266253Y-16339408D01*
X11266253Y-16339408D02*
X11285301Y-16329884D01*
X11285301Y-16329884D02*
X11332920Y-16329884D01*
X11332920Y-16329884D02*
X11351968Y-16339408D01*
X11351968Y-16339408D02*
X11361491Y-16348931D01*
X11361491Y-16348931D02*
X11371015Y-16367979D01*
X11371015Y-16367979D02*
X11371015Y-16387027D01*
X11371015Y-16387027D02*
X11361491Y-16415598D01*
X11361491Y-16415598D02*
X11247206Y-16529884D01*
X11247206Y-16529884D02*
X11371015Y-16529884D01*
X11609110Y-16529884D02*
X11609110Y-16329884D01*
X11694825Y-16529884D02*
X11694825Y-16425122D01*
X11694825Y-16425122D02*
X11685301Y-16406074D01*
X11685301Y-16406074D02*
X11666253Y-16396550D01*
X11666253Y-16396550D02*
X11637682Y-16396550D01*
X11637682Y-16396550D02*
X11618634Y-16406074D01*
X11618634Y-16406074D02*
X11609110Y-16415598D01*
X11818634Y-16529884D02*
X11799587Y-16520360D01*
X11799587Y-16520360D02*
X11790063Y-16510836D01*
X11790063Y-16510836D02*
X11780539Y-16491788D01*
X11780539Y-16491788D02*
X11780539Y-16434646D01*
X11780539Y-16434646D02*
X11790063Y-16415598D01*
X11790063Y-16415598D02*
X11799587Y-16406074D01*
X11799587Y-16406074D02*
X11818634Y-16396550D01*
X11818634Y-16396550D02*
X11847206Y-16396550D01*
X11847206Y-16396550D02*
X11866253Y-16406074D01*
X11866253Y-16406074D02*
X11875777Y-16415598D01*
X11875777Y-16415598D02*
X11885301Y-16434646D01*
X11885301Y-16434646D02*
X11885301Y-16491788D01*
X11885301Y-16491788D02*
X11875777Y-16510836D01*
X11875777Y-16510836D02*
X11866253Y-16520360D01*
X11866253Y-16520360D02*
X11847206Y-16529884D01*
X11847206Y-16529884D02*
X11818634Y-16529884D01*
X11999587Y-16529884D02*
X11980539Y-16520360D01*
X11980539Y-16520360D02*
X11971015Y-16501312D01*
X11971015Y-16501312D02*
X11971015Y-16329884D01*
X12151968Y-16520360D02*
X12132920Y-16529884D01*
X12132920Y-16529884D02*
X12094825Y-16529884D01*
X12094825Y-16529884D02*
X12075777Y-16520360D01*
X12075777Y-16520360D02*
X12066253Y-16501312D01*
X12066253Y-16501312D02*
X12066253Y-16425122D01*
X12066253Y-16425122D02*
X12075777Y-16406074D01*
X12075777Y-16406074D02*
X12094825Y-16396550D01*
X12094825Y-16396550D02*
X12132920Y-16396550D01*
X12132920Y-16396550D02*
X12151968Y-16406074D01*
X12151968Y-16406074D02*
X12161491Y-16425122D01*
X12161491Y-16425122D02*
X12161491Y-16444169D01*
X12161491Y-16444169D02*
X12066253Y-16463217D01*
X12237682Y-16520360D02*
X12256730Y-16529884D01*
X12256730Y-16529884D02*
X12294825Y-16529884D01*
X12294825Y-16529884D02*
X12313872Y-16520360D01*
X12313872Y-16520360D02*
X12323396Y-16501312D01*
X12323396Y-16501312D02*
X12323396Y-16491788D01*
X12323396Y-16491788D02*
X12313872Y-16472741D01*
X12313872Y-16472741D02*
X12294825Y-16463217D01*
X12294825Y-16463217D02*
X12266253Y-16463217D01*
X12266253Y-16463217D02*
X12247206Y-16453693D01*
X12247206Y-16453693D02*
X12237682Y-16434646D01*
X12237682Y-16434646D02*
X12237682Y-16425122D01*
X12237682Y-16425122D02*
X12247206Y-16406074D01*
X12247206Y-16406074D02*
X12266253Y-16396550D01*
X12266253Y-16396550D02*
X12294825Y-16396550D01*
X12294825Y-16396550D02*
X12313872Y-16406074D01*
X12390063Y-16606074D02*
X12399587Y-16596550D01*
X12399587Y-16596550D02*
X12418634Y-16567979D01*
X12418634Y-16567979D02*
X12428158Y-16548931D01*
X12428158Y-16548931D02*
X12437682Y-16520360D01*
X12437682Y-16520360D02*
X12447206Y-16472741D01*
X12447206Y-16472741D02*
X12447206Y-16434646D01*
X12447206Y-16434646D02*
X12437682Y-16387027D01*
X12437682Y-16387027D02*
X12428158Y-16358455D01*
X12428158Y-16358455D02*
X12418634Y-16339408D01*
X12418634Y-16339408D02*
X12399587Y-16310836D01*
X12399587Y-16310836D02*
X12390063Y-16301312D01*
D10*
X7600493Y-16737423D02*
X7600493Y-16667377D01*
X7530447Y-16667377D01*
X7530447Y-16737423D01*
X7600493Y-16737423D01*
D11*
X7913872Y-16593884D02*
X7932920Y-16593884D01*
X7932920Y-16593884D02*
X7951967Y-16603408D01*
X7951967Y-16603408D02*
X7961491Y-16612931D01*
X7961491Y-16612931D02*
X7971015Y-16631979D01*
X7971015Y-16631979D02*
X7980539Y-16670074D01*
X7980539Y-16670074D02*
X7980539Y-16717693D01*
X7980539Y-16717693D02*
X7971015Y-16755788D01*
X7971015Y-16755788D02*
X7961491Y-16774836D01*
X7961491Y-16774836D02*
X7951967Y-16784360D01*
X7951967Y-16784360D02*
X7932920Y-16793884D01*
X7932920Y-16793884D02*
X7913872Y-16793884D01*
X7913872Y-16793884D02*
X7894824Y-16784360D01*
X7894824Y-16784360D02*
X7885301Y-16774836D01*
X7885301Y-16774836D02*
X7875777Y-16755788D01*
X7875777Y-16755788D02*
X7866253Y-16717693D01*
X7866253Y-16717693D02*
X7866253Y-16670074D01*
X7866253Y-16670074D02*
X7875777Y-16631979D01*
X7875777Y-16631979D02*
X7885301Y-16612931D01*
X7885301Y-16612931D02*
X7894824Y-16603408D01*
X7894824Y-16603408D02*
X7913872Y-16593884D01*
X8066253Y-16774836D02*
X8075777Y-16784360D01*
X8075777Y-16784360D02*
X8066253Y-16793884D01*
X8066253Y-16793884D02*
X8056729Y-16784360D01*
X8056729Y-16784360D02*
X8066253Y-16774836D01*
X8066253Y-16774836D02*
X8066253Y-16793884D01*
X8171015Y-16793884D02*
X8209110Y-16793884D01*
X8209110Y-16793884D02*
X8228158Y-16784360D01*
X8228158Y-16784360D02*
X8237682Y-16774836D01*
X8237682Y-16774836D02*
X8256729Y-16746265D01*
X8256729Y-16746265D02*
X8266253Y-16708169D01*
X8266253Y-16708169D02*
X8266253Y-16631979D01*
X8266253Y-16631979D02*
X8256729Y-16612931D01*
X8256729Y-16612931D02*
X8247205Y-16603408D01*
X8247205Y-16603408D02*
X8228158Y-16593884D01*
X8228158Y-16593884D02*
X8190062Y-16593884D01*
X8190062Y-16593884D02*
X8171015Y-16603408D01*
X8171015Y-16603408D02*
X8161491Y-16612931D01*
X8161491Y-16612931D02*
X8151967Y-16631979D01*
X8151967Y-16631979D02*
X8151967Y-16679598D01*
X8151967Y-16679598D02*
X8161491Y-16698646D01*
X8161491Y-16698646D02*
X8171015Y-16708169D01*
X8171015Y-16708169D02*
X8190062Y-16717693D01*
X8190062Y-16717693D02*
X8228158Y-16717693D01*
X8228158Y-16717693D02*
X8247205Y-16708169D01*
X8247205Y-16708169D02*
X8256729Y-16698646D01*
X8256729Y-16698646D02*
X8266253Y-16679598D01*
X8361491Y-16793884D02*
X8399586Y-16793884D01*
X8399586Y-16793884D02*
X8418634Y-16784360D01*
X8418634Y-16784360D02*
X8428158Y-16774836D01*
X8428158Y-16774836D02*
X8447205Y-16746265D01*
X8447205Y-16746265D02*
X8456729Y-16708169D01*
X8456729Y-16708169D02*
X8456729Y-16631979D01*
X8456729Y-16631979D02*
X8447205Y-16612931D01*
X8447205Y-16612931D02*
X8437682Y-16603408D01*
X8437682Y-16603408D02*
X8418634Y-16593884D01*
X8418634Y-16593884D02*
X8380539Y-16593884D01*
X8380539Y-16593884D02*
X8361491Y-16603408D01*
X8361491Y-16603408D02*
X8351967Y-16612931D01*
X8351967Y-16612931D02*
X8342443Y-16631979D01*
X8342443Y-16631979D02*
X8342443Y-16679598D01*
X8342443Y-16679598D02*
X8351967Y-16698646D01*
X8351967Y-16698646D02*
X8361491Y-16708169D01*
X8361491Y-16708169D02*
X8380539Y-16717693D01*
X8380539Y-16717693D02*
X8418634Y-16717693D01*
X8418634Y-16717693D02*
X8437682Y-16708169D01*
X8437682Y-16708169D02*
X8447205Y-16698646D01*
X8447205Y-16698646D02*
X8456729Y-16679598D01*
X8647205Y-16793884D02*
X8532920Y-16793884D01*
X8590063Y-16793884D02*
X8590063Y-16593884D01*
X8590063Y-16593884D02*
X8571015Y-16622455D01*
X8571015Y-16622455D02*
X8551967Y-16641503D01*
X8551967Y-16641503D02*
X8532920Y-16651027D01*
X8732920Y-16793884D02*
X8732920Y-16660550D01*
X8732920Y-16679598D02*
X8742444Y-16670074D01*
X8742444Y-16670074D02*
X8761491Y-16660550D01*
X8761491Y-16660550D02*
X8790063Y-16660550D01*
X8790063Y-16660550D02*
X8809110Y-16670074D01*
X8809110Y-16670074D02*
X8818634Y-16689122D01*
X8818634Y-16689122D02*
X8818634Y-16793884D01*
X8818634Y-16689122D02*
X8828158Y-16670074D01*
X8828158Y-16670074D02*
X8847205Y-16660550D01*
X8847205Y-16660550D02*
X8875777Y-16660550D01*
X8875777Y-16660550D02*
X8894825Y-16670074D01*
X8894825Y-16670074D02*
X8904348Y-16689122D01*
X8904348Y-16689122D02*
X8904348Y-16793884D01*
X8999586Y-16793884D02*
X8999586Y-16660550D01*
X8999586Y-16679598D02*
X9009110Y-16670074D01*
X9009110Y-16670074D02*
X9028158Y-16660550D01*
X9028158Y-16660550D02*
X9056729Y-16660550D01*
X9056729Y-16660550D02*
X9075777Y-16670074D01*
X9075777Y-16670074D02*
X9085301Y-16689122D01*
X9085301Y-16689122D02*
X9085301Y-16793884D01*
X9085301Y-16689122D02*
X9094825Y-16670074D01*
X9094825Y-16670074D02*
X9113872Y-16660550D01*
X9113872Y-16660550D02*
X9142444Y-16660550D01*
X9142444Y-16660550D02*
X9161491Y-16670074D01*
X9161491Y-16670074D02*
X9171015Y-16689122D01*
X9171015Y-16689122D02*
X9171015Y-16793884D01*
X9561491Y-16584360D02*
X9390063Y-16841503D01*
X9818634Y-16593884D02*
X9837682Y-16593884D01*
X9837682Y-16593884D02*
X9856729Y-16603408D01*
X9856729Y-16603408D02*
X9866253Y-16612931D01*
X9866253Y-16612931D02*
X9875777Y-16631979D01*
X9875777Y-16631979D02*
X9885301Y-16670074D01*
X9885301Y-16670074D02*
X9885301Y-16717693D01*
X9885301Y-16717693D02*
X9875777Y-16755788D01*
X9875777Y-16755788D02*
X9866253Y-16774836D01*
X9866253Y-16774836D02*
X9856729Y-16784360D01*
X9856729Y-16784360D02*
X9837682Y-16793884D01*
X9837682Y-16793884D02*
X9818634Y-16793884D01*
X9818634Y-16793884D02*
X9799587Y-16784360D01*
X9799587Y-16784360D02*
X9790063Y-16774836D01*
X9790063Y-16774836D02*
X9780539Y-16755788D01*
X9780539Y-16755788D02*
X9771015Y-16717693D01*
X9771015Y-16717693D02*
X9771015Y-16670074D01*
X9771015Y-16670074D02*
X9780539Y-16631979D01*
X9780539Y-16631979D02*
X9790063Y-16612931D01*
X9790063Y-16612931D02*
X9799587Y-16603408D01*
X9799587Y-16603408D02*
X9818634Y-16593884D01*
X9971015Y-16774836D02*
X9980539Y-16784360D01*
X9980539Y-16784360D02*
X9971015Y-16793884D01*
X9971015Y-16793884D02*
X9961491Y-16784360D01*
X9961491Y-16784360D02*
X9971015Y-16774836D01*
X9971015Y-16774836D02*
X9971015Y-16793884D01*
X10104348Y-16593884D02*
X10123396Y-16593884D01*
X10123396Y-16593884D02*
X10142444Y-16603408D01*
X10142444Y-16603408D02*
X10151968Y-16612931D01*
X10151968Y-16612931D02*
X10161491Y-16631979D01*
X10161491Y-16631979D02*
X10171015Y-16670074D01*
X10171015Y-16670074D02*
X10171015Y-16717693D01*
X10171015Y-16717693D02*
X10161491Y-16755788D01*
X10161491Y-16755788D02*
X10151968Y-16774836D01*
X10151968Y-16774836D02*
X10142444Y-16784360D01*
X10142444Y-16784360D02*
X10123396Y-16793884D01*
X10123396Y-16793884D02*
X10104348Y-16793884D01*
X10104348Y-16793884D02*
X10085301Y-16784360D01*
X10085301Y-16784360D02*
X10075777Y-16774836D01*
X10075777Y-16774836D02*
X10066253Y-16755788D01*
X10066253Y-16755788D02*
X10056729Y-16717693D01*
X10056729Y-16717693D02*
X10056729Y-16670074D01*
X10056729Y-16670074D02*
X10066253Y-16631979D01*
X10066253Y-16631979D02*
X10075777Y-16612931D01*
X10075777Y-16612931D02*
X10085301Y-16603408D01*
X10085301Y-16603408D02*
X10104348Y-16593884D01*
X10237682Y-16593884D02*
X10361491Y-16593884D01*
X10361491Y-16593884D02*
X10294825Y-16670074D01*
X10294825Y-16670074D02*
X10323396Y-16670074D01*
X10323396Y-16670074D02*
X10342444Y-16679598D01*
X10342444Y-16679598D02*
X10351968Y-16689122D01*
X10351968Y-16689122D02*
X10361491Y-16708169D01*
X10361491Y-16708169D02*
X10361491Y-16755788D01*
X10361491Y-16755788D02*
X10351968Y-16774836D01*
X10351968Y-16774836D02*
X10342444Y-16784360D01*
X10342444Y-16784360D02*
X10323396Y-16793884D01*
X10323396Y-16793884D02*
X10266253Y-16793884D01*
X10266253Y-16793884D02*
X10247206Y-16784360D01*
X10247206Y-16784360D02*
X10237682Y-16774836D01*
X10456729Y-16793884D02*
X10494825Y-16793884D01*
X10494825Y-16793884D02*
X10513872Y-16784360D01*
X10513872Y-16784360D02*
X10523396Y-16774836D01*
X10523396Y-16774836D02*
X10542444Y-16746265D01*
X10542444Y-16746265D02*
X10551968Y-16708169D01*
X10551968Y-16708169D02*
X10551968Y-16631979D01*
X10551968Y-16631979D02*
X10542444Y-16612931D01*
X10542444Y-16612931D02*
X10532920Y-16603408D01*
X10532920Y-16603408D02*
X10513872Y-16593884D01*
X10513872Y-16593884D02*
X10475777Y-16593884D01*
X10475777Y-16593884D02*
X10456729Y-16603408D01*
X10456729Y-16603408D02*
X10447206Y-16612931D01*
X10447206Y-16612931D02*
X10437682Y-16631979D01*
X10437682Y-16631979D02*
X10437682Y-16679598D01*
X10437682Y-16679598D02*
X10447206Y-16698646D01*
X10447206Y-16698646D02*
X10456729Y-16708169D01*
X10456729Y-16708169D02*
X10475777Y-16717693D01*
X10475777Y-16717693D02*
X10513872Y-16717693D01*
X10513872Y-16717693D02*
X10532920Y-16708169D01*
X10532920Y-16708169D02*
X10542444Y-16698646D01*
X10542444Y-16698646D02*
X10551968Y-16679598D01*
X10675777Y-16593884D02*
X10694825Y-16593884D01*
X10694825Y-16593884D02*
X10713872Y-16603408D01*
X10713872Y-16603408D02*
X10723396Y-16612931D01*
X10723396Y-16612931D02*
X10732920Y-16631979D01*
X10732920Y-16631979D02*
X10742444Y-16670074D01*
X10742444Y-16670074D02*
X10742444Y-16717693D01*
X10742444Y-16717693D02*
X10732920Y-16755788D01*
X10732920Y-16755788D02*
X10723396Y-16774836D01*
X10723396Y-16774836D02*
X10713872Y-16784360D01*
X10713872Y-16784360D02*
X10694825Y-16793884D01*
X10694825Y-16793884D02*
X10675777Y-16793884D01*
X10675777Y-16793884D02*
X10656729Y-16784360D01*
X10656729Y-16784360D02*
X10647206Y-16774836D01*
X10647206Y-16774836D02*
X10637682Y-16755788D01*
X10637682Y-16755788D02*
X10628158Y-16717693D01*
X10628158Y-16717693D02*
X10628158Y-16670074D01*
X10628158Y-16670074D02*
X10637682Y-16631979D01*
X10637682Y-16631979D02*
X10647206Y-16612931D01*
X10647206Y-16612931D02*
X10656729Y-16603408D01*
X10656729Y-16603408D02*
X10675777Y-16593884D01*
X10818634Y-16593884D02*
X10818634Y-16631979D01*
X10894825Y-16593884D02*
X10894825Y-16631979D01*
X11190063Y-16870074D02*
X11180539Y-16860550D01*
X11180539Y-16860550D02*
X11161491Y-16831979D01*
X11161491Y-16831979D02*
X11151968Y-16812931D01*
X11151968Y-16812931D02*
X11142444Y-16784360D01*
X11142444Y-16784360D02*
X11132920Y-16736741D01*
X11132920Y-16736741D02*
X11132920Y-16698646D01*
X11132920Y-16698646D02*
X11142444Y-16651027D01*
X11142444Y-16651027D02*
X11151968Y-16622455D01*
X11151968Y-16622455D02*
X11161491Y-16603408D01*
X11161491Y-16603408D02*
X11180539Y-16574836D01*
X11180539Y-16574836D02*
X11190063Y-16565312D01*
X11294825Y-16679598D02*
X11275777Y-16670074D01*
X11275777Y-16670074D02*
X11266253Y-16660550D01*
X11266253Y-16660550D02*
X11256729Y-16641503D01*
X11256729Y-16641503D02*
X11256729Y-16631979D01*
X11256729Y-16631979D02*
X11266253Y-16612931D01*
X11266253Y-16612931D02*
X11275777Y-16603408D01*
X11275777Y-16603408D02*
X11294825Y-16593884D01*
X11294825Y-16593884D02*
X11332920Y-16593884D01*
X11332920Y-16593884D02*
X11351968Y-16603408D01*
X11351968Y-16603408D02*
X11361491Y-16612931D01*
X11361491Y-16612931D02*
X11371015Y-16631979D01*
X11371015Y-16631979D02*
X11371015Y-16641503D01*
X11371015Y-16641503D02*
X11361491Y-16660550D01*
X11361491Y-16660550D02*
X11351968Y-16670074D01*
X11351968Y-16670074D02*
X11332920Y-16679598D01*
X11332920Y-16679598D02*
X11294825Y-16679598D01*
X11294825Y-16679598D02*
X11275777Y-16689122D01*
X11275777Y-16689122D02*
X11266253Y-16698646D01*
X11266253Y-16698646D02*
X11256729Y-16717693D01*
X11256729Y-16717693D02*
X11256729Y-16755788D01*
X11256729Y-16755788D02*
X11266253Y-16774836D01*
X11266253Y-16774836D02*
X11275777Y-16784360D01*
X11275777Y-16784360D02*
X11294825Y-16793884D01*
X11294825Y-16793884D02*
X11332920Y-16793884D01*
X11332920Y-16793884D02*
X11351968Y-16784360D01*
X11351968Y-16784360D02*
X11361491Y-16774836D01*
X11361491Y-16774836D02*
X11371015Y-16755788D01*
X11371015Y-16755788D02*
X11371015Y-16717693D01*
X11371015Y-16717693D02*
X11361491Y-16698646D01*
X11361491Y-16698646D02*
X11351968Y-16689122D01*
X11351968Y-16689122D02*
X11332920Y-16679598D01*
X11609110Y-16793884D02*
X11609110Y-16593884D01*
X11694825Y-16793884D02*
X11694825Y-16689122D01*
X11694825Y-16689122D02*
X11685301Y-16670074D01*
X11685301Y-16670074D02*
X11666253Y-16660550D01*
X11666253Y-16660550D02*
X11637682Y-16660550D01*
X11637682Y-16660550D02*
X11618634Y-16670074D01*
X11618634Y-16670074D02*
X11609110Y-16679598D01*
X11818634Y-16793884D02*
X11799587Y-16784360D01*
X11799587Y-16784360D02*
X11790063Y-16774836D01*
X11790063Y-16774836D02*
X11780539Y-16755788D01*
X11780539Y-16755788D02*
X11780539Y-16698646D01*
X11780539Y-16698646D02*
X11790063Y-16679598D01*
X11790063Y-16679598D02*
X11799587Y-16670074D01*
X11799587Y-16670074D02*
X11818634Y-16660550D01*
X11818634Y-16660550D02*
X11847206Y-16660550D01*
X11847206Y-16660550D02*
X11866253Y-16670074D01*
X11866253Y-16670074D02*
X11875777Y-16679598D01*
X11875777Y-16679598D02*
X11885301Y-16698646D01*
X11885301Y-16698646D02*
X11885301Y-16755788D01*
X11885301Y-16755788D02*
X11875777Y-16774836D01*
X11875777Y-16774836D02*
X11866253Y-16784360D01*
X11866253Y-16784360D02*
X11847206Y-16793884D01*
X11847206Y-16793884D02*
X11818634Y-16793884D01*
X11999587Y-16793884D02*
X11980539Y-16784360D01*
X11980539Y-16784360D02*
X11971015Y-16765312D01*
X11971015Y-16765312D02*
X11971015Y-16593884D01*
X12151968Y-16784360D02*
X12132920Y-16793884D01*
X12132920Y-16793884D02*
X12094825Y-16793884D01*
X12094825Y-16793884D02*
X12075777Y-16784360D01*
X12075777Y-16784360D02*
X12066253Y-16765312D01*
X12066253Y-16765312D02*
X12066253Y-16689122D01*
X12066253Y-16689122D02*
X12075777Y-16670074D01*
X12075777Y-16670074D02*
X12094825Y-16660550D01*
X12094825Y-16660550D02*
X12132920Y-16660550D01*
X12132920Y-16660550D02*
X12151968Y-16670074D01*
X12151968Y-16670074D02*
X12161491Y-16689122D01*
X12161491Y-16689122D02*
X12161491Y-16708169D01*
X12161491Y-16708169D02*
X12066253Y-16727217D01*
X12237682Y-16784360D02*
X12256730Y-16793884D01*
X12256730Y-16793884D02*
X12294825Y-16793884D01*
X12294825Y-16793884D02*
X12313872Y-16784360D01*
X12313872Y-16784360D02*
X12323396Y-16765312D01*
X12323396Y-16765312D02*
X12323396Y-16755788D01*
X12323396Y-16755788D02*
X12313872Y-16736741D01*
X12313872Y-16736741D02*
X12294825Y-16727217D01*
X12294825Y-16727217D02*
X12266253Y-16727217D01*
X12266253Y-16727217D02*
X12247206Y-16717693D01*
X12247206Y-16717693D02*
X12237682Y-16698646D01*
X12237682Y-16698646D02*
X12237682Y-16689122D01*
X12237682Y-16689122D02*
X12247206Y-16670074D01*
X12247206Y-16670074D02*
X12266253Y-16660550D01*
X12266253Y-16660550D02*
X12294825Y-16660550D01*
X12294825Y-16660550D02*
X12313872Y-16670074D01*
X12390063Y-16870074D02*
X12399587Y-16860550D01*
X12399587Y-16860550D02*
X12418634Y-16831979D01*
X12418634Y-16831979D02*
X12428158Y-16812931D01*
X12428158Y-16812931D02*
X12437682Y-16784360D01*
X12437682Y-16784360D02*
X12447206Y-16736741D01*
X12447206Y-16736741D02*
X12447206Y-16698646D01*
X12447206Y-16698646D02*
X12437682Y-16651027D01*
X12437682Y-16651027D02*
X12428158Y-16622455D01*
X12428158Y-16622455D02*
X12418634Y-16603408D01*
X12418634Y-16603408D02*
X12399587Y-16574836D01*
X12399587Y-16574836D02*
X12390063Y-16565312D01*
D10*
X7565000Y-17016400D02*
X7615000Y-16966400D01*
X7565000Y-16916400D01*
X7515000Y-16966400D01*
X7565000Y-17016400D01*
D11*
X7980539Y-17057884D02*
X7866253Y-17057884D01*
X7923396Y-17057884D02*
X7923396Y-16857884D01*
X7923396Y-16857884D02*
X7904348Y-16886455D01*
X7904348Y-16886455D02*
X7885301Y-16905503D01*
X7885301Y-16905503D02*
X7866253Y-16915027D01*
X8066253Y-17038836D02*
X8075777Y-17048360D01*
X8075777Y-17048360D02*
X8066253Y-17057884D01*
X8066253Y-17057884D02*
X8056729Y-17048360D01*
X8056729Y-17048360D02*
X8066253Y-17038836D01*
X8066253Y-17038836D02*
X8066253Y-17057884D01*
X8199586Y-16857884D02*
X8218634Y-16857884D01*
X8218634Y-16857884D02*
X8237682Y-16867408D01*
X8237682Y-16867408D02*
X8247205Y-16876931D01*
X8247205Y-16876931D02*
X8256729Y-16895979D01*
X8256729Y-16895979D02*
X8266253Y-16934074D01*
X8266253Y-16934074D02*
X8266253Y-16981693D01*
X8266253Y-16981693D02*
X8256729Y-17019789D01*
X8256729Y-17019789D02*
X8247205Y-17038836D01*
X8247205Y-17038836D02*
X8237682Y-17048360D01*
X8237682Y-17048360D02*
X8218634Y-17057884D01*
X8218634Y-17057884D02*
X8199586Y-17057884D01*
X8199586Y-17057884D02*
X8180539Y-17048360D01*
X8180539Y-17048360D02*
X8171015Y-17038836D01*
X8171015Y-17038836D02*
X8161491Y-17019789D01*
X8161491Y-17019789D02*
X8151967Y-16981693D01*
X8151967Y-16981693D02*
X8151967Y-16934074D01*
X8151967Y-16934074D02*
X8161491Y-16895979D01*
X8161491Y-16895979D02*
X8171015Y-16876931D01*
X8171015Y-16876931D02*
X8180539Y-16867408D01*
X8180539Y-16867408D02*
X8199586Y-16857884D01*
X8390063Y-16857884D02*
X8409110Y-16857884D01*
X8409110Y-16857884D02*
X8428158Y-16867408D01*
X8428158Y-16867408D02*
X8437682Y-16876931D01*
X8437682Y-16876931D02*
X8447205Y-16895979D01*
X8447205Y-16895979D02*
X8456729Y-16934074D01*
X8456729Y-16934074D02*
X8456729Y-16981693D01*
X8456729Y-16981693D02*
X8447205Y-17019789D01*
X8447205Y-17019789D02*
X8437682Y-17038836D01*
X8437682Y-17038836D02*
X8428158Y-17048360D01*
X8428158Y-17048360D02*
X8409110Y-17057884D01*
X8409110Y-17057884D02*
X8390063Y-17057884D01*
X8390063Y-17057884D02*
X8371015Y-17048360D01*
X8371015Y-17048360D02*
X8361491Y-17038836D01*
X8361491Y-17038836D02*
X8351967Y-17019789D01*
X8351967Y-17019789D02*
X8342443Y-16981693D01*
X8342443Y-16981693D02*
X8342443Y-16934074D01*
X8342443Y-16934074D02*
X8351967Y-16895979D01*
X8351967Y-16895979D02*
X8361491Y-16876931D01*
X8361491Y-16876931D02*
X8371015Y-16867408D01*
X8371015Y-16867408D02*
X8390063Y-16857884D01*
X8580539Y-16857884D02*
X8599586Y-16857884D01*
X8599586Y-16857884D02*
X8618634Y-16867408D01*
X8618634Y-16867408D02*
X8628158Y-16876931D01*
X8628158Y-16876931D02*
X8637682Y-16895979D01*
X8637682Y-16895979D02*
X8647205Y-16934074D01*
X8647205Y-16934074D02*
X8647205Y-16981693D01*
X8647205Y-16981693D02*
X8637682Y-17019789D01*
X8637682Y-17019789D02*
X8628158Y-17038836D01*
X8628158Y-17038836D02*
X8618634Y-17048360D01*
X8618634Y-17048360D02*
X8599586Y-17057884D01*
X8599586Y-17057884D02*
X8580539Y-17057884D01*
X8580539Y-17057884D02*
X8561491Y-17048360D01*
X8561491Y-17048360D02*
X8551967Y-17038836D01*
X8551967Y-17038836D02*
X8542444Y-17019789D01*
X8542444Y-17019789D02*
X8532920Y-16981693D01*
X8532920Y-16981693D02*
X8532920Y-16934074D01*
X8532920Y-16934074D02*
X8542444Y-16895979D01*
X8542444Y-16895979D02*
X8551967Y-16876931D01*
X8551967Y-16876931D02*
X8561491Y-16867408D01*
X8561491Y-16867408D02*
X8580539Y-16857884D01*
X8732920Y-17057884D02*
X8732920Y-16924550D01*
X8732920Y-16943598D02*
X8742444Y-16934074D01*
X8742444Y-16934074D02*
X8761491Y-16924550D01*
X8761491Y-16924550D02*
X8790063Y-16924550D01*
X8790063Y-16924550D02*
X8809110Y-16934074D01*
X8809110Y-16934074D02*
X8818634Y-16953122D01*
X8818634Y-16953122D02*
X8818634Y-17057884D01*
X8818634Y-16953122D02*
X8828158Y-16934074D01*
X8828158Y-16934074D02*
X8847205Y-16924550D01*
X8847205Y-16924550D02*
X8875777Y-16924550D01*
X8875777Y-16924550D02*
X8894825Y-16934074D01*
X8894825Y-16934074D02*
X8904348Y-16953122D01*
X8904348Y-16953122D02*
X8904348Y-17057884D01*
X8999586Y-17057884D02*
X8999586Y-16924550D01*
X8999586Y-16943598D02*
X9009110Y-16934074D01*
X9009110Y-16934074D02*
X9028158Y-16924550D01*
X9028158Y-16924550D02*
X9056729Y-16924550D01*
X9056729Y-16924550D02*
X9075777Y-16934074D01*
X9075777Y-16934074D02*
X9085301Y-16953122D01*
X9085301Y-16953122D02*
X9085301Y-17057884D01*
X9085301Y-16953122D02*
X9094825Y-16934074D01*
X9094825Y-16934074D02*
X9113872Y-16924550D01*
X9113872Y-16924550D02*
X9142444Y-16924550D01*
X9142444Y-16924550D02*
X9161491Y-16934074D01*
X9161491Y-16934074D02*
X9171015Y-16953122D01*
X9171015Y-16953122D02*
X9171015Y-17057884D01*
X9561491Y-16848360D02*
X9390063Y-17105503D01*
X9818634Y-16857884D02*
X9837682Y-16857884D01*
X9837682Y-16857884D02*
X9856729Y-16867408D01*
X9856729Y-16867408D02*
X9866253Y-16876931D01*
X9866253Y-16876931D02*
X9875777Y-16895979D01*
X9875777Y-16895979D02*
X9885301Y-16934074D01*
X9885301Y-16934074D02*
X9885301Y-16981693D01*
X9885301Y-16981693D02*
X9875777Y-17019789D01*
X9875777Y-17019789D02*
X9866253Y-17038836D01*
X9866253Y-17038836D02*
X9856729Y-17048360D01*
X9856729Y-17048360D02*
X9837682Y-17057884D01*
X9837682Y-17057884D02*
X9818634Y-17057884D01*
X9818634Y-17057884D02*
X9799587Y-17048360D01*
X9799587Y-17048360D02*
X9790063Y-17038836D01*
X9790063Y-17038836D02*
X9780539Y-17019789D01*
X9780539Y-17019789D02*
X9771015Y-16981693D01*
X9771015Y-16981693D02*
X9771015Y-16934074D01*
X9771015Y-16934074D02*
X9780539Y-16895979D01*
X9780539Y-16895979D02*
X9790063Y-16876931D01*
X9790063Y-16876931D02*
X9799587Y-16867408D01*
X9799587Y-16867408D02*
X9818634Y-16857884D01*
X9971015Y-17038836D02*
X9980539Y-17048360D01*
X9980539Y-17048360D02*
X9971015Y-17057884D01*
X9971015Y-17057884D02*
X9961491Y-17048360D01*
X9961491Y-17048360D02*
X9971015Y-17038836D01*
X9971015Y-17038836D02*
X9971015Y-17057884D01*
X10104348Y-16857884D02*
X10123396Y-16857884D01*
X10123396Y-16857884D02*
X10142444Y-16867408D01*
X10142444Y-16867408D02*
X10151968Y-16876931D01*
X10151968Y-16876931D02*
X10161491Y-16895979D01*
X10161491Y-16895979D02*
X10171015Y-16934074D01*
X10171015Y-16934074D02*
X10171015Y-16981693D01*
X10171015Y-16981693D02*
X10161491Y-17019789D01*
X10161491Y-17019789D02*
X10151968Y-17038836D01*
X10151968Y-17038836D02*
X10142444Y-17048360D01*
X10142444Y-17048360D02*
X10123396Y-17057884D01*
X10123396Y-17057884D02*
X10104348Y-17057884D01*
X10104348Y-17057884D02*
X10085301Y-17048360D01*
X10085301Y-17048360D02*
X10075777Y-17038836D01*
X10075777Y-17038836D02*
X10066253Y-17019789D01*
X10066253Y-17019789D02*
X10056729Y-16981693D01*
X10056729Y-16981693D02*
X10056729Y-16934074D01*
X10056729Y-16934074D02*
X10066253Y-16895979D01*
X10066253Y-16895979D02*
X10075777Y-16876931D01*
X10075777Y-16876931D02*
X10085301Y-16867408D01*
X10085301Y-16867408D02*
X10104348Y-16857884D01*
X10237682Y-16857884D02*
X10361491Y-16857884D01*
X10361491Y-16857884D02*
X10294825Y-16934074D01*
X10294825Y-16934074D02*
X10323396Y-16934074D01*
X10323396Y-16934074D02*
X10342444Y-16943598D01*
X10342444Y-16943598D02*
X10351968Y-16953122D01*
X10351968Y-16953122D02*
X10361491Y-16972170D01*
X10361491Y-16972170D02*
X10361491Y-17019789D01*
X10361491Y-17019789D02*
X10351968Y-17038836D01*
X10351968Y-17038836D02*
X10342444Y-17048360D01*
X10342444Y-17048360D02*
X10323396Y-17057884D01*
X10323396Y-17057884D02*
X10266253Y-17057884D01*
X10266253Y-17057884D02*
X10247206Y-17048360D01*
X10247206Y-17048360D02*
X10237682Y-17038836D01*
X10456729Y-17057884D02*
X10494825Y-17057884D01*
X10494825Y-17057884D02*
X10513872Y-17048360D01*
X10513872Y-17048360D02*
X10523396Y-17038836D01*
X10523396Y-17038836D02*
X10542444Y-17010265D01*
X10542444Y-17010265D02*
X10551968Y-16972170D01*
X10551968Y-16972170D02*
X10551968Y-16895979D01*
X10551968Y-16895979D02*
X10542444Y-16876931D01*
X10542444Y-16876931D02*
X10532920Y-16867408D01*
X10532920Y-16867408D02*
X10513872Y-16857884D01*
X10513872Y-16857884D02*
X10475777Y-16857884D01*
X10475777Y-16857884D02*
X10456729Y-16867408D01*
X10456729Y-16867408D02*
X10447206Y-16876931D01*
X10447206Y-16876931D02*
X10437682Y-16895979D01*
X10437682Y-16895979D02*
X10437682Y-16943598D01*
X10437682Y-16943598D02*
X10447206Y-16962646D01*
X10447206Y-16962646D02*
X10456729Y-16972170D01*
X10456729Y-16972170D02*
X10475777Y-16981693D01*
X10475777Y-16981693D02*
X10513872Y-16981693D01*
X10513872Y-16981693D02*
X10532920Y-16972170D01*
X10532920Y-16972170D02*
X10542444Y-16962646D01*
X10542444Y-16962646D02*
X10551968Y-16943598D01*
X10723396Y-16924550D02*
X10723396Y-17057884D01*
X10675777Y-16848360D02*
X10628158Y-16991217D01*
X10628158Y-16991217D02*
X10751968Y-16991217D01*
X10818634Y-16857884D02*
X10818634Y-16895979D01*
X10894825Y-16857884D02*
X10894825Y-16895979D01*
X11190063Y-17134074D02*
X11180539Y-17124550D01*
X11180539Y-17124550D02*
X11161491Y-17095979D01*
X11161491Y-17095979D02*
X11151968Y-17076931D01*
X11151968Y-17076931D02*
X11142444Y-17048360D01*
X11142444Y-17048360D02*
X11132920Y-17000741D01*
X11132920Y-17000741D02*
X11132920Y-16962646D01*
X11132920Y-16962646D02*
X11142444Y-16915027D01*
X11142444Y-16915027D02*
X11151968Y-16886455D01*
X11151968Y-16886455D02*
X11161491Y-16867408D01*
X11161491Y-16867408D02*
X11180539Y-16838836D01*
X11180539Y-16838836D02*
X11190063Y-16829312D01*
X11256729Y-16876931D02*
X11266253Y-16867408D01*
X11266253Y-16867408D02*
X11285301Y-16857884D01*
X11285301Y-16857884D02*
X11332920Y-16857884D01*
X11332920Y-16857884D02*
X11351968Y-16867408D01*
X11351968Y-16867408D02*
X11361491Y-16876931D01*
X11361491Y-16876931D02*
X11371015Y-16895979D01*
X11371015Y-16895979D02*
X11371015Y-16915027D01*
X11371015Y-16915027D02*
X11361491Y-16943598D01*
X11361491Y-16943598D02*
X11247206Y-17057884D01*
X11247206Y-17057884D02*
X11371015Y-17057884D01*
X11551968Y-16857884D02*
X11456729Y-16857884D01*
X11456729Y-16857884D02*
X11447206Y-16953122D01*
X11447206Y-16953122D02*
X11456729Y-16943598D01*
X11456729Y-16943598D02*
X11475777Y-16934074D01*
X11475777Y-16934074D02*
X11523396Y-16934074D01*
X11523396Y-16934074D02*
X11542444Y-16943598D01*
X11542444Y-16943598D02*
X11551968Y-16953122D01*
X11551968Y-16953122D02*
X11561491Y-16972170D01*
X11561491Y-16972170D02*
X11561491Y-17019789D01*
X11561491Y-17019789D02*
X11551968Y-17038836D01*
X11551968Y-17038836D02*
X11542444Y-17048360D01*
X11542444Y-17048360D02*
X11523396Y-17057884D01*
X11523396Y-17057884D02*
X11475777Y-17057884D01*
X11475777Y-17057884D02*
X11456729Y-17048360D01*
X11456729Y-17048360D02*
X11447206Y-17038836D01*
X11799587Y-17057884D02*
X11799587Y-16857884D01*
X11885301Y-17057884D02*
X11885301Y-16953122D01*
X11885301Y-16953122D02*
X11875777Y-16934074D01*
X11875777Y-16934074D02*
X11856730Y-16924550D01*
X11856730Y-16924550D02*
X11828158Y-16924550D01*
X11828158Y-16924550D02*
X11809110Y-16934074D01*
X11809110Y-16934074D02*
X11799587Y-16943598D01*
X12009110Y-17057884D02*
X11990063Y-17048360D01*
X11990063Y-17048360D02*
X11980539Y-17038836D01*
X11980539Y-17038836D02*
X11971015Y-17019789D01*
X11971015Y-17019789D02*
X11971015Y-16962646D01*
X11971015Y-16962646D02*
X11980539Y-16943598D01*
X11980539Y-16943598D02*
X11990063Y-16934074D01*
X11990063Y-16934074D02*
X12009110Y-16924550D01*
X12009110Y-16924550D02*
X12037682Y-16924550D01*
X12037682Y-16924550D02*
X12056730Y-16934074D01*
X12056730Y-16934074D02*
X12066253Y-16943598D01*
X12066253Y-16943598D02*
X12075777Y-16962646D01*
X12075777Y-16962646D02*
X12075777Y-17019789D01*
X12075777Y-17019789D02*
X12066253Y-17038836D01*
X12066253Y-17038836D02*
X12056730Y-17048360D01*
X12056730Y-17048360D02*
X12037682Y-17057884D01*
X12037682Y-17057884D02*
X12009110Y-17057884D01*
X12190063Y-17057884D02*
X12171015Y-17048360D01*
X12171015Y-17048360D02*
X12161491Y-17029312D01*
X12161491Y-17029312D02*
X12161491Y-16857884D01*
X12342444Y-17048360D02*
X12323396Y-17057884D01*
X12323396Y-17057884D02*
X12285301Y-17057884D01*
X12285301Y-17057884D02*
X12266253Y-17048360D01*
X12266253Y-17048360D02*
X12256730Y-17029312D01*
X12256730Y-17029312D02*
X12256730Y-16953122D01*
X12256730Y-16953122D02*
X12266253Y-16934074D01*
X12266253Y-16934074D02*
X12285301Y-16924550D01*
X12285301Y-16924550D02*
X12323396Y-16924550D01*
X12323396Y-16924550D02*
X12342444Y-16934074D01*
X12342444Y-16934074D02*
X12351968Y-16953122D01*
X12351968Y-16953122D02*
X12351968Y-16972170D01*
X12351968Y-16972170D02*
X12256730Y-16991217D01*
X12428158Y-17048360D02*
X12447206Y-17057884D01*
X12447206Y-17057884D02*
X12485301Y-17057884D01*
X12485301Y-17057884D02*
X12504349Y-17048360D01*
X12504349Y-17048360D02*
X12513872Y-17029312D01*
X12513872Y-17029312D02*
X12513872Y-17019789D01*
X12513872Y-17019789D02*
X12504349Y-17000741D01*
X12504349Y-17000741D02*
X12485301Y-16991217D01*
X12485301Y-16991217D02*
X12456730Y-16991217D01*
X12456730Y-16991217D02*
X12437682Y-16981693D01*
X12437682Y-16981693D02*
X12428158Y-16962646D01*
X12428158Y-16962646D02*
X12428158Y-16953122D01*
X12428158Y-16953122D02*
X12437682Y-16934074D01*
X12437682Y-16934074D02*
X12456730Y-16924550D01*
X12456730Y-16924550D02*
X12485301Y-16924550D01*
X12485301Y-16924550D02*
X12504349Y-16934074D01*
X12580539Y-17134074D02*
X12590063Y-17124550D01*
X12590063Y-17124550D02*
X12609111Y-17095979D01*
X12609111Y-17095979D02*
X12618634Y-17076931D01*
X12618634Y-17076931D02*
X12628158Y-17048360D01*
X12628158Y-17048360D02*
X12637682Y-17000741D01*
X12637682Y-17000741D02*
X12637682Y-16962646D01*
X12637682Y-16962646D02*
X12628158Y-16915027D01*
X12628158Y-16915027D02*
X12618634Y-16886455D01*
X12618634Y-16886455D02*
X12609111Y-16867408D01*
X12609111Y-16867408D02*
X12590063Y-16838836D01*
X12590063Y-16838836D02*
X12580539Y-16829312D01*
D12*
X7488000Y-17166900D02*
X7615000Y-17293900D01*
X7615000Y-17166900D02*
X7488000Y-17293900D01*
X7615000Y-17230400D02*
G75*
G03*
X7488000Y-17230400I-63500J0D01*
G01*
X7488000Y-17230400D02*
G75*
G03*
X7615000Y-17230400I63500J0D01*
G01*
D11*
X7980539Y-17321884D02*
X7866253Y-17321884D01*
X7923396Y-17321884D02*
X7923396Y-17121884D01*
X7923396Y-17121884D02*
X7904348Y-17150455D01*
X7904348Y-17150455D02*
X7885301Y-17169503D01*
X7885301Y-17169503D02*
X7866253Y-17179027D01*
X8066253Y-17302836D02*
X8075777Y-17312360D01*
X8075777Y-17312360D02*
X8066253Y-17321884D01*
X8066253Y-17321884D02*
X8056729Y-17312360D01*
X8056729Y-17312360D02*
X8066253Y-17302836D01*
X8066253Y-17302836D02*
X8066253Y-17321884D01*
X8151967Y-17140931D02*
X8161491Y-17131408D01*
X8161491Y-17131408D02*
X8180539Y-17121884D01*
X8180539Y-17121884D02*
X8228158Y-17121884D01*
X8228158Y-17121884D02*
X8247205Y-17131408D01*
X8247205Y-17131408D02*
X8256729Y-17140931D01*
X8256729Y-17140931D02*
X8266253Y-17159979D01*
X8266253Y-17159979D02*
X8266253Y-17179027D01*
X8266253Y-17179027D02*
X8256729Y-17207598D01*
X8256729Y-17207598D02*
X8142443Y-17321884D01*
X8142443Y-17321884D02*
X8266253Y-17321884D01*
X8332920Y-17121884D02*
X8466253Y-17121884D01*
X8466253Y-17121884D02*
X8380539Y-17321884D01*
X8580539Y-17121884D02*
X8599586Y-17121884D01*
X8599586Y-17121884D02*
X8618634Y-17131408D01*
X8618634Y-17131408D02*
X8628158Y-17140931D01*
X8628158Y-17140931D02*
X8637682Y-17159979D01*
X8637682Y-17159979D02*
X8647205Y-17198074D01*
X8647205Y-17198074D02*
X8647205Y-17245693D01*
X8647205Y-17245693D02*
X8637682Y-17283789D01*
X8637682Y-17283789D02*
X8628158Y-17302836D01*
X8628158Y-17302836D02*
X8618634Y-17312360D01*
X8618634Y-17312360D02*
X8599586Y-17321884D01*
X8599586Y-17321884D02*
X8580539Y-17321884D01*
X8580539Y-17321884D02*
X8561491Y-17312360D01*
X8561491Y-17312360D02*
X8551967Y-17302836D01*
X8551967Y-17302836D02*
X8542444Y-17283789D01*
X8542444Y-17283789D02*
X8532920Y-17245693D01*
X8532920Y-17245693D02*
X8532920Y-17198074D01*
X8532920Y-17198074D02*
X8542444Y-17159979D01*
X8542444Y-17159979D02*
X8551967Y-17140931D01*
X8551967Y-17140931D02*
X8561491Y-17131408D01*
X8561491Y-17131408D02*
X8580539Y-17121884D01*
X8732920Y-17321884D02*
X8732920Y-17188550D01*
X8732920Y-17207598D02*
X8742444Y-17198074D01*
X8742444Y-17198074D02*
X8761491Y-17188550D01*
X8761491Y-17188550D02*
X8790063Y-17188550D01*
X8790063Y-17188550D02*
X8809110Y-17198074D01*
X8809110Y-17198074D02*
X8818634Y-17217122D01*
X8818634Y-17217122D02*
X8818634Y-17321884D01*
X8818634Y-17217122D02*
X8828158Y-17198074D01*
X8828158Y-17198074D02*
X8847205Y-17188550D01*
X8847205Y-17188550D02*
X8875777Y-17188550D01*
X8875777Y-17188550D02*
X8894825Y-17198074D01*
X8894825Y-17198074D02*
X8904348Y-17217122D01*
X8904348Y-17217122D02*
X8904348Y-17321884D01*
X8999586Y-17321884D02*
X8999586Y-17188550D01*
X8999586Y-17207598D02*
X9009110Y-17198074D01*
X9009110Y-17198074D02*
X9028158Y-17188550D01*
X9028158Y-17188550D02*
X9056729Y-17188550D01*
X9056729Y-17188550D02*
X9075777Y-17198074D01*
X9075777Y-17198074D02*
X9085301Y-17217122D01*
X9085301Y-17217122D02*
X9085301Y-17321884D01*
X9085301Y-17217122D02*
X9094825Y-17198074D01*
X9094825Y-17198074D02*
X9113872Y-17188550D01*
X9113872Y-17188550D02*
X9142444Y-17188550D01*
X9142444Y-17188550D02*
X9161491Y-17198074D01*
X9161491Y-17198074D02*
X9171015Y-17217122D01*
X9171015Y-17217122D02*
X9171015Y-17321884D01*
X9561491Y-17112360D02*
X9390063Y-17369503D01*
X9818634Y-17121884D02*
X9837682Y-17121884D01*
X9837682Y-17121884D02*
X9856729Y-17131408D01*
X9856729Y-17131408D02*
X9866253Y-17140931D01*
X9866253Y-17140931D02*
X9875777Y-17159979D01*
X9875777Y-17159979D02*
X9885301Y-17198074D01*
X9885301Y-17198074D02*
X9885301Y-17245693D01*
X9885301Y-17245693D02*
X9875777Y-17283789D01*
X9875777Y-17283789D02*
X9866253Y-17302836D01*
X9866253Y-17302836D02*
X9856729Y-17312360D01*
X9856729Y-17312360D02*
X9837682Y-17321884D01*
X9837682Y-17321884D02*
X9818634Y-17321884D01*
X9818634Y-17321884D02*
X9799587Y-17312360D01*
X9799587Y-17312360D02*
X9790063Y-17302836D01*
X9790063Y-17302836D02*
X9780539Y-17283789D01*
X9780539Y-17283789D02*
X9771015Y-17245693D01*
X9771015Y-17245693D02*
X9771015Y-17198074D01*
X9771015Y-17198074D02*
X9780539Y-17159979D01*
X9780539Y-17159979D02*
X9790063Y-17140931D01*
X9790063Y-17140931D02*
X9799587Y-17131408D01*
X9799587Y-17131408D02*
X9818634Y-17121884D01*
X9971015Y-17302836D02*
X9980539Y-17312360D01*
X9980539Y-17312360D02*
X9971015Y-17321884D01*
X9971015Y-17321884D02*
X9961491Y-17312360D01*
X9961491Y-17312360D02*
X9971015Y-17302836D01*
X9971015Y-17302836D02*
X9971015Y-17321884D01*
X10104348Y-17121884D02*
X10123396Y-17121884D01*
X10123396Y-17121884D02*
X10142444Y-17131408D01*
X10142444Y-17131408D02*
X10151968Y-17140931D01*
X10151968Y-17140931D02*
X10161491Y-17159979D01*
X10161491Y-17159979D02*
X10171015Y-17198074D01*
X10171015Y-17198074D02*
X10171015Y-17245693D01*
X10171015Y-17245693D02*
X10161491Y-17283789D01*
X10161491Y-17283789D02*
X10151968Y-17302836D01*
X10151968Y-17302836D02*
X10142444Y-17312360D01*
X10142444Y-17312360D02*
X10123396Y-17321884D01*
X10123396Y-17321884D02*
X10104348Y-17321884D01*
X10104348Y-17321884D02*
X10085301Y-17312360D01*
X10085301Y-17312360D02*
X10075777Y-17302836D01*
X10075777Y-17302836D02*
X10066253Y-17283789D01*
X10066253Y-17283789D02*
X10056729Y-17245693D01*
X10056729Y-17245693D02*
X10056729Y-17198074D01*
X10056729Y-17198074D02*
X10066253Y-17159979D01*
X10066253Y-17159979D02*
X10075777Y-17140931D01*
X10075777Y-17140931D02*
X10085301Y-17131408D01*
X10085301Y-17131408D02*
X10104348Y-17121884D01*
X10351968Y-17121884D02*
X10256729Y-17121884D01*
X10256729Y-17121884D02*
X10247206Y-17217122D01*
X10247206Y-17217122D02*
X10256729Y-17207598D01*
X10256729Y-17207598D02*
X10275777Y-17198074D01*
X10275777Y-17198074D02*
X10323396Y-17198074D01*
X10323396Y-17198074D02*
X10342444Y-17207598D01*
X10342444Y-17207598D02*
X10351968Y-17217122D01*
X10351968Y-17217122D02*
X10361491Y-17236170D01*
X10361491Y-17236170D02*
X10361491Y-17283789D01*
X10361491Y-17283789D02*
X10351968Y-17302836D01*
X10351968Y-17302836D02*
X10342444Y-17312360D01*
X10342444Y-17312360D02*
X10323396Y-17321884D01*
X10323396Y-17321884D02*
X10275777Y-17321884D01*
X10275777Y-17321884D02*
X10256729Y-17312360D01*
X10256729Y-17312360D02*
X10247206Y-17302836D01*
X10485301Y-17121884D02*
X10504349Y-17121884D01*
X10504349Y-17121884D02*
X10523396Y-17131408D01*
X10523396Y-17131408D02*
X10532920Y-17140931D01*
X10532920Y-17140931D02*
X10542444Y-17159979D01*
X10542444Y-17159979D02*
X10551968Y-17198074D01*
X10551968Y-17198074D02*
X10551968Y-17245693D01*
X10551968Y-17245693D02*
X10542444Y-17283789D01*
X10542444Y-17283789D02*
X10532920Y-17302836D01*
X10532920Y-17302836D02*
X10523396Y-17312360D01*
X10523396Y-17312360D02*
X10504349Y-17321884D01*
X10504349Y-17321884D02*
X10485301Y-17321884D01*
X10485301Y-17321884D02*
X10466253Y-17312360D01*
X10466253Y-17312360D02*
X10456729Y-17302836D01*
X10456729Y-17302836D02*
X10447206Y-17283789D01*
X10447206Y-17283789D02*
X10437682Y-17245693D01*
X10437682Y-17245693D02*
X10437682Y-17198074D01*
X10437682Y-17198074D02*
X10447206Y-17159979D01*
X10447206Y-17159979D02*
X10456729Y-17140931D01*
X10456729Y-17140931D02*
X10466253Y-17131408D01*
X10466253Y-17131408D02*
X10485301Y-17121884D01*
X10675777Y-17121884D02*
X10694825Y-17121884D01*
X10694825Y-17121884D02*
X10713872Y-17131408D01*
X10713872Y-17131408D02*
X10723396Y-17140931D01*
X10723396Y-17140931D02*
X10732920Y-17159979D01*
X10732920Y-17159979D02*
X10742444Y-17198074D01*
X10742444Y-17198074D02*
X10742444Y-17245693D01*
X10742444Y-17245693D02*
X10732920Y-17283789D01*
X10732920Y-17283789D02*
X10723396Y-17302836D01*
X10723396Y-17302836D02*
X10713872Y-17312360D01*
X10713872Y-17312360D02*
X10694825Y-17321884D01*
X10694825Y-17321884D02*
X10675777Y-17321884D01*
X10675777Y-17321884D02*
X10656729Y-17312360D01*
X10656729Y-17312360D02*
X10647206Y-17302836D01*
X10647206Y-17302836D02*
X10637682Y-17283789D01*
X10637682Y-17283789D02*
X10628158Y-17245693D01*
X10628158Y-17245693D02*
X10628158Y-17198074D01*
X10628158Y-17198074D02*
X10637682Y-17159979D01*
X10637682Y-17159979D02*
X10647206Y-17140931D01*
X10647206Y-17140931D02*
X10656729Y-17131408D01*
X10656729Y-17131408D02*
X10675777Y-17121884D01*
X10818634Y-17121884D02*
X10818634Y-17159979D01*
X10894825Y-17121884D02*
X10894825Y-17159979D01*
X11190063Y-17398074D02*
X11180539Y-17388550D01*
X11180539Y-17388550D02*
X11161491Y-17359979D01*
X11161491Y-17359979D02*
X11151968Y-17340931D01*
X11151968Y-17340931D02*
X11142444Y-17312360D01*
X11142444Y-17312360D02*
X11132920Y-17264741D01*
X11132920Y-17264741D02*
X11132920Y-17226646D01*
X11132920Y-17226646D02*
X11142444Y-17179027D01*
X11142444Y-17179027D02*
X11151968Y-17150455D01*
X11151968Y-17150455D02*
X11161491Y-17131408D01*
X11161491Y-17131408D02*
X11180539Y-17102836D01*
X11180539Y-17102836D02*
X11190063Y-17093312D01*
X11256729Y-17140931D02*
X11266253Y-17131408D01*
X11266253Y-17131408D02*
X11285301Y-17121884D01*
X11285301Y-17121884D02*
X11332920Y-17121884D01*
X11332920Y-17121884D02*
X11351968Y-17131408D01*
X11351968Y-17131408D02*
X11361491Y-17140931D01*
X11361491Y-17140931D02*
X11371015Y-17159979D01*
X11371015Y-17159979D02*
X11371015Y-17179027D01*
X11371015Y-17179027D02*
X11361491Y-17207598D01*
X11361491Y-17207598D02*
X11247206Y-17321884D01*
X11247206Y-17321884D02*
X11371015Y-17321884D01*
X11609110Y-17321884D02*
X11609110Y-17121884D01*
X11694825Y-17321884D02*
X11694825Y-17217122D01*
X11694825Y-17217122D02*
X11685301Y-17198074D01*
X11685301Y-17198074D02*
X11666253Y-17188550D01*
X11666253Y-17188550D02*
X11637682Y-17188550D01*
X11637682Y-17188550D02*
X11618634Y-17198074D01*
X11618634Y-17198074D02*
X11609110Y-17207598D01*
X11818634Y-17321884D02*
X11799587Y-17312360D01*
X11799587Y-17312360D02*
X11790063Y-17302836D01*
X11790063Y-17302836D02*
X11780539Y-17283789D01*
X11780539Y-17283789D02*
X11780539Y-17226646D01*
X11780539Y-17226646D02*
X11790063Y-17207598D01*
X11790063Y-17207598D02*
X11799587Y-17198074D01*
X11799587Y-17198074D02*
X11818634Y-17188550D01*
X11818634Y-17188550D02*
X11847206Y-17188550D01*
X11847206Y-17188550D02*
X11866253Y-17198074D01*
X11866253Y-17198074D02*
X11875777Y-17207598D01*
X11875777Y-17207598D02*
X11885301Y-17226646D01*
X11885301Y-17226646D02*
X11885301Y-17283789D01*
X11885301Y-17283789D02*
X11875777Y-17302836D01*
X11875777Y-17302836D02*
X11866253Y-17312360D01*
X11866253Y-17312360D02*
X11847206Y-17321884D01*
X11847206Y-17321884D02*
X11818634Y-17321884D01*
X11999587Y-17321884D02*
X11980539Y-17312360D01*
X11980539Y-17312360D02*
X11971015Y-17293312D01*
X11971015Y-17293312D02*
X11971015Y-17121884D01*
X12151968Y-17312360D02*
X12132920Y-17321884D01*
X12132920Y-17321884D02*
X12094825Y-17321884D01*
X12094825Y-17321884D02*
X12075777Y-17312360D01*
X12075777Y-17312360D02*
X12066253Y-17293312D01*
X12066253Y-17293312D02*
X12066253Y-17217122D01*
X12066253Y-17217122D02*
X12075777Y-17198074D01*
X12075777Y-17198074D02*
X12094825Y-17188550D01*
X12094825Y-17188550D02*
X12132920Y-17188550D01*
X12132920Y-17188550D02*
X12151968Y-17198074D01*
X12151968Y-17198074D02*
X12161491Y-17217122D01*
X12161491Y-17217122D02*
X12161491Y-17236170D01*
X12161491Y-17236170D02*
X12066253Y-17255217D01*
X12237682Y-17312360D02*
X12256730Y-17321884D01*
X12256730Y-17321884D02*
X12294825Y-17321884D01*
X12294825Y-17321884D02*
X12313872Y-17312360D01*
X12313872Y-17312360D02*
X12323396Y-17293312D01*
X12323396Y-17293312D02*
X12323396Y-17283789D01*
X12323396Y-17283789D02*
X12313872Y-17264741D01*
X12313872Y-17264741D02*
X12294825Y-17255217D01*
X12294825Y-17255217D02*
X12266253Y-17255217D01*
X12266253Y-17255217D02*
X12247206Y-17245693D01*
X12247206Y-17245693D02*
X12237682Y-17226646D01*
X12237682Y-17226646D02*
X12237682Y-17217122D01*
X12237682Y-17217122D02*
X12247206Y-17198074D01*
X12247206Y-17198074D02*
X12266253Y-17188550D01*
X12266253Y-17188550D02*
X12294825Y-17188550D01*
X12294825Y-17188550D02*
X12313872Y-17198074D01*
X12390063Y-17398074D02*
X12399587Y-17388550D01*
X12399587Y-17388550D02*
X12418634Y-17359979D01*
X12418634Y-17359979D02*
X12428158Y-17340931D01*
X12428158Y-17340931D02*
X12437682Y-17312360D01*
X12437682Y-17312360D02*
X12447206Y-17264741D01*
X12447206Y-17264741D02*
X12447206Y-17226646D01*
X12447206Y-17226646D02*
X12437682Y-17179027D01*
X12437682Y-17179027D02*
X12428158Y-17150455D01*
X12428158Y-17150455D02*
X12418634Y-17131408D01*
X12418634Y-17131408D02*
X12399587Y-17102836D01*
X12399587Y-17102836D02*
X12390063Y-17093312D01*
M02*
