%TF.GenerationSoftware,KiCad,Pcbnew,7.0.10*%
%TF.CreationDate,2024-01-17T14:59:57-08:00*%
%TF.ProjectId,P1.2,50312e32-2e6b-4696-9361-645f70636258,rev?*%
%TF.SameCoordinates,Original*%
%TF.FileFunction,Copper,L1,Top*%
%TF.FilePolarity,Positive*%
%FSLAX46Y46*%
G04 Gerber Fmt 4.6, Leading zero omitted, Abs format (unit mm)*
G04 Created by KiCad (PCBNEW 7.0.10) date 2024-01-17 14:59:57*
%MOMM*%
%LPD*%
G01*
G04 APERTURE LIST*
%TA.AperFunction,ComponentPad*%
%ADD10R,2.400000X1.600000*%
%TD*%
%TA.AperFunction,ComponentPad*%
%ADD11O,2.400000X1.600000*%
%TD*%
%TA.AperFunction,ComponentPad*%
%ADD12C,2.000000*%
%TD*%
%TA.AperFunction,ComponentPad*%
%ADD13C,1.600000*%
%TD*%
%TA.AperFunction,ComponentPad*%
%ADD14O,1.600000X1.600000*%
%TD*%
%TA.AperFunction,ComponentPad*%
%ADD15C,1.507998*%
%TD*%
%TA.AperFunction,ComponentPad*%
%ADD16R,1.700000X1.700000*%
%TD*%
%TA.AperFunction,ComponentPad*%
%ADD17O,1.700000X1.700000*%
%TD*%
%TA.AperFunction,ComponentPad*%
%ADD18R,1.308000X1.308000*%
%TD*%
%TA.AperFunction,ComponentPad*%
%ADD19C,1.308000*%
%TD*%
%TA.AperFunction,ComponentPad*%
%ADD20C,2.032000*%
%TD*%
%TA.AperFunction,ComponentPad*%
%ADD21R,1.600000X1.600000*%
%TD*%
%TA.AperFunction,ComponentPad*%
%ADD22C,1.440000*%
%TD*%
%TA.AperFunction,SMDPad,CuDef*%
%ADD23R,3.810000X2.540000*%
%TD*%
%TA.AperFunction,ComponentPad*%
%ADD24R,1.800000X1.800000*%
%TD*%
%TA.AperFunction,ComponentPad*%
%ADD25C,1.800000*%
%TD*%
%TA.AperFunction,ComponentPad*%
%ADD26C,1.350000*%
%TD*%
%TA.AperFunction,SMDPad,CuDef*%
%ADD27R,0.660400X0.254000*%
%TD*%
%TA.AperFunction,SMDPad,CuDef*%
%ADD28R,1.092200X2.743200*%
%TD*%
%TA.AperFunction,ViaPad*%
%ADD29C,0.800000*%
%TD*%
%TA.AperFunction,Conductor*%
%ADD30C,0.250000*%
%TD*%
%TA.AperFunction,Conductor*%
%ADD31C,2.000000*%
%TD*%
%TA.AperFunction,Conductor*%
%ADD32C,1.000000*%
%TD*%
%TA.AperFunction,Conductor*%
%ADD33C,0.300000*%
%TD*%
%TA.AperFunction,Conductor*%
%ADD34C,0.800000*%
%TD*%
G04 APERTURE END LIST*
D10*
%TO.P,U1,1,IN-*%
%TO.N,/EEG_IN-*%
X113885944Y-65074900D03*
D11*
%TO.P,U1,2,RG*%
%TO.N,Net-(R2-Pad1)*%
X113885944Y-67614900D03*
%TO.P,U1,3,RG*%
%TO.N,Net-(R2-Pad2)*%
X113885944Y-70154900D03*
%TO.P,U1,4,IN+*%
%TO.N,/EEG_IN+*%
X113885944Y-72694900D03*
%TO.P,U1,5,-VS*%
%TO.N,-3V3*%
X121505944Y-72694900D03*
%TO.P,U1,6,REF*%
%TO.N,GND*%
X121505944Y-70154900D03*
%TO.P,U1,7,OUT*%
%TO.N,Net-(U1-OUT)*%
X121505944Y-67614900D03*
%TO.P,U1,8,+VS*%
%TO.N,+3.3V*%
X121505944Y-65074900D03*
%TD*%
D12*
%TO.P,J4,1,Pin_1*%
%TO.N,GND*%
X138176000Y-144780000D03*
%TD*%
D13*
%TO.P,C9,1*%
%TO.N,Net-(C10-Pad1)*%
X149860000Y-94060000D03*
%TO.P,C9,2*%
%TO.N,Net-(U3-IN2-)*%
X149860000Y-99060000D03*
%TD*%
D12*
%TO.P,J14,1,Pin_1*%
%TO.N,STAGE_3_OUT*%
X195581000Y-85290588D03*
%TD*%
%TO.P,J9,1,Pin_1*%
%TO.N,Conditioned_EEG*%
X195580000Y-99060000D03*
%TD*%
D13*
%TO.P,R8,1*%
%TO.N,Net-(U3-IN2-)*%
X144780000Y-104140000D03*
D14*
%TO.P,R8,2*%
%TO.N,Net-(C10-Pad1)*%
X144780000Y-93980000D03*
%TD*%
D12*
%TO.P,J2,1,Pin_1*%
%TO.N,/EEG_IN+*%
X89715944Y-78523271D03*
%TD*%
D13*
%TO.P,R24,1*%
%TO.N,STAGE_3_OUT*%
X180340000Y-73660000D03*
D14*
%TO.P,R24,2*%
%TO.N,GND*%
X180340000Y-63500000D03*
%TD*%
D15*
%TO.P,U4,1,BOOST*%
%TO.N,Net-(J11-Pin_1)*%
X107950000Y-108646600D03*
%TO.P,U4,2,CAP+*%
%TO.N,Net-(U4-CAP+)*%
X110490000Y-108646600D03*
%TO.P,U4,3,GND*%
%TO.N,GND*%
X113030000Y-108646600D03*
%TO.P,U4,4,CAP-*%
%TO.N,Net-(U4-CAP-)*%
X115570000Y-108646600D03*
%TO.P,U4,5,VOUT*%
%TO.N,-3V3*%
X115570000Y-101026600D03*
%TO.P,U4,6,LV*%
%TO.N,GND*%
X113030000Y-101026600D03*
%TO.P,U4,7,OSC*%
%TO.N,unconnected-(U4-OSC-Pad7)*%
X110490000Y-101026600D03*
%TO.P,U4,8,V+*%
%TO.N,+3.3V*%
X107950000Y-101026600D03*
%TD*%
D16*
%TO.P,J12,1,Pin_1*%
%TO.N,GND*%
X182626000Y-143485000D03*
D17*
%TO.P,J12,2,Pin_2*%
%TO.N,unconnected-(J12-Pin_2-Pad2)*%
X182626000Y-140945000D03*
%TO.P,J12,3,Pin_3*%
%TO.N,CLK*%
X182626000Y-138405000D03*
%TO.P,J12,4,Pin_4*%
%TO.N,unconnected-(J12-Pin_4-Pad4)*%
X182626000Y-135865000D03*
%TO.P,J12,5,Pin_5*%
%TO.N,unconnected-(J12-Pin_5-Pad5)*%
X182626000Y-133325000D03*
%TO.P,J12,6,Pin_6*%
%TO.N,unconnected-(J12-Pin_6-Pad6)*%
X182626000Y-130785000D03*
%TD*%
D13*
%TO.P,R2,1*%
%TO.N,Net-(R2-Pad1)*%
X105971944Y-65240000D03*
D14*
%TO.P,R2,2*%
%TO.N,Net-(R2-Pad2)*%
X105971944Y-55080000D03*
%TD*%
D18*
%TO.P,SW1,1*%
%TO.N,BAT+*%
X97790000Y-137240000D03*
D19*
%TO.P,SW1,2*%
%TO.N,Net-(U2-EN)*%
X105410000Y-137240000D03*
%TD*%
D20*
%TO.P,J6,1,Pin_1*%
%TO.N,/EEG_IN-*%
X89715944Y-65240000D03*
%TO.P,J6,2,Pin_2*%
%TO.N,/EEG_IN+*%
X89715944Y-70320000D03*
%TD*%
D12*
%TO.P,J11,1,Pin_1*%
%TO.N,Net-(J11-Pin_1)*%
X107950000Y-114300000D03*
%TD*%
D16*
%TO.P,J13,1,Pin_1*%
%TO.N,+5V*%
X159626000Y-130785000D03*
D17*
%TO.P,J13,2,Pin_2*%
%TO.N,Conditioned_EEG*%
X159626000Y-133325000D03*
%TO.P,J13,3,Pin_3*%
%TO.N,unconnected-(J13-Pin_3-Pad3)*%
X159626000Y-135865000D03*
%TO.P,J13,4,Pin_4*%
%TO.N,unconnected-(J13-Pin_4-Pad4)*%
X159626000Y-138405000D03*
%TO.P,J13,5,Pin_5*%
%TO.N,unconnected-(J13-Pin_5-Pad5)*%
X159626000Y-140945000D03*
%TO.P,J13,6,Pin_6*%
%TO.N,+3.3V*%
X159626000Y-143485000D03*
%TD*%
D13*
%TO.P,R23,1*%
%TO.N,Net-(R23-Pad1)*%
X175260000Y-63500000D03*
D14*
%TO.P,R23,2*%
%TO.N,STAGE_3_OUT*%
X175260000Y-73660000D03*
%TD*%
D13*
%TO.P,R9,1*%
%TO.N,Net-(C4-Pad2)*%
X154940000Y-63500000D03*
D14*
%TO.P,R9,2*%
%TO.N,GND*%
X154940000Y-73660000D03*
%TD*%
D13*
%TO.P,R12,1*%
%TO.N,Net-(U3-IN2-)*%
X149098000Y-104140000D03*
D14*
%TO.P,R12,2*%
%TO.N,GND*%
X149098000Y-114300000D03*
%TD*%
D12*
%TO.P,J1,1,Pin_1*%
%TO.N,/EEG_IN-*%
X89792000Y-57820588D03*
%TD*%
D13*
%TO.P,C1,1*%
%TO.N,Net-(U2-EN)*%
X103632000Y-129536063D03*
%TO.P,C1,2*%
%TO.N,GND*%
X103632000Y-124536063D03*
%TD*%
D21*
%TO.P,C4,1*%
%TO.N,STAGE_2_OUT*%
X145542000Y-69531113D03*
D13*
%TO.P,C4,2*%
%TO.N,Net-(C4-Pad2)*%
X145542000Y-67031113D03*
%TD*%
D12*
%TO.P,J3,1,Pin_1*%
%TO.N,+3.3V*%
X145796000Y-144780000D03*
%TD*%
D13*
%TO.P,R28,1*%
%TO.N,Net-(C11-Pad2)*%
X182880000Y-88900000D03*
D14*
%TO.P,R28,2*%
%TO.N,STAGE_3_OUT*%
X182880000Y-78740000D03*
%TD*%
D13*
%TO.P,R22,1*%
%TO.N,Net-(C11-Pad2)*%
X177800000Y-88900000D03*
D14*
%TO.P,R22,2*%
%TO.N,GND*%
X177800000Y-78740000D03*
%TD*%
D22*
%TO.P,R13,1,1*%
%TO.N,Net-(U3-IN1-)*%
X145542000Y-81280000D03*
%TO.P,R13,2,2*%
%TO.N,STAGE_2_OUT*%
X145542000Y-78740000D03*
%TO.P,R13,3,3*%
%TO.N,unconnected-(R13-Pad3)*%
X145542000Y-76200000D03*
%TD*%
D13*
%TO.P,R21,1*%
%TO.N,Net-(C10-Pad1)*%
X170180000Y-93980000D03*
D14*
%TO.P,R21,2*%
%TO.N,GND*%
X170180000Y-104140000D03*
%TD*%
D21*
%TO.P,C11,1*%
%TO.N,Net-(C10-Pad1)*%
X175070888Y-93980000D03*
D13*
%TO.P,C11,2*%
%TO.N,Net-(C11-Pad2)*%
X177570888Y-93980000D03*
%TD*%
D21*
%TO.P,C2,1*%
%TO.N,Net-(U1-OUT)*%
X127826888Y-67564000D03*
D13*
%TO.P,C2,2*%
%TO.N,STAGE_1_OUT*%
X130326888Y-67564000D03*
%TD*%
D23*
%TO.P,BT1,1,+*%
%TO.N,BAT+*%
X87175944Y-137325963D03*
%TO.P,BT1,2,-*%
%TO.N,GND*%
X87175944Y-116495963D03*
%TD*%
D13*
%TO.P,R5,1*%
%TO.N,STAGE_1_OUT*%
X128270000Y-76200000D03*
D14*
%TO.P,R5,2*%
%TO.N,GND*%
X128270000Y-86360000D03*
%TD*%
D13*
%TO.P,R3,1*%
%TO.N,/EEG_IN+*%
X99875944Y-70320000D03*
D14*
%TO.P,R3,2*%
%TO.N,GND*%
X99875944Y-80480000D03*
%TD*%
D21*
%TO.P,C5,1*%
%TO.N,Net-(U4-CAP+)*%
X116396888Y-114554000D03*
D13*
%TO.P,C5,2*%
%TO.N,Net-(U4-CAP-)*%
X118896888Y-114554000D03*
%TD*%
D12*
%TO.P,J7,1,Pin_1*%
%TO.N,STAGE_1_OUT*%
X132080000Y-58420000D03*
%TD*%
D10*
%TO.P,U3,1,OUT1*%
%TO.N,STAGE_2_OUT*%
X132598000Y-93482000D03*
D11*
%TO.P,U3,2,IN1-*%
%TO.N,Net-(U3-IN1-)*%
X132598000Y-96022000D03*
%TO.P,U3,3,IN1+*%
%TO.N,Net-(U3-IN1+)*%
X132598000Y-98562000D03*
%TO.P,U3,4,V-*%
%TO.N,-3V3*%
X132598000Y-101102000D03*
%TO.P,U3,5,IN2+*%
%TO.N,Net-(U3-IN2+)*%
X140218000Y-101102000D03*
%TO.P,U3,6,IN2-*%
%TO.N,Net-(U3-IN2-)*%
X140218000Y-98562000D03*
%TO.P,U3,7,OUT2*%
%TO.N,Net-(U3-OUT2)*%
X140218000Y-96022000D03*
%TO.P,U3,8,V+*%
%TO.N,+3.3V*%
X140218000Y-93482000D03*
%TD*%
D13*
%TO.P,C10,1*%
%TO.N,Net-(C10-Pad1)*%
X157480000Y-94060000D03*
%TO.P,C10,2*%
%TO.N,Net-(U3-OUT2)*%
X157480000Y-99060000D03*
%TD*%
%TO.P,R30,1*%
%TO.N,STAGE_3_OUT*%
X190500000Y-109220000D03*
D14*
%TO.P,R30,2*%
%TO.N,Net-(U5-BP)*%
X190500000Y-119380000D03*
%TD*%
D22*
%TO.P,R26,1,1*%
%TO.N,Net-(R23-Pad1)*%
X168148000Y-71120000D03*
%TO.P,R26,2,2*%
%TO.N,+3.3V*%
X168148000Y-68580000D03*
%TO.P,R26,3,3*%
%TO.N,unconnected-(R26-Pad3)*%
X168148000Y-66040000D03*
%TD*%
D12*
%TO.P,J8,1,Pin_1*%
%TO.N,STAGE_2_OUT*%
X144780000Y-58420000D03*
%TD*%
D21*
%TO.P,C6,1*%
%TO.N,GND*%
X124460000Y-103567113D03*
D13*
%TO.P,C6,2*%
%TO.N,-3V3*%
X124460000Y-101067113D03*
%TD*%
%TO.P,C8,1*%
%TO.N,Net-(C10-Pad1)*%
X157520000Y-83820000D03*
%TO.P,C8,2*%
%TO.N,Net-(C8-Pad2)*%
X162520000Y-83820000D03*
%TD*%
%TO.P,R4,1*%
%TO.N,Net-(U2-OSEL)*%
X120904000Y-122428000D03*
D14*
%TO.P,R4,2*%
%TO.N,GND*%
X120904000Y-132588000D03*
%TD*%
D10*
%TO.P,U5,1,BP*%
%TO.N,Net-(U5-BP)*%
X185420000Y-119385000D03*
D11*
%TO.P,U5,2,N/AP/HP*%
%TO.N,Conditioned_EEG*%
X185420000Y-116845000D03*
%TO.P,U5,3,INV1*%
%TO.N,STAGE_3_OUT*%
X185420000Y-114305000D03*
%TO.P,U5,4,S1*%
%TO.N,Net-(U5-LP)*%
X185420000Y-111765000D03*
%TO.P,U5,5,SA*%
%TO.N,+3.3V*%
X185420000Y-109225000D03*
%TO.P,U5,6,V+*%
X185420000Y-106685000D03*
%TO.P,U5,7,LSh*%
%TO.N,GND*%
X185420000Y-104145000D03*
%TO.P,U5,8,CLK*%
%TO.N,CLK*%
X177800000Y-104145000D03*
%TO.P,U5,9,50/100/HOLD*%
%TO.N,+3.3V*%
X177800000Y-106685000D03*
%TO.P,U5,10,V-*%
%TO.N,-3V3*%
X177800000Y-109225000D03*
%TO.P,U5,11,AGND*%
%TO.N,GND*%
X177800000Y-111765000D03*
%TO.P,U5,12,INV2*%
%TO.N,unconnected-(U5-INV2-Pad12)*%
X177800000Y-114305000D03*
%TO.P,U5,13,V02*%
%TO.N,unconnected-(U5-V02-Pad13)*%
X177800000Y-116845000D03*
%TO.P,U5,14,LP*%
%TO.N,Net-(U5-LP)*%
X177800000Y-119385000D03*
%TD*%
D13*
%TO.P,R7,1*%
%TO.N,GND*%
X138684000Y-76200000D03*
D14*
%TO.P,R7,2*%
%TO.N,Net-(U3-IN1-)*%
X138684000Y-86360000D03*
%TD*%
D13*
%TO.P,R10,1*%
%TO.N,Net-(C4-Pad2)*%
X160020000Y-63500000D03*
D14*
%TO.P,R10,2*%
%TO.N,Net-(C8-Pad2)*%
X160020000Y-73660000D03*
%TD*%
D24*
%TO.P,D1,1,K*%
%TO.N,GND*%
X90419000Y-144860000D03*
D25*
%TO.P,D1,2,A*%
%TO.N,Net-(D1-A)*%
X92959000Y-144860000D03*
%TD*%
D12*
%TO.P,J5,1,Pin_1*%
%TO.N,-3V3*%
X153416000Y-144780000D03*
%TD*%
%TO.P,J10,1,Pin_1*%
%TO.N,BAT+*%
X114300000Y-147320000D03*
%TD*%
D13*
%TO.P,R31,1*%
%TO.N,Net-(U2-EN)*%
X107950000Y-144860000D03*
D14*
%TO.P,R31,2*%
%TO.N,Net-(D1-A)*%
X97790000Y-144860000D03*
%TD*%
D21*
%TO.P,C3,1*%
%TO.N,+3.3V*%
X127000000Y-134700000D03*
D13*
%TO.P,C3,2*%
%TO.N,GND*%
X127000000Y-139700000D03*
%TD*%
D26*
%TO.P,L1,1,1*%
%TO.N,Net-(U2-EN)*%
X113792000Y-120076063D03*
%TO.P,L1,2,2*%
%TO.N,Net-(U2-SW)*%
X113792000Y-134076063D03*
%TD*%
D13*
%TO.P,R29,1*%
%TO.N,STAGE_3_OUT*%
X195580000Y-109220000D03*
D14*
%TO.P,R29,2*%
%TO.N,Conditioned_EEG*%
X195580000Y-119380000D03*
%TD*%
D27*
%TO.P,U2,1,OSEL*%
%TO.N,Net-(U2-OSEL)*%
X125463300Y-126079748D03*
%TO.P,U2,2,MODE*%
%TO.N,Net-(U2-EN)*%
X125463300Y-126579874D03*
%TO.P,U2,3,EN*%
X125463300Y-127080000D03*
%TO.P,U2,4,VIN*%
X125463300Y-127580126D03*
%TO.P,U2,5,SW*%
%TO.N,Net-(U2-SW)*%
X125463300Y-128080252D03*
%TO.P,U2,6,SUP*%
%TO.N,Net-(U2-EN)*%
X125463300Y-128580378D03*
%TO.P,U2,7,PGND*%
%TO.N,GND*%
X127520700Y-128580378D03*
%TO.P,U2,8,AGND*%
X127520700Y-128080252D03*
%TO.P,U2,9,VOUT*%
%TO.N,unconnected-(U2-VOUT-Pad9)*%
X127520700Y-127580126D03*
%TO.P,U2,10,VOUT*%
%TO.N,+3.3V*%
X127520700Y-127080000D03*
%TO.P,U2,11,ICHG*%
%TO.N,GND*%
X127520700Y-126579874D03*
%TO.P,U2,12,VCHG*%
X127520700Y-126079748D03*
D28*
%TO.P,U2,13*%
%TO.N,N/C*%
X126492000Y-127330063D03*
%TD*%
D13*
%TO.P,C7,1*%
%TO.N,GND*%
X135168000Y-109220000D03*
%TO.P,C7,2*%
%TO.N,Net-(U3-IN2+)*%
X140168000Y-109220000D03*
%TD*%
%TO.P,R11,1*%
%TO.N,Net-(C8-Pad2)*%
X165100000Y-88900000D03*
D14*
%TO.P,R11,2*%
%TO.N,Net-(U3-IN2+)*%
X165100000Y-99060000D03*
%TD*%
D13*
%TO.P,R1,1*%
%TO.N,/EEG_IN-*%
X99875944Y-65240000D03*
D14*
%TO.P,R1,2*%
%TO.N,GND*%
X99875944Y-55080000D03*
%TD*%
D13*
%TO.P,R6,1*%
%TO.N,STAGE_1_OUT*%
X133350000Y-76200000D03*
D14*
%TO.P,R6,2*%
%TO.N,Net-(U3-IN1+)*%
X133350000Y-86360000D03*
%TD*%
D29*
%TO.N,GND*%
X127508000Y-129673412D03*
X127508000Y-124968000D03*
%TO.N,-3V3*%
X135890000Y-103632000D03*
%TD*%
D30*
%TO.N,GND*%
X127520700Y-126079748D02*
X127520700Y-124980700D01*
D31*
X87175944Y-116495963D02*
X95591900Y-116495963D01*
D30*
X127520700Y-126079748D02*
X127520700Y-126579874D01*
X127520700Y-124980700D02*
X127508000Y-124968000D01*
D31*
X95591900Y-116495963D02*
X103632000Y-124536063D01*
D30*
X127520700Y-128080252D02*
X127520700Y-129660712D01*
X127520700Y-129660712D02*
X127508000Y-129673412D01*
%TO.N,+3.3V*%
X107950000Y-101026600D02*
X112333400Y-105410000D01*
X112333400Y-105410000D02*
X125730000Y-105410000D01*
X154178000Y-146900000D02*
X138264000Y-146900000D01*
X185420000Y-109225000D02*
X185420000Y-106685000D01*
X145796000Y-144780000D02*
X135716000Y-134700000D01*
X128100900Y-127080000D02*
X128524000Y-127503100D01*
X155448000Y-55880000D02*
X153162000Y-55880000D01*
X156211000Y-146900000D02*
X154178000Y-146900000D01*
X137160000Y-96540000D02*
X137160000Y-99568000D01*
X159626000Y-143485000D02*
X156211000Y-146900000D01*
X185420000Y-106685000D02*
X186945000Y-105160000D01*
X128100900Y-127080000D02*
X128524000Y-126656900D01*
X127520700Y-127080000D02*
X128100900Y-127080000D01*
X176784000Y-80264000D02*
X173228000Y-80264000D01*
X177800000Y-106685000D02*
X185420000Y-106685000D01*
X127000000Y-135636000D02*
X127000000Y-134700000D01*
X173228000Y-80264000D02*
X166116000Y-73152000D01*
X130700844Y-55880000D02*
X121505944Y-65074900D01*
X186945000Y-90425000D02*
X176784000Y-80264000D01*
X138264000Y-146900000D02*
X127000000Y-135636000D01*
X128524000Y-108204000D02*
X128524000Y-108458000D01*
X186945000Y-105160000D02*
X186945000Y-90425000D01*
X166116000Y-73152000D02*
X166116000Y-70612000D01*
X166116000Y-70612000D02*
X168148000Y-68580000D01*
X128524000Y-127503100D02*
X128524000Y-133176000D01*
X128524000Y-108458000D02*
X128524000Y-118110000D01*
X128524000Y-133176000D02*
X127000000Y-134700000D01*
X115410944Y-71169900D02*
X121505944Y-65074900D01*
X115410944Y-93565656D02*
X115410944Y-71169900D01*
X125730000Y-105410000D02*
X128524000Y-108204000D01*
X140218000Y-93482000D02*
X137160000Y-96540000D01*
X168148000Y-68580000D02*
X155448000Y-55880000D01*
X137160000Y-99568000D02*
X128524000Y-108204000D01*
X127000000Y-134700000D02*
X135716000Y-134700000D01*
X107950000Y-101026600D02*
X115410944Y-93565656D01*
X128524000Y-126656900D02*
X128524000Y-118110000D01*
X153162000Y-55880000D02*
X130700844Y-55880000D01*
%TO.N,Net-(C4-Pad2)*%
X154940000Y-63500000D02*
X160020000Y-63500000D01*
X145542000Y-67031113D02*
X149073113Y-63500000D01*
X149073113Y-63500000D02*
X154940000Y-63500000D01*
%TO.N,Net-(U4-CAP+)*%
X116396888Y-114553488D02*
X116396888Y-114554000D01*
X110490000Y-108646600D02*
X116396888Y-114553488D01*
%TO.N,Net-(U4-CAP-)*%
X115570000Y-111227112D02*
X118896888Y-114554000D01*
X115570000Y-108646600D02*
X115570000Y-111227112D01*
%TO.N,-3V3*%
X115570000Y-101026600D02*
X124419487Y-101026600D01*
X121505944Y-95090656D02*
X121505944Y-72694900D01*
X135890000Y-107188000D02*
X139446000Y-110744000D01*
X139446000Y-110744000D02*
X141732000Y-110744000D01*
X153416000Y-144780000D02*
X147066000Y-138430000D01*
X147066000Y-138430000D02*
X147066000Y-116078000D01*
X147066000Y-116078000D02*
X141732000Y-110744000D01*
X115570000Y-101026600D02*
X121505944Y-95090656D01*
X124460000Y-101067113D02*
X132563113Y-101067113D01*
X141732000Y-110744000D02*
X176281000Y-110744000D01*
X132563113Y-101067113D02*
X132598000Y-101102000D01*
X135890000Y-103632000D02*
X135890000Y-107188000D01*
X124419487Y-101026600D02*
X124460000Y-101067113D01*
X176281000Y-110744000D02*
X177800000Y-109225000D01*
%TO.N,Net-(U3-IN2+)*%
X165100000Y-99060000D02*
X158496000Y-105664000D01*
X158496000Y-105664000D02*
X143730000Y-105664000D01*
X140218000Y-102152000D02*
X140218000Y-101102000D01*
X140168000Y-109220000D02*
X140168000Y-101152000D01*
X140168000Y-101152000D02*
X140218000Y-101102000D01*
X143730000Y-105664000D02*
X140218000Y-102152000D01*
%TO.N,Conditioned_EEG*%
X185420000Y-116845000D02*
X193045000Y-116845000D01*
X195580000Y-99060000D02*
X196705000Y-100185000D01*
X159626000Y-133325000D02*
X166375000Y-133325000D01*
X196705000Y-100185000D02*
X196705000Y-118255000D01*
X193045000Y-116845000D02*
X195580000Y-119380000D01*
X196705000Y-118255000D02*
X195580000Y-119380000D01*
X182855000Y-116845000D02*
X185420000Y-116845000D01*
X166375000Y-133325000D02*
X182855000Y-116845000D01*
%TO.N,Net-(C8-Pad2)*%
X160020000Y-81320000D02*
X162520000Y-83820000D01*
X165100000Y-86400000D02*
X162520000Y-83820000D01*
X160020000Y-73660000D02*
X160020000Y-81320000D01*
X165100000Y-88900000D02*
X165100000Y-86400000D01*
%TO.N,Net-(U3-IN2-)*%
X144780000Y-103124000D02*
X144780000Y-104140000D01*
X149860000Y-103378000D02*
X149098000Y-104140000D01*
X149860000Y-99060000D02*
X149860000Y-103378000D01*
X140218000Y-98562000D02*
X144780000Y-103124000D01*
X149098000Y-104140000D02*
X144780000Y-104140000D01*
%TO.N,Net-(U2-SW)*%
X125463300Y-128080252D02*
X119787811Y-128080252D01*
X113792000Y-134076063D02*
X119787811Y-128080252D01*
%TO.N,Net-(R2-Pad2)*%
X107116340Y-55080000D02*
X116073944Y-64037604D01*
X116073944Y-64037604D02*
X116073944Y-67966900D01*
X105971944Y-55080000D02*
X107116340Y-55080000D01*
X116073944Y-67966900D02*
X113885944Y-70154900D01*
%TO.N,Net-(U2-OSEL)*%
X124555748Y-126079748D02*
X120904000Y-122428000D01*
X125463300Y-126079748D02*
X124555748Y-126079748D01*
%TO.N,Net-(U3-IN1+)*%
X130556000Y-96520000D02*
X132598000Y-98562000D01*
X133350000Y-86360000D02*
X130556000Y-89154000D01*
X130556000Y-89154000D02*
X130556000Y-96520000D01*
%TO.N,Net-(U3-IN1-)*%
X132598000Y-96022000D02*
X138684000Y-89936000D01*
X145542000Y-81280000D02*
X143764000Y-81280000D01*
X138684000Y-89936000D02*
X138684000Y-86360000D01*
X143764000Y-81280000D02*
X138684000Y-86360000D01*
%TO.N,Net-(U1-OUT)*%
X127775988Y-67614900D02*
X127826888Y-67564000D01*
X121505944Y-67614900D02*
X127775988Y-67614900D01*
%TO.N,BAT+*%
X114300000Y-147320000D02*
X107698074Y-147320000D01*
X97704037Y-137325963D02*
X107189037Y-146810963D01*
X97704037Y-137325963D02*
X97790000Y-137240000D01*
X107698074Y-147320000D02*
X107189037Y-146810963D01*
D31*
X87175944Y-137325963D02*
X97704037Y-137325963D01*
D30*
%TO.N,STAGE_1_OUT*%
X130326888Y-67564000D02*
X130326888Y-74192888D01*
X130326888Y-67564000D02*
X130326888Y-74143112D01*
X130326888Y-74143112D02*
X128270000Y-76200000D01*
X130326888Y-74192888D02*
X132334000Y-76200000D01*
X132080000Y-58420000D02*
X132080000Y-65810888D01*
X132080000Y-65810888D02*
X130326888Y-67564000D01*
X132334000Y-76200000D02*
X133350000Y-76200000D01*
%TO.N,STAGE_2_OUT*%
X147066000Y-77216000D02*
X147066000Y-71055113D01*
X143780000Y-59420000D02*
X143780000Y-67769113D01*
X134475000Y-87741505D02*
X143476505Y-78740000D01*
X147066000Y-71055113D02*
X145542000Y-69531113D01*
X143476505Y-78740000D02*
X145542000Y-78740000D01*
X144780000Y-78740000D02*
X145542000Y-78740000D01*
X132598000Y-93482000D02*
X134475000Y-91605000D01*
X144780000Y-58420000D02*
X143780000Y-59420000D01*
X145542000Y-78740000D02*
X147066000Y-77216000D01*
X143780000Y-67769113D02*
X145542000Y-69531113D01*
X134475000Y-91605000D02*
X134475000Y-87741505D01*
%TO.N,Net-(J11-Pin_1)*%
X107950000Y-108646600D02*
X107950000Y-114300000D01*
D32*
%TO.N,/EEG_IN-*%
X89607944Y-58004644D02*
X89792000Y-57820588D01*
D33*
X89715944Y-65240000D02*
X91630944Y-67155000D01*
X107515944Y-71444900D02*
X113885944Y-65074900D01*
X99875944Y-65240000D02*
X106080844Y-71444900D01*
X97960944Y-67155000D02*
X99875944Y-65240000D01*
D34*
X89662000Y-57690588D02*
X89792000Y-57820588D01*
D33*
X106080844Y-71444900D02*
X107515944Y-71444900D01*
D34*
X89662000Y-57950588D02*
X89792000Y-57820588D01*
D33*
X89715944Y-65240000D02*
X89715944Y-58004644D01*
X91630944Y-67155000D02*
X97960944Y-67155000D01*
%TO.N,/EEG_IN+*%
X89715944Y-70320000D02*
X89715944Y-78523271D01*
X89715944Y-70320000D02*
X91630944Y-68405000D01*
X91630944Y-68405000D02*
X97960944Y-68405000D01*
X105563077Y-72694900D02*
X113885944Y-72694900D01*
X99875944Y-70320000D02*
X103188177Y-70320000D01*
X97960944Y-68405000D02*
X99875944Y-70320000D01*
X103188177Y-70320000D02*
X105563077Y-72694900D01*
D30*
%TO.N,Net-(U2-EN)*%
X125463300Y-128580378D02*
X122371622Y-128580378D01*
X122371622Y-128580378D02*
X115570000Y-135382000D01*
X125463300Y-126579874D02*
X120295811Y-126579874D01*
X109477937Y-135382000D02*
X103632000Y-129536063D01*
X103632000Y-129536063D02*
X113092000Y-120076063D01*
X113792000Y-120076063D02*
X120295811Y-126579874D01*
D31*
X105410000Y-137240000D02*
X103632000Y-135462000D01*
D30*
X115570000Y-135382000D02*
X109477937Y-135382000D01*
D31*
X103632000Y-135462000D02*
X103632000Y-129536063D01*
D30*
X113092000Y-120076063D02*
X113792000Y-120076063D01*
X125463300Y-126579874D02*
X125463300Y-127580126D01*
D31*
X105410000Y-137240000D02*
X105410000Y-142320000D01*
X105410000Y-142320000D02*
X107950000Y-144860000D01*
D30*
%TO.N,Net-(C10-Pad1)*%
X170100000Y-94060000D02*
X170180000Y-93980000D01*
X149860000Y-94060000D02*
X157480000Y-94060000D01*
X157480000Y-94060000D02*
X170100000Y-94060000D01*
X170180000Y-93980000D02*
X175070888Y-93980000D01*
X149780000Y-93980000D02*
X149860000Y-94060000D01*
X157520000Y-94020000D02*
X157480000Y-94060000D01*
X157520000Y-83820000D02*
X157520000Y-94020000D01*
X144780000Y-93980000D02*
X149780000Y-93980000D01*
%TO.N,Net-(U3-OUT2)*%
X140228000Y-96012000D02*
X140218000Y-96022000D01*
X154442000Y-96022000D02*
X157480000Y-99060000D01*
X140218000Y-96022000D02*
X154442000Y-96022000D01*
%TO.N,Net-(C11-Pad2)*%
X177800000Y-88900000D02*
X182880000Y-88900000D01*
X177570888Y-93980000D02*
X177570888Y-89129112D01*
X177570888Y-89129112D02*
X177800000Y-88900000D01*
%TO.N,Net-(D1-A)*%
X97790000Y-144860000D02*
X92959000Y-144860000D01*
%TO.N,CLK*%
X181451000Y-139580000D02*
X159139299Y-139580000D01*
X179578000Y-108722010D02*
X178805990Y-107950000D01*
X176022000Y-107188000D02*
X176022000Y-105923000D01*
X178805990Y-107950000D02*
X176784000Y-107950000D01*
X176784000Y-107950000D02*
X176022000Y-107188000D01*
X182626000Y-138405000D02*
X181356000Y-139675000D01*
X159139299Y-139580000D02*
X157226000Y-137666701D01*
X176022000Y-105923000D02*
X177800000Y-104145000D01*
X171958000Y-115570000D02*
X176784000Y-115570000D01*
X176784000Y-115570000D02*
X179070000Y-115570000D01*
X157226000Y-130302000D02*
X171958000Y-115570000D01*
X179070000Y-115570000D02*
X179578000Y-115062000D01*
X157226000Y-137666701D02*
X157226000Y-130302000D01*
X179578000Y-115062000D02*
X179578000Y-108722010D01*
X182626000Y-138405000D02*
X181451000Y-139580000D01*
%TO.N,STAGE_3_OUT*%
X194109412Y-85290588D02*
X190500000Y-88900000D01*
X175260000Y-73660000D02*
X180340000Y-73660000D01*
X195581000Y-85290588D02*
X194109412Y-85290588D01*
X190500000Y-86360000D02*
X182880000Y-78740000D01*
X190500000Y-109220000D02*
X195580000Y-109220000D01*
X182880000Y-78740000D02*
X182880000Y-76200000D01*
X185420000Y-114300000D02*
X190500000Y-109220000D01*
X182880000Y-76200000D02*
X180340000Y-73660000D01*
X185420000Y-114305000D02*
X185420000Y-114300000D01*
X190500000Y-109220000D02*
X190500000Y-88900000D01*
X190500000Y-88900000D02*
X190500000Y-86360000D01*
%TO.N,Net-(R23-Pad1)*%
X168148000Y-71120000D02*
X175260000Y-64008000D01*
X175260000Y-64008000D02*
X175260000Y-63500000D01*
%TO.N,Net-(U5-BP)*%
X185420000Y-119385000D02*
X190495000Y-119385000D01*
X190495000Y-119385000D02*
X190500000Y-119380000D01*
%TO.N,Net-(U5-LP)*%
X177800000Y-119385000D02*
X185420000Y-111765000D01*
%TO.N,Net-(R2-Pad1)*%
X108003944Y-63208000D02*
X114607944Y-63208000D01*
X105971944Y-65240000D02*
X108003944Y-63208000D01*
X115623944Y-64224000D02*
X115623944Y-65876900D01*
X114607944Y-63208000D02*
X115623944Y-64224000D01*
X115623944Y-65876900D02*
X113885944Y-67614900D01*
%TD*%
%TA.AperFunction,Conductor*%
%TO.N,GND*%
G36*
X127867275Y-125116788D02*
G01*
X127873593Y-125123135D01*
X127873782Y-125131548D01*
X127648484Y-125757735D01*
X127642459Y-125764359D01*
X127637475Y-125765474D01*
X127403627Y-125765474D01*
X127395354Y-125762047D01*
X127392761Y-125758112D01*
X127142720Y-125131774D01*
X127142835Y-125122821D01*
X127149082Y-125116639D01*
X127503500Y-124968875D01*
X127512449Y-124968855D01*
X127867275Y-125116788D01*
G37*
%TD.AperFunction*%
%TD*%
%TA.AperFunction,Conductor*%
%TO.N,GND*%
G36*
X127645748Y-128879365D02*
G01*
X127648484Y-128883677D01*
X127873782Y-129509863D01*
X127873358Y-129518808D01*
X127867275Y-129524623D01*
X127512502Y-129672535D01*
X127503548Y-129672556D01*
X127503498Y-129672535D01*
X127149084Y-129524773D01*
X127142766Y-129518426D01*
X127142720Y-129509637D01*
X127392761Y-128883299D01*
X127399011Y-128876887D01*
X127403627Y-128875938D01*
X127637475Y-128875938D01*
X127645748Y-128879365D01*
G37*
%TD.AperFunction*%
%TD*%
%TA.AperFunction,Conductor*%
%TO.N,+3.3V*%
G36*
X108644253Y-100742734D02*
G01*
X108650577Y-100749074D01*
X108650764Y-100749558D01*
X109102174Y-101997532D01*
X109101766Y-102006478D01*
X109099445Y-102009785D01*
X108933185Y-102176045D01*
X108924912Y-102179472D01*
X108920933Y-102178774D01*
X107672958Y-101727364D01*
X107666344Y-101721328D01*
X107665936Y-101712382D01*
X107666109Y-101711931D01*
X107947437Y-101030387D01*
X107953759Y-101024049D01*
X108635300Y-100742723D01*
X108644253Y-100742734D01*
G37*
%TD.AperFunction*%
%TD*%
%TA.AperFunction,Conductor*%
%TO.N,+3.3V*%
G36*
X185547332Y-107628427D02*
G01*
X185548505Y-107629796D01*
X186213572Y-108539812D01*
X186215687Y-108548514D01*
X186211687Y-108555645D01*
X185427561Y-109219597D01*
X185419032Y-109222328D01*
X185412439Y-109219597D01*
X184628312Y-108555645D01*
X184624213Y-108547684D01*
X184626426Y-108539813D01*
X185291495Y-107629796D01*
X185299143Y-107625139D01*
X185300941Y-107625000D01*
X185539059Y-107625000D01*
X185547332Y-107628427D01*
G37*
%TD.AperFunction*%
%TD*%
%TA.AperFunction,Conductor*%
%TO.N,+3.3V*%
G36*
X185427561Y-106690402D02*
G01*
X186211687Y-107354353D01*
X186215786Y-107362314D01*
X186213572Y-107370186D01*
X185548505Y-108280204D01*
X185540857Y-108284861D01*
X185539059Y-108285000D01*
X185300941Y-108285000D01*
X185292668Y-108281573D01*
X185291495Y-108280204D01*
X184626427Y-107370186D01*
X184624312Y-107361484D01*
X184628311Y-107354354D01*
X185412439Y-106690401D01*
X185420968Y-106687671D01*
X185427561Y-106690402D01*
G37*
%TD.AperFunction*%
%TD*%
%TA.AperFunction,Conductor*%
%TO.N,+3.3V*%
G36*
X144477059Y-143279729D02*
G01*
X144976877Y-143449033D01*
X146166854Y-143852113D01*
X146173590Y-143858013D01*
X146174182Y-143866949D01*
X146173914Y-143867662D01*
X145798562Y-144776215D01*
X145792235Y-144782553D01*
X145792215Y-144782562D01*
X144883662Y-145157914D01*
X144874708Y-145157905D01*
X144868381Y-145151567D01*
X144868113Y-145150854D01*
X144429548Y-143856120D01*
X144295730Y-143461059D01*
X144296322Y-143452124D01*
X144298536Y-143449036D01*
X144465034Y-143282538D01*
X144473306Y-143279112D01*
X144477059Y-143279729D01*
G37*
%TD.AperFunction*%
%TD*%
%TA.AperFunction,Conductor*%
%TO.N,+3.3V*%
G36*
X158852106Y-143164428D02*
G01*
X159622215Y-143482438D01*
X159628552Y-143488761D01*
X159628562Y-143488785D01*
X159946567Y-144258883D01*
X159946558Y-144267838D01*
X159940219Y-144274163D01*
X159939629Y-144274388D01*
X158519251Y-144773031D01*
X158510309Y-144772539D01*
X158507102Y-144770265D01*
X158340734Y-144603897D01*
X158337307Y-144595624D01*
X158337968Y-144591748D01*
X158449461Y-144274163D01*
X158836612Y-143171368D01*
X158842584Y-143164699D01*
X158851526Y-143164207D01*
X158852106Y-143164428D01*
G37*
%TD.AperFunction*%
%TD*%
%TA.AperFunction,Conductor*%
%TO.N,+3.3V*%
G36*
X186625082Y-105307974D02*
G01*
X186628541Y-105310365D01*
X186795716Y-105477540D01*
X186799143Y-105485813D01*
X186798983Y-105487740D01*
X186610166Y-106618455D01*
X186605424Y-106626051D01*
X186599195Y-106628214D01*
X185427528Y-106685305D01*
X185419098Y-106682285D01*
X185416145Y-106678085D01*
X185093232Y-105896146D01*
X185093241Y-105887191D01*
X185099580Y-105880866D01*
X185099881Y-105880747D01*
X186616135Y-105307694D01*
X186625082Y-105307974D01*
G37*
%TD.AperFunction*%
%TD*%
%TA.AperFunction,Conductor*%
%TO.N,+3.3V*%
G36*
X184719692Y-105951999D02*
G01*
X185413261Y-106676912D01*
X185416504Y-106685258D01*
X185413261Y-106693088D01*
X184719692Y-107418000D01*
X184711496Y-107421609D01*
X184706222Y-107420482D01*
X184337257Y-107245359D01*
X183426683Y-106813171D01*
X183420679Y-106806528D01*
X183420000Y-106802601D01*
X183420000Y-106567398D01*
X183423427Y-106559125D01*
X183426683Y-106556828D01*
X184706224Y-105949516D01*
X184715165Y-105949066D01*
X184719692Y-105951999D01*
G37*
%TD.AperFunction*%
%TD*%
%TA.AperFunction,Conductor*%
%TO.N,+3.3V*%
G36*
X178513774Y-105949516D02*
G01*
X179793317Y-106556828D01*
X179799321Y-106563471D01*
X179800000Y-106567398D01*
X179800000Y-106802601D01*
X179796573Y-106810874D01*
X179793317Y-106813171D01*
X178513778Y-107420482D01*
X178504834Y-107420933D01*
X178500307Y-107418000D01*
X177921629Y-106813171D01*
X177806737Y-106693087D01*
X177803495Y-106684742D01*
X177806738Y-106676912D01*
X177921630Y-106556828D01*
X178500308Y-105951998D01*
X178508503Y-105948390D01*
X178513774Y-105949516D01*
G37*
%TD.AperFunction*%
%TD*%
%TA.AperFunction,Conductor*%
%TO.N,+3.3V*%
G36*
X127007585Y-134707801D02*
G01*
X127009027Y-134709027D01*
X127794197Y-135494197D01*
X127797624Y-135502470D01*
X127796520Y-135507431D01*
X127558777Y-136015270D01*
X127556454Y-136018582D01*
X127388186Y-136186850D01*
X127379913Y-136190277D01*
X127373048Y-136188051D01*
X127139171Y-136018582D01*
X126917216Y-135857751D01*
X126432939Y-135506840D01*
X126428250Y-135499211D01*
X126430305Y-135490535D01*
X126991257Y-134710467D01*
X126998867Y-134705753D01*
X127007585Y-134707801D01*
G37*
%TD.AperFunction*%
%TD*%
%TA.AperFunction,Conductor*%
%TO.N,+3.3V*%
G36*
X122711026Y-63697874D02*
G01*
X122714485Y-63700265D01*
X122881660Y-63867440D01*
X122885087Y-63875713D01*
X122884927Y-63877640D01*
X122696110Y-65008355D01*
X122691368Y-65015951D01*
X122685139Y-65018114D01*
X121513472Y-65075205D01*
X121505042Y-65072185D01*
X121502089Y-65067985D01*
X121179176Y-64286046D01*
X121179185Y-64277091D01*
X121185524Y-64270766D01*
X121185825Y-64270647D01*
X122702079Y-63697594D01*
X122711026Y-63697874D01*
G37*
%TD.AperFunction*%
%TD*%
%TA.AperFunction,Conductor*%
%TO.N,+3.3V*%
G36*
X167494061Y-68309112D02*
G01*
X168144211Y-68577437D01*
X168150551Y-68583761D01*
X168150562Y-68583788D01*
X168418884Y-69233932D01*
X168418873Y-69242887D01*
X168412533Y-69249211D01*
X168412092Y-69249382D01*
X167225169Y-69684053D01*
X167216222Y-69683681D01*
X167212873Y-69681340D01*
X167046659Y-69515126D01*
X167043232Y-69506853D01*
X167043945Y-69502835D01*
X167478618Y-68315905D01*
X167484679Y-68309316D01*
X167493626Y-68308944D01*
X167494061Y-68309112D01*
G37*
%TD.AperFunction*%
%TD*%
%TA.AperFunction,Conductor*%
%TO.N,+3.3V*%
G36*
X128279060Y-133248908D02*
G01*
X128282785Y-133251415D01*
X128448584Y-133417214D01*
X128452011Y-133425487D01*
X128451149Y-133429894D01*
X127804430Y-135020472D01*
X127798140Y-135026845D01*
X127789185Y-135026903D01*
X127789126Y-135026879D01*
X127003785Y-134702562D01*
X126997447Y-134696238D01*
X126673120Y-133910872D01*
X126673129Y-133901918D01*
X126679467Y-133895593D01*
X128270107Y-133248850D01*
X128279060Y-133248908D01*
G37*
%TD.AperFunction*%
%TD*%
%TA.AperFunction,Conductor*%
%TO.N,+3.3V*%
G36*
X121506845Y-65077614D02*
G01*
X121509798Y-65081814D01*
X121832711Y-65863753D01*
X121832702Y-65872708D01*
X121826363Y-65879033D01*
X121826033Y-65879163D01*
X120309811Y-66452205D01*
X120300861Y-66451925D01*
X120297402Y-66449534D01*
X120130227Y-66282359D01*
X120126800Y-66274086D01*
X120126960Y-66272159D01*
X120192586Y-65879163D01*
X120315777Y-65141440D01*
X120320518Y-65133847D01*
X120326746Y-65131684D01*
X121498415Y-65074594D01*
X121506845Y-65077614D01*
G37*
%TD.AperFunction*%
%TD*%
%TA.AperFunction,Conductor*%
%TO.N,+3.3V*%
G36*
X140218901Y-93484714D02*
G01*
X140221854Y-93488914D01*
X140544767Y-94270853D01*
X140544758Y-94279808D01*
X140538419Y-94286133D01*
X140538089Y-94286263D01*
X139021867Y-94859305D01*
X139012917Y-94859025D01*
X139009458Y-94856634D01*
X138842283Y-94689459D01*
X138838856Y-94681186D01*
X138839016Y-94679259D01*
X138904642Y-94286263D01*
X139027833Y-93548540D01*
X139032574Y-93540947D01*
X139038802Y-93538784D01*
X140210471Y-93481694D01*
X140218901Y-93484714D01*
G37*
%TD.AperFunction*%
%TD*%
%TA.AperFunction,Conductor*%
%TO.N,+3.3V*%
G36*
X167225165Y-67475945D02*
G01*
X168412092Y-67910617D01*
X168418683Y-67916679D01*
X168419055Y-67925626D01*
X168418884Y-67926067D01*
X168150562Y-68576211D01*
X168144238Y-68582551D01*
X168144211Y-68582562D01*
X167494067Y-68850884D01*
X167485112Y-68850873D01*
X167478788Y-68844533D01*
X167478617Y-68844092D01*
X167043946Y-67657167D01*
X167044318Y-67648222D01*
X167046656Y-67644876D01*
X167212874Y-67478658D01*
X167221146Y-67475232D01*
X167225165Y-67475945D01*
G37*
%TD.AperFunction*%
%TD*%
%TA.AperFunction,Conductor*%
%TO.N,+3.3V*%
G36*
X127808211Y-133906928D02*
G01*
X128595845Y-134571494D01*
X128599958Y-134579448D01*
X128600000Y-134580436D01*
X128600000Y-134819563D01*
X128596573Y-134827836D01*
X128595845Y-134828505D01*
X127808211Y-135493071D01*
X127799678Y-135495787D01*
X127792398Y-135492407D01*
X127332564Y-135033148D01*
X127007287Y-134708277D01*
X127003856Y-134700007D01*
X127007278Y-134691732D01*
X127007288Y-134691722D01*
X127118713Y-134580436D01*
X127792398Y-133907591D01*
X127800673Y-133904170D01*
X127808211Y-133906928D01*
G37*
%TD.AperFunction*%
%TD*%
%TA.AperFunction,Conductor*%
%TO.N,+3.3V*%
G36*
X108929878Y-99874833D02*
G01*
X108933185Y-99877154D01*
X109099445Y-100043414D01*
X109102872Y-100051687D01*
X109102174Y-100055667D01*
X108650764Y-101303641D01*
X108644728Y-101310255D01*
X108635782Y-101310663D01*
X108635298Y-101310476D01*
X107953788Y-101029162D01*
X107947448Y-101022838D01*
X107947437Y-101022811D01*
X107666123Y-100341301D01*
X107666134Y-100332346D01*
X107672474Y-100326022D01*
X107672920Y-100325849D01*
X108920934Y-99874425D01*
X108929878Y-99874833D01*
G37*
%TD.AperFunction*%
%TD*%
%TA.AperFunction,Conductor*%
%TO.N,Net-(C4-Pad2)*%
G36*
X155256724Y-62765932D02*
G01*
X155257240Y-62766161D01*
X156533317Y-63371828D01*
X156539321Y-63378471D01*
X156540000Y-63382398D01*
X156540000Y-63617601D01*
X156536573Y-63625874D01*
X156533317Y-63628171D01*
X155257251Y-64233833D01*
X155248307Y-64234284D01*
X155241664Y-64228280D01*
X155241430Y-64227753D01*
X155211898Y-64156690D01*
X154940864Y-63504487D01*
X154940854Y-63495538D01*
X155241430Y-62772245D01*
X155247769Y-62765921D01*
X155256724Y-62765932D01*
G37*
%TD.AperFunction*%
%TD*%
%TA.AperFunction,Conductor*%
%TO.N,Net-(C4-Pad2)*%
G36*
X159718335Y-62771719D02*
G01*
X159718569Y-62772246D01*
X160019134Y-63495510D01*
X160019144Y-63504463D01*
X160019135Y-63504485D01*
X160019134Y-63504490D01*
X159718569Y-64227753D01*
X159712230Y-64234078D01*
X159703275Y-64234067D01*
X159702748Y-64233833D01*
X158426683Y-63628171D01*
X158420679Y-63621528D01*
X158420000Y-63617601D01*
X158420000Y-63382398D01*
X158423427Y-63374125D01*
X158426683Y-63371828D01*
X159702749Y-62766165D01*
X159711692Y-62765715D01*
X159718335Y-62771719D01*
G37*
%TD.AperFunction*%
%TD*%
%TA.AperFunction,Conductor*%
%TO.N,Net-(C4-Pad2)*%
G36*
X146586956Y-65814288D02*
G01*
X146590212Y-65816585D01*
X146756527Y-65982900D01*
X146759954Y-65991173D01*
X146759275Y-65995100D01*
X146285229Y-67325681D01*
X146279225Y-67332324D01*
X146270281Y-67332775D01*
X146269743Y-67332569D01*
X145545787Y-67033675D01*
X145539448Y-67027350D01*
X145539437Y-67027325D01*
X145240543Y-66303369D01*
X145240554Y-66294414D01*
X145246893Y-66288089D01*
X145247389Y-66287898D01*
X146578014Y-65813837D01*
X146586956Y-65814288D01*
G37*
%TD.AperFunction*%
%TD*%
%TA.AperFunction,Conductor*%
%TO.N,Net-(C4-Pad2)*%
G36*
X154638335Y-62771719D02*
G01*
X154638569Y-62772246D01*
X154939134Y-63495510D01*
X154939144Y-63504463D01*
X154939135Y-63504485D01*
X154939134Y-63504490D01*
X154638569Y-64227753D01*
X154632230Y-64234078D01*
X154623275Y-64234067D01*
X154622748Y-64233833D01*
X153346683Y-63628171D01*
X153340679Y-63621528D01*
X153340000Y-63617601D01*
X153340000Y-63382398D01*
X153343427Y-63374125D01*
X153346683Y-63371828D01*
X154622749Y-62766165D01*
X154631692Y-62765715D01*
X154638335Y-62771719D01*
G37*
%TD.AperFunction*%
%TD*%
%TA.AperFunction,Conductor*%
%TO.N,Net-(U4-CAP+)*%
G36*
X111184253Y-108362734D02*
G01*
X111190577Y-108369074D01*
X111190764Y-108369558D01*
X111642174Y-109617532D01*
X111641766Y-109626478D01*
X111639445Y-109629785D01*
X111473185Y-109796045D01*
X111464912Y-109799472D01*
X111460933Y-109798774D01*
X110212958Y-109347364D01*
X110206344Y-109341328D01*
X110205936Y-109332382D01*
X110206109Y-109331931D01*
X110487437Y-108650387D01*
X110493759Y-108644049D01*
X111175300Y-108362723D01*
X111184253Y-108362734D01*
G37*
%TD.AperFunction*%
%TD*%
%TA.AperFunction,Conductor*%
%TO.N,Net-(U4-CAP+)*%
G36*
X115127291Y-113102850D02*
G01*
X116280702Y-113571943D01*
X116717448Y-113749568D01*
X116723820Y-113755859D01*
X116723878Y-113764814D01*
X116723854Y-113764873D01*
X116399450Y-114550213D01*
X116393124Y-114556551D01*
X116393101Y-114556561D01*
X115607763Y-114880791D01*
X115598808Y-114880780D01*
X115592484Y-114874442D01*
X114946248Y-113283892D01*
X114946308Y-113274937D01*
X114948811Y-113271218D01*
X115114614Y-113105415D01*
X115122886Y-113101989D01*
X115127291Y-113102850D01*
G37*
%TD.AperFunction*%
%TD*%
%TA.AperFunction,Conductor*%
%TO.N,Net-(U4-CAP-)*%
G36*
X117860870Y-113336723D02*
G01*
X119191457Y-113810771D01*
X119198099Y-113816774D01*
X119198550Y-113825718D01*
X119198344Y-113826256D01*
X118899450Y-114550212D01*
X118893125Y-114556551D01*
X118893100Y-114556562D01*
X118169144Y-114855456D01*
X118160189Y-114855445D01*
X118153864Y-114849106D01*
X118153668Y-114848596D01*
X117679612Y-113517984D01*
X117680063Y-113509043D01*
X117682357Y-113505790D01*
X117848676Y-113339471D01*
X117856948Y-113336045D01*
X117860870Y-113336723D01*
G37*
%TD.AperFunction*%
%TD*%
%TA.AperFunction,Conductor*%
%TO.N,Net-(U4-CAP-)*%
G36*
X116255309Y-108930448D02*
G01*
X116261633Y-108936788D01*
X116261622Y-108945743D01*
X116261412Y-108946218D01*
X115698156Y-110147864D01*
X115691542Y-110153900D01*
X115687562Y-110154598D01*
X115452438Y-110154598D01*
X115444165Y-110151171D01*
X115441844Y-110147864D01*
X114878587Y-108946218D01*
X114878179Y-108937272D01*
X114884215Y-108930658D01*
X114884665Y-108930458D01*
X115565510Y-108647465D01*
X115574462Y-108647455D01*
X116255309Y-108930448D01*
G37*
%TD.AperFunction*%
%TD*%
%TA.AperFunction,Conductor*%
%TO.N,-3V3*%
G36*
X115869143Y-100334977D02*
G01*
X115869608Y-100335182D01*
X117071264Y-100898443D01*
X117077300Y-100905057D01*
X117077998Y-100909037D01*
X117077998Y-101144162D01*
X117074571Y-101152435D01*
X117071264Y-101154756D01*
X115869618Y-101718012D01*
X115860672Y-101718420D01*
X115854058Y-101712384D01*
X115853848Y-101711909D01*
X115570865Y-101031089D01*
X115570855Y-101022136D01*
X115853849Y-100341288D01*
X115860188Y-100334966D01*
X115869143Y-100334977D01*
G37*
%TD.AperFunction*%
%TD*%
%TA.AperFunction,Conductor*%
%TO.N,-3V3*%
G36*
X124158340Y-100338818D02*
G01*
X124158459Y-100339095D01*
X124459134Y-101062623D01*
X124459144Y-101071576D01*
X124459135Y-101071598D01*
X124459134Y-101071603D01*
X124158702Y-101794546D01*
X124152363Y-101800871D01*
X124143408Y-101800860D01*
X124142590Y-101800483D01*
X122874450Y-101154854D01*
X122868632Y-101148046D01*
X122868058Y-101144427D01*
X122868058Y-100909192D01*
X122871485Y-100900919D01*
X122874991Y-100898507D01*
X124142889Y-100332899D01*
X124151840Y-100332659D01*
X124158340Y-100338818D01*
G37*
%TD.AperFunction*%
%TD*%
%TA.AperFunction,Conductor*%
%TO.N,-3V3*%
G36*
X121513505Y-72700302D02*
G01*
X122297631Y-73364253D01*
X122301730Y-73372214D01*
X122299516Y-73380086D01*
X121634449Y-74290104D01*
X121626801Y-74294761D01*
X121625003Y-74294900D01*
X121386885Y-74294900D01*
X121378612Y-74291473D01*
X121377439Y-74290104D01*
X120712371Y-73380086D01*
X120710256Y-73371384D01*
X120714255Y-73364254D01*
X121498383Y-72700301D01*
X121506912Y-72697571D01*
X121513505Y-72700302D01*
G37*
%TD.AperFunction*%
%TD*%
%TA.AperFunction,Conductor*%
%TO.N,-3V3*%
G36*
X152097059Y-143279729D02*
G01*
X152596877Y-143449033D01*
X153786854Y-143852113D01*
X153793590Y-143858013D01*
X153794182Y-143866949D01*
X153793914Y-143867662D01*
X153418562Y-144776215D01*
X153412235Y-144782553D01*
X153412215Y-144782562D01*
X152503662Y-145157914D01*
X152494708Y-145157905D01*
X152488381Y-145151567D01*
X152488113Y-145150854D01*
X152049548Y-143856120D01*
X151915730Y-143461059D01*
X151916322Y-143452124D01*
X151918536Y-143449036D01*
X152085034Y-143282538D01*
X152093306Y-143279112D01*
X152097059Y-143279729D01*
G37*
%TD.AperFunction*%
%TD*%
%TA.AperFunction,Conductor*%
%TO.N,-3V3*%
G36*
X116549878Y-99874833D02*
G01*
X116553185Y-99877154D01*
X116719445Y-100043414D01*
X116722872Y-100051687D01*
X116722174Y-100055667D01*
X116270764Y-101303641D01*
X116264728Y-101310255D01*
X116255782Y-101310663D01*
X116255298Y-101310476D01*
X115573788Y-101029162D01*
X115567448Y-101022838D01*
X115567437Y-101022811D01*
X115286123Y-100341301D01*
X115286134Y-100332346D01*
X115292474Y-100326022D01*
X115292920Y-100325849D01*
X116540934Y-99874425D01*
X116549878Y-99874833D01*
G37*
%TD.AperFunction*%
%TD*%
%TA.AperFunction,Conductor*%
%TO.N,-3V3*%
G36*
X131897569Y-100368870D02*
G01*
X132591261Y-101093912D01*
X132594504Y-101102258D01*
X132591261Y-101110088D01*
X131897841Y-101834844D01*
X131889645Y-101838453D01*
X131884119Y-101837203D01*
X130611371Y-101195356D01*
X130605527Y-101188571D01*
X130604939Y-101184909D01*
X130604939Y-100949677D01*
X130608366Y-100941404D01*
X130611835Y-100939008D01*
X131884314Y-100366288D01*
X131893264Y-100366018D01*
X131897569Y-100368870D01*
G37*
%TD.AperFunction*%
%TD*%
%TA.AperFunction,Conductor*%
%TO.N,-3V3*%
G36*
X124776724Y-100333045D02*
G01*
X124777240Y-100333274D01*
X126053317Y-100938941D01*
X126059321Y-100945584D01*
X126060000Y-100949511D01*
X126060000Y-101184714D01*
X126056573Y-101192987D01*
X126053317Y-101195284D01*
X124777251Y-101800946D01*
X124768307Y-101801397D01*
X124761664Y-101795393D01*
X124761430Y-101794866D01*
X124731898Y-101723803D01*
X124460864Y-101071600D01*
X124460854Y-101062651D01*
X124761430Y-100339358D01*
X124767769Y-100333034D01*
X124776724Y-100333045D01*
G37*
%TD.AperFunction*%
%TD*%
%TA.AperFunction,Conductor*%
%TO.N,-3V3*%
G36*
X136249109Y-103780719D02*
G01*
X136255427Y-103787066D01*
X136255551Y-103795655D01*
X136017859Y-104424437D01*
X136011728Y-104430964D01*
X136006915Y-104432000D01*
X135773085Y-104432000D01*
X135764812Y-104428573D01*
X135762141Y-104424437D01*
X135524448Y-103795655D01*
X135524728Y-103786705D01*
X135530889Y-103780719D01*
X135885500Y-103632875D01*
X135894449Y-103632855D01*
X136249109Y-103780719D01*
G37*
%TD.AperFunction*%
%TD*%
%TA.AperFunction,Conductor*%
%TO.N,-3V3*%
G36*
X177800901Y-109227714D02*
G01*
X177803854Y-109231914D01*
X178126767Y-110013853D01*
X178126758Y-110022808D01*
X178120419Y-110029133D01*
X178120089Y-110029263D01*
X176603867Y-110602305D01*
X176594917Y-110602025D01*
X176591458Y-110599634D01*
X176424283Y-110432459D01*
X176420856Y-110424186D01*
X176421016Y-110422259D01*
X176486642Y-110029263D01*
X176609833Y-109291540D01*
X176614574Y-109283947D01*
X176620802Y-109281784D01*
X177792471Y-109224694D01*
X177800901Y-109227714D01*
G37*
%TD.AperFunction*%
%TD*%
%TA.AperFunction,Conductor*%
%TO.N,Net-(U3-IN2+)*%
G36*
X164372252Y-98758541D02*
G01*
X164388939Y-98765431D01*
X165096212Y-99057437D01*
X165102551Y-99063762D01*
X165102562Y-99063787D01*
X165401456Y-99787743D01*
X165401445Y-99796698D01*
X165395106Y-99803023D01*
X165394568Y-99803229D01*
X164063987Y-100277275D01*
X164055043Y-100276824D01*
X164051787Y-100274527D01*
X163885472Y-100108212D01*
X163882045Y-100099939D01*
X163882722Y-100096018D01*
X164356771Y-98765428D01*
X164362774Y-98758788D01*
X164371718Y-98758337D01*
X164372252Y-98758541D01*
G37*
%TD.AperFunction*%
%TD*%
%TA.AperFunction,Conductor*%
%TO.N,Net-(U3-IN2+)*%
G36*
X140225820Y-101106088D02*
G01*
X141184174Y-101644988D01*
X141189705Y-101652030D01*
X141188637Y-101660921D01*
X141188368Y-101661374D01*
X140696006Y-102451381D01*
X140694350Y-102453466D01*
X140526079Y-102621737D01*
X140517806Y-102625164D01*
X140510311Y-102622448D01*
X139602046Y-101864722D01*
X139597888Y-101856791D01*
X139600518Y-101848291D01*
X140211065Y-101108835D01*
X140218973Y-101104639D01*
X140225820Y-101106088D01*
G37*
%TD.AperFunction*%
%TD*%
%TA.AperFunction,Conductor*%
%TO.N,Net-(U3-IN2+)*%
G36*
X140225410Y-101107580D02*
G01*
X140988614Y-101785301D01*
X140992524Y-101793357D01*
X140990098Y-101801211D01*
X140433866Y-102519972D01*
X140296918Y-102696938D01*
X140296513Y-102697461D01*
X140288739Y-102701906D01*
X140287260Y-102702000D01*
X140049146Y-102702000D01*
X140040873Y-102698573D01*
X140039512Y-102696938D01*
X139403045Y-101773217D01*
X139401172Y-101764460D01*
X139405325Y-101757481D01*
X140210290Y-101107227D01*
X140218878Y-101104695D01*
X140225410Y-101107580D01*
G37*
%TD.AperFunction*%
%TD*%
%TA.AperFunction,Conductor*%
%TO.N,Net-(U3-IN2+)*%
G36*
X140293875Y-107623427D02*
G01*
X140296172Y-107626683D01*
X140901833Y-108902748D01*
X140902284Y-108911692D01*
X140896280Y-108918335D01*
X140895753Y-108918569D01*
X140172490Y-109219134D01*
X140163536Y-109219144D01*
X140163510Y-109219134D01*
X139440246Y-108918569D01*
X139433921Y-108912230D01*
X139433932Y-108903275D01*
X139434154Y-108902773D01*
X140039828Y-107626682D01*
X140046471Y-107620679D01*
X140050398Y-107620000D01*
X140285602Y-107620000D01*
X140293875Y-107623427D01*
G37*
%TD.AperFunction*%
%TD*%
%TA.AperFunction,Conductor*%
%TO.N,Conditioned_EEG*%
G36*
X186133774Y-116109516D02*
G01*
X187413317Y-116716828D01*
X187419321Y-116723471D01*
X187420000Y-116727398D01*
X187420000Y-116962601D01*
X187416573Y-116970874D01*
X187413317Y-116973171D01*
X186133778Y-117580482D01*
X186124834Y-117580933D01*
X186120307Y-117578000D01*
X185541629Y-116973171D01*
X185426737Y-116853087D01*
X185423495Y-116844742D01*
X185426738Y-116836912D01*
X185541630Y-116716828D01*
X186120308Y-116111998D01*
X186128503Y-116108390D01*
X186133774Y-116109516D01*
G37*
%TD.AperFunction*%
%TD*%
%TA.AperFunction,Conductor*%
%TO.N,Conditioned_EEG*%
G36*
X196570062Y-99059990D02*
G01*
X196578331Y-99063425D01*
X196581598Y-99069808D01*
X196827787Y-100580429D01*
X196825735Y-100589146D01*
X196818121Y-100593859D01*
X196816239Y-100594011D01*
X196582466Y-100594011D01*
X196577743Y-100593015D01*
X195207775Y-99988494D01*
X195201589Y-99982019D01*
X195201686Y-99973318D01*
X195577007Y-99066232D01*
X195583335Y-99059899D01*
X195587824Y-99059007D01*
X196570062Y-99059990D01*
G37*
%TD.AperFunction*%
%TD*%
%TA.AperFunction,Conductor*%
%TO.N,Conditioned_EEG*%
G36*
X159961836Y-132544791D02*
G01*
X159962413Y-132545049D01*
X161319366Y-133196814D01*
X161325339Y-133203484D01*
X161326000Y-133207360D01*
X161326000Y-133442639D01*
X161322573Y-133450912D01*
X161319366Y-133453186D01*
X159962413Y-134104950D01*
X159953471Y-134105442D01*
X159946800Y-134099469D01*
X159946542Y-134098892D01*
X159626865Y-133329489D01*
X159626856Y-133320534D01*
X159626865Y-133320511D01*
X159946542Y-132551107D01*
X159952881Y-132544782D01*
X159961836Y-132544791D01*
G37*
%TD.AperFunction*%
%TD*%
%TA.AperFunction,Conductor*%
%TO.N,Conditioned_EEG*%
G36*
X194543982Y-118162723D02*
G01*
X195874569Y-118636771D01*
X195881211Y-118642774D01*
X195881662Y-118651718D01*
X195881456Y-118652256D01*
X195582562Y-119376212D01*
X195576237Y-119382551D01*
X195576212Y-119382562D01*
X194852256Y-119681456D01*
X194843301Y-119681445D01*
X194836976Y-119675106D01*
X194836780Y-119674596D01*
X194362724Y-118343984D01*
X194363175Y-118335043D01*
X194365469Y-118331790D01*
X194531788Y-118165471D01*
X194540060Y-118162045D01*
X194543982Y-118162723D01*
G37*
%TD.AperFunction*%
%TD*%
%TA.AperFunction,Conductor*%
%TO.N,Conditioned_EEG*%
G36*
X196821708Y-118249417D02*
G01*
X196825135Y-118257690D01*
X196824462Y-118261602D01*
X196323219Y-119674546D01*
X196317223Y-119681197D01*
X196308280Y-119681661D01*
X196307727Y-119681449D01*
X195584490Y-119382853D01*
X195578151Y-119376528D01*
X195578143Y-119376510D01*
X195278789Y-118652829D01*
X195278794Y-118643874D01*
X195285129Y-118637545D01*
X195286207Y-118637160D01*
X196578343Y-118246491D01*
X196581729Y-118245990D01*
X196813435Y-118245990D01*
X196821708Y-118249417D01*
G37*
%TD.AperFunction*%
%TD*%
%TA.AperFunction,Conductor*%
%TO.N,Conditioned_EEG*%
G36*
X184719692Y-116111999D02*
G01*
X185413261Y-116836912D01*
X185416504Y-116845258D01*
X185413261Y-116853088D01*
X184719692Y-117578000D01*
X184711496Y-117581609D01*
X184706222Y-117580482D01*
X184337257Y-117405359D01*
X183426683Y-116973171D01*
X183420679Y-116966528D01*
X183420000Y-116962601D01*
X183420000Y-116727398D01*
X183423427Y-116719125D01*
X183426683Y-116716828D01*
X184706224Y-116109516D01*
X184715165Y-116109066D01*
X184719692Y-116111999D01*
G37*
%TD.AperFunction*%
%TD*%
%TA.AperFunction,Conductor*%
%TO.N,Net-(C8-Pad2)*%
G36*
X161483982Y-82602723D02*
G01*
X162814569Y-83076771D01*
X162821211Y-83082774D01*
X162821662Y-83091718D01*
X162821456Y-83092256D01*
X162522562Y-83816212D01*
X162516237Y-83822551D01*
X162516212Y-83822562D01*
X161792256Y-84121456D01*
X161783301Y-84121445D01*
X161776976Y-84115106D01*
X161776780Y-84114596D01*
X161302724Y-82783984D01*
X161303175Y-82775043D01*
X161305469Y-82771790D01*
X161471788Y-82605471D01*
X161480060Y-82602045D01*
X161483982Y-82602723D01*
G37*
%TD.AperFunction*%
%TD*%
%TA.AperFunction,Conductor*%
%TO.N,Net-(C8-Pad2)*%
G36*
X163256698Y-83518554D02*
G01*
X163263023Y-83524893D01*
X163263227Y-83525426D01*
X163631495Y-84559104D01*
X163737275Y-84856012D01*
X163736824Y-84864956D01*
X163734527Y-84868212D01*
X163568212Y-85034527D01*
X163559939Y-85037954D01*
X163556013Y-85037275D01*
X162225430Y-84563228D01*
X162218788Y-84557225D01*
X162218337Y-84548281D01*
X162218536Y-84547760D01*
X162517438Y-83823785D01*
X162523762Y-83817448D01*
X162523764Y-83817446D01*
X163247744Y-83518543D01*
X163256698Y-83518554D01*
G37*
%TD.AperFunction*%
%TD*%
%TA.AperFunction,Conductor*%
%TO.N,Net-(C8-Pad2)*%
G36*
X160676690Y-73931898D02*
G01*
X160747753Y-73961430D01*
X160754078Y-73967769D01*
X160754067Y-73976724D01*
X160753833Y-73977251D01*
X160148172Y-75253317D01*
X160141529Y-75259321D01*
X160137602Y-75260000D01*
X159902398Y-75260000D01*
X159894125Y-75256573D01*
X159891828Y-75253317D01*
X159286166Y-73977251D01*
X159285715Y-73968307D01*
X159291719Y-73961664D01*
X159292234Y-73961434D01*
X160015512Y-73660864D01*
X160024461Y-73660854D01*
X160676690Y-73931898D01*
G37*
%TD.AperFunction*%
%TD*%
%TA.AperFunction,Conductor*%
%TO.N,Net-(C8-Pad2)*%
G36*
X165225875Y-87303427D02*
G01*
X165228172Y-87306683D01*
X165833833Y-88582748D01*
X165834284Y-88591692D01*
X165828280Y-88598335D01*
X165827753Y-88598569D01*
X165104490Y-88899134D01*
X165095536Y-88899144D01*
X165095510Y-88899134D01*
X164372246Y-88598569D01*
X164365921Y-88592230D01*
X164365932Y-88583275D01*
X164366154Y-88582773D01*
X164971828Y-87306682D01*
X164978471Y-87300679D01*
X164982398Y-87300000D01*
X165217602Y-87300000D01*
X165225875Y-87303427D01*
G37*
%TD.AperFunction*%
%TD*%
%TA.AperFunction,Conductor*%
%TO.N,Net-(U3-IN2-)*%
G36*
X144463430Y-102631215D02*
G01*
X144463701Y-102631495D01*
X145337963Y-103566061D01*
X145341113Y-103574444D01*
X145337702Y-103582317D01*
X144786238Y-104135162D01*
X144777970Y-104138599D01*
X144773472Y-104137706D01*
X144050031Y-103837642D01*
X144043702Y-103831307D01*
X144043111Y-103824215D01*
X144277909Y-102802710D01*
X144281037Y-102797062D01*
X144446885Y-102631214D01*
X144455157Y-102627788D01*
X144463430Y-102631215D01*
G37*
%TD.AperFunction*%
%TD*%
%TA.AperFunction,Conductor*%
%TO.N,Net-(U3-IN2-)*%
G36*
X149980754Y-102859058D02*
G01*
X149984181Y-102867331D01*
X149984154Y-102868122D01*
X149898738Y-104129104D01*
X149894760Y-104137126D01*
X149887080Y-104140013D01*
X149105833Y-104140990D01*
X149097555Y-104137573D01*
X149095006Y-104133762D01*
X148795770Y-103410366D01*
X148795775Y-103401411D01*
X148800723Y-103395767D01*
X149594995Y-102936572D01*
X149732283Y-102857202D01*
X149738139Y-102855631D01*
X149972481Y-102855631D01*
X149980754Y-102859058D01*
G37*
%TD.AperFunction*%
%TD*%
%TA.AperFunction,Conductor*%
%TO.N,Net-(U3-IN2-)*%
G36*
X150516690Y-99331898D02*
G01*
X150587753Y-99361430D01*
X150594078Y-99367769D01*
X150594067Y-99376724D01*
X150593833Y-99377251D01*
X149988172Y-100653317D01*
X149981529Y-100659321D01*
X149977602Y-100660000D01*
X149742398Y-100660000D01*
X149734125Y-100656573D01*
X149731828Y-100653317D01*
X149126166Y-99377251D01*
X149125715Y-99368307D01*
X149131719Y-99361664D01*
X149132234Y-99361434D01*
X149855512Y-99060864D01*
X149864461Y-99060854D01*
X150516690Y-99331898D01*
G37*
%TD.AperFunction*%
%TD*%
%TA.AperFunction,Conductor*%
%TO.N,Net-(U3-IN2-)*%
G36*
X141397195Y-98618784D02*
G01*
X141405292Y-98622609D01*
X141408166Y-98628543D01*
X141596983Y-99759259D01*
X141594966Y-99767984D01*
X141593716Y-99769459D01*
X141426541Y-99936634D01*
X141418268Y-99940061D01*
X141414133Y-99939305D01*
X140896983Y-99743853D01*
X139897910Y-99366263D01*
X139891382Y-99360133D01*
X139891102Y-99351183D01*
X139891232Y-99350853D01*
X140214146Y-98568912D01*
X140220470Y-98562575D01*
X140225526Y-98561694D01*
X141397195Y-98618784D01*
G37*
%TD.AperFunction*%
%TD*%
%TA.AperFunction,Conductor*%
%TO.N,Net-(U3-IN2-)*%
G36*
X145096724Y-103405932D02*
G01*
X145097240Y-103406161D01*
X146373317Y-104011828D01*
X146379321Y-104018471D01*
X146380000Y-104022398D01*
X146380000Y-104257601D01*
X146376573Y-104265874D01*
X146373317Y-104268171D01*
X145097251Y-104873833D01*
X145088307Y-104874284D01*
X145081664Y-104868280D01*
X145081430Y-104867753D01*
X145051898Y-104796690D01*
X144780864Y-104144487D01*
X144780854Y-104135538D01*
X145081430Y-103412245D01*
X145087769Y-103405921D01*
X145096724Y-103405932D01*
G37*
%TD.AperFunction*%
%TD*%
%TA.AperFunction,Conductor*%
%TO.N,Net-(U3-IN2-)*%
G36*
X148796335Y-103411719D02*
G01*
X148796569Y-103412246D01*
X149097134Y-104135510D01*
X149097144Y-104144463D01*
X149097135Y-104144485D01*
X149097134Y-104144490D01*
X148796569Y-104867753D01*
X148790230Y-104874078D01*
X148781275Y-104874067D01*
X148780748Y-104873833D01*
X147504683Y-104268171D01*
X147498679Y-104261528D01*
X147498000Y-104257601D01*
X147498000Y-104022398D01*
X147501427Y-104014125D01*
X147504683Y-104011828D01*
X148780749Y-103406165D01*
X148789692Y-103405715D01*
X148796335Y-103411719D01*
G37*
%TD.AperFunction*%
%TD*%
%TA.AperFunction,Conductor*%
%TO.N,Net-(U2-SW)*%
G36*
X114660109Y-133036028D02*
G01*
X114663521Y-133038397D01*
X114829665Y-133204541D01*
X114833092Y-133212814D01*
X114832355Y-133216902D01*
X114419850Y-134323027D01*
X114413748Y-134329581D01*
X114404799Y-134329902D01*
X114404424Y-134329755D01*
X114404002Y-134329581D01*
X114243704Y-134263440D01*
X113795790Y-134078625D01*
X113789450Y-134072301D01*
X113789437Y-134072272D01*
X113538307Y-133463636D01*
X113538320Y-133454683D01*
X113544660Y-133448359D01*
X113544994Y-133448227D01*
X114651163Y-133035707D01*
X114660109Y-133036028D01*
G37*
%TD.AperFunction*%
%TD*%
%TA.AperFunction,Conductor*%
%TO.N,Net-(R2-Pad2)*%
G36*
X106545803Y-54520921D02*
G01*
X107516772Y-55305596D01*
X107521053Y-55313461D01*
X107518518Y-55322050D01*
X107517691Y-55322969D01*
X107352171Y-55488489D01*
X107347326Y-55491402D01*
X106288253Y-55815989D01*
X106279339Y-55815137D01*
X106274019Y-55809287D01*
X105974236Y-55086525D01*
X105974232Y-55077572D01*
X105976777Y-55073766D01*
X106530188Y-54521736D01*
X106538464Y-54518321D01*
X106545803Y-54520921D01*
G37*
%TD.AperFunction*%
%TD*%
%TA.AperFunction,Conductor*%
%TO.N,Net-(R2-Pad2)*%
G36*
X115091026Y-68777874D02*
G01*
X115094485Y-68780265D01*
X115261660Y-68947440D01*
X115265087Y-68955713D01*
X115264927Y-68957640D01*
X115076110Y-70088355D01*
X115071368Y-70095951D01*
X115065139Y-70098114D01*
X113893472Y-70155205D01*
X113885042Y-70152185D01*
X113882089Y-70147985D01*
X113559176Y-69366046D01*
X113559185Y-69357091D01*
X113565524Y-69350766D01*
X113565825Y-69350647D01*
X115082079Y-68777594D01*
X115091026Y-68777874D01*
G37*
%TD.AperFunction*%
%TD*%
%TA.AperFunction,Conductor*%
%TO.N,Net-(U2-OSEL)*%
G36*
X121640698Y-122126554D02*
G01*
X121647023Y-122132893D01*
X121647227Y-122133426D01*
X122015495Y-123167104D01*
X122121275Y-123464012D01*
X122120824Y-123472956D01*
X122118527Y-123476212D01*
X121952212Y-123642527D01*
X121943939Y-123645954D01*
X121940013Y-123645275D01*
X120609430Y-123171228D01*
X120602788Y-123165225D01*
X120602337Y-123156281D01*
X120602536Y-123155760D01*
X120901438Y-122431785D01*
X120907762Y-122425448D01*
X120907764Y-122425446D01*
X121631744Y-122126543D01*
X121640698Y-122126554D01*
G37*
%TD.AperFunction*%
%TD*%
%TA.AperFunction,Conductor*%
%TO.N,Net-(U3-IN1+)*%
G36*
X131401862Y-97184693D02*
G01*
X132918089Y-97757736D01*
X132924617Y-97763866D01*
X132924897Y-97772816D01*
X132924767Y-97773146D01*
X132601854Y-98555085D01*
X132595529Y-98561424D01*
X132590471Y-98562305D01*
X131418803Y-98505214D01*
X131410706Y-98501389D01*
X131407833Y-98495457D01*
X131219016Y-97364740D01*
X131221033Y-97356015D01*
X131222277Y-97354546D01*
X131389459Y-97187364D01*
X131397731Y-97183938D01*
X131401862Y-97184693D01*
G37*
%TD.AperFunction*%
%TD*%
%TA.AperFunction,Conductor*%
%TO.N,Net-(U3-IN1+)*%
G36*
X132622252Y-86058541D02*
G01*
X132638939Y-86065431D01*
X133346212Y-86357437D01*
X133352551Y-86363762D01*
X133352562Y-86363787D01*
X133651456Y-87087743D01*
X133651445Y-87096698D01*
X133645106Y-87103023D01*
X133644568Y-87103229D01*
X132313987Y-87577275D01*
X132305043Y-87576824D01*
X132301787Y-87574527D01*
X132135472Y-87408212D01*
X132132045Y-87399939D01*
X132132722Y-87396018D01*
X132606771Y-86065428D01*
X132612774Y-86058788D01*
X132621718Y-86058337D01*
X132622252Y-86058541D01*
G37*
%TD.AperFunction*%
%TD*%
%TA.AperFunction,Conductor*%
%TO.N,Net-(U3-IN1-)*%
G36*
X133803082Y-94644974D02*
G01*
X133806541Y-94647365D01*
X133973716Y-94814540D01*
X133977143Y-94822813D01*
X133976983Y-94824740D01*
X133788166Y-95955455D01*
X133783424Y-95963051D01*
X133777195Y-95965214D01*
X132605528Y-96022305D01*
X132597098Y-96019285D01*
X132594145Y-96015085D01*
X132271232Y-95233146D01*
X132271241Y-95224191D01*
X132277580Y-95217866D01*
X132277881Y-95217747D01*
X133794135Y-94644694D01*
X133803082Y-94644974D01*
G37*
%TD.AperFunction*%
%TD*%
%TA.AperFunction,Conductor*%
%TO.N,Net-(U3-IN1-)*%
G36*
X145270954Y-80625623D02*
G01*
X145271144Y-80626056D01*
X145541133Y-81275509D01*
X145541144Y-81284464D01*
X145541133Y-81284491D01*
X145271144Y-81933943D01*
X145264804Y-81940267D01*
X145255849Y-81940256D01*
X145255416Y-81940066D01*
X144108776Y-81408143D01*
X144102714Y-81401552D01*
X144102000Y-81397529D01*
X144102000Y-81162470D01*
X144105427Y-81154197D01*
X144108773Y-81151857D01*
X145255418Y-80619932D01*
X145264363Y-80619561D01*
X145270954Y-80625623D01*
G37*
%TD.AperFunction*%
%TD*%
%TA.AperFunction,Conductor*%
%TO.N,Net-(U3-IN1-)*%
G36*
X139340690Y-86631898D02*
G01*
X139411753Y-86661430D01*
X139418078Y-86667769D01*
X139418067Y-86676724D01*
X139417833Y-86677251D01*
X138812172Y-87953317D01*
X138805529Y-87959321D01*
X138801602Y-87960000D01*
X138566398Y-87960000D01*
X138558125Y-87956573D01*
X138555828Y-87953317D01*
X137950166Y-86677251D01*
X137949715Y-86668307D01*
X137955719Y-86661664D01*
X137956234Y-86661434D01*
X138679512Y-86360864D01*
X138688461Y-86360854D01*
X139340690Y-86631898D01*
G37*
%TD.AperFunction*%
%TD*%
%TA.AperFunction,Conductor*%
%TO.N,Net-(U3-IN1-)*%
G36*
X139728956Y-85143175D02*
G01*
X139732212Y-85145472D01*
X139898527Y-85311787D01*
X139901954Y-85320060D01*
X139901275Y-85323987D01*
X139427229Y-86654568D01*
X139421225Y-86661211D01*
X139412281Y-86661662D01*
X139411743Y-86661456D01*
X138687787Y-86362562D01*
X138681448Y-86356237D01*
X138681437Y-86356212D01*
X138382543Y-85632256D01*
X138382554Y-85623301D01*
X138388893Y-85616976D01*
X138389389Y-85616785D01*
X139720014Y-85142724D01*
X139728956Y-85143175D01*
G37*
%TD.AperFunction*%
%TD*%
%TA.AperFunction,Conductor*%
%TO.N,Net-(U1-OUT)*%
G36*
X122219718Y-66879416D02*
G01*
X123499261Y-67486728D01*
X123505265Y-67493371D01*
X123505944Y-67497298D01*
X123505944Y-67732501D01*
X123502517Y-67740774D01*
X123499261Y-67743071D01*
X122219722Y-68350382D01*
X122210778Y-68350833D01*
X122206251Y-68347900D01*
X121627573Y-67743071D01*
X121512681Y-67622987D01*
X121509439Y-67614642D01*
X121512682Y-67606812D01*
X121627574Y-67486728D01*
X122206252Y-66881898D01*
X122214447Y-66878290D01*
X122219718Y-66879416D01*
G37*
%TD.AperFunction*%
%TD*%
%TA.AperFunction,Conductor*%
%TO.N,Net-(U1-OUT)*%
G36*
X127034629Y-66796550D02*
G01*
X127756779Y-67495205D01*
X127819333Y-67555723D01*
X127822896Y-67563939D01*
X127819607Y-67572267D01*
X127819466Y-67572410D01*
X127034202Y-68356694D01*
X127025927Y-68360116D01*
X127018737Y-68357641D01*
X126231391Y-67743412D01*
X126226976Y-67735621D01*
X126226888Y-67734187D01*
X126226888Y-67495205D01*
X126230315Y-67486932D01*
X126230868Y-67486412D01*
X127018786Y-66796158D01*
X127027266Y-66793285D01*
X127034629Y-66796550D01*
G37*
%TD.AperFunction*%
%TD*%
%TA.AperFunction,Conductor*%
%TO.N,BAT+*%
G36*
X113921791Y-146406958D02*
G01*
X113922106Y-146407653D01*
X114299136Y-147315513D01*
X114299145Y-147324467D01*
X114299136Y-147324487D01*
X113922106Y-148232346D01*
X113915768Y-148238673D01*
X113906814Y-148238664D01*
X113906126Y-148238352D01*
X113373138Y-147975080D01*
X112306518Y-147448219D01*
X112300618Y-147441483D01*
X112300000Y-147437729D01*
X112300000Y-147202270D01*
X112303427Y-147193997D01*
X112306516Y-147191781D01*
X113906122Y-146401649D01*
X113915055Y-146401058D01*
X113921791Y-146406958D01*
G37*
%TD.AperFunction*%
%TD*%
%TA.AperFunction,Conductor*%
%TO.N,BAT+*%
G36*
X98441284Y-137005210D02*
G01*
X98447337Y-137011809D01*
X98447555Y-137012466D01*
X98820910Y-138261371D01*
X98819996Y-138270279D01*
X98817973Y-138272995D01*
X98651969Y-138438999D01*
X98643696Y-138442426D01*
X98638677Y-138441294D01*
X98106032Y-138188271D01*
X97497014Y-137898968D01*
X97491011Y-137892323D01*
X97491413Y-137883492D01*
X97787252Y-137243705D01*
X97793833Y-137237637D01*
X98432338Y-137004825D01*
X98441284Y-137005210D01*
G37*
%TD.AperFunction*%
%TD*%
%TA.AperFunction,Conductor*%
%TO.N,STAGE_1_OUT*%
G36*
X130983578Y-67835898D02*
G01*
X131054641Y-67865430D01*
X131060966Y-67871769D01*
X131060955Y-67880724D01*
X131060721Y-67881251D01*
X130455060Y-69157317D01*
X130448417Y-69163321D01*
X130444490Y-69164000D01*
X130209286Y-69164000D01*
X130201013Y-69160573D01*
X130198716Y-69157317D01*
X129593054Y-67881251D01*
X129592603Y-67872307D01*
X129598607Y-67865664D01*
X129599122Y-67865434D01*
X130322400Y-67564864D01*
X130331349Y-67564854D01*
X130983578Y-67835898D01*
G37*
%TD.AperFunction*%
%TD*%
%TA.AperFunction,Conductor*%
%TO.N,STAGE_1_OUT*%
G36*
X130983578Y-67835898D02*
G01*
X131054641Y-67865430D01*
X131060966Y-67871769D01*
X131060955Y-67880724D01*
X131060721Y-67881251D01*
X130455060Y-69157317D01*
X130448417Y-69163321D01*
X130444490Y-69164000D01*
X130209286Y-69164000D01*
X130201013Y-69160573D01*
X130198716Y-69157317D01*
X129593054Y-67881251D01*
X129592603Y-67872307D01*
X129598607Y-67865664D01*
X129599122Y-67865434D01*
X130322400Y-67564864D01*
X130331349Y-67564854D01*
X130983578Y-67835898D01*
G37*
%TD.AperFunction*%
%TD*%
%TA.AperFunction,Conductor*%
%TO.N,STAGE_1_OUT*%
G36*
X129314956Y-74983175D02*
G01*
X129318212Y-74985472D01*
X129484527Y-75151787D01*
X129487954Y-75160060D01*
X129487275Y-75163987D01*
X129013229Y-76494568D01*
X129007225Y-76501211D01*
X128998281Y-76501662D01*
X128997743Y-76501456D01*
X128273787Y-76202562D01*
X128267448Y-76196237D01*
X128267437Y-76196212D01*
X127968543Y-75472256D01*
X127968554Y-75463301D01*
X127974893Y-75456976D01*
X127975389Y-75456785D01*
X129306014Y-74982724D01*
X129314956Y-74983175D01*
G37*
%TD.AperFunction*%
%TD*%
%TA.AperFunction,Conductor*%
%TO.N,STAGE_1_OUT*%
G36*
X132960323Y-58784594D02*
G01*
X132992346Y-58797893D01*
X132998673Y-58804231D01*
X132998664Y-58813185D01*
X132998349Y-58813880D01*
X132208220Y-60413482D01*
X132201484Y-60419382D01*
X132197730Y-60420000D01*
X131962270Y-60420000D01*
X131953997Y-60416573D01*
X131951780Y-60413482D01*
X131161649Y-58813878D01*
X131161058Y-58804944D01*
X131166958Y-58798208D01*
X131167642Y-58797897D01*
X132075514Y-58420862D01*
X132084464Y-58420854D01*
X132960323Y-58784594D01*
G37*
%TD.AperFunction*%
%TD*%
%TA.AperFunction,Conductor*%
%TO.N,STAGE_1_OUT*%
G36*
X131371844Y-66347175D02*
G01*
X131375100Y-66349472D01*
X131541415Y-66515787D01*
X131544842Y-66524060D01*
X131544163Y-66527987D01*
X131070117Y-67858568D01*
X131064113Y-67865211D01*
X131055169Y-67865662D01*
X131054631Y-67865456D01*
X130330675Y-67566562D01*
X130324336Y-67560237D01*
X130324325Y-67560212D01*
X130025431Y-66836256D01*
X130025442Y-66827301D01*
X130031781Y-66820976D01*
X130032277Y-66820785D01*
X131362902Y-66346724D01*
X131371844Y-66347175D01*
G37*
%TD.AperFunction*%
%TD*%
%TA.AperFunction,Conductor*%
%TO.N,STAGE_1_OUT*%
G36*
X133043045Y-75464598D02*
G01*
X133047642Y-75470031D01*
X133347706Y-76193472D01*
X133347711Y-76202427D01*
X133345162Y-76206238D01*
X132792317Y-76757702D01*
X132784039Y-76761119D01*
X132776061Y-76757963D01*
X131841495Y-75883701D01*
X131837794Y-75875547D01*
X131840944Y-75867164D01*
X131841184Y-75866915D01*
X132007062Y-75701037D01*
X132012710Y-75697909D01*
X133034215Y-75463111D01*
X133043045Y-75464598D01*
G37*
%TD.AperFunction*%
%TD*%
%TA.AperFunction,Conductor*%
%TO.N,STAGE_2_OUT*%
G36*
X146340081Y-69204242D02*
G01*
X146346406Y-69210581D01*
X146346430Y-69210640D01*
X146993149Y-70801218D01*
X146993091Y-70810173D01*
X146990584Y-70813898D01*
X146824785Y-70979697D01*
X146816512Y-70983124D01*
X146812106Y-70982262D01*
X146366835Y-70801218D01*
X145221527Y-70335543D01*
X145215154Y-70329253D01*
X145215096Y-70320298D01*
X145539438Y-69534896D01*
X145545759Y-69528561D01*
X146331127Y-69204233D01*
X146340081Y-69204242D01*
G37*
%TD.AperFunction*%
%TD*%
%TA.AperFunction,Conductor*%
%TO.N,STAGE_2_OUT*%
G36*
X145270954Y-78085623D02*
G01*
X145271144Y-78086056D01*
X145541133Y-78735509D01*
X145541144Y-78744464D01*
X145541133Y-78744491D01*
X145271144Y-79393943D01*
X145264804Y-79400267D01*
X145255849Y-79400256D01*
X145255416Y-79400066D01*
X144108776Y-78868143D01*
X144102714Y-78861552D01*
X144102000Y-78857529D01*
X144102000Y-78622470D01*
X144105427Y-78614197D01*
X144108773Y-78611857D01*
X145255418Y-78079932D01*
X145264363Y-78079561D01*
X145270954Y-78085623D01*
G37*
%TD.AperFunction*%
%TD*%
%TA.AperFunction,Conductor*%
%TO.N,STAGE_2_OUT*%
G36*
X144885835Y-78468202D02*
G01*
X145516858Y-78729188D01*
X145523193Y-78735517D01*
X145523198Y-78744472D01*
X145516869Y-78750807D01*
X145516858Y-78750812D01*
X144885835Y-79011797D01*
X144876880Y-79011792D01*
X144871522Y-79007314D01*
X144781859Y-78867890D01*
X144780000Y-78861561D01*
X144780000Y-78618438D01*
X144781859Y-78612109D01*
X144871523Y-78472684D01*
X144878880Y-78467581D01*
X144885835Y-78468202D01*
G37*
%TD.AperFunction*%
%TD*%
%TA.AperFunction,Conductor*%
%TO.N,STAGE_2_OUT*%
G36*
X133877060Y-92030908D02*
G01*
X133880785Y-92033415D01*
X134047592Y-92200222D01*
X134051019Y-92208495D01*
X134050769Y-92210902D01*
X133799841Y-93404611D01*
X133794785Y-93412002D01*
X133789066Y-93413885D01*
X132605604Y-93482227D01*
X132597147Y-93479282D01*
X132594115Y-93475012D01*
X132271120Y-92692873D01*
X132271129Y-92683918D01*
X132277467Y-92677593D01*
X133868107Y-92030850D01*
X133877060Y-92030908D01*
G37*
%TD.AperFunction*%
%TD*%
%TA.AperFunction,Conductor*%
%TO.N,STAGE_2_OUT*%
G36*
X144780447Y-58422426D02*
G01*
X144782993Y-58426234D01*
X145158603Y-59334021D01*
X145158600Y-59342976D01*
X145153241Y-59348848D01*
X144118184Y-59893589D01*
X143928978Y-59993168D01*
X143907558Y-60004441D01*
X143902109Y-60005787D01*
X143667659Y-60005787D01*
X143659386Y-60002360D01*
X143655959Y-59994087D01*
X143655995Y-59993168D01*
X143779151Y-58430770D01*
X143783218Y-58422791D01*
X143790802Y-58419989D01*
X144772172Y-58419007D01*
X144780447Y-58422426D01*
G37*
%TD.AperFunction*%
%TD*%
%TA.AperFunction,Conductor*%
%TO.N,STAGE_2_OUT*%
G36*
X146473777Y-77636318D02*
G01*
X146477126Y-77638659D01*
X146643340Y-77804873D01*
X146646767Y-77813146D01*
X146646053Y-77817169D01*
X146211382Y-79004092D01*
X146205320Y-79010683D01*
X146196373Y-79011055D01*
X146195932Y-79010884D01*
X145545788Y-78742562D01*
X145539449Y-78736238D01*
X145271115Y-78086066D01*
X145271126Y-78077112D01*
X145277466Y-78070788D01*
X145277867Y-78070632D01*
X146464832Y-77635946D01*
X146473777Y-77636318D01*
G37*
%TD.AperFunction*%
%TD*%
%TA.AperFunction,Conductor*%
%TO.N,STAGE_2_OUT*%
G36*
X144271890Y-68079962D02*
G01*
X145766219Y-68687546D01*
X145862472Y-68726682D01*
X145868845Y-68732972D01*
X145868903Y-68741927D01*
X145868879Y-68741986D01*
X145544562Y-69527327D01*
X145538237Y-69533666D01*
X145538214Y-69533675D01*
X144752873Y-69857992D01*
X144743918Y-69857983D01*
X144737593Y-69851644D01*
X144737569Y-69851585D01*
X144605728Y-69527327D01*
X144090850Y-68261005D01*
X144090908Y-68252052D01*
X144093412Y-68248330D01*
X144259215Y-68082527D01*
X144267487Y-68079101D01*
X144271890Y-68079962D01*
G37*
%TD.AperFunction*%
%TD*%
%TA.AperFunction,Conductor*%
%TO.N,Net-(J11-Pin_1)*%
G36*
X108635309Y-108930448D02*
G01*
X108641633Y-108936788D01*
X108641622Y-108945743D01*
X108641412Y-108946218D01*
X108078156Y-110147864D01*
X108071542Y-110153900D01*
X108067562Y-110154598D01*
X107832438Y-110154598D01*
X107824165Y-110151171D01*
X107821844Y-110147864D01*
X107258587Y-108946218D01*
X107258179Y-108937272D01*
X107264215Y-108930658D01*
X107264665Y-108930458D01*
X107945510Y-108647465D01*
X107954462Y-108647455D01*
X108635309Y-108930448D01*
G37*
%TD.AperFunction*%
%TD*%
%TA.AperFunction,Conductor*%
%TO.N,Net-(J11-Pin_1)*%
G36*
X108076003Y-112303427D02*
G01*
X108078220Y-112306518D01*
X108868349Y-113906119D01*
X108868941Y-113915055D01*
X108863041Y-113921791D01*
X108862346Y-113922106D01*
X107954487Y-114299136D01*
X107945533Y-114299145D01*
X107945513Y-114299136D01*
X107037653Y-113922106D01*
X107031326Y-113915768D01*
X107031335Y-113906814D01*
X107031635Y-113906150D01*
X107821780Y-112306517D01*
X107828516Y-112300618D01*
X107832270Y-112300000D01*
X108067730Y-112300000D01*
X108076003Y-112303427D01*
G37*
%TD.AperFunction*%
%TD*%
%TA.AperFunction,Conductor*%
%TO.N,/EEG_IN-*%
G36*
X90652104Y-64855935D02*
G01*
X90658430Y-64862272D01*
X90658670Y-64862904D01*
X91245132Y-66552534D01*
X91244608Y-66561473D01*
X91242352Y-66564643D01*
X91040587Y-66766408D01*
X91032314Y-66769835D01*
X91028478Y-66769188D01*
X89338848Y-66182726D01*
X89332155Y-66176776D01*
X89331631Y-66167837D01*
X89331871Y-66167205D01*
X89713383Y-65243779D01*
X89719704Y-65237447D01*
X90643150Y-64855927D01*
X90652104Y-64855935D01*
G37*
%TD.AperFunction*%
%TD*%
%TA.AperFunction,Conductor*%
%TO.N,/EEG_IN-*%
G36*
X113886796Y-65077617D02*
G01*
X113889828Y-65081887D01*
X114212882Y-65864170D01*
X114212873Y-65873125D01*
X114206619Y-65879415D01*
X112633579Y-66543587D01*
X112624624Y-66543648D01*
X112620755Y-66541081D01*
X112418765Y-66339091D01*
X112415338Y-66330818D01*
X112415631Y-66328215D01*
X112521514Y-65864170D01*
X112683988Y-65152100D01*
X112689170Y-65144798D01*
X112694719Y-65143023D01*
X113878341Y-65074672D01*
X113886796Y-65077617D01*
G37*
%TD.AperFunction*%
%TD*%
%TA.AperFunction,Conductor*%
%TO.N,/EEG_IN-*%
G36*
X100612820Y-64938480D02*
G01*
X100619145Y-64944819D01*
X100619288Y-64945183D01*
X101110741Y-66258253D01*
X101110431Y-66267202D01*
X101108056Y-66270627D01*
X100906571Y-66472112D01*
X100898298Y-66475539D01*
X100894197Y-66474797D01*
X99581127Y-65983344D01*
X99574580Y-65977234D01*
X99574270Y-65968285D01*
X99574392Y-65967972D01*
X99873382Y-65243785D01*
X99879706Y-65237448D01*
X99879708Y-65237446D01*
X100603867Y-64938469D01*
X100612820Y-64938480D01*
G37*
%TD.AperFunction*%
%TD*%
%TA.AperFunction,Conductor*%
%TO.N,/EEG_IN-*%
G36*
X99147990Y-64938456D02*
G01*
X99872156Y-65237437D01*
X99878495Y-65243762D01*
X99878506Y-65243787D01*
X100177474Y-65967921D01*
X100177463Y-65976876D01*
X100171124Y-65983201D01*
X100170760Y-65983344D01*
X98857690Y-66474797D01*
X98848741Y-66474487D01*
X98845316Y-66472112D01*
X98643831Y-66270627D01*
X98640404Y-66262354D01*
X98641145Y-66258258D01*
X99132599Y-64945182D01*
X99138709Y-64938636D01*
X99147658Y-64938326D01*
X99147990Y-64938456D01*
G37*
%TD.AperFunction*%
%TD*%
%TA.AperFunction,Conductor*%
%TO.N,/EEG_IN-*%
G36*
X89866885Y-63227427D02*
G01*
X89869141Y-63230597D01*
X90649199Y-64840040D01*
X90649723Y-64848979D01*
X90643773Y-64855672D01*
X90643157Y-64855948D01*
X89720431Y-65239136D01*
X89711476Y-65239144D01*
X89711457Y-65239136D01*
X88788730Y-64855948D01*
X88782404Y-64849611D01*
X88782412Y-64840656D01*
X88782688Y-64840040D01*
X89562747Y-63230597D01*
X89569440Y-63224647D01*
X89573276Y-63224000D01*
X89858612Y-63224000D01*
X89866885Y-63227427D01*
G37*
%TD.AperFunction*%
%TD*%
%TA.AperFunction,Conductor*%
%TO.N,/EEG_IN-*%
G36*
X90704007Y-58198340D02*
G01*
X90710333Y-58204677D01*
X90710324Y-58213631D01*
X90709855Y-58214627D01*
X89869242Y-59799243D01*
X89862337Y-59804945D01*
X89858906Y-59805460D01*
X89573610Y-59805460D01*
X89565337Y-59802033D01*
X89562883Y-59798432D01*
X88872872Y-58214182D01*
X88872710Y-58205229D01*
X88878927Y-58198783D01*
X88878942Y-58198776D01*
X89787514Y-57821450D01*
X89796464Y-57821442D01*
X90704007Y-58198340D01*
G37*
%TD.AperFunction*%
%TD*%
%TA.AperFunction,Conductor*%
%TO.N,/EEG_IN+*%
G36*
X89866845Y-76526698D02*
G01*
X89869126Y-76529921D01*
X90634500Y-78129463D01*
X90634980Y-78138405D01*
X90628996Y-78145067D01*
X90628433Y-78145318D01*
X89720431Y-78522407D01*
X89711477Y-78522416D01*
X89711457Y-78522407D01*
X88803454Y-78145318D01*
X88797127Y-78138980D01*
X88797136Y-78130026D01*
X88797387Y-78129463D01*
X89562762Y-76529921D01*
X89569424Y-76523937D01*
X89573316Y-76523271D01*
X89858572Y-76523271D01*
X89866845Y-76526698D01*
G37*
%TD.AperFunction*%
%TD*%
%TA.AperFunction,Conductor*%
%TO.N,/EEG_IN+*%
G36*
X90643157Y-70704051D02*
G01*
X90649483Y-70710388D01*
X90649475Y-70719343D01*
X90649199Y-70719959D01*
X89869141Y-72329403D01*
X89862448Y-72335353D01*
X89858612Y-72336000D01*
X89573276Y-72336000D01*
X89565003Y-72332573D01*
X89562747Y-72329403D01*
X88782688Y-70719959D01*
X88782164Y-70711020D01*
X88788114Y-70704327D01*
X88788702Y-70704063D01*
X89711457Y-70320862D01*
X89720410Y-70320855D01*
X90643157Y-70704051D01*
G37*
%TD.AperFunction*%
%TD*%
%TA.AperFunction,Conductor*%
%TO.N,/EEG_IN+*%
G36*
X91037417Y-68791335D02*
G01*
X91040587Y-68793591D01*
X91242352Y-68995356D01*
X91245779Y-69003629D01*
X91245132Y-69007465D01*
X90658670Y-70697095D01*
X90652720Y-70703788D01*
X90643781Y-70704312D01*
X90643149Y-70704072D01*
X90092057Y-70476389D01*
X89719725Y-70322561D01*
X89713390Y-70316237D01*
X89331871Y-69392793D01*
X89331879Y-69383839D01*
X89338216Y-69377513D01*
X89338832Y-69377279D01*
X91028480Y-68790811D01*
X91037417Y-68791335D01*
G37*
%TD.AperFunction*%
%TD*%
%TA.AperFunction,Conductor*%
%TO.N,/EEG_IN+*%
G36*
X113185539Y-71961797D02*
G01*
X113879205Y-72686812D01*
X113882448Y-72695158D01*
X113879205Y-72702988D01*
X113185539Y-73428002D01*
X113177343Y-73431611D01*
X113172237Y-73430562D01*
X113166614Y-73428002D01*
X112975387Y-73340934D01*
X111892796Y-72848019D01*
X111886686Y-72841472D01*
X111885944Y-72837371D01*
X111885944Y-72552428D01*
X111889371Y-72544155D01*
X111892796Y-72541780D01*
X113172239Y-71959236D01*
X113181186Y-71958927D01*
X113185539Y-71961797D01*
G37*
%TD.AperFunction*%
%TD*%
%TA.AperFunction,Conductor*%
%TO.N,/EEG_IN+*%
G36*
X100192742Y-69585752D02*
G01*
X100193074Y-69585896D01*
X101469092Y-70166880D01*
X101475202Y-70173427D01*
X101475944Y-70177528D01*
X101475944Y-70462471D01*
X101472517Y-70470744D01*
X101469092Y-70473119D01*
X100193100Y-71054091D01*
X100184151Y-71054401D01*
X100177604Y-71048291D01*
X100177463Y-71047967D01*
X99876808Y-70324487D01*
X99876798Y-70315538D01*
X100177449Y-69592064D01*
X100183787Y-69585741D01*
X100192742Y-69585752D01*
G37*
%TD.AperFunction*%
%TD*%
%TA.AperFunction,Conductor*%
%TO.N,/EEG_IN+*%
G36*
X98857686Y-69085201D02*
G01*
X100170760Y-69576655D01*
X100177307Y-69582765D01*
X100177617Y-69591714D01*
X100177474Y-69592078D01*
X99878506Y-70316212D01*
X99872181Y-70322551D01*
X99872156Y-70322562D01*
X99148022Y-70621530D01*
X99139067Y-70621519D01*
X99132742Y-70615180D01*
X99132599Y-70614816D01*
X98749675Y-69591714D01*
X98641146Y-69301744D01*
X98641456Y-69292797D01*
X98643828Y-69289375D01*
X98845317Y-69087886D01*
X98853589Y-69084460D01*
X98857686Y-69085201D01*
G37*
%TD.AperFunction*%
%TD*%
%TA.AperFunction,Conductor*%
%TO.N,Net-(U2-EN)*%
G36*
X104368698Y-129234617D02*
G01*
X104375023Y-129240956D01*
X104375227Y-129241489D01*
X104743495Y-130275167D01*
X104849275Y-130572075D01*
X104848824Y-130581019D01*
X104846527Y-130584275D01*
X104680212Y-130750590D01*
X104671939Y-130754017D01*
X104668013Y-130753338D01*
X103337430Y-130279291D01*
X103330788Y-130273288D01*
X103330337Y-130264344D01*
X103330536Y-130263823D01*
X103629438Y-129539848D01*
X103635762Y-129533511D01*
X103635764Y-129533509D01*
X104359744Y-129234606D01*
X104368698Y-129234617D01*
G37*
%TD.AperFunction*%
%TD*%
%TA.AperFunction,Conductor*%
%TO.N,Net-(U2-EN)*%
G36*
X104676956Y-128319238D02*
G01*
X104680212Y-128321535D01*
X104846527Y-128487850D01*
X104849954Y-128496123D01*
X104849275Y-128500050D01*
X104375229Y-129830631D01*
X104369225Y-129837274D01*
X104360281Y-129837725D01*
X104359743Y-129837519D01*
X103635787Y-129538625D01*
X103629448Y-129532300D01*
X103629437Y-129532275D01*
X103330543Y-128808319D01*
X103330554Y-128799364D01*
X103336893Y-128793039D01*
X103337389Y-128792848D01*
X104668014Y-128318787D01*
X104676956Y-128319238D01*
G37*
%TD.AperFunction*%
%TD*%
%TA.AperFunction,Conductor*%
%TO.N,Net-(U2-EN)*%
G36*
X114413379Y-119822383D02*
G01*
X114419703Y-119828723D01*
X114419850Y-119829098D01*
X114832355Y-120935223D01*
X114832034Y-120944172D01*
X114829665Y-120947584D01*
X114663521Y-121113728D01*
X114655248Y-121117155D01*
X114651161Y-121116418D01*
X114056294Y-120894576D01*
X113545035Y-120703913D01*
X113538481Y-120697811D01*
X113538160Y-120688862D01*
X113538284Y-120688544D01*
X113789437Y-120079852D01*
X113795761Y-120073513D01*
X113795776Y-120073506D01*
X114404426Y-119822370D01*
X114413379Y-119822383D01*
G37*
%TD.AperFunction*%
%TD*%
%TA.AperFunction,Conductor*%
%TO.N,Net-(U2-EN)*%
G36*
X113322988Y-119607044D02*
G01*
X113323383Y-119607420D01*
X113789262Y-120071922D01*
X113792701Y-120080190D01*
X113792701Y-120080219D01*
X113792013Y-120737907D01*
X113788577Y-120746177D01*
X113780301Y-120749595D01*
X113778936Y-120749514D01*
X112724796Y-120624547D01*
X112717900Y-120621201D01*
X112551878Y-120455179D01*
X112548451Y-120446906D01*
X112551490Y-120439040D01*
X113306462Y-119607838D01*
X113314560Y-119604018D01*
X113322988Y-119607044D01*
G37*
%TD.AperFunction*%
%TD*%
%TA.AperFunction,Conductor*%
%TO.N,Net-(C10-Pad1)*%
G36*
X150176724Y-93325932D02*
G01*
X150177240Y-93326161D01*
X151453317Y-93931828D01*
X151459321Y-93938471D01*
X151460000Y-93942398D01*
X151460000Y-94177601D01*
X151456573Y-94185874D01*
X151453317Y-94188171D01*
X150177251Y-94793833D01*
X150168307Y-94794284D01*
X150161664Y-94788280D01*
X150161430Y-94787753D01*
X150131898Y-94716690D01*
X149860864Y-94064487D01*
X149860854Y-94055538D01*
X150161430Y-93332245D01*
X150167769Y-93325921D01*
X150176724Y-93325932D01*
G37*
%TD.AperFunction*%
%TD*%
%TA.AperFunction,Conductor*%
%TO.N,Net-(C10-Pad1)*%
G36*
X157178335Y-93331719D02*
G01*
X157178569Y-93332246D01*
X157479134Y-94055510D01*
X157479144Y-94064463D01*
X157479135Y-94064485D01*
X157479134Y-94064490D01*
X157178569Y-94787753D01*
X157172230Y-94794078D01*
X157163275Y-94794067D01*
X157162748Y-94793833D01*
X155886683Y-94188171D01*
X155880679Y-94181528D01*
X155880000Y-94177601D01*
X155880000Y-93942398D01*
X155883427Y-93934125D01*
X155886683Y-93931828D01*
X157162749Y-93326165D01*
X157171692Y-93325715D01*
X157178335Y-93331719D01*
G37*
%TD.AperFunction*%
%TD*%
%TA.AperFunction,Conductor*%
%TO.N,Net-(C10-Pad1)*%
G36*
X169878311Y-93251788D02*
G01*
X169878834Y-93252882D01*
X170179134Y-93975510D01*
X170179144Y-93984463D01*
X170179135Y-93984485D01*
X170179134Y-93984490D01*
X169878351Y-94708278D01*
X169872012Y-94714603D01*
X169863057Y-94714592D01*
X168603101Y-94188004D01*
X168596789Y-94181652D01*
X168595913Y-94177209D01*
X168595913Y-93941959D01*
X168599340Y-93933686D01*
X168602029Y-93931678D01*
X169862447Y-93247090D01*
X169871351Y-93246153D01*
X169878311Y-93251788D01*
G37*
%TD.AperFunction*%
%TD*%
%TA.AperFunction,Conductor*%
%TO.N,Net-(C10-Pad1)*%
G36*
X157796724Y-93325932D02*
G01*
X157797240Y-93326161D01*
X159073317Y-93931828D01*
X159079321Y-93938471D01*
X159080000Y-93942398D01*
X159080000Y-94177601D01*
X159076573Y-94185874D01*
X159073317Y-94188171D01*
X157797251Y-94793833D01*
X157788307Y-94794284D01*
X157781664Y-94788280D01*
X157781430Y-94787753D01*
X157751898Y-94716690D01*
X157480864Y-94064487D01*
X157480854Y-94055538D01*
X157781430Y-93332245D01*
X157787769Y-93325921D01*
X157796724Y-93325932D01*
G37*
%TD.AperFunction*%
%TD*%
%TA.AperFunction,Conductor*%
%TO.N,Net-(C10-Pad1)*%
G36*
X170496724Y-93245932D02*
G01*
X170497240Y-93246161D01*
X171773317Y-93851828D01*
X171779321Y-93858471D01*
X171780000Y-93862398D01*
X171780000Y-94097601D01*
X171776573Y-94105874D01*
X171773317Y-94108171D01*
X170497251Y-94713833D01*
X170488307Y-94714284D01*
X170481664Y-94708280D01*
X170481430Y-94707753D01*
X170451898Y-94636690D01*
X170180864Y-93984487D01*
X170180854Y-93975538D01*
X170481430Y-93252245D01*
X170487769Y-93245921D01*
X170496724Y-93245932D01*
G37*
%TD.AperFunction*%
%TD*%
%TA.AperFunction,Conductor*%
%TO.N,Net-(C10-Pad1)*%
G36*
X174278489Y-93187592D02*
G01*
X175063599Y-93971722D01*
X175067031Y-93979993D01*
X175063609Y-93988268D01*
X175063599Y-93988278D01*
X174278489Y-94772407D01*
X174270214Y-94775829D01*
X174262676Y-94773071D01*
X173475043Y-94108505D01*
X173470930Y-94100551D01*
X173470888Y-94099563D01*
X173470888Y-93860436D01*
X173474315Y-93852163D01*
X173475043Y-93851494D01*
X174262677Y-93186927D01*
X174271209Y-93184212D01*
X174278489Y-93187592D01*
G37*
%TD.AperFunction*%
%TD*%
%TA.AperFunction,Conductor*%
%TO.N,Net-(C10-Pad1)*%
G36*
X157645683Y-92471383D02*
G01*
X157648094Y-92474886D01*
X158214208Y-93742887D01*
X158214451Y-93751839D01*
X158208294Y-93758341D01*
X158208014Y-93758461D01*
X157484490Y-94059134D01*
X157475536Y-94059144D01*
X156752562Y-93758701D01*
X156746237Y-93752362D01*
X156746248Y-93743407D01*
X156746624Y-93742592D01*
X157391747Y-92474351D01*
X157398552Y-92468531D01*
X157402175Y-92467956D01*
X157637410Y-92467956D01*
X157645683Y-92471383D01*
G37*
%TD.AperFunction*%
%TD*%
%TA.AperFunction,Conductor*%
%TO.N,Net-(C10-Pad1)*%
G36*
X158176690Y-84091898D02*
G01*
X158247753Y-84121430D01*
X158254078Y-84127769D01*
X158254067Y-84136724D01*
X158253833Y-84137251D01*
X157648172Y-85413317D01*
X157641529Y-85419321D01*
X157637602Y-85420000D01*
X157402398Y-85420000D01*
X157394125Y-85416573D01*
X157391828Y-85413317D01*
X156786166Y-84137251D01*
X156785715Y-84128307D01*
X156791719Y-84121664D01*
X156792234Y-84121434D01*
X157515512Y-83820864D01*
X157524461Y-83820854D01*
X158176690Y-84091898D01*
G37*
%TD.AperFunction*%
%TD*%
%TA.AperFunction,Conductor*%
%TO.N,Net-(C10-Pad1)*%
G36*
X149558342Y-93331699D02*
G01*
X149558351Y-93331721D01*
X149859134Y-94055510D01*
X149859144Y-94064463D01*
X149859135Y-94064485D01*
X149859134Y-94064490D01*
X149558834Y-94787117D01*
X149552495Y-94793442D01*
X149543540Y-94793431D01*
X149542446Y-94792908D01*
X148282029Y-94108321D01*
X148276394Y-94101361D01*
X148275913Y-94098040D01*
X148275913Y-93862790D01*
X148279340Y-93854517D01*
X148283097Y-93851997D01*
X149543038Y-93325415D01*
X149551990Y-93325387D01*
X149558342Y-93331699D01*
G37*
%TD.AperFunction*%
%TD*%
%TA.AperFunction,Conductor*%
%TO.N,Net-(C10-Pad1)*%
G36*
X145096724Y-93245932D02*
G01*
X145097240Y-93246161D01*
X146373317Y-93851828D01*
X146379321Y-93858471D01*
X146380000Y-93862398D01*
X146380000Y-94097601D01*
X146376573Y-94105874D01*
X146373317Y-94108171D01*
X145097251Y-94713833D01*
X145088307Y-94714284D01*
X145081664Y-94708280D01*
X145081430Y-94707753D01*
X145051898Y-94636690D01*
X144780864Y-93984487D01*
X144780854Y-93975538D01*
X145081430Y-93252245D01*
X145087769Y-93245921D01*
X145096724Y-93245932D01*
G37*
%TD.AperFunction*%
%TD*%
%TA.AperFunction,Conductor*%
%TO.N,Net-(U3-OUT2)*%
G36*
X156443982Y-97842723D02*
G01*
X157774569Y-98316771D01*
X157781211Y-98322774D01*
X157781662Y-98331718D01*
X157781456Y-98332256D01*
X157482562Y-99056212D01*
X157476237Y-99062551D01*
X157476212Y-99062562D01*
X156752256Y-99361456D01*
X156743301Y-99361445D01*
X156736976Y-99355106D01*
X156736780Y-99354596D01*
X156262724Y-98023984D01*
X156263175Y-98015043D01*
X156265469Y-98011790D01*
X156431788Y-97845471D01*
X156440060Y-97842045D01*
X156443982Y-97842723D01*
G37*
%TD.AperFunction*%
%TD*%
%TA.AperFunction,Conductor*%
%TO.N,Net-(U3-OUT2)*%
G36*
X140931774Y-95286516D02*
G01*
X142211317Y-95893828D01*
X142217321Y-95900471D01*
X142218000Y-95904398D01*
X142218000Y-96139601D01*
X142214573Y-96147874D01*
X142211317Y-96150171D01*
X140931778Y-96757482D01*
X140922834Y-96757933D01*
X140918307Y-96755000D01*
X140339629Y-96150171D01*
X140224737Y-96030087D01*
X140221495Y-96021742D01*
X140224738Y-96013912D01*
X140339630Y-95893828D01*
X140918308Y-95288998D01*
X140926503Y-95285390D01*
X140931774Y-95286516D01*
G37*
%TD.AperFunction*%
%TD*%
%TA.AperFunction,Conductor*%
%TO.N,Net-(C11-Pad2)*%
G36*
X182578335Y-88171719D02*
G01*
X182578569Y-88172246D01*
X182879134Y-88895510D01*
X182879144Y-88904463D01*
X182879135Y-88904485D01*
X182879134Y-88904490D01*
X182578569Y-89627753D01*
X182572230Y-89634078D01*
X182563275Y-89634067D01*
X182562748Y-89633833D01*
X181286683Y-89028171D01*
X181280679Y-89021528D01*
X181280000Y-89017601D01*
X181280000Y-88782398D01*
X181283427Y-88774125D01*
X181286683Y-88771828D01*
X182562749Y-88166165D01*
X182571692Y-88165715D01*
X182578335Y-88171719D01*
G37*
%TD.AperFunction*%
%TD*%
%TA.AperFunction,Conductor*%
%TO.N,Net-(C11-Pad2)*%
G36*
X178116724Y-88165932D02*
G01*
X178117240Y-88166161D01*
X179393317Y-88771828D01*
X179399321Y-88778471D01*
X179400000Y-88782398D01*
X179400000Y-89017601D01*
X179396573Y-89025874D01*
X179393317Y-89028171D01*
X178117251Y-89633833D01*
X178108307Y-89634284D01*
X178101664Y-89628280D01*
X178101430Y-89627753D01*
X178071898Y-89556690D01*
X177800864Y-88904487D01*
X177800854Y-88895538D01*
X178101430Y-88172245D01*
X178107769Y-88165921D01*
X178116724Y-88165932D01*
G37*
%TD.AperFunction*%
%TD*%
%TA.AperFunction,Conductor*%
%TO.N,Net-(C11-Pad2)*%
G36*
X177805534Y-88904544D02*
G01*
X178358862Y-89458850D01*
X178362282Y-89467126D01*
X178360269Y-89473678D01*
X177699369Y-90449289D01*
X177691891Y-90454216D01*
X177689682Y-90454427D01*
X177454523Y-90454427D01*
X177446250Y-90451000D01*
X177443343Y-90446175D01*
X177064032Y-89216315D01*
X177064868Y-89207400D01*
X177070720Y-89202064D01*
X177792766Y-88902005D01*
X177801719Y-88901995D01*
X177805534Y-88904544D01*
G37*
%TD.AperFunction*%
%TD*%
%TA.AperFunction,Conductor*%
%TO.N,Net-(C11-Pad2)*%
G36*
X177696763Y-92383427D02*
G01*
X177699060Y-92386683D01*
X178304721Y-93662748D01*
X178305172Y-93671692D01*
X178299168Y-93678335D01*
X178298641Y-93678569D01*
X177575378Y-93979134D01*
X177566424Y-93979144D01*
X177566398Y-93979134D01*
X176843134Y-93678569D01*
X176836809Y-93672230D01*
X176836820Y-93663275D01*
X176837042Y-93662773D01*
X177442716Y-92386682D01*
X177449359Y-92380679D01*
X177453286Y-92380000D01*
X177688490Y-92380000D01*
X177696763Y-92383427D01*
G37*
%TD.AperFunction*%
%TD*%
%TA.AperFunction,Conductor*%
%TO.N,Net-(D1-A)*%
G36*
X93313950Y-144033643D02*
G01*
X93314550Y-144033912D01*
X94752410Y-144731801D01*
X94758355Y-144738496D01*
X94759000Y-144742326D01*
X94759000Y-144977673D01*
X94755573Y-144985946D01*
X94752409Y-144988199D01*
X93314571Y-145686077D01*
X93305632Y-145686606D01*
X93298936Y-145680660D01*
X93298657Y-145680039D01*
X92959864Y-144864488D01*
X92959855Y-144855534D01*
X92959864Y-144855512D01*
X93298658Y-144039958D01*
X93304996Y-144033634D01*
X93313950Y-144033643D01*
G37*
%TD.AperFunction*%
%TD*%
%TA.AperFunction,Conductor*%
%TO.N,Net-(D1-A)*%
G36*
X97488335Y-144131719D02*
G01*
X97488569Y-144132246D01*
X97789134Y-144855510D01*
X97789144Y-144864463D01*
X97789135Y-144864485D01*
X97789134Y-144864490D01*
X97488569Y-145587753D01*
X97482230Y-145594078D01*
X97473275Y-145594067D01*
X97472748Y-145593833D01*
X96196683Y-144988171D01*
X96190679Y-144981528D01*
X96190000Y-144977601D01*
X96190000Y-144742398D01*
X96193427Y-144734125D01*
X96196683Y-144731828D01*
X97472749Y-144126165D01*
X97481692Y-144125715D01*
X97488335Y-144131719D01*
G37*
%TD.AperFunction*%
%TD*%
%TA.AperFunction,Conductor*%
%TO.N,CLK*%
G36*
X181852106Y-138084428D02*
G01*
X182622215Y-138402438D01*
X182628552Y-138408761D01*
X182628562Y-138408785D01*
X182946567Y-139178883D01*
X182946558Y-139187838D01*
X182940219Y-139194163D01*
X182939629Y-139194388D01*
X181519251Y-139693031D01*
X181510309Y-139692539D01*
X181507102Y-139690265D01*
X181340734Y-139523897D01*
X181337307Y-139515624D01*
X181337968Y-139511748D01*
X181449461Y-139194163D01*
X181836612Y-138091368D01*
X181842584Y-138084699D01*
X181851526Y-138084207D01*
X181852106Y-138084428D01*
G37*
%TD.AperFunction*%
%TD*%
%TA.AperFunction,Conductor*%
%TO.N,CLK*%
G36*
X177800901Y-104147714D02*
G01*
X177803854Y-104151914D01*
X178126767Y-104933853D01*
X178126758Y-104942808D01*
X178120419Y-104949133D01*
X178120089Y-104949263D01*
X176603867Y-105522305D01*
X176594917Y-105522025D01*
X176591458Y-105519634D01*
X176424283Y-105352459D01*
X176420856Y-105344186D01*
X176421016Y-105342259D01*
X176486642Y-104949263D01*
X176609833Y-104211540D01*
X176614574Y-104203947D01*
X176620802Y-104201784D01*
X177792471Y-104144694D01*
X177800901Y-104147714D01*
G37*
%TD.AperFunction*%
%TD*%
%TA.AperFunction,Conductor*%
%TO.N,CLK*%
G36*
X181852535Y-138084614D02*
G01*
X182622512Y-138403143D01*
X182628846Y-138409472D01*
X182628853Y-138409488D01*
X182946496Y-139178712D01*
X182946487Y-139187667D01*
X182940148Y-139193992D01*
X182939394Y-139194274D01*
X181428112Y-139699844D01*
X181419179Y-139699218D01*
X181413304Y-139692460D01*
X181412700Y-139688748D01*
X181412700Y-139456780D01*
X181413228Y-139453303D01*
X181836895Y-138091948D01*
X181842626Y-138085069D01*
X181851544Y-138084255D01*
X181852535Y-138084614D01*
G37*
%TD.AperFunction*%
%TD*%
%TA.AperFunction,Conductor*%
%TO.N,STAGE_3_OUT*%
G36*
X180038335Y-72931719D02*
G01*
X180038569Y-72932246D01*
X180339134Y-73655510D01*
X180339144Y-73664463D01*
X180339135Y-73664485D01*
X180339134Y-73664490D01*
X180038569Y-74387753D01*
X180032230Y-74394078D01*
X180023275Y-74394067D01*
X180022748Y-74393833D01*
X178746683Y-73788171D01*
X178740679Y-73781528D01*
X178740000Y-73777601D01*
X178740000Y-73542398D01*
X178743427Y-73534125D01*
X178746683Y-73531828D01*
X180022749Y-72926165D01*
X180031692Y-72925715D01*
X180038335Y-72931719D01*
G37*
%TD.AperFunction*%
%TD*%
%TA.AperFunction,Conductor*%
%TO.N,STAGE_3_OUT*%
G36*
X175576724Y-72925932D02*
G01*
X175577240Y-72926161D01*
X176853317Y-73531828D01*
X176859321Y-73538471D01*
X176860000Y-73542398D01*
X176860000Y-73777601D01*
X176856573Y-73785874D01*
X176853317Y-73788171D01*
X175577251Y-74393833D01*
X175568307Y-74394284D01*
X175561664Y-74388280D01*
X175561430Y-74387753D01*
X175531898Y-74316690D01*
X175260864Y-73664487D01*
X175260854Y-73655538D01*
X175561430Y-72932245D01*
X175567769Y-72925921D01*
X175576724Y-72925932D01*
G37*
%TD.AperFunction*%
%TD*%
%TA.AperFunction,Conductor*%
%TO.N,STAGE_3_OUT*%
G36*
X194881339Y-84590912D02*
G01*
X195576165Y-85284350D01*
X195579600Y-85292619D01*
X195578708Y-85297113D01*
X195202499Y-86204380D01*
X195196164Y-86210709D01*
X195187964Y-86210988D01*
X193826761Y-85753495D01*
X193822215Y-85750678D01*
X193656572Y-85585035D01*
X193653145Y-85576762D01*
X193656572Y-85568489D01*
X193657486Y-85567666D01*
X193991877Y-85297113D01*
X194865716Y-84590096D01*
X194874302Y-84587558D01*
X194881339Y-84590912D01*
G37*
%TD.AperFunction*%
%TD*%
%TA.AperFunction,Conductor*%
%TO.N,STAGE_3_OUT*%
G36*
X183616698Y-78438554D02*
G01*
X183623023Y-78444893D01*
X183623227Y-78445426D01*
X183991495Y-79479104D01*
X184097275Y-79776012D01*
X184096824Y-79784956D01*
X184094527Y-79788212D01*
X183928212Y-79954527D01*
X183919939Y-79957954D01*
X183916013Y-79957275D01*
X182585430Y-79483228D01*
X182578788Y-79477225D01*
X182578337Y-79468281D01*
X182578536Y-79467760D01*
X182877438Y-78743785D01*
X182883762Y-78737448D01*
X182883764Y-78737446D01*
X183607744Y-78438543D01*
X183616698Y-78438554D01*
G37*
%TD.AperFunction*%
%TD*%
%TA.AperFunction,Conductor*%
%TO.N,STAGE_3_OUT*%
G36*
X190816724Y-108485932D02*
G01*
X190817240Y-108486161D01*
X192093317Y-109091828D01*
X192099321Y-109098471D01*
X192100000Y-109102398D01*
X192100000Y-109337601D01*
X192096573Y-109345874D01*
X192093317Y-109348171D01*
X190817251Y-109953833D01*
X190808307Y-109954284D01*
X190801664Y-109948280D01*
X190801430Y-109947753D01*
X190771898Y-109876690D01*
X190500864Y-109224487D01*
X190500854Y-109215538D01*
X190801430Y-108492245D01*
X190807769Y-108485921D01*
X190816724Y-108485932D01*
G37*
%TD.AperFunction*%
%TD*%
%TA.AperFunction,Conductor*%
%TO.N,STAGE_3_OUT*%
G36*
X195278335Y-108491719D02*
G01*
X195278569Y-108492246D01*
X195579134Y-109215510D01*
X195579144Y-109224463D01*
X195579135Y-109224485D01*
X195579134Y-109224490D01*
X195278569Y-109947753D01*
X195272230Y-109954078D01*
X195263275Y-109954067D01*
X195262748Y-109953833D01*
X193986683Y-109348171D01*
X193980679Y-109341528D01*
X193980000Y-109337601D01*
X193980000Y-109102398D01*
X193983427Y-109094125D01*
X193986683Y-109091828D01*
X195262749Y-108486165D01*
X195271692Y-108485715D01*
X195278335Y-108491719D01*
G37*
%TD.AperFunction*%
%TD*%
%TA.AperFunction,Conductor*%
%TO.N,STAGE_3_OUT*%
G36*
X183005875Y-77143427D02*
G01*
X183008172Y-77146683D01*
X183613833Y-78422748D01*
X183614284Y-78431692D01*
X183608280Y-78438335D01*
X183607753Y-78438569D01*
X182884490Y-78739134D01*
X182875536Y-78739144D01*
X182875510Y-78739134D01*
X182152246Y-78438569D01*
X182145921Y-78432230D01*
X182145932Y-78423275D01*
X182146154Y-78422773D01*
X182751828Y-77146682D01*
X182758471Y-77140679D01*
X182762398Y-77140000D01*
X182997602Y-77140000D01*
X183005875Y-77143427D01*
G37*
%TD.AperFunction*%
%TD*%
%TA.AperFunction,Conductor*%
%TO.N,STAGE_3_OUT*%
G36*
X189772252Y-108918541D02*
G01*
X189788939Y-108925431D01*
X190496212Y-109217437D01*
X190502551Y-109223762D01*
X190502562Y-109223787D01*
X190801456Y-109947743D01*
X190801445Y-109956698D01*
X190795106Y-109963023D01*
X190794568Y-109963229D01*
X189463987Y-110437275D01*
X189455043Y-110436824D01*
X189451787Y-110434527D01*
X189285472Y-110268212D01*
X189282045Y-110259939D01*
X189282722Y-110256018D01*
X189756771Y-108925428D01*
X189762774Y-108918788D01*
X189771718Y-108918337D01*
X189772252Y-108918541D01*
G37*
%TD.AperFunction*%
%TD*%
%TA.AperFunction,Conductor*%
%TO.N,STAGE_3_OUT*%
G36*
X186622078Y-112925974D02*
G01*
X186625554Y-112928372D01*
X186792731Y-113095549D01*
X186796158Y-113103822D01*
X186796002Y-113105724D01*
X186609746Y-114236435D01*
X186605020Y-114244041D01*
X186598791Y-114246218D01*
X185427534Y-114305291D01*
X185419099Y-114302285D01*
X185416135Y-114298082D01*
X185394658Y-114246218D01*
X185092330Y-113516134D01*
X185092331Y-113507181D01*
X185098664Y-113500849D01*
X185098973Y-113500725D01*
X186613129Y-112925707D01*
X186622078Y-112925974D01*
G37*
%TD.AperFunction*%
%TD*%
%TA.AperFunction,Conductor*%
%TO.N,STAGE_3_OUT*%
G36*
X181076698Y-73358554D02*
G01*
X181083023Y-73364893D01*
X181083227Y-73365426D01*
X181451495Y-74399104D01*
X181557275Y-74696012D01*
X181556824Y-74704956D01*
X181554527Y-74708212D01*
X181388212Y-74874527D01*
X181379939Y-74877954D01*
X181376013Y-74877275D01*
X180045430Y-74403228D01*
X180038788Y-74397225D01*
X180038337Y-74388281D01*
X180038536Y-74387760D01*
X180337438Y-73663785D01*
X180343762Y-73657448D01*
X180343764Y-73657446D01*
X181067744Y-73358543D01*
X181076698Y-73358554D01*
G37*
%TD.AperFunction*%
%TD*%
%TA.AperFunction,Conductor*%
%TO.N,STAGE_3_OUT*%
G36*
X190625875Y-107623427D02*
G01*
X190628172Y-107626683D01*
X191233833Y-108902748D01*
X191234284Y-108911692D01*
X191228280Y-108918335D01*
X191227753Y-108918569D01*
X190504490Y-109219134D01*
X190495536Y-109219144D01*
X190495510Y-109219134D01*
X189772246Y-108918569D01*
X189765921Y-108912230D01*
X189765932Y-108903275D01*
X189766154Y-108902773D01*
X190371828Y-107626682D01*
X190378471Y-107620679D01*
X190382398Y-107620000D01*
X190617602Y-107620000D01*
X190625875Y-107623427D01*
G37*
%TD.AperFunction*%
%TD*%
%TA.AperFunction,Conductor*%
%TO.N,Net-(R23-Pad1)*%
G36*
X175261147Y-63502719D02*
G01*
X175263696Y-63506534D01*
X175562437Y-64230118D01*
X175562426Y-64239073D01*
X175557991Y-64244397D01*
X174547093Y-64900470D01*
X174538288Y-64902100D01*
X174532451Y-64898929D01*
X174366190Y-64732668D01*
X174362763Y-64724395D01*
X174362799Y-64723484D01*
X174459145Y-63510760D01*
X174463215Y-63502788D01*
X174470795Y-63499990D01*
X175252873Y-63499299D01*
X175261147Y-63502719D01*
G37*
%TD.AperFunction*%
%TD*%
%TA.AperFunction,Conductor*%
%TO.N,Net-(R23-Pad1)*%
G36*
X169079777Y-70016318D02*
G01*
X169083126Y-70018659D01*
X169249340Y-70184873D01*
X169252767Y-70193146D01*
X169252053Y-70197169D01*
X168817382Y-71384092D01*
X168811320Y-71390683D01*
X168802373Y-71391055D01*
X168801932Y-71390884D01*
X168151788Y-71122562D01*
X168145449Y-71116238D01*
X167877115Y-70466066D01*
X167877126Y-70457112D01*
X167883466Y-70450788D01*
X167883867Y-70450632D01*
X169070832Y-70015946D01*
X169079777Y-70016318D01*
G37*
%TD.AperFunction*%
%TD*%
%TA.AperFunction,Conductor*%
%TO.N,Net-(U5-BP)*%
G36*
X190198333Y-118651721D02*
G01*
X190198585Y-118652284D01*
X190499134Y-119375510D01*
X190499144Y-119384463D01*
X190499135Y-119384485D01*
X190499134Y-119384490D01*
X190198556Y-120107786D01*
X190192217Y-120114111D01*
X190183262Y-120114100D01*
X190182765Y-120113880D01*
X188907708Y-119513162D01*
X188901685Y-119506536D01*
X188900995Y-119502578D01*
X188900995Y-119267368D01*
X188904422Y-119259095D01*
X188907637Y-119256819D01*
X190182731Y-118646221D01*
X190191670Y-118645739D01*
X190198333Y-118651721D01*
G37*
%TD.AperFunction*%
%TD*%
%TA.AperFunction,Conductor*%
%TO.N,Net-(U5-BP)*%
G36*
X186626716Y-118590667D02*
G01*
X187415845Y-119256494D01*
X187419958Y-119264448D01*
X187420000Y-119265436D01*
X187420000Y-119504563D01*
X187416573Y-119512836D01*
X187415845Y-119513505D01*
X186626716Y-120179332D01*
X186618183Y-120182048D01*
X186612685Y-120180127D01*
X185611918Y-119513505D01*
X185433616Y-119394736D01*
X185428631Y-119387299D01*
X185430366Y-119378514D01*
X185433615Y-119375264D01*
X186612686Y-118589871D01*
X186621470Y-118588137D01*
X186626716Y-118590667D01*
G37*
%TD.AperFunction*%
%TD*%
%TA.AperFunction,Conductor*%
%TO.N,Net-(U5-LP)*%
G36*
X185420901Y-111767714D02*
G01*
X185423854Y-111771914D01*
X185746767Y-112553853D01*
X185746758Y-112562808D01*
X185740419Y-112569133D01*
X185740089Y-112569263D01*
X184223867Y-113142305D01*
X184214917Y-113142025D01*
X184211458Y-113139634D01*
X184044283Y-112972459D01*
X184040856Y-112964186D01*
X184041016Y-112962259D01*
X184106642Y-112569263D01*
X184229833Y-111831540D01*
X184234574Y-111823947D01*
X184240802Y-111821784D01*
X185412471Y-111764694D01*
X185420901Y-111767714D01*
G37*
%TD.AperFunction*%
%TD*%
%TA.AperFunction,Conductor*%
%TO.N,Net-(U5-LP)*%
G36*
X179005082Y-118007974D02*
G01*
X179008541Y-118010365D01*
X179175716Y-118177540D01*
X179179143Y-118185813D01*
X179178983Y-118187740D01*
X178990166Y-119318455D01*
X178985424Y-119326051D01*
X178979195Y-119328214D01*
X177807528Y-119385305D01*
X177799098Y-119382285D01*
X177796145Y-119378085D01*
X177473232Y-118596146D01*
X177473241Y-118587191D01*
X177479580Y-118580866D01*
X177479881Y-118580747D01*
X178996135Y-118007694D01*
X179005082Y-118007974D01*
G37*
%TD.AperFunction*%
%TD*%
%TA.AperFunction,Conductor*%
%TO.N,Net-(R2-Pad1)*%
G36*
X107016900Y-64023175D02*
G01*
X107020156Y-64025472D01*
X107186471Y-64191787D01*
X107189898Y-64200060D01*
X107189219Y-64203987D01*
X106715173Y-65534568D01*
X106709169Y-65541211D01*
X106700225Y-65541662D01*
X106699687Y-65541456D01*
X105975731Y-65242562D01*
X105969392Y-65236237D01*
X105969381Y-65236212D01*
X105670487Y-64512256D01*
X105670498Y-64503301D01*
X105676837Y-64496976D01*
X105677333Y-64496785D01*
X107007958Y-64022724D01*
X107016900Y-64023175D01*
G37*
%TD.AperFunction*%
%TD*%
%TA.AperFunction,Conductor*%
%TO.N,Net-(R2-Pad1)*%
G36*
X115091026Y-66237874D02*
G01*
X115094485Y-66240265D01*
X115261660Y-66407440D01*
X115265087Y-66415713D01*
X115264927Y-66417640D01*
X115076110Y-67548355D01*
X115071368Y-67555951D01*
X115065139Y-67558114D01*
X113893472Y-67615205D01*
X113885042Y-67612185D01*
X113882089Y-67607985D01*
X113559176Y-66826046D01*
X113559185Y-66817091D01*
X113565524Y-66810766D01*
X113565825Y-66810647D01*
X115082079Y-66237594D01*
X115091026Y-66237874D01*
G37*
%TD.AperFunction*%
%TD*%
M02*
