%TF.GenerationSoftware,KiCad,Pcbnew,7.0.10*%
%TF.CreationDate,2024-01-17T14:59:58-08:00*%
%TF.ProjectId,P1.2,50312e32-2e6b-4696-9361-645f70636258,rev?*%
%TF.SameCoordinates,Original*%
%TF.FileFunction,Legend,Bot*%
%TF.FilePolarity,Positive*%
%FSLAX46Y46*%
G04 Gerber Fmt 4.6, Leading zero omitted, Abs format (unit mm)*
G04 Created by KiCad (PCBNEW 7.0.10) date 2024-01-17 14:59:58*
%MOMM*%
%LPD*%
G01*
G04 APERTURE LIST*
%ADD10C,0.150000*%
%ADD11C,0.508000*%
G04 APERTURE END LIST*
D10*
X96612077Y-88270676D02*
X96612077Y-91127819D01*
X96612077Y-91127819D02*
X96802554Y-91699247D01*
X96802554Y-91699247D02*
X97183506Y-92080200D01*
X97183506Y-92080200D02*
X97754935Y-92270676D01*
X97754935Y-92270676D02*
X98135887Y-92270676D01*
X93945411Y-90365914D02*
X93945411Y-92270676D01*
X95278744Y-88270676D02*
X93945411Y-90365914D01*
X93945411Y-90365914D02*
X92612077Y-88270676D01*
X91278745Y-90746866D02*
X88231126Y-90746866D01*
X84612078Y-88270676D02*
X85373983Y-88270676D01*
X85373983Y-88270676D02*
X85754935Y-88461152D01*
X85754935Y-88461152D02*
X85945411Y-88651628D01*
X85945411Y-88651628D02*
X86326364Y-89223057D01*
X86326364Y-89223057D02*
X86516840Y-89984961D01*
X86516840Y-89984961D02*
X86516840Y-91508771D01*
X86516840Y-91508771D02*
X86326364Y-91889723D01*
X86326364Y-91889723D02*
X86135887Y-92080200D01*
X86135887Y-92080200D02*
X85754935Y-92270676D01*
X85754935Y-92270676D02*
X84993030Y-92270676D01*
X84993030Y-92270676D02*
X84612078Y-92080200D01*
X84612078Y-92080200D02*
X84421602Y-91889723D01*
X84421602Y-91889723D02*
X84231125Y-91508771D01*
X84231125Y-91508771D02*
X84231125Y-90556390D01*
X84231125Y-90556390D02*
X84421602Y-90175438D01*
X84421602Y-90175438D02*
X84612078Y-89984961D01*
X84612078Y-89984961D02*
X84993030Y-89794485D01*
X84993030Y-89794485D02*
X85754935Y-89794485D01*
X85754935Y-89794485D02*
X86135887Y-89984961D01*
X86135887Y-89984961D02*
X86326364Y-90175438D01*
X86326364Y-90175438D02*
X86516840Y-90556390D01*
X81945411Y-89984961D02*
X82326363Y-89794485D01*
X82326363Y-89794485D02*
X82516840Y-89604009D01*
X82516840Y-89604009D02*
X82707316Y-89223057D01*
X82707316Y-89223057D02*
X82707316Y-89032580D01*
X82707316Y-89032580D02*
X82516840Y-88651628D01*
X82516840Y-88651628D02*
X82326363Y-88461152D01*
X82326363Y-88461152D02*
X81945411Y-88270676D01*
X81945411Y-88270676D02*
X81183506Y-88270676D01*
X81183506Y-88270676D02*
X80802554Y-88461152D01*
X80802554Y-88461152D02*
X80612078Y-88651628D01*
X80612078Y-88651628D02*
X80421601Y-89032580D01*
X80421601Y-89032580D02*
X80421601Y-89223057D01*
X80421601Y-89223057D02*
X80612078Y-89604009D01*
X80612078Y-89604009D02*
X80802554Y-89794485D01*
X80802554Y-89794485D02*
X81183506Y-89984961D01*
X81183506Y-89984961D02*
X81945411Y-89984961D01*
X81945411Y-89984961D02*
X82326363Y-90175438D01*
X82326363Y-90175438D02*
X82516840Y-90365914D01*
X82516840Y-90365914D02*
X82707316Y-90746866D01*
X82707316Y-90746866D02*
X82707316Y-91508771D01*
X82707316Y-91508771D02*
X82516840Y-91889723D01*
X82516840Y-91889723D02*
X82326363Y-92080200D01*
X82326363Y-92080200D02*
X81945411Y-92270676D01*
X81945411Y-92270676D02*
X81183506Y-92270676D01*
X81183506Y-92270676D02*
X80802554Y-92080200D01*
X80802554Y-92080200D02*
X80612078Y-91889723D01*
X80612078Y-91889723D02*
X80421601Y-91508771D01*
X80421601Y-91508771D02*
X80421601Y-90746866D01*
X80421601Y-90746866D02*
X80612078Y-90365914D01*
X80612078Y-90365914D02*
X80802554Y-90175438D01*
X80802554Y-90175438D02*
X81183506Y-89984961D01*
X78707316Y-91889723D02*
X78516839Y-92080200D01*
X78516839Y-92080200D02*
X78707316Y-92270676D01*
X78707316Y-92270676D02*
X78897792Y-92080200D01*
X78897792Y-92080200D02*
X78707316Y-91889723D01*
X78707316Y-91889723D02*
X78707316Y-92270676D01*
X78707316Y-89794485D02*
X78516839Y-89984961D01*
X78516839Y-89984961D02*
X78707316Y-90175438D01*
X78707316Y-90175438D02*
X78897792Y-89984961D01*
X78897792Y-89984961D02*
X78707316Y-89794485D01*
X78707316Y-89794485D02*
X78707316Y-90175438D01*
X97945411Y-97567819D02*
X96040649Y-97567819D01*
X98326363Y-98710676D02*
X96993030Y-94710676D01*
X96993030Y-94710676D02*
X95659696Y-98710676D01*
X93754935Y-98710676D02*
X94135887Y-98520200D01*
X94135887Y-98520200D02*
X94326364Y-98139247D01*
X94326364Y-98139247D02*
X94326364Y-94710676D01*
X92231126Y-98710676D02*
X92231126Y-94710676D01*
X92231126Y-96234485D02*
X91850173Y-96044009D01*
X91850173Y-96044009D02*
X91088268Y-96044009D01*
X91088268Y-96044009D02*
X90707316Y-96234485D01*
X90707316Y-96234485D02*
X90516840Y-96424961D01*
X90516840Y-96424961D02*
X90326364Y-96805914D01*
X90326364Y-96805914D02*
X90326364Y-97948771D01*
X90326364Y-97948771D02*
X90516840Y-98329723D01*
X90516840Y-98329723D02*
X90707316Y-98520200D01*
X90707316Y-98520200D02*
X91088268Y-98710676D01*
X91088268Y-98710676D02*
X91850173Y-98710676D01*
X91850173Y-98710676D02*
X92231126Y-98520200D01*
X87088268Y-98520200D02*
X87469220Y-98710676D01*
X87469220Y-98710676D02*
X88231125Y-98710676D01*
X88231125Y-98710676D02*
X88612078Y-98520200D01*
X88612078Y-98520200D02*
X88802554Y-98139247D01*
X88802554Y-98139247D02*
X88802554Y-96615438D01*
X88802554Y-96615438D02*
X88612078Y-96234485D01*
X88612078Y-96234485D02*
X88231125Y-96044009D01*
X88231125Y-96044009D02*
X87469220Y-96044009D01*
X87469220Y-96044009D02*
X87088268Y-96234485D01*
X87088268Y-96234485D02*
X86897792Y-96615438D01*
X86897792Y-96615438D02*
X86897792Y-96996390D01*
X86897792Y-96996390D02*
X88802554Y-97377342D01*
X85183507Y-98710676D02*
X85183507Y-96044009D01*
X85183507Y-96805914D02*
X84993030Y-96424961D01*
X84993030Y-96424961D02*
X84802554Y-96234485D01*
X84802554Y-96234485D02*
X84421602Y-96044009D01*
X84421602Y-96044009D02*
X84040649Y-96044009D01*
X83278745Y-96044009D02*
X81754936Y-96044009D01*
X82707317Y-94710676D02*
X82707317Y-98139247D01*
X82707317Y-98139247D02*
X82516840Y-98520200D01*
X82516840Y-98520200D02*
X82135888Y-98710676D01*
X82135888Y-98710676D02*
X81754936Y-98710676D01*
X95469220Y-104769723D02*
X95659696Y-104960200D01*
X95659696Y-104960200D02*
X96231125Y-105150676D01*
X96231125Y-105150676D02*
X96612077Y-105150676D01*
X96612077Y-105150676D02*
X97183506Y-104960200D01*
X97183506Y-104960200D02*
X97564458Y-104579247D01*
X97564458Y-104579247D02*
X97754935Y-104198295D01*
X97754935Y-104198295D02*
X97945411Y-103436390D01*
X97945411Y-103436390D02*
X97945411Y-102864961D01*
X97945411Y-102864961D02*
X97754935Y-102103057D01*
X97754935Y-102103057D02*
X97564458Y-101722104D01*
X97564458Y-101722104D02*
X97183506Y-101341152D01*
X97183506Y-101341152D02*
X96612077Y-101150676D01*
X96612077Y-101150676D02*
X96231125Y-101150676D01*
X96231125Y-101150676D02*
X95659696Y-101341152D01*
X95659696Y-101341152D02*
X95469220Y-101531628D01*
X93754935Y-105150676D02*
X93754935Y-101150676D01*
X92040649Y-105150676D02*
X92040649Y-103055438D01*
X92040649Y-103055438D02*
X92231125Y-102674485D01*
X92231125Y-102674485D02*
X92612077Y-102484009D01*
X92612077Y-102484009D02*
X93183506Y-102484009D01*
X93183506Y-102484009D02*
X93564458Y-102674485D01*
X93564458Y-102674485D02*
X93754935Y-102864961D01*
X90135887Y-105150676D02*
X90135887Y-102484009D01*
X90135887Y-103245914D02*
X89945410Y-102864961D01*
X89945410Y-102864961D02*
X89754934Y-102674485D01*
X89754934Y-102674485D02*
X89373982Y-102484009D01*
X89373982Y-102484009D02*
X88993029Y-102484009D01*
X87659697Y-105150676D02*
X87659697Y-102484009D01*
X87659697Y-101150676D02*
X87850173Y-101341152D01*
X87850173Y-101341152D02*
X87659697Y-101531628D01*
X87659697Y-101531628D02*
X87469220Y-101341152D01*
X87469220Y-101341152D02*
X87659697Y-101150676D01*
X87659697Y-101150676D02*
X87659697Y-101531628D01*
X85945411Y-104960200D02*
X85564458Y-105150676D01*
X85564458Y-105150676D02*
X84802554Y-105150676D01*
X84802554Y-105150676D02*
X84421601Y-104960200D01*
X84421601Y-104960200D02*
X84231125Y-104579247D01*
X84231125Y-104579247D02*
X84231125Y-104388771D01*
X84231125Y-104388771D02*
X84421601Y-104007819D01*
X84421601Y-104007819D02*
X84802554Y-103817342D01*
X84802554Y-103817342D02*
X85373982Y-103817342D01*
X85373982Y-103817342D02*
X85754935Y-103626866D01*
X85754935Y-103626866D02*
X85945411Y-103245914D01*
X85945411Y-103245914D02*
X85945411Y-103055438D01*
X85945411Y-103055438D02*
X85754935Y-102674485D01*
X85754935Y-102674485D02*
X85373982Y-102484009D01*
X85373982Y-102484009D02*
X84802554Y-102484009D01*
X84802554Y-102484009D02*
X84421601Y-102674485D01*
X95469220Y-111209723D02*
X95659696Y-111400200D01*
X95659696Y-111400200D02*
X96231125Y-111590676D01*
X96231125Y-111590676D02*
X96612077Y-111590676D01*
X96612077Y-111590676D02*
X97183506Y-111400200D01*
X97183506Y-111400200D02*
X97564458Y-111019247D01*
X97564458Y-111019247D02*
X97754935Y-110638295D01*
X97754935Y-110638295D02*
X97945411Y-109876390D01*
X97945411Y-109876390D02*
X97945411Y-109304961D01*
X97945411Y-109304961D02*
X97754935Y-108543057D01*
X97754935Y-108543057D02*
X97564458Y-108162104D01*
X97564458Y-108162104D02*
X97183506Y-107781152D01*
X97183506Y-107781152D02*
X96612077Y-107590676D01*
X96612077Y-107590676D02*
X96231125Y-107590676D01*
X96231125Y-107590676D02*
X95659696Y-107781152D01*
X95659696Y-107781152D02*
X95469220Y-107971628D01*
X93183506Y-111590676D02*
X93564458Y-111400200D01*
X93564458Y-111400200D02*
X93754935Y-111209723D01*
X93754935Y-111209723D02*
X93945411Y-110828771D01*
X93945411Y-110828771D02*
X93945411Y-109685914D01*
X93945411Y-109685914D02*
X93754935Y-109304961D01*
X93754935Y-109304961D02*
X93564458Y-109114485D01*
X93564458Y-109114485D02*
X93183506Y-108924009D01*
X93183506Y-108924009D02*
X92612077Y-108924009D01*
X92612077Y-108924009D02*
X92231125Y-109114485D01*
X92231125Y-109114485D02*
X92040649Y-109304961D01*
X92040649Y-109304961D02*
X91850173Y-109685914D01*
X91850173Y-109685914D02*
X91850173Y-110828771D01*
X91850173Y-110828771D02*
X92040649Y-111209723D01*
X92040649Y-111209723D02*
X92231125Y-111400200D01*
X92231125Y-111400200D02*
X92612077Y-111590676D01*
X92612077Y-111590676D02*
X93183506Y-111590676D01*
X90135887Y-108924009D02*
X90135887Y-111590676D01*
X90135887Y-109304961D02*
X89945410Y-109114485D01*
X89945410Y-109114485D02*
X89564458Y-108924009D01*
X89564458Y-108924009D02*
X88993029Y-108924009D01*
X88993029Y-108924009D02*
X88612077Y-109114485D01*
X88612077Y-109114485D02*
X88421601Y-109495438D01*
X88421601Y-109495438D02*
X88421601Y-111590676D01*
X86516839Y-108924009D02*
X86516839Y-111590676D01*
X86516839Y-109304961D02*
X86326362Y-109114485D01*
X86326362Y-109114485D02*
X85945410Y-108924009D01*
X85945410Y-108924009D02*
X85373981Y-108924009D01*
X85373981Y-108924009D02*
X84993029Y-109114485D01*
X84993029Y-109114485D02*
X84802553Y-109495438D01*
X84802553Y-109495438D02*
X84802553Y-111590676D01*
X82326362Y-111590676D02*
X82707314Y-111400200D01*
X82707314Y-111400200D02*
X82897791Y-111209723D01*
X82897791Y-111209723D02*
X83088267Y-110828771D01*
X83088267Y-110828771D02*
X83088267Y-109685914D01*
X83088267Y-109685914D02*
X82897791Y-109304961D01*
X82897791Y-109304961D02*
X82707314Y-109114485D01*
X82707314Y-109114485D02*
X82326362Y-108924009D01*
X82326362Y-108924009D02*
X81754933Y-108924009D01*
X81754933Y-108924009D02*
X81373981Y-109114485D01*
X81373981Y-109114485D02*
X81183505Y-109304961D01*
X81183505Y-109304961D02*
X80993029Y-109685914D01*
X80993029Y-109685914D02*
X80993029Y-110828771D01*
X80993029Y-110828771D02*
X81183505Y-111209723D01*
X81183505Y-111209723D02*
X81373981Y-111400200D01*
X81373981Y-111400200D02*
X81754933Y-111590676D01*
X81754933Y-111590676D02*
X82326362Y-111590676D01*
X79278743Y-111590676D02*
X79278743Y-108924009D01*
X79278743Y-109685914D02*
X79088266Y-109304961D01*
X79088266Y-109304961D02*
X78897790Y-109114485D01*
X78897790Y-109114485D02*
X78516838Y-108924009D01*
X78516838Y-108924009D02*
X78135885Y-108924009D01*
X97754935Y-118030676D02*
X97754935Y-114030676D01*
X97754935Y-114030676D02*
X96231125Y-114030676D01*
X96231125Y-114030676D02*
X95850173Y-114221152D01*
X95850173Y-114221152D02*
X95659696Y-114411628D01*
X95659696Y-114411628D02*
X95469220Y-114792580D01*
X95469220Y-114792580D02*
X95469220Y-115364009D01*
X95469220Y-115364009D02*
X95659696Y-115744961D01*
X95659696Y-115744961D02*
X95850173Y-115935438D01*
X95850173Y-115935438D02*
X96231125Y-116125914D01*
X96231125Y-116125914D02*
X97754935Y-116125914D01*
X92231125Y-117840200D02*
X92612077Y-118030676D01*
X92612077Y-118030676D02*
X93373982Y-118030676D01*
X93373982Y-118030676D02*
X93754935Y-117840200D01*
X93754935Y-117840200D02*
X93945411Y-117459247D01*
X93945411Y-117459247D02*
X93945411Y-115935438D01*
X93945411Y-115935438D02*
X93754935Y-115554485D01*
X93754935Y-115554485D02*
X93373982Y-115364009D01*
X93373982Y-115364009D02*
X92612077Y-115364009D01*
X92612077Y-115364009D02*
X92231125Y-115554485D01*
X92231125Y-115554485D02*
X92040649Y-115935438D01*
X92040649Y-115935438D02*
X92040649Y-116316390D01*
X92040649Y-116316390D02*
X93945411Y-116697342D01*
X88612078Y-118030676D02*
X88612078Y-115935438D01*
X88612078Y-115935438D02*
X88802554Y-115554485D01*
X88802554Y-115554485D02*
X89183506Y-115364009D01*
X89183506Y-115364009D02*
X89945411Y-115364009D01*
X89945411Y-115364009D02*
X90326364Y-115554485D01*
X88612078Y-117840200D02*
X88993030Y-118030676D01*
X88993030Y-118030676D02*
X89945411Y-118030676D01*
X89945411Y-118030676D02*
X90326364Y-117840200D01*
X90326364Y-117840200D02*
X90516840Y-117459247D01*
X90516840Y-117459247D02*
X90516840Y-117078295D01*
X90516840Y-117078295D02*
X90326364Y-116697342D01*
X90326364Y-116697342D02*
X89945411Y-116506866D01*
X89945411Y-116506866D02*
X88993030Y-116506866D01*
X88993030Y-116506866D02*
X88612078Y-116316390D01*
X86707316Y-118030676D02*
X86707316Y-114030676D01*
X86326363Y-116506866D02*
X85183506Y-118030676D01*
X85183506Y-115364009D02*
X86707316Y-116887819D01*
X98326363Y-120470676D02*
X96040649Y-120470676D01*
X97183506Y-124470676D02*
X97183506Y-120470676D01*
D11*
%TO.C,U4*%
X108331000Y-111186600D02*
G75*
G03*
X107569000Y-111186600I-381000J0D01*
G01*
X107569000Y-111186600D02*
G75*
G03*
X108331000Y-111186600I381000J0D01*
G01*
%TO.C,J6*%
X90096944Y-61938000D02*
G75*
G03*
X89334944Y-61938000I-381000J0D01*
G01*
X89334944Y-61938000D02*
G75*
G03*
X90096944Y-61938000I381000J0D01*
G01*
%TD*%
M02*
