%TF.GenerationSoftware,KiCad,Pcbnew,7.0.10*%
%TF.CreationDate,2024-01-17T14:59:58-08:00*%
%TF.ProjectId,P1.2,50312e32-2e6b-4696-9361-645f70636258,rev?*%
%TF.SameCoordinates,Original*%
%TF.FileFunction,Legend,Top*%
%TF.FilePolarity,Positive*%
%FSLAX46Y46*%
G04 Gerber Fmt 4.6, Leading zero omitted, Abs format (unit mm)*
G04 Created by KiCad (PCBNEW 7.0.10) date 2024-01-17 14:59:58*
%MOMM*%
%LPD*%
G01*
G04 APERTURE LIST*
%ADD10C,0.150000*%
%ADD11C,0.120000*%
%ADD12C,0.152400*%
%ADD13C,0.508000*%
%ADD14C,0.127000*%
%ADD15C,0.200000*%
G04 APERTURE END LIST*
D10*
X79124303Y-88589438D02*
X79124303Y-90018009D01*
X79124303Y-90018009D02*
X79029064Y-90303723D01*
X79029064Y-90303723D02*
X78838588Y-90494200D01*
X78838588Y-90494200D02*
X78552874Y-90589438D01*
X78552874Y-90589438D02*
X78362398Y-90589438D01*
X80457636Y-89637057D02*
X80457636Y-90589438D01*
X79790970Y-88589438D02*
X80457636Y-89637057D01*
X80457636Y-89637057D02*
X81124303Y-88589438D01*
X81790970Y-89827533D02*
X83314780Y-89827533D01*
X85124303Y-88589438D02*
X84743350Y-88589438D01*
X84743350Y-88589438D02*
X84552874Y-88684676D01*
X84552874Y-88684676D02*
X84457636Y-88779914D01*
X84457636Y-88779914D02*
X84267160Y-89065628D01*
X84267160Y-89065628D02*
X84171922Y-89446580D01*
X84171922Y-89446580D02*
X84171922Y-90208485D01*
X84171922Y-90208485D02*
X84267160Y-90398961D01*
X84267160Y-90398961D02*
X84362398Y-90494200D01*
X84362398Y-90494200D02*
X84552874Y-90589438D01*
X84552874Y-90589438D02*
X84933827Y-90589438D01*
X84933827Y-90589438D02*
X85124303Y-90494200D01*
X85124303Y-90494200D02*
X85219541Y-90398961D01*
X85219541Y-90398961D02*
X85314779Y-90208485D01*
X85314779Y-90208485D02*
X85314779Y-89732295D01*
X85314779Y-89732295D02*
X85219541Y-89541819D01*
X85219541Y-89541819D02*
X85124303Y-89446580D01*
X85124303Y-89446580D02*
X84933827Y-89351342D01*
X84933827Y-89351342D02*
X84552874Y-89351342D01*
X84552874Y-89351342D02*
X84362398Y-89446580D01*
X84362398Y-89446580D02*
X84267160Y-89541819D01*
X84267160Y-89541819D02*
X84171922Y-89732295D01*
X86457636Y-89446580D02*
X86267160Y-89351342D01*
X86267160Y-89351342D02*
X86171922Y-89256104D01*
X86171922Y-89256104D02*
X86076684Y-89065628D01*
X86076684Y-89065628D02*
X86076684Y-88970390D01*
X86076684Y-88970390D02*
X86171922Y-88779914D01*
X86171922Y-88779914D02*
X86267160Y-88684676D01*
X86267160Y-88684676D02*
X86457636Y-88589438D01*
X86457636Y-88589438D02*
X86838589Y-88589438D01*
X86838589Y-88589438D02*
X87029065Y-88684676D01*
X87029065Y-88684676D02*
X87124303Y-88779914D01*
X87124303Y-88779914D02*
X87219541Y-88970390D01*
X87219541Y-88970390D02*
X87219541Y-89065628D01*
X87219541Y-89065628D02*
X87124303Y-89256104D01*
X87124303Y-89256104D02*
X87029065Y-89351342D01*
X87029065Y-89351342D02*
X86838589Y-89446580D01*
X86838589Y-89446580D02*
X86457636Y-89446580D01*
X86457636Y-89446580D02*
X86267160Y-89541819D01*
X86267160Y-89541819D02*
X86171922Y-89637057D01*
X86171922Y-89637057D02*
X86076684Y-89827533D01*
X86076684Y-89827533D02*
X86076684Y-90208485D01*
X86076684Y-90208485D02*
X86171922Y-90398961D01*
X86171922Y-90398961D02*
X86267160Y-90494200D01*
X86267160Y-90494200D02*
X86457636Y-90589438D01*
X86457636Y-90589438D02*
X86838589Y-90589438D01*
X86838589Y-90589438D02*
X87029065Y-90494200D01*
X87029065Y-90494200D02*
X87124303Y-90398961D01*
X87124303Y-90398961D02*
X87219541Y-90208485D01*
X87219541Y-90208485D02*
X87219541Y-89827533D01*
X87219541Y-89827533D02*
X87124303Y-89637057D01*
X87124303Y-89637057D02*
X87029065Y-89541819D01*
X87029065Y-89541819D02*
X86838589Y-89446580D01*
X78552874Y-93809438D02*
X78552874Y-91809438D01*
X78552874Y-91809438D02*
X79314779Y-91809438D01*
X79314779Y-91809438D02*
X79505255Y-91904676D01*
X79505255Y-91904676D02*
X79600493Y-91999914D01*
X79600493Y-91999914D02*
X79695731Y-92190390D01*
X79695731Y-92190390D02*
X79695731Y-92476104D01*
X79695731Y-92476104D02*
X79600493Y-92666580D01*
X79600493Y-92666580D02*
X79505255Y-92761819D01*
X79505255Y-92761819D02*
X79314779Y-92857057D01*
X79314779Y-92857057D02*
X78552874Y-92857057D01*
X81600493Y-93809438D02*
X80457636Y-93809438D01*
X81029064Y-93809438D02*
X81029064Y-91809438D01*
X81029064Y-91809438D02*
X80838588Y-92095152D01*
X80838588Y-92095152D02*
X80648112Y-92285628D01*
X80648112Y-92285628D02*
X80457636Y-92380866D01*
X82457636Y-93618961D02*
X82552874Y-93714200D01*
X82552874Y-93714200D02*
X82457636Y-93809438D01*
X82457636Y-93809438D02*
X82362398Y-93714200D01*
X82362398Y-93714200D02*
X82457636Y-93618961D01*
X82457636Y-93618961D02*
X82457636Y-93809438D01*
X83314779Y-91999914D02*
X83410017Y-91904676D01*
X83410017Y-91904676D02*
X83600493Y-91809438D01*
X83600493Y-91809438D02*
X84076684Y-91809438D01*
X84076684Y-91809438D02*
X84267160Y-91904676D01*
X84267160Y-91904676D02*
X84362398Y-91999914D01*
X84362398Y-91999914D02*
X84457636Y-92190390D01*
X84457636Y-92190390D02*
X84457636Y-92380866D01*
X84457636Y-92380866D02*
X84362398Y-92666580D01*
X84362398Y-92666580D02*
X83219541Y-93809438D01*
X83219541Y-93809438D02*
X84457636Y-93809438D01*
X78362398Y-95029438D02*
X78838588Y-97029438D01*
X78838588Y-97029438D02*
X79219541Y-95600866D01*
X79219541Y-95600866D02*
X79600493Y-97029438D01*
X79600493Y-97029438D02*
X80076684Y-95029438D01*
X81600493Y-96934200D02*
X81410017Y-97029438D01*
X81410017Y-97029438D02*
X81029064Y-97029438D01*
X81029064Y-97029438D02*
X80838588Y-96934200D01*
X80838588Y-96934200D02*
X80743350Y-96743723D01*
X80743350Y-96743723D02*
X80743350Y-95981819D01*
X80743350Y-95981819D02*
X80838588Y-95791342D01*
X80838588Y-95791342D02*
X81029064Y-95696104D01*
X81029064Y-95696104D02*
X81410017Y-95696104D01*
X81410017Y-95696104D02*
X81600493Y-95791342D01*
X81600493Y-95791342D02*
X81695731Y-95981819D01*
X81695731Y-95981819D02*
X81695731Y-96172295D01*
X81695731Y-96172295D02*
X80743350Y-96362771D01*
X83410017Y-97029438D02*
X83410017Y-95981819D01*
X83410017Y-95981819D02*
X83314779Y-95791342D01*
X83314779Y-95791342D02*
X83124303Y-95696104D01*
X83124303Y-95696104D02*
X82743350Y-95696104D01*
X82743350Y-95696104D02*
X82552874Y-95791342D01*
X83410017Y-96934200D02*
X83219541Y-97029438D01*
X83219541Y-97029438D02*
X82743350Y-97029438D01*
X82743350Y-97029438D02*
X82552874Y-96934200D01*
X82552874Y-96934200D02*
X82457636Y-96743723D01*
X82457636Y-96743723D02*
X82457636Y-96553247D01*
X82457636Y-96553247D02*
X82552874Y-96362771D01*
X82552874Y-96362771D02*
X82743350Y-96267533D01*
X82743350Y-96267533D02*
X83219541Y-96267533D01*
X83219541Y-96267533D02*
X83410017Y-96172295D01*
X84362398Y-97029438D02*
X84362398Y-95696104D01*
X84362398Y-96077057D02*
X84457636Y-95886580D01*
X84457636Y-95886580D02*
X84552874Y-95791342D01*
X84552874Y-95791342D02*
X84743350Y-95696104D01*
X84743350Y-95696104D02*
X84933827Y-95696104D01*
X86457636Y-97029438D02*
X86457636Y-95981819D01*
X86457636Y-95981819D02*
X86362398Y-95791342D01*
X86362398Y-95791342D02*
X86171922Y-95696104D01*
X86171922Y-95696104D02*
X85790969Y-95696104D01*
X85790969Y-95696104D02*
X85600493Y-95791342D01*
X86457636Y-96934200D02*
X86267160Y-97029438D01*
X86267160Y-97029438D02*
X85790969Y-97029438D01*
X85790969Y-97029438D02*
X85600493Y-96934200D01*
X85600493Y-96934200D02*
X85505255Y-96743723D01*
X85505255Y-96743723D02*
X85505255Y-96553247D01*
X85505255Y-96553247D02*
X85600493Y-96362771D01*
X85600493Y-96362771D02*
X85790969Y-96267533D01*
X85790969Y-96267533D02*
X86267160Y-96267533D01*
X86267160Y-96267533D02*
X86457636Y-96172295D01*
X87410017Y-97029438D02*
X87410017Y-95029438D01*
X87410017Y-95791342D02*
X87600493Y-95696104D01*
X87600493Y-95696104D02*
X87981446Y-95696104D01*
X87981446Y-95696104D02*
X88171922Y-95791342D01*
X88171922Y-95791342D02*
X88267160Y-95886580D01*
X88267160Y-95886580D02*
X88362398Y-96077057D01*
X88362398Y-96077057D02*
X88362398Y-96648485D01*
X88362398Y-96648485D02*
X88267160Y-96838961D01*
X88267160Y-96838961D02*
X88171922Y-96934200D01*
X88171922Y-96934200D02*
X87981446Y-97029438D01*
X87981446Y-97029438D02*
X87600493Y-97029438D01*
X87600493Y-97029438D02*
X87410017Y-96934200D01*
X89505255Y-97029438D02*
X89314779Y-96934200D01*
X89314779Y-96934200D02*
X89219541Y-96743723D01*
X89219541Y-96743723D02*
X89219541Y-95029438D01*
X91029065Y-96934200D02*
X90838589Y-97029438D01*
X90838589Y-97029438D02*
X90457636Y-97029438D01*
X90457636Y-97029438D02*
X90267160Y-96934200D01*
X90267160Y-96934200D02*
X90171922Y-96743723D01*
X90171922Y-96743723D02*
X90171922Y-95981819D01*
X90171922Y-95981819D02*
X90267160Y-95791342D01*
X90267160Y-95791342D02*
X90457636Y-95696104D01*
X90457636Y-95696104D02*
X90838589Y-95696104D01*
X90838589Y-95696104D02*
X91029065Y-95791342D01*
X91029065Y-95791342D02*
X91124303Y-95981819D01*
X91124303Y-95981819D02*
X91124303Y-96172295D01*
X91124303Y-96172295D02*
X90171922Y-96362771D01*
X93505256Y-95981819D02*
X94171923Y-95981819D01*
X94457637Y-97029438D02*
X93505256Y-97029438D01*
X93505256Y-97029438D02*
X93505256Y-95029438D01*
X93505256Y-95029438D02*
X94457637Y-95029438D01*
X95314780Y-95981819D02*
X95981447Y-95981819D01*
X96267161Y-97029438D02*
X95314780Y-97029438D01*
X95314780Y-97029438D02*
X95314780Y-95029438D01*
X95314780Y-95029438D02*
X96267161Y-95029438D01*
X98171923Y-95124676D02*
X97981447Y-95029438D01*
X97981447Y-95029438D02*
X97695733Y-95029438D01*
X97695733Y-95029438D02*
X97410018Y-95124676D01*
X97410018Y-95124676D02*
X97219542Y-95315152D01*
X97219542Y-95315152D02*
X97124304Y-95505628D01*
X97124304Y-95505628D02*
X97029066Y-95886580D01*
X97029066Y-95886580D02*
X97029066Y-96172295D01*
X97029066Y-96172295D02*
X97124304Y-96553247D01*
X97124304Y-96553247D02*
X97219542Y-96743723D01*
X97219542Y-96743723D02*
X97410018Y-96934200D01*
X97410018Y-96934200D02*
X97695733Y-97029438D01*
X97695733Y-97029438D02*
X97886209Y-97029438D01*
X97886209Y-97029438D02*
X98171923Y-96934200D01*
X98171923Y-96934200D02*
X98267161Y-96838961D01*
X98267161Y-96838961D02*
X98267161Y-96172295D01*
X98267161Y-96172295D02*
X97886209Y-96172295D01*
X100552876Y-96934200D02*
X100838590Y-97029438D01*
X100838590Y-97029438D02*
X101314781Y-97029438D01*
X101314781Y-97029438D02*
X101505257Y-96934200D01*
X101505257Y-96934200D02*
X101600495Y-96838961D01*
X101600495Y-96838961D02*
X101695733Y-96648485D01*
X101695733Y-96648485D02*
X101695733Y-96458009D01*
X101695733Y-96458009D02*
X101600495Y-96267533D01*
X101600495Y-96267533D02*
X101505257Y-96172295D01*
X101505257Y-96172295D02*
X101314781Y-96077057D01*
X101314781Y-96077057D02*
X100933828Y-95981819D01*
X100933828Y-95981819D02*
X100743352Y-95886580D01*
X100743352Y-95886580D02*
X100648114Y-95791342D01*
X100648114Y-95791342D02*
X100552876Y-95600866D01*
X100552876Y-95600866D02*
X100552876Y-95410390D01*
X100552876Y-95410390D02*
X100648114Y-95219914D01*
X100648114Y-95219914D02*
X100743352Y-95124676D01*
X100743352Y-95124676D02*
X100933828Y-95029438D01*
X100933828Y-95029438D02*
X101410019Y-95029438D01*
X101410019Y-95029438D02*
X101695733Y-95124676D01*
X103314781Y-96934200D02*
X103124305Y-97029438D01*
X103124305Y-97029438D02*
X102743352Y-97029438D01*
X102743352Y-97029438D02*
X102552876Y-96934200D01*
X102552876Y-96934200D02*
X102457638Y-96743723D01*
X102457638Y-96743723D02*
X102457638Y-95981819D01*
X102457638Y-95981819D02*
X102552876Y-95791342D01*
X102552876Y-95791342D02*
X102743352Y-95696104D01*
X102743352Y-95696104D02*
X103124305Y-95696104D01*
X103124305Y-95696104D02*
X103314781Y-95791342D01*
X103314781Y-95791342D02*
X103410019Y-95981819D01*
X103410019Y-95981819D02*
X103410019Y-96172295D01*
X103410019Y-96172295D02*
X102457638Y-96362771D01*
X104267162Y-95696104D02*
X104267162Y-97029438D01*
X104267162Y-95886580D02*
X104362400Y-95791342D01*
X104362400Y-95791342D02*
X104552876Y-95696104D01*
X104552876Y-95696104D02*
X104838591Y-95696104D01*
X104838591Y-95696104D02*
X105029067Y-95791342D01*
X105029067Y-95791342D02*
X105124305Y-95981819D01*
X105124305Y-95981819D02*
X105124305Y-97029438D01*
X105981448Y-96934200D02*
X106171924Y-97029438D01*
X106171924Y-97029438D02*
X106552876Y-97029438D01*
X106552876Y-97029438D02*
X106743353Y-96934200D01*
X106743353Y-96934200D02*
X106838591Y-96743723D01*
X106838591Y-96743723D02*
X106838591Y-96648485D01*
X106838591Y-96648485D02*
X106743353Y-96458009D01*
X106743353Y-96458009D02*
X106552876Y-96362771D01*
X106552876Y-96362771D02*
X106267162Y-96362771D01*
X106267162Y-96362771D02*
X106076686Y-96267533D01*
X106076686Y-96267533D02*
X105981448Y-96077057D01*
X105981448Y-96077057D02*
X105981448Y-95981819D01*
X105981448Y-95981819D02*
X106076686Y-95791342D01*
X106076686Y-95791342D02*
X106267162Y-95696104D01*
X106267162Y-95696104D02*
X106552876Y-95696104D01*
X106552876Y-95696104D02*
X106743353Y-95791342D01*
X107981448Y-97029438D02*
X107790972Y-96934200D01*
X107790972Y-96934200D02*
X107695734Y-96838961D01*
X107695734Y-96838961D02*
X107600496Y-96648485D01*
X107600496Y-96648485D02*
X107600496Y-96077057D01*
X107600496Y-96077057D02*
X107695734Y-95886580D01*
X107695734Y-95886580D02*
X107790972Y-95791342D01*
X107790972Y-95791342D02*
X107981448Y-95696104D01*
X107981448Y-95696104D02*
X108267163Y-95696104D01*
X108267163Y-95696104D02*
X108457639Y-95791342D01*
X108457639Y-95791342D02*
X108552877Y-95886580D01*
X108552877Y-95886580D02*
X108648115Y-96077057D01*
X108648115Y-96077057D02*
X108648115Y-96648485D01*
X108648115Y-96648485D02*
X108552877Y-96838961D01*
X108552877Y-96838961D02*
X108457639Y-96934200D01*
X108457639Y-96934200D02*
X108267163Y-97029438D01*
X108267163Y-97029438D02*
X107981448Y-97029438D01*
X109505258Y-97029438D02*
X109505258Y-95696104D01*
X109505258Y-96077057D02*
X109600496Y-95886580D01*
X109600496Y-95886580D02*
X109695734Y-95791342D01*
X109695734Y-95791342D02*
X109886210Y-95696104D01*
X109886210Y-95696104D02*
X110076687Y-95696104D01*
X116934039Y-62199719D02*
X116934039Y-63009242D01*
X116934039Y-63009242D02*
X116981658Y-63104480D01*
X116981658Y-63104480D02*
X117029277Y-63152100D01*
X117029277Y-63152100D02*
X117124515Y-63199719D01*
X117124515Y-63199719D02*
X117314991Y-63199719D01*
X117314991Y-63199719D02*
X117410229Y-63152100D01*
X117410229Y-63152100D02*
X117457848Y-63104480D01*
X117457848Y-63104480D02*
X117505467Y-63009242D01*
X117505467Y-63009242D02*
X117505467Y-62199719D01*
X118505467Y-63199719D02*
X117934039Y-63199719D01*
X118219753Y-63199719D02*
X118219753Y-62199719D01*
X118219753Y-62199719D02*
X118124515Y-62342576D01*
X118124515Y-62342576D02*
X118029277Y-62437814D01*
X118029277Y-62437814D02*
X117934039Y-62485433D01*
X137772666Y-147453919D02*
X137772666Y-148168204D01*
X137772666Y-148168204D02*
X137725047Y-148311061D01*
X137725047Y-148311061D02*
X137629809Y-148406300D01*
X137629809Y-148406300D02*
X137486952Y-148453919D01*
X137486952Y-148453919D02*
X137391714Y-148453919D01*
X138677428Y-147787252D02*
X138677428Y-148453919D01*
X138439333Y-147406300D02*
X138201238Y-148120585D01*
X138201238Y-148120585D02*
X138820285Y-148120585D01*
X152759580Y-96686666D02*
X152807200Y-96734285D01*
X152807200Y-96734285D02*
X152854819Y-96877142D01*
X152854819Y-96877142D02*
X152854819Y-96972380D01*
X152854819Y-96972380D02*
X152807200Y-97115237D01*
X152807200Y-97115237D02*
X152711961Y-97210475D01*
X152711961Y-97210475D02*
X152616723Y-97258094D01*
X152616723Y-97258094D02*
X152426247Y-97305713D01*
X152426247Y-97305713D02*
X152283390Y-97305713D01*
X152283390Y-97305713D02*
X152092914Y-97258094D01*
X152092914Y-97258094D02*
X151997676Y-97210475D01*
X151997676Y-97210475D02*
X151902438Y-97115237D01*
X151902438Y-97115237D02*
X151854819Y-96972380D01*
X151854819Y-96972380D02*
X151854819Y-96877142D01*
X151854819Y-96877142D02*
X151902438Y-96734285D01*
X151902438Y-96734285D02*
X151950057Y-96686666D01*
X152854819Y-96210475D02*
X152854819Y-96019999D01*
X152854819Y-96019999D02*
X152807200Y-95924761D01*
X152807200Y-95924761D02*
X152759580Y-95877142D01*
X152759580Y-95877142D02*
X152616723Y-95781904D01*
X152616723Y-95781904D02*
X152426247Y-95734285D01*
X152426247Y-95734285D02*
X152045295Y-95734285D01*
X152045295Y-95734285D02*
X151950057Y-95781904D01*
X151950057Y-95781904D02*
X151902438Y-95829523D01*
X151902438Y-95829523D02*
X151854819Y-95924761D01*
X151854819Y-95924761D02*
X151854819Y-96115237D01*
X151854819Y-96115237D02*
X151902438Y-96210475D01*
X151902438Y-96210475D02*
X151950057Y-96258094D01*
X151950057Y-96258094D02*
X152045295Y-96305713D01*
X152045295Y-96305713D02*
X152283390Y-96305713D01*
X152283390Y-96305713D02*
X152378628Y-96258094D01*
X152378628Y-96258094D02*
X152426247Y-96210475D01*
X152426247Y-96210475D02*
X152473866Y-96115237D01*
X152473866Y-96115237D02*
X152473866Y-95924761D01*
X152473866Y-95924761D02*
X152426247Y-95829523D01*
X152426247Y-95829523D02*
X152378628Y-95781904D01*
X152378628Y-95781904D02*
X152283390Y-95734285D01*
X194771476Y-87539407D02*
X194771476Y-88253692D01*
X194771476Y-88253692D02*
X194723857Y-88396549D01*
X194723857Y-88396549D02*
X194628619Y-88491788D01*
X194628619Y-88491788D02*
X194485762Y-88539407D01*
X194485762Y-88539407D02*
X194390524Y-88539407D01*
X195771476Y-88539407D02*
X195200048Y-88539407D01*
X195485762Y-88539407D02*
X195485762Y-87539407D01*
X195485762Y-87539407D02*
X195390524Y-87682264D01*
X195390524Y-87682264D02*
X195295286Y-87777502D01*
X195295286Y-87777502D02*
X195200048Y-87825121D01*
X196628619Y-87872740D02*
X196628619Y-88539407D01*
X196390524Y-87491788D02*
X196152429Y-88206073D01*
X196152429Y-88206073D02*
X196771476Y-88206073D01*
X195246666Y-101568819D02*
X195246666Y-102283104D01*
X195246666Y-102283104D02*
X195199047Y-102425961D01*
X195199047Y-102425961D02*
X195103809Y-102521200D01*
X195103809Y-102521200D02*
X194960952Y-102568819D01*
X194960952Y-102568819D02*
X194865714Y-102568819D01*
X195770476Y-102568819D02*
X195960952Y-102568819D01*
X195960952Y-102568819D02*
X196056190Y-102521200D01*
X196056190Y-102521200D02*
X196103809Y-102473580D01*
X196103809Y-102473580D02*
X196199047Y-102330723D01*
X196199047Y-102330723D02*
X196246666Y-102140247D01*
X196246666Y-102140247D02*
X196246666Y-101759295D01*
X196246666Y-101759295D02*
X196199047Y-101664057D01*
X196199047Y-101664057D02*
X196151428Y-101616438D01*
X196151428Y-101616438D02*
X196056190Y-101568819D01*
X196056190Y-101568819D02*
X195865714Y-101568819D01*
X195865714Y-101568819D02*
X195770476Y-101616438D01*
X195770476Y-101616438D02*
X195722857Y-101664057D01*
X195722857Y-101664057D02*
X195675238Y-101759295D01*
X195675238Y-101759295D02*
X195675238Y-101997390D01*
X195675238Y-101997390D02*
X195722857Y-102092628D01*
X195722857Y-102092628D02*
X195770476Y-102140247D01*
X195770476Y-102140247D02*
X195865714Y-102187866D01*
X195865714Y-102187866D02*
X196056190Y-102187866D01*
X196056190Y-102187866D02*
X196151428Y-102140247D01*
X196151428Y-102140247D02*
X196199047Y-102092628D01*
X196199047Y-102092628D02*
X196246666Y-101997390D01*
X147774819Y-99226666D02*
X147298628Y-99559999D01*
X147774819Y-99798094D02*
X146774819Y-99798094D01*
X146774819Y-99798094D02*
X146774819Y-99417142D01*
X146774819Y-99417142D02*
X146822438Y-99321904D01*
X146822438Y-99321904D02*
X146870057Y-99274285D01*
X146870057Y-99274285D02*
X146965295Y-99226666D01*
X146965295Y-99226666D02*
X147108152Y-99226666D01*
X147108152Y-99226666D02*
X147203390Y-99274285D01*
X147203390Y-99274285D02*
X147251009Y-99321904D01*
X147251009Y-99321904D02*
X147298628Y-99417142D01*
X147298628Y-99417142D02*
X147298628Y-99798094D01*
X147203390Y-98655237D02*
X147155771Y-98750475D01*
X147155771Y-98750475D02*
X147108152Y-98798094D01*
X147108152Y-98798094D02*
X147012914Y-98845713D01*
X147012914Y-98845713D02*
X146965295Y-98845713D01*
X146965295Y-98845713D02*
X146870057Y-98798094D01*
X146870057Y-98798094D02*
X146822438Y-98750475D01*
X146822438Y-98750475D02*
X146774819Y-98655237D01*
X146774819Y-98655237D02*
X146774819Y-98464761D01*
X146774819Y-98464761D02*
X146822438Y-98369523D01*
X146822438Y-98369523D02*
X146870057Y-98321904D01*
X146870057Y-98321904D02*
X146965295Y-98274285D01*
X146965295Y-98274285D02*
X147012914Y-98274285D01*
X147012914Y-98274285D02*
X147108152Y-98321904D01*
X147108152Y-98321904D02*
X147155771Y-98369523D01*
X147155771Y-98369523D02*
X147203390Y-98464761D01*
X147203390Y-98464761D02*
X147203390Y-98655237D01*
X147203390Y-98655237D02*
X147251009Y-98750475D01*
X147251009Y-98750475D02*
X147298628Y-98798094D01*
X147298628Y-98798094D02*
X147393866Y-98845713D01*
X147393866Y-98845713D02*
X147584342Y-98845713D01*
X147584342Y-98845713D02*
X147679580Y-98798094D01*
X147679580Y-98798094D02*
X147727200Y-98750475D01*
X147727200Y-98750475D02*
X147774819Y-98655237D01*
X147774819Y-98655237D02*
X147774819Y-98464761D01*
X147774819Y-98464761D02*
X147727200Y-98369523D01*
X147727200Y-98369523D02*
X147679580Y-98321904D01*
X147679580Y-98321904D02*
X147584342Y-98274285D01*
X147584342Y-98274285D02*
X147393866Y-98274285D01*
X147393866Y-98274285D02*
X147298628Y-98321904D01*
X147298628Y-98321904D02*
X147251009Y-98369523D01*
X147251009Y-98369523D02*
X147203390Y-98464761D01*
X89382610Y-81032090D02*
X89382610Y-81746375D01*
X89382610Y-81746375D02*
X89334991Y-81889232D01*
X89334991Y-81889232D02*
X89239753Y-81984471D01*
X89239753Y-81984471D02*
X89096896Y-82032090D01*
X89096896Y-82032090D02*
X89001658Y-82032090D01*
X89811182Y-81127328D02*
X89858801Y-81079709D01*
X89858801Y-81079709D02*
X89954039Y-81032090D01*
X89954039Y-81032090D02*
X90192134Y-81032090D01*
X90192134Y-81032090D02*
X90287372Y-81079709D01*
X90287372Y-81079709D02*
X90334991Y-81127328D01*
X90334991Y-81127328D02*
X90382610Y-81222566D01*
X90382610Y-81222566D02*
X90382610Y-81317804D01*
X90382610Y-81317804D02*
X90334991Y-81460661D01*
X90334991Y-81460661D02*
X89763563Y-82032090D01*
X89763563Y-82032090D02*
X90382610Y-82032090D01*
X183334819Y-68968857D02*
X182858628Y-69302190D01*
X183334819Y-69540285D02*
X182334819Y-69540285D01*
X182334819Y-69540285D02*
X182334819Y-69159333D01*
X182334819Y-69159333D02*
X182382438Y-69064095D01*
X182382438Y-69064095D02*
X182430057Y-69016476D01*
X182430057Y-69016476D02*
X182525295Y-68968857D01*
X182525295Y-68968857D02*
X182668152Y-68968857D01*
X182668152Y-68968857D02*
X182763390Y-69016476D01*
X182763390Y-69016476D02*
X182811009Y-69064095D01*
X182811009Y-69064095D02*
X182858628Y-69159333D01*
X182858628Y-69159333D02*
X182858628Y-69540285D01*
X182430057Y-68587904D02*
X182382438Y-68540285D01*
X182382438Y-68540285D02*
X182334819Y-68445047D01*
X182334819Y-68445047D02*
X182334819Y-68206952D01*
X182334819Y-68206952D02*
X182382438Y-68111714D01*
X182382438Y-68111714D02*
X182430057Y-68064095D01*
X182430057Y-68064095D02*
X182525295Y-68016476D01*
X182525295Y-68016476D02*
X182620533Y-68016476D01*
X182620533Y-68016476D02*
X182763390Y-68064095D01*
X182763390Y-68064095D02*
X183334819Y-68635523D01*
X183334819Y-68635523D02*
X183334819Y-68016476D01*
X182668152Y-67159333D02*
X183334819Y-67159333D01*
X182287200Y-67397428D02*
X183001485Y-67635523D01*
X183001485Y-67635523D02*
X183001485Y-67016476D01*
X117818819Y-105598504D02*
X118628342Y-105598504D01*
X118628342Y-105598504D02*
X118723580Y-105550885D01*
X118723580Y-105550885D02*
X118771200Y-105503266D01*
X118771200Y-105503266D02*
X118818819Y-105408028D01*
X118818819Y-105408028D02*
X118818819Y-105217552D01*
X118818819Y-105217552D02*
X118771200Y-105122314D01*
X118771200Y-105122314D02*
X118723580Y-105074695D01*
X118723580Y-105074695D02*
X118628342Y-105027076D01*
X118628342Y-105027076D02*
X117818819Y-105027076D01*
X118152152Y-104122314D02*
X118818819Y-104122314D01*
X117771200Y-104360409D02*
X118485485Y-104598504D01*
X118485485Y-104598504D02*
X118485485Y-103979457D01*
X181816476Y-145709819D02*
X181816476Y-146424104D01*
X181816476Y-146424104D02*
X181768857Y-146566961D01*
X181768857Y-146566961D02*
X181673619Y-146662200D01*
X181673619Y-146662200D02*
X181530762Y-146709819D01*
X181530762Y-146709819D02*
X181435524Y-146709819D01*
X182816476Y-146709819D02*
X182245048Y-146709819D01*
X182530762Y-146709819D02*
X182530762Y-145709819D01*
X182530762Y-145709819D02*
X182435524Y-145852676D01*
X182435524Y-145852676D02*
X182340286Y-145947914D01*
X182340286Y-145947914D02*
X182245048Y-145995533D01*
X183197429Y-145805057D02*
X183245048Y-145757438D01*
X183245048Y-145757438D02*
X183340286Y-145709819D01*
X183340286Y-145709819D02*
X183578381Y-145709819D01*
X183578381Y-145709819D02*
X183673619Y-145757438D01*
X183673619Y-145757438D02*
X183721238Y-145805057D01*
X183721238Y-145805057D02*
X183768857Y-145900295D01*
X183768857Y-145900295D02*
X183768857Y-145995533D01*
X183768857Y-145995533D02*
X183721238Y-146138390D01*
X183721238Y-146138390D02*
X183149810Y-146709819D01*
X183149810Y-146709819D02*
X183768857Y-146709819D01*
X109220763Y-60072666D02*
X108744572Y-60405999D01*
X109220763Y-60644094D02*
X108220763Y-60644094D01*
X108220763Y-60644094D02*
X108220763Y-60263142D01*
X108220763Y-60263142D02*
X108268382Y-60167904D01*
X108268382Y-60167904D02*
X108316001Y-60120285D01*
X108316001Y-60120285D02*
X108411239Y-60072666D01*
X108411239Y-60072666D02*
X108554096Y-60072666D01*
X108554096Y-60072666D02*
X108649334Y-60120285D01*
X108649334Y-60120285D02*
X108696953Y-60167904D01*
X108696953Y-60167904D02*
X108744572Y-60263142D01*
X108744572Y-60263142D02*
X108744572Y-60644094D01*
X108316001Y-59691713D02*
X108268382Y-59644094D01*
X108268382Y-59644094D02*
X108220763Y-59548856D01*
X108220763Y-59548856D02*
X108220763Y-59310761D01*
X108220763Y-59310761D02*
X108268382Y-59215523D01*
X108268382Y-59215523D02*
X108316001Y-59167904D01*
X108316001Y-59167904D02*
X108411239Y-59120285D01*
X108411239Y-59120285D02*
X108506477Y-59120285D01*
X108506477Y-59120285D02*
X108649334Y-59167904D01*
X108649334Y-59167904D02*
X109220763Y-59739332D01*
X109220763Y-59739332D02*
X109220763Y-59120285D01*
X100266667Y-140869200D02*
X100409524Y-140916819D01*
X100409524Y-140916819D02*
X100647619Y-140916819D01*
X100647619Y-140916819D02*
X100742857Y-140869200D01*
X100742857Y-140869200D02*
X100790476Y-140821580D01*
X100790476Y-140821580D02*
X100838095Y-140726342D01*
X100838095Y-140726342D02*
X100838095Y-140631104D01*
X100838095Y-140631104D02*
X100790476Y-140535866D01*
X100790476Y-140535866D02*
X100742857Y-140488247D01*
X100742857Y-140488247D02*
X100647619Y-140440628D01*
X100647619Y-140440628D02*
X100457143Y-140393009D01*
X100457143Y-140393009D02*
X100361905Y-140345390D01*
X100361905Y-140345390D02*
X100314286Y-140297771D01*
X100314286Y-140297771D02*
X100266667Y-140202533D01*
X100266667Y-140202533D02*
X100266667Y-140107295D01*
X100266667Y-140107295D02*
X100314286Y-140012057D01*
X100314286Y-140012057D02*
X100361905Y-139964438D01*
X100361905Y-139964438D02*
X100457143Y-139916819D01*
X100457143Y-139916819D02*
X100695238Y-139916819D01*
X100695238Y-139916819D02*
X100838095Y-139964438D01*
X101171429Y-139916819D02*
X101409524Y-140916819D01*
X101409524Y-140916819D02*
X101600000Y-140202533D01*
X101600000Y-140202533D02*
X101790476Y-140916819D01*
X101790476Y-140916819D02*
X102028572Y-139916819D01*
X102933333Y-140916819D02*
X102361905Y-140916819D01*
X102647619Y-140916819D02*
X102647619Y-139916819D01*
X102647619Y-139916819D02*
X102552381Y-140059676D01*
X102552381Y-140059676D02*
X102457143Y-140154914D01*
X102457143Y-140154914D02*
X102361905Y-140202533D01*
X82784839Y-66419407D02*
X82784839Y-67133692D01*
X82784839Y-67133692D02*
X82737220Y-67276549D01*
X82737220Y-67276549D02*
X82641982Y-67371788D01*
X82641982Y-67371788D02*
X82499125Y-67419407D01*
X82499125Y-67419407D02*
X82403887Y-67419407D01*
X83689601Y-66419407D02*
X83499125Y-66419407D01*
X83499125Y-66419407D02*
X83403887Y-66467026D01*
X83403887Y-66467026D02*
X83356268Y-66514645D01*
X83356268Y-66514645D02*
X83261030Y-66657502D01*
X83261030Y-66657502D02*
X83213411Y-66847978D01*
X83213411Y-66847978D02*
X83213411Y-67228930D01*
X83213411Y-67228930D02*
X83261030Y-67324168D01*
X83261030Y-67324168D02*
X83308649Y-67371788D01*
X83308649Y-67371788D02*
X83403887Y-67419407D01*
X83403887Y-67419407D02*
X83594363Y-67419407D01*
X83594363Y-67419407D02*
X83689601Y-67371788D01*
X83689601Y-67371788D02*
X83737220Y-67324168D01*
X83737220Y-67324168D02*
X83784839Y-67228930D01*
X83784839Y-67228930D02*
X83784839Y-66990835D01*
X83784839Y-66990835D02*
X83737220Y-66895597D01*
X83737220Y-66895597D02*
X83689601Y-66847978D01*
X83689601Y-66847978D02*
X83594363Y-66800359D01*
X83594363Y-66800359D02*
X83403887Y-66800359D01*
X83403887Y-66800359D02*
X83308649Y-66847978D01*
X83308649Y-66847978D02*
X83261030Y-66895597D01*
X83261030Y-66895597D02*
X83213411Y-66990835D01*
X107140476Y-117056819D02*
X107140476Y-117771104D01*
X107140476Y-117771104D02*
X107092857Y-117913961D01*
X107092857Y-117913961D02*
X106997619Y-118009200D01*
X106997619Y-118009200D02*
X106854762Y-118056819D01*
X106854762Y-118056819D02*
X106759524Y-118056819D01*
X108140476Y-118056819D02*
X107569048Y-118056819D01*
X107854762Y-118056819D02*
X107854762Y-117056819D01*
X107854762Y-117056819D02*
X107759524Y-117199676D01*
X107759524Y-117199676D02*
X107664286Y-117294914D01*
X107664286Y-117294914D02*
X107569048Y-117342533D01*
X109092857Y-118056819D02*
X108521429Y-118056819D01*
X108807143Y-118056819D02*
X108807143Y-117056819D01*
X108807143Y-117056819D02*
X108711905Y-117199676D01*
X108711905Y-117199676D02*
X108616667Y-117294914D01*
X108616667Y-117294914D02*
X108521429Y-117342533D01*
X158816476Y-127469819D02*
X158816476Y-128184104D01*
X158816476Y-128184104D02*
X158768857Y-128326961D01*
X158768857Y-128326961D02*
X158673619Y-128422200D01*
X158673619Y-128422200D02*
X158530762Y-128469819D01*
X158530762Y-128469819D02*
X158435524Y-128469819D01*
X159816476Y-128469819D02*
X159245048Y-128469819D01*
X159530762Y-128469819D02*
X159530762Y-127469819D01*
X159530762Y-127469819D02*
X159435524Y-127612676D01*
X159435524Y-127612676D02*
X159340286Y-127707914D01*
X159340286Y-127707914D02*
X159245048Y-127755533D01*
X160149810Y-127469819D02*
X160768857Y-127469819D01*
X160768857Y-127469819D02*
X160435524Y-127850771D01*
X160435524Y-127850771D02*
X160578381Y-127850771D01*
X160578381Y-127850771D02*
X160673619Y-127898390D01*
X160673619Y-127898390D02*
X160721238Y-127946009D01*
X160721238Y-127946009D02*
X160768857Y-128041247D01*
X160768857Y-128041247D02*
X160768857Y-128279342D01*
X160768857Y-128279342D02*
X160721238Y-128374580D01*
X160721238Y-128374580D02*
X160673619Y-128422200D01*
X160673619Y-128422200D02*
X160578381Y-128469819D01*
X160578381Y-128469819D02*
X160292667Y-128469819D01*
X160292667Y-128469819D02*
X160197429Y-128422200D01*
X160197429Y-128422200D02*
X160149810Y-128374580D01*
X178084819Y-69222857D02*
X177608628Y-69556190D01*
X178084819Y-69794285D02*
X177084819Y-69794285D01*
X177084819Y-69794285D02*
X177084819Y-69413333D01*
X177084819Y-69413333D02*
X177132438Y-69318095D01*
X177132438Y-69318095D02*
X177180057Y-69270476D01*
X177180057Y-69270476D02*
X177275295Y-69222857D01*
X177275295Y-69222857D02*
X177418152Y-69222857D01*
X177418152Y-69222857D02*
X177513390Y-69270476D01*
X177513390Y-69270476D02*
X177561009Y-69318095D01*
X177561009Y-69318095D02*
X177608628Y-69413333D01*
X177608628Y-69413333D02*
X177608628Y-69794285D01*
X177180057Y-68841904D02*
X177132438Y-68794285D01*
X177132438Y-68794285D02*
X177084819Y-68699047D01*
X177084819Y-68699047D02*
X177084819Y-68460952D01*
X177084819Y-68460952D02*
X177132438Y-68365714D01*
X177132438Y-68365714D02*
X177180057Y-68318095D01*
X177180057Y-68318095D02*
X177275295Y-68270476D01*
X177275295Y-68270476D02*
X177370533Y-68270476D01*
X177370533Y-68270476D02*
X177513390Y-68318095D01*
X177513390Y-68318095D02*
X178084819Y-68889523D01*
X178084819Y-68889523D02*
X178084819Y-68270476D01*
X177084819Y-67937142D02*
X177084819Y-67318095D01*
X177084819Y-67318095D02*
X177465771Y-67651428D01*
X177465771Y-67651428D02*
X177465771Y-67508571D01*
X177465771Y-67508571D02*
X177513390Y-67413333D01*
X177513390Y-67413333D02*
X177561009Y-67365714D01*
X177561009Y-67365714D02*
X177656247Y-67318095D01*
X177656247Y-67318095D02*
X177894342Y-67318095D01*
X177894342Y-67318095D02*
X177989580Y-67365714D01*
X177989580Y-67365714D02*
X178037200Y-67413333D01*
X178037200Y-67413333D02*
X178084819Y-67508571D01*
X178084819Y-67508571D02*
X178084819Y-67794285D01*
X178084819Y-67794285D02*
X178037200Y-67889523D01*
X178037200Y-67889523D02*
X177989580Y-67937142D01*
X157934819Y-68746666D02*
X157458628Y-69079999D01*
X157934819Y-69318094D02*
X156934819Y-69318094D01*
X156934819Y-69318094D02*
X156934819Y-68937142D01*
X156934819Y-68937142D02*
X156982438Y-68841904D01*
X156982438Y-68841904D02*
X157030057Y-68794285D01*
X157030057Y-68794285D02*
X157125295Y-68746666D01*
X157125295Y-68746666D02*
X157268152Y-68746666D01*
X157268152Y-68746666D02*
X157363390Y-68794285D01*
X157363390Y-68794285D02*
X157411009Y-68841904D01*
X157411009Y-68841904D02*
X157458628Y-68937142D01*
X157458628Y-68937142D02*
X157458628Y-69318094D01*
X157934819Y-68270475D02*
X157934819Y-68079999D01*
X157934819Y-68079999D02*
X157887200Y-67984761D01*
X157887200Y-67984761D02*
X157839580Y-67937142D01*
X157839580Y-67937142D02*
X157696723Y-67841904D01*
X157696723Y-67841904D02*
X157506247Y-67794285D01*
X157506247Y-67794285D02*
X157125295Y-67794285D01*
X157125295Y-67794285D02*
X157030057Y-67841904D01*
X157030057Y-67841904D02*
X156982438Y-67889523D01*
X156982438Y-67889523D02*
X156934819Y-67984761D01*
X156934819Y-67984761D02*
X156934819Y-68175237D01*
X156934819Y-68175237D02*
X156982438Y-68270475D01*
X156982438Y-68270475D02*
X157030057Y-68318094D01*
X157030057Y-68318094D02*
X157125295Y-68365713D01*
X157125295Y-68365713D02*
X157363390Y-68365713D01*
X157363390Y-68365713D02*
X157458628Y-68318094D01*
X157458628Y-68318094D02*
X157506247Y-68270475D01*
X157506247Y-68270475D02*
X157553866Y-68175237D01*
X157553866Y-68175237D02*
X157553866Y-67984761D01*
X157553866Y-67984761D02*
X157506247Y-67889523D01*
X157506247Y-67889523D02*
X157458628Y-67841904D01*
X157458628Y-67841904D02*
X157363390Y-67794285D01*
X151922819Y-109862857D02*
X151446628Y-110196190D01*
X151922819Y-110434285D02*
X150922819Y-110434285D01*
X150922819Y-110434285D02*
X150922819Y-110053333D01*
X150922819Y-110053333D02*
X150970438Y-109958095D01*
X150970438Y-109958095D02*
X151018057Y-109910476D01*
X151018057Y-109910476D02*
X151113295Y-109862857D01*
X151113295Y-109862857D02*
X151256152Y-109862857D01*
X151256152Y-109862857D02*
X151351390Y-109910476D01*
X151351390Y-109910476D02*
X151399009Y-109958095D01*
X151399009Y-109958095D02*
X151446628Y-110053333D01*
X151446628Y-110053333D02*
X151446628Y-110434285D01*
X151922819Y-108910476D02*
X151922819Y-109481904D01*
X151922819Y-109196190D02*
X150922819Y-109196190D01*
X150922819Y-109196190D02*
X151065676Y-109291428D01*
X151065676Y-109291428D02*
X151160914Y-109386666D01*
X151160914Y-109386666D02*
X151208533Y-109481904D01*
X151018057Y-108529523D02*
X150970438Y-108481904D01*
X150970438Y-108481904D02*
X150922819Y-108386666D01*
X150922819Y-108386666D02*
X150922819Y-108148571D01*
X150922819Y-108148571D02*
X150970438Y-108053333D01*
X150970438Y-108053333D02*
X151018057Y-108005714D01*
X151018057Y-108005714D02*
X151113295Y-107958095D01*
X151113295Y-107958095D02*
X151208533Y-107958095D01*
X151208533Y-107958095D02*
X151351390Y-108005714D01*
X151351390Y-108005714D02*
X151922819Y-108577142D01*
X151922819Y-108577142D02*
X151922819Y-107958095D01*
X192278095Y-63446819D02*
X192278095Y-62446819D01*
X192278095Y-62923009D02*
X192849523Y-62923009D01*
X192849523Y-63446819D02*
X192849523Y-62446819D01*
X193278095Y-62542057D02*
X193325714Y-62494438D01*
X193325714Y-62494438D02*
X193420952Y-62446819D01*
X193420952Y-62446819D02*
X193659047Y-62446819D01*
X193659047Y-62446819D02*
X193754285Y-62494438D01*
X193754285Y-62494438D02*
X193801904Y-62542057D01*
X193801904Y-62542057D02*
X193849523Y-62637295D01*
X193849523Y-62637295D02*
X193849523Y-62732533D01*
X193849523Y-62732533D02*
X193801904Y-62875390D01*
X193801904Y-62875390D02*
X193230476Y-63446819D01*
X193230476Y-63446819D02*
X193849523Y-63446819D01*
X89728666Y-52455407D02*
X89728666Y-53169692D01*
X89728666Y-53169692D02*
X89681047Y-53312549D01*
X89681047Y-53312549D02*
X89585809Y-53407788D01*
X89585809Y-53407788D02*
X89442952Y-53455407D01*
X89442952Y-53455407D02*
X89347714Y-53455407D01*
X90728666Y-53455407D02*
X90157238Y-53455407D01*
X90442952Y-53455407D02*
X90442952Y-52455407D01*
X90442952Y-52455407D02*
X90347714Y-52598264D01*
X90347714Y-52598264D02*
X90252476Y-52693502D01*
X90252476Y-52693502D02*
X90157238Y-52741121D01*
X192278095Y-149552819D02*
X192278095Y-148552819D01*
X192278095Y-149029009D02*
X192849523Y-149029009D01*
X192849523Y-149552819D02*
X192849523Y-148552819D01*
X193754285Y-148886152D02*
X193754285Y-149552819D01*
X193516190Y-148505200D02*
X193278095Y-149219485D01*
X193278095Y-149219485D02*
X193897142Y-149219485D01*
X107801580Y-127046078D02*
X107849200Y-127093697D01*
X107849200Y-127093697D02*
X107896819Y-127236554D01*
X107896819Y-127236554D02*
X107896819Y-127331792D01*
X107896819Y-127331792D02*
X107849200Y-127474649D01*
X107849200Y-127474649D02*
X107753961Y-127569887D01*
X107753961Y-127569887D02*
X107658723Y-127617506D01*
X107658723Y-127617506D02*
X107468247Y-127665125D01*
X107468247Y-127665125D02*
X107325390Y-127665125D01*
X107325390Y-127665125D02*
X107134914Y-127617506D01*
X107134914Y-127617506D02*
X107039676Y-127569887D01*
X107039676Y-127569887D02*
X106944438Y-127474649D01*
X106944438Y-127474649D02*
X106896819Y-127331792D01*
X106896819Y-127331792D02*
X106896819Y-127236554D01*
X106896819Y-127236554D02*
X106944438Y-127093697D01*
X106944438Y-127093697D02*
X106992057Y-127046078D01*
X107896819Y-126093697D02*
X107896819Y-126665125D01*
X107896819Y-126379411D02*
X106896819Y-126379411D01*
X106896819Y-126379411D02*
X107039676Y-126474649D01*
X107039676Y-126474649D02*
X107134914Y-126569887D01*
X107134914Y-126569887D02*
X107182533Y-126665125D01*
X149965580Y-67959779D02*
X150013200Y-68007398D01*
X150013200Y-68007398D02*
X150060819Y-68150255D01*
X150060819Y-68150255D02*
X150060819Y-68245493D01*
X150060819Y-68245493D02*
X150013200Y-68388350D01*
X150013200Y-68388350D02*
X149917961Y-68483588D01*
X149917961Y-68483588D02*
X149822723Y-68531207D01*
X149822723Y-68531207D02*
X149632247Y-68578826D01*
X149632247Y-68578826D02*
X149489390Y-68578826D01*
X149489390Y-68578826D02*
X149298914Y-68531207D01*
X149298914Y-68531207D02*
X149203676Y-68483588D01*
X149203676Y-68483588D02*
X149108438Y-68388350D01*
X149108438Y-68388350D02*
X149060819Y-68245493D01*
X149060819Y-68245493D02*
X149060819Y-68150255D01*
X149060819Y-68150255D02*
X149108438Y-68007398D01*
X149108438Y-68007398D02*
X149156057Y-67959779D01*
X149394152Y-67102636D02*
X150060819Y-67102636D01*
X149013200Y-67340731D02*
X149727485Y-67578826D01*
X149727485Y-67578826D02*
X149727485Y-66959779D01*
X145462666Y-147199919D02*
X145462666Y-147914204D01*
X145462666Y-147914204D02*
X145415047Y-148057061D01*
X145415047Y-148057061D02*
X145319809Y-148152300D01*
X145319809Y-148152300D02*
X145176952Y-148199919D01*
X145176952Y-148199919D02*
X145081714Y-148199919D01*
X145843619Y-147199919D02*
X146462666Y-147199919D01*
X146462666Y-147199919D02*
X146129333Y-147580871D01*
X146129333Y-147580871D02*
X146272190Y-147580871D01*
X146272190Y-147580871D02*
X146367428Y-147628490D01*
X146367428Y-147628490D02*
X146415047Y-147676109D01*
X146415047Y-147676109D02*
X146462666Y-147771347D01*
X146462666Y-147771347D02*
X146462666Y-148009442D01*
X146462666Y-148009442D02*
X146415047Y-148104680D01*
X146415047Y-148104680D02*
X146367428Y-148152300D01*
X146367428Y-148152300D02*
X146272190Y-148199919D01*
X146272190Y-148199919D02*
X145986476Y-148199919D01*
X145986476Y-148199919D02*
X145891238Y-148152300D01*
X145891238Y-148152300D02*
X145843619Y-148104680D01*
X83058095Y-149552819D02*
X83058095Y-148552819D01*
X83058095Y-149029009D02*
X83629523Y-149029009D01*
X83629523Y-149552819D02*
X83629523Y-148552819D01*
X84010476Y-148552819D02*
X84629523Y-148552819D01*
X84629523Y-148552819D02*
X84296190Y-148933771D01*
X84296190Y-148933771D02*
X84439047Y-148933771D01*
X84439047Y-148933771D02*
X84534285Y-148981390D01*
X84534285Y-148981390D02*
X84581904Y-149029009D01*
X84581904Y-149029009D02*
X84629523Y-149124247D01*
X84629523Y-149124247D02*
X84629523Y-149362342D01*
X84629523Y-149362342D02*
X84581904Y-149457580D01*
X84581904Y-149457580D02*
X84534285Y-149505200D01*
X84534285Y-149505200D02*
X84439047Y-149552819D01*
X84439047Y-149552819D02*
X84153333Y-149552819D01*
X84153333Y-149552819D02*
X84058095Y-149505200D01*
X84058095Y-149505200D02*
X84010476Y-149457580D01*
X185620819Y-84208857D02*
X185144628Y-84542190D01*
X185620819Y-84780285D02*
X184620819Y-84780285D01*
X184620819Y-84780285D02*
X184620819Y-84399333D01*
X184620819Y-84399333D02*
X184668438Y-84304095D01*
X184668438Y-84304095D02*
X184716057Y-84256476D01*
X184716057Y-84256476D02*
X184811295Y-84208857D01*
X184811295Y-84208857D02*
X184954152Y-84208857D01*
X184954152Y-84208857D02*
X185049390Y-84256476D01*
X185049390Y-84256476D02*
X185097009Y-84304095D01*
X185097009Y-84304095D02*
X185144628Y-84399333D01*
X185144628Y-84399333D02*
X185144628Y-84780285D01*
X184716057Y-83827904D02*
X184668438Y-83780285D01*
X184668438Y-83780285D02*
X184620819Y-83685047D01*
X184620819Y-83685047D02*
X184620819Y-83446952D01*
X184620819Y-83446952D02*
X184668438Y-83351714D01*
X184668438Y-83351714D02*
X184716057Y-83304095D01*
X184716057Y-83304095D02*
X184811295Y-83256476D01*
X184811295Y-83256476D02*
X184906533Y-83256476D01*
X184906533Y-83256476D02*
X185049390Y-83304095D01*
X185049390Y-83304095D02*
X185620819Y-83875523D01*
X185620819Y-83875523D02*
X185620819Y-83256476D01*
X185049390Y-82685047D02*
X185001771Y-82780285D01*
X185001771Y-82780285D02*
X184954152Y-82827904D01*
X184954152Y-82827904D02*
X184858914Y-82875523D01*
X184858914Y-82875523D02*
X184811295Y-82875523D01*
X184811295Y-82875523D02*
X184716057Y-82827904D01*
X184716057Y-82827904D02*
X184668438Y-82780285D01*
X184668438Y-82780285D02*
X184620819Y-82685047D01*
X184620819Y-82685047D02*
X184620819Y-82494571D01*
X184620819Y-82494571D02*
X184668438Y-82399333D01*
X184668438Y-82399333D02*
X184716057Y-82351714D01*
X184716057Y-82351714D02*
X184811295Y-82304095D01*
X184811295Y-82304095D02*
X184858914Y-82304095D01*
X184858914Y-82304095D02*
X184954152Y-82351714D01*
X184954152Y-82351714D02*
X185001771Y-82399333D01*
X185001771Y-82399333D02*
X185049390Y-82494571D01*
X185049390Y-82494571D02*
X185049390Y-82685047D01*
X185049390Y-82685047D02*
X185097009Y-82780285D01*
X185097009Y-82780285D02*
X185144628Y-82827904D01*
X185144628Y-82827904D02*
X185239866Y-82875523D01*
X185239866Y-82875523D02*
X185430342Y-82875523D01*
X185430342Y-82875523D02*
X185525580Y-82827904D01*
X185525580Y-82827904D02*
X185573200Y-82780285D01*
X185573200Y-82780285D02*
X185620819Y-82685047D01*
X185620819Y-82685047D02*
X185620819Y-82494571D01*
X185620819Y-82494571D02*
X185573200Y-82399333D01*
X185573200Y-82399333D02*
X185525580Y-82351714D01*
X185525580Y-82351714D02*
X185430342Y-82304095D01*
X185430342Y-82304095D02*
X185239866Y-82304095D01*
X185239866Y-82304095D02*
X185144628Y-82351714D01*
X185144628Y-82351714D02*
X185097009Y-82399333D01*
X185097009Y-82399333D02*
X185049390Y-82494571D01*
X180540819Y-84462857D02*
X180064628Y-84796190D01*
X180540819Y-85034285D02*
X179540819Y-85034285D01*
X179540819Y-85034285D02*
X179540819Y-84653333D01*
X179540819Y-84653333D02*
X179588438Y-84558095D01*
X179588438Y-84558095D02*
X179636057Y-84510476D01*
X179636057Y-84510476D02*
X179731295Y-84462857D01*
X179731295Y-84462857D02*
X179874152Y-84462857D01*
X179874152Y-84462857D02*
X179969390Y-84510476D01*
X179969390Y-84510476D02*
X180017009Y-84558095D01*
X180017009Y-84558095D02*
X180064628Y-84653333D01*
X180064628Y-84653333D02*
X180064628Y-85034285D01*
X179636057Y-84081904D02*
X179588438Y-84034285D01*
X179588438Y-84034285D02*
X179540819Y-83939047D01*
X179540819Y-83939047D02*
X179540819Y-83700952D01*
X179540819Y-83700952D02*
X179588438Y-83605714D01*
X179588438Y-83605714D02*
X179636057Y-83558095D01*
X179636057Y-83558095D02*
X179731295Y-83510476D01*
X179731295Y-83510476D02*
X179826533Y-83510476D01*
X179826533Y-83510476D02*
X179969390Y-83558095D01*
X179969390Y-83558095D02*
X180540819Y-84129523D01*
X180540819Y-84129523D02*
X180540819Y-83510476D01*
X179636057Y-83129523D02*
X179588438Y-83081904D01*
X179588438Y-83081904D02*
X179540819Y-82986666D01*
X179540819Y-82986666D02*
X179540819Y-82748571D01*
X179540819Y-82748571D02*
X179588438Y-82653333D01*
X179588438Y-82653333D02*
X179636057Y-82605714D01*
X179636057Y-82605714D02*
X179731295Y-82558095D01*
X179731295Y-82558095D02*
X179826533Y-82558095D01*
X179826533Y-82558095D02*
X179969390Y-82605714D01*
X179969390Y-82605714D02*
X180540819Y-83177142D01*
X180540819Y-83177142D02*
X180540819Y-82558095D01*
X149806819Y-79382857D02*
X149330628Y-79716190D01*
X149806819Y-79954285D02*
X148806819Y-79954285D01*
X148806819Y-79954285D02*
X148806819Y-79573333D01*
X148806819Y-79573333D02*
X148854438Y-79478095D01*
X148854438Y-79478095D02*
X148902057Y-79430476D01*
X148902057Y-79430476D02*
X148997295Y-79382857D01*
X148997295Y-79382857D02*
X149140152Y-79382857D01*
X149140152Y-79382857D02*
X149235390Y-79430476D01*
X149235390Y-79430476D02*
X149283009Y-79478095D01*
X149283009Y-79478095D02*
X149330628Y-79573333D01*
X149330628Y-79573333D02*
X149330628Y-79954285D01*
X149806819Y-78430476D02*
X149806819Y-79001904D01*
X149806819Y-78716190D02*
X148806819Y-78716190D01*
X148806819Y-78716190D02*
X148949676Y-78811428D01*
X148949676Y-78811428D02*
X149044914Y-78906666D01*
X149044914Y-78906666D02*
X149092533Y-79001904D01*
X148806819Y-78097142D02*
X148806819Y-77478095D01*
X148806819Y-77478095D02*
X149187771Y-77811428D01*
X149187771Y-77811428D02*
X149187771Y-77668571D01*
X149187771Y-77668571D02*
X149235390Y-77573333D01*
X149235390Y-77573333D02*
X149283009Y-77525714D01*
X149283009Y-77525714D02*
X149378247Y-77478095D01*
X149378247Y-77478095D02*
X149616342Y-77478095D01*
X149616342Y-77478095D02*
X149711580Y-77525714D01*
X149711580Y-77525714D02*
X149759200Y-77573333D01*
X149759200Y-77573333D02*
X149806819Y-77668571D01*
X149806819Y-77668571D02*
X149806819Y-77954285D01*
X149806819Y-77954285D02*
X149759200Y-78049523D01*
X149759200Y-78049523D02*
X149711580Y-78097142D01*
X173004819Y-99702857D02*
X172528628Y-100036190D01*
X173004819Y-100274285D02*
X172004819Y-100274285D01*
X172004819Y-100274285D02*
X172004819Y-99893333D01*
X172004819Y-99893333D02*
X172052438Y-99798095D01*
X172052438Y-99798095D02*
X172100057Y-99750476D01*
X172100057Y-99750476D02*
X172195295Y-99702857D01*
X172195295Y-99702857D02*
X172338152Y-99702857D01*
X172338152Y-99702857D02*
X172433390Y-99750476D01*
X172433390Y-99750476D02*
X172481009Y-99798095D01*
X172481009Y-99798095D02*
X172528628Y-99893333D01*
X172528628Y-99893333D02*
X172528628Y-100274285D01*
X172100057Y-99321904D02*
X172052438Y-99274285D01*
X172052438Y-99274285D02*
X172004819Y-99179047D01*
X172004819Y-99179047D02*
X172004819Y-98940952D01*
X172004819Y-98940952D02*
X172052438Y-98845714D01*
X172052438Y-98845714D02*
X172100057Y-98798095D01*
X172100057Y-98798095D02*
X172195295Y-98750476D01*
X172195295Y-98750476D02*
X172290533Y-98750476D01*
X172290533Y-98750476D02*
X172433390Y-98798095D01*
X172433390Y-98798095D02*
X173004819Y-99369523D01*
X173004819Y-99369523D02*
X173004819Y-98750476D01*
X173004819Y-97798095D02*
X173004819Y-98369523D01*
X173004819Y-98083809D02*
X172004819Y-98083809D01*
X172004819Y-98083809D02*
X172147676Y-98179047D01*
X172147676Y-98179047D02*
X172242914Y-98274285D01*
X172242914Y-98274285D02*
X172290533Y-98369523D01*
X175658030Y-98403580D02*
X175610411Y-98451200D01*
X175610411Y-98451200D02*
X175467554Y-98498819D01*
X175467554Y-98498819D02*
X175372316Y-98498819D01*
X175372316Y-98498819D02*
X175229459Y-98451200D01*
X175229459Y-98451200D02*
X175134221Y-98355961D01*
X175134221Y-98355961D02*
X175086602Y-98260723D01*
X175086602Y-98260723D02*
X175038983Y-98070247D01*
X175038983Y-98070247D02*
X175038983Y-97927390D01*
X175038983Y-97927390D02*
X175086602Y-97736914D01*
X175086602Y-97736914D02*
X175134221Y-97641676D01*
X175134221Y-97641676D02*
X175229459Y-97546438D01*
X175229459Y-97546438D02*
X175372316Y-97498819D01*
X175372316Y-97498819D02*
X175467554Y-97498819D01*
X175467554Y-97498819D02*
X175610411Y-97546438D01*
X175610411Y-97546438D02*
X175658030Y-97594057D01*
X176610411Y-98498819D02*
X176038983Y-98498819D01*
X176324697Y-98498819D02*
X176324697Y-97498819D01*
X176324697Y-97498819D02*
X176229459Y-97641676D01*
X176229459Y-97641676D02*
X176134221Y-97736914D01*
X176134221Y-97736914D02*
X176038983Y-97784533D01*
X177562792Y-98498819D02*
X176991364Y-98498819D01*
X177277078Y-98498819D02*
X177277078Y-97498819D01*
X177277078Y-97498819D02*
X177181840Y-97641676D01*
X177181840Y-97641676D02*
X177086602Y-97736914D01*
X177086602Y-97736914D02*
X176991364Y-97784533D01*
X128865333Y-72241580D02*
X128817714Y-72289200D01*
X128817714Y-72289200D02*
X128674857Y-72336819D01*
X128674857Y-72336819D02*
X128579619Y-72336819D01*
X128579619Y-72336819D02*
X128436762Y-72289200D01*
X128436762Y-72289200D02*
X128341524Y-72193961D01*
X128341524Y-72193961D02*
X128293905Y-72098723D01*
X128293905Y-72098723D02*
X128246286Y-71908247D01*
X128246286Y-71908247D02*
X128246286Y-71765390D01*
X128246286Y-71765390D02*
X128293905Y-71574914D01*
X128293905Y-71574914D02*
X128341524Y-71479676D01*
X128341524Y-71479676D02*
X128436762Y-71384438D01*
X128436762Y-71384438D02*
X128579619Y-71336819D01*
X128579619Y-71336819D02*
X128674857Y-71336819D01*
X128674857Y-71336819D02*
X128817714Y-71384438D01*
X128817714Y-71384438D02*
X128865333Y-71432057D01*
X129246286Y-71432057D02*
X129293905Y-71384438D01*
X129293905Y-71384438D02*
X129389143Y-71336819D01*
X129389143Y-71336819D02*
X129627238Y-71336819D01*
X129627238Y-71336819D02*
X129722476Y-71384438D01*
X129722476Y-71384438D02*
X129770095Y-71432057D01*
X129770095Y-71432057D02*
X129817714Y-71527295D01*
X129817714Y-71527295D02*
X129817714Y-71622533D01*
X129817714Y-71622533D02*
X129770095Y-71765390D01*
X129770095Y-71765390D02*
X129198667Y-72336819D01*
X129198667Y-72336819D02*
X129817714Y-72336819D01*
X96758953Y-127665126D02*
X96806572Y-127522269D01*
X96806572Y-127522269D02*
X96854191Y-127474650D01*
X96854191Y-127474650D02*
X96949429Y-127427031D01*
X96949429Y-127427031D02*
X97092286Y-127427031D01*
X97092286Y-127427031D02*
X97187524Y-127474650D01*
X97187524Y-127474650D02*
X97235144Y-127522269D01*
X97235144Y-127522269D02*
X97282763Y-127617507D01*
X97282763Y-127617507D02*
X97282763Y-127998459D01*
X97282763Y-127998459D02*
X96282763Y-127998459D01*
X96282763Y-127998459D02*
X96282763Y-127665126D01*
X96282763Y-127665126D02*
X96330382Y-127569888D01*
X96330382Y-127569888D02*
X96378001Y-127522269D01*
X96378001Y-127522269D02*
X96473239Y-127474650D01*
X96473239Y-127474650D02*
X96568477Y-127474650D01*
X96568477Y-127474650D02*
X96663715Y-127522269D01*
X96663715Y-127522269D02*
X96711334Y-127569888D01*
X96711334Y-127569888D02*
X96758953Y-127665126D01*
X96758953Y-127665126D02*
X96758953Y-127998459D01*
X96282763Y-127141316D02*
X96282763Y-126569888D01*
X97282763Y-126855602D02*
X96282763Y-126855602D01*
X97282763Y-125712745D02*
X97282763Y-126284173D01*
X97282763Y-125998459D02*
X96282763Y-125998459D01*
X96282763Y-125998459D02*
X96425620Y-126093697D01*
X96425620Y-126093697D02*
X96520858Y-126188935D01*
X96520858Y-126188935D02*
X96568477Y-126284173D01*
X131264819Y-81446666D02*
X130788628Y-81779999D01*
X131264819Y-82018094D02*
X130264819Y-82018094D01*
X130264819Y-82018094D02*
X130264819Y-81637142D01*
X130264819Y-81637142D02*
X130312438Y-81541904D01*
X130312438Y-81541904D02*
X130360057Y-81494285D01*
X130360057Y-81494285D02*
X130455295Y-81446666D01*
X130455295Y-81446666D02*
X130598152Y-81446666D01*
X130598152Y-81446666D02*
X130693390Y-81494285D01*
X130693390Y-81494285D02*
X130741009Y-81541904D01*
X130741009Y-81541904D02*
X130788628Y-81637142D01*
X130788628Y-81637142D02*
X130788628Y-82018094D01*
X130264819Y-80541904D02*
X130264819Y-81018094D01*
X130264819Y-81018094D02*
X130741009Y-81065713D01*
X130741009Y-81065713D02*
X130693390Y-81018094D01*
X130693390Y-81018094D02*
X130645771Y-80922856D01*
X130645771Y-80922856D02*
X130645771Y-80684761D01*
X130645771Y-80684761D02*
X130693390Y-80589523D01*
X130693390Y-80589523D02*
X130741009Y-80541904D01*
X130741009Y-80541904D02*
X130836247Y-80494285D01*
X130836247Y-80494285D02*
X131074342Y-80494285D01*
X131074342Y-80494285D02*
X131169580Y-80541904D01*
X131169580Y-80541904D02*
X131217200Y-80589523D01*
X131217200Y-80589523D02*
X131264819Y-80684761D01*
X131264819Y-80684761D02*
X131264819Y-80922856D01*
X131264819Y-80922856D02*
X131217200Y-81018094D01*
X131217200Y-81018094D02*
X131169580Y-81065713D01*
X103124763Y-75566666D02*
X102648572Y-75899999D01*
X103124763Y-76138094D02*
X102124763Y-76138094D01*
X102124763Y-76138094D02*
X102124763Y-75757142D01*
X102124763Y-75757142D02*
X102172382Y-75661904D01*
X102172382Y-75661904D02*
X102220001Y-75614285D01*
X102220001Y-75614285D02*
X102315239Y-75566666D01*
X102315239Y-75566666D02*
X102458096Y-75566666D01*
X102458096Y-75566666D02*
X102553334Y-75614285D01*
X102553334Y-75614285D02*
X102600953Y-75661904D01*
X102600953Y-75661904D02*
X102648572Y-75757142D01*
X102648572Y-75757142D02*
X102648572Y-76138094D01*
X102124763Y-75233332D02*
X102124763Y-74614285D01*
X102124763Y-74614285D02*
X102505715Y-74947618D01*
X102505715Y-74947618D02*
X102505715Y-74804761D01*
X102505715Y-74804761D02*
X102553334Y-74709523D01*
X102553334Y-74709523D02*
X102600953Y-74661904D01*
X102600953Y-74661904D02*
X102696191Y-74614285D01*
X102696191Y-74614285D02*
X102934286Y-74614285D01*
X102934286Y-74614285D02*
X103029524Y-74661904D01*
X103029524Y-74661904D02*
X103077144Y-74709523D01*
X103077144Y-74709523D02*
X103124763Y-74804761D01*
X103124763Y-74804761D02*
X103124763Y-75090475D01*
X103124763Y-75090475D02*
X103077144Y-75185713D01*
X103077144Y-75185713D02*
X103029524Y-75233332D01*
X117689334Y-118469580D02*
X117641715Y-118517200D01*
X117641715Y-118517200D02*
X117498858Y-118564819D01*
X117498858Y-118564819D02*
X117403620Y-118564819D01*
X117403620Y-118564819D02*
X117260763Y-118517200D01*
X117260763Y-118517200D02*
X117165525Y-118421961D01*
X117165525Y-118421961D02*
X117117906Y-118326723D01*
X117117906Y-118326723D02*
X117070287Y-118136247D01*
X117070287Y-118136247D02*
X117070287Y-117993390D01*
X117070287Y-117993390D02*
X117117906Y-117802914D01*
X117117906Y-117802914D02*
X117165525Y-117707676D01*
X117165525Y-117707676D02*
X117260763Y-117612438D01*
X117260763Y-117612438D02*
X117403620Y-117564819D01*
X117403620Y-117564819D02*
X117498858Y-117564819D01*
X117498858Y-117564819D02*
X117641715Y-117612438D01*
X117641715Y-117612438D02*
X117689334Y-117660057D01*
X118594096Y-117564819D02*
X118117906Y-117564819D01*
X118117906Y-117564819D02*
X118070287Y-118041009D01*
X118070287Y-118041009D02*
X118117906Y-117993390D01*
X118117906Y-117993390D02*
X118213144Y-117945771D01*
X118213144Y-117945771D02*
X118451239Y-117945771D01*
X118451239Y-117945771D02*
X118546477Y-117993390D01*
X118546477Y-117993390D02*
X118594096Y-118041009D01*
X118594096Y-118041009D02*
X118641715Y-118136247D01*
X118641715Y-118136247D02*
X118641715Y-118374342D01*
X118641715Y-118374342D02*
X118594096Y-118469580D01*
X118594096Y-118469580D02*
X118546477Y-118517200D01*
X118546477Y-118517200D02*
X118451239Y-118564819D01*
X118451239Y-118564819D02*
X118213144Y-118564819D01*
X118213144Y-118564819D02*
X118117906Y-118517200D01*
X118117906Y-118517200D02*
X118070287Y-118469580D01*
X131746666Y-54826819D02*
X131746666Y-55541104D01*
X131746666Y-55541104D02*
X131699047Y-55683961D01*
X131699047Y-55683961D02*
X131603809Y-55779200D01*
X131603809Y-55779200D02*
X131460952Y-55826819D01*
X131460952Y-55826819D02*
X131365714Y-55826819D01*
X132127619Y-54826819D02*
X132794285Y-54826819D01*
X132794285Y-54826819D02*
X132365714Y-55826819D01*
X135646095Y-90606819D02*
X135646095Y-91416342D01*
X135646095Y-91416342D02*
X135693714Y-91511580D01*
X135693714Y-91511580D02*
X135741333Y-91559200D01*
X135741333Y-91559200D02*
X135836571Y-91606819D01*
X135836571Y-91606819D02*
X136027047Y-91606819D01*
X136027047Y-91606819D02*
X136122285Y-91559200D01*
X136122285Y-91559200D02*
X136169904Y-91511580D01*
X136169904Y-91511580D02*
X136217523Y-91416342D01*
X136217523Y-91416342D02*
X136217523Y-90606819D01*
X136598476Y-90606819D02*
X137217523Y-90606819D01*
X137217523Y-90606819D02*
X136884190Y-90987771D01*
X136884190Y-90987771D02*
X137027047Y-90987771D01*
X137027047Y-90987771D02*
X137122285Y-91035390D01*
X137122285Y-91035390D02*
X137169904Y-91083009D01*
X137169904Y-91083009D02*
X137217523Y-91178247D01*
X137217523Y-91178247D02*
X137217523Y-91416342D01*
X137217523Y-91416342D02*
X137169904Y-91511580D01*
X137169904Y-91511580D02*
X137122285Y-91559200D01*
X137122285Y-91559200D02*
X137027047Y-91606819D01*
X137027047Y-91606819D02*
X136741333Y-91606819D01*
X136741333Y-91606819D02*
X136646095Y-91559200D01*
X136646095Y-91559200D02*
X136598476Y-91511580D01*
X161339580Y-97202857D02*
X161387200Y-97250476D01*
X161387200Y-97250476D02*
X161434819Y-97393333D01*
X161434819Y-97393333D02*
X161434819Y-97488571D01*
X161434819Y-97488571D02*
X161387200Y-97631428D01*
X161387200Y-97631428D02*
X161291961Y-97726666D01*
X161291961Y-97726666D02*
X161196723Y-97774285D01*
X161196723Y-97774285D02*
X161006247Y-97821904D01*
X161006247Y-97821904D02*
X160863390Y-97821904D01*
X160863390Y-97821904D02*
X160672914Y-97774285D01*
X160672914Y-97774285D02*
X160577676Y-97726666D01*
X160577676Y-97726666D02*
X160482438Y-97631428D01*
X160482438Y-97631428D02*
X160434819Y-97488571D01*
X160434819Y-97488571D02*
X160434819Y-97393333D01*
X160434819Y-97393333D02*
X160482438Y-97250476D01*
X160482438Y-97250476D02*
X160530057Y-97202857D01*
X161434819Y-96250476D02*
X161434819Y-96821904D01*
X161434819Y-96536190D02*
X160434819Y-96536190D01*
X160434819Y-96536190D02*
X160577676Y-96631428D01*
X160577676Y-96631428D02*
X160672914Y-96726666D01*
X160672914Y-96726666D02*
X160720533Y-96821904D01*
X160434819Y-95631428D02*
X160434819Y-95536190D01*
X160434819Y-95536190D02*
X160482438Y-95440952D01*
X160482438Y-95440952D02*
X160530057Y-95393333D01*
X160530057Y-95393333D02*
X160625295Y-95345714D01*
X160625295Y-95345714D02*
X160815771Y-95298095D01*
X160815771Y-95298095D02*
X161053866Y-95298095D01*
X161053866Y-95298095D02*
X161244342Y-95345714D01*
X161244342Y-95345714D02*
X161339580Y-95393333D01*
X161339580Y-95393333D02*
X161387200Y-95440952D01*
X161387200Y-95440952D02*
X161434819Y-95536190D01*
X161434819Y-95536190D02*
X161434819Y-95631428D01*
X161434819Y-95631428D02*
X161387200Y-95726666D01*
X161387200Y-95726666D02*
X161339580Y-95774285D01*
X161339580Y-95774285D02*
X161244342Y-95821904D01*
X161244342Y-95821904D02*
X161053866Y-95869523D01*
X161053866Y-95869523D02*
X160815771Y-95869523D01*
X160815771Y-95869523D02*
X160625295Y-95821904D01*
X160625295Y-95821904D02*
X160530057Y-95774285D01*
X160530057Y-95774285D02*
X160482438Y-95726666D01*
X160482438Y-95726666D02*
X160434819Y-95631428D01*
X193494819Y-114942857D02*
X193018628Y-115276190D01*
X193494819Y-115514285D02*
X192494819Y-115514285D01*
X192494819Y-115514285D02*
X192494819Y-115133333D01*
X192494819Y-115133333D02*
X192542438Y-115038095D01*
X192542438Y-115038095D02*
X192590057Y-114990476D01*
X192590057Y-114990476D02*
X192685295Y-114942857D01*
X192685295Y-114942857D02*
X192828152Y-114942857D01*
X192828152Y-114942857D02*
X192923390Y-114990476D01*
X192923390Y-114990476D02*
X192971009Y-115038095D01*
X192971009Y-115038095D02*
X193018628Y-115133333D01*
X193018628Y-115133333D02*
X193018628Y-115514285D01*
X192494819Y-114609523D02*
X192494819Y-113990476D01*
X192494819Y-113990476D02*
X192875771Y-114323809D01*
X192875771Y-114323809D02*
X192875771Y-114180952D01*
X192875771Y-114180952D02*
X192923390Y-114085714D01*
X192923390Y-114085714D02*
X192971009Y-114038095D01*
X192971009Y-114038095D02*
X193066247Y-113990476D01*
X193066247Y-113990476D02*
X193304342Y-113990476D01*
X193304342Y-113990476D02*
X193399580Y-114038095D01*
X193399580Y-114038095D02*
X193447200Y-114085714D01*
X193447200Y-114085714D02*
X193494819Y-114180952D01*
X193494819Y-114180952D02*
X193494819Y-114466666D01*
X193494819Y-114466666D02*
X193447200Y-114561904D01*
X193447200Y-114561904D02*
X193399580Y-114609523D01*
X192494819Y-113371428D02*
X192494819Y-113276190D01*
X192494819Y-113276190D02*
X192542438Y-113180952D01*
X192542438Y-113180952D02*
X192590057Y-113133333D01*
X192590057Y-113133333D02*
X192685295Y-113085714D01*
X192685295Y-113085714D02*
X192875771Y-113038095D01*
X192875771Y-113038095D02*
X193113866Y-113038095D01*
X193113866Y-113038095D02*
X193304342Y-113085714D01*
X193304342Y-113085714D02*
X193399580Y-113133333D01*
X193399580Y-113133333D02*
X193447200Y-113180952D01*
X193447200Y-113180952D02*
X193494819Y-113276190D01*
X193494819Y-113276190D02*
X193494819Y-113371428D01*
X193494819Y-113371428D02*
X193447200Y-113466666D01*
X193447200Y-113466666D02*
X193399580Y-113514285D01*
X193399580Y-113514285D02*
X193304342Y-113561904D01*
X193304342Y-113561904D02*
X193113866Y-113609523D01*
X193113866Y-113609523D02*
X192875771Y-113609523D01*
X192875771Y-113609523D02*
X192685295Y-113561904D01*
X192685295Y-113561904D02*
X192590057Y-113514285D01*
X192590057Y-113514285D02*
X192542438Y-113466666D01*
X192542438Y-113466666D02*
X192494819Y-113371428D01*
X172666819Y-69222857D02*
X172190628Y-69556190D01*
X172666819Y-69794285D02*
X171666819Y-69794285D01*
X171666819Y-69794285D02*
X171666819Y-69413333D01*
X171666819Y-69413333D02*
X171714438Y-69318095D01*
X171714438Y-69318095D02*
X171762057Y-69270476D01*
X171762057Y-69270476D02*
X171857295Y-69222857D01*
X171857295Y-69222857D02*
X172000152Y-69222857D01*
X172000152Y-69222857D02*
X172095390Y-69270476D01*
X172095390Y-69270476D02*
X172143009Y-69318095D01*
X172143009Y-69318095D02*
X172190628Y-69413333D01*
X172190628Y-69413333D02*
X172190628Y-69794285D01*
X171762057Y-68841904D02*
X171714438Y-68794285D01*
X171714438Y-68794285D02*
X171666819Y-68699047D01*
X171666819Y-68699047D02*
X171666819Y-68460952D01*
X171666819Y-68460952D02*
X171714438Y-68365714D01*
X171714438Y-68365714D02*
X171762057Y-68318095D01*
X171762057Y-68318095D02*
X171857295Y-68270476D01*
X171857295Y-68270476D02*
X171952533Y-68270476D01*
X171952533Y-68270476D02*
X172095390Y-68318095D01*
X172095390Y-68318095D02*
X172666819Y-68889523D01*
X172666819Y-68889523D02*
X172666819Y-68270476D01*
X171666819Y-67413333D02*
X171666819Y-67603809D01*
X171666819Y-67603809D02*
X171714438Y-67699047D01*
X171714438Y-67699047D02*
X171762057Y-67746666D01*
X171762057Y-67746666D02*
X171904914Y-67841904D01*
X171904914Y-67841904D02*
X172095390Y-67889523D01*
X172095390Y-67889523D02*
X172476342Y-67889523D01*
X172476342Y-67889523D02*
X172571580Y-67841904D01*
X172571580Y-67841904D02*
X172619200Y-67794285D01*
X172619200Y-67794285D02*
X172666819Y-67699047D01*
X172666819Y-67699047D02*
X172666819Y-67508571D01*
X172666819Y-67508571D02*
X172619200Y-67413333D01*
X172619200Y-67413333D02*
X172571580Y-67365714D01*
X172571580Y-67365714D02*
X172476342Y-67318095D01*
X172476342Y-67318095D02*
X172238247Y-67318095D01*
X172238247Y-67318095D02*
X172143009Y-67365714D01*
X172143009Y-67365714D02*
X172095390Y-67413333D01*
X172095390Y-67413333D02*
X172047771Y-67508571D01*
X172047771Y-67508571D02*
X172047771Y-67699047D01*
X172047771Y-67699047D02*
X172095390Y-67794285D01*
X172095390Y-67794285D02*
X172143009Y-67841904D01*
X172143009Y-67841904D02*
X172238247Y-67889523D01*
X144446666Y-54572819D02*
X144446666Y-55287104D01*
X144446666Y-55287104D02*
X144399047Y-55429961D01*
X144399047Y-55429961D02*
X144303809Y-55525200D01*
X144303809Y-55525200D02*
X144160952Y-55572819D01*
X144160952Y-55572819D02*
X144065714Y-55572819D01*
X145065714Y-55001390D02*
X144970476Y-54953771D01*
X144970476Y-54953771D02*
X144922857Y-54906152D01*
X144922857Y-54906152D02*
X144875238Y-54810914D01*
X144875238Y-54810914D02*
X144875238Y-54763295D01*
X144875238Y-54763295D02*
X144922857Y-54668057D01*
X144922857Y-54668057D02*
X144970476Y-54620438D01*
X144970476Y-54620438D02*
X145065714Y-54572819D01*
X145065714Y-54572819D02*
X145256190Y-54572819D01*
X145256190Y-54572819D02*
X145351428Y-54620438D01*
X145351428Y-54620438D02*
X145399047Y-54668057D01*
X145399047Y-54668057D02*
X145446666Y-54763295D01*
X145446666Y-54763295D02*
X145446666Y-54810914D01*
X145446666Y-54810914D02*
X145399047Y-54906152D01*
X145399047Y-54906152D02*
X145351428Y-54953771D01*
X145351428Y-54953771D02*
X145256190Y-55001390D01*
X145256190Y-55001390D02*
X145065714Y-55001390D01*
X145065714Y-55001390D02*
X144970476Y-55049009D01*
X144970476Y-55049009D02*
X144922857Y-55096628D01*
X144922857Y-55096628D02*
X144875238Y-55191866D01*
X144875238Y-55191866D02*
X144875238Y-55382342D01*
X144875238Y-55382342D02*
X144922857Y-55477580D01*
X144922857Y-55477580D02*
X144970476Y-55525200D01*
X144970476Y-55525200D02*
X145065714Y-55572819D01*
X145065714Y-55572819D02*
X145256190Y-55572819D01*
X145256190Y-55572819D02*
X145351428Y-55525200D01*
X145351428Y-55525200D02*
X145399047Y-55477580D01*
X145399047Y-55477580D02*
X145446666Y-55382342D01*
X145446666Y-55382342D02*
X145446666Y-55191866D01*
X145446666Y-55191866D02*
X145399047Y-55096628D01*
X145399047Y-55096628D02*
X145351428Y-55049009D01*
X145351428Y-55049009D02*
X145256190Y-55001390D01*
X124293333Y-106466693D02*
X124245714Y-106514313D01*
X124245714Y-106514313D02*
X124102857Y-106561932D01*
X124102857Y-106561932D02*
X124007619Y-106561932D01*
X124007619Y-106561932D02*
X123864762Y-106514313D01*
X123864762Y-106514313D02*
X123769524Y-106419074D01*
X123769524Y-106419074D02*
X123721905Y-106323836D01*
X123721905Y-106323836D02*
X123674286Y-106133360D01*
X123674286Y-106133360D02*
X123674286Y-105990503D01*
X123674286Y-105990503D02*
X123721905Y-105800027D01*
X123721905Y-105800027D02*
X123769524Y-105704789D01*
X123769524Y-105704789D02*
X123864762Y-105609551D01*
X123864762Y-105609551D02*
X124007619Y-105561932D01*
X124007619Y-105561932D02*
X124102857Y-105561932D01*
X124102857Y-105561932D02*
X124245714Y-105609551D01*
X124245714Y-105609551D02*
X124293333Y-105657170D01*
X125150476Y-105561932D02*
X124960000Y-105561932D01*
X124960000Y-105561932D02*
X124864762Y-105609551D01*
X124864762Y-105609551D02*
X124817143Y-105657170D01*
X124817143Y-105657170D02*
X124721905Y-105800027D01*
X124721905Y-105800027D02*
X124674286Y-105990503D01*
X124674286Y-105990503D02*
X124674286Y-106371455D01*
X124674286Y-106371455D02*
X124721905Y-106466693D01*
X124721905Y-106466693D02*
X124769524Y-106514313D01*
X124769524Y-106514313D02*
X124864762Y-106561932D01*
X124864762Y-106561932D02*
X125055238Y-106561932D01*
X125055238Y-106561932D02*
X125150476Y-106514313D01*
X125150476Y-106514313D02*
X125198095Y-106466693D01*
X125198095Y-106466693D02*
X125245714Y-106371455D01*
X125245714Y-106371455D02*
X125245714Y-106133360D01*
X125245714Y-106133360D02*
X125198095Y-106038122D01*
X125198095Y-106038122D02*
X125150476Y-105990503D01*
X125150476Y-105990503D02*
X125055238Y-105942884D01*
X125055238Y-105942884D02*
X124864762Y-105942884D01*
X124864762Y-105942884D02*
X124769524Y-105990503D01*
X124769524Y-105990503D02*
X124721905Y-106038122D01*
X124721905Y-106038122D02*
X124674286Y-106133360D01*
X159853333Y-81639580D02*
X159805714Y-81687200D01*
X159805714Y-81687200D02*
X159662857Y-81734819D01*
X159662857Y-81734819D02*
X159567619Y-81734819D01*
X159567619Y-81734819D02*
X159424762Y-81687200D01*
X159424762Y-81687200D02*
X159329524Y-81591961D01*
X159329524Y-81591961D02*
X159281905Y-81496723D01*
X159281905Y-81496723D02*
X159234286Y-81306247D01*
X159234286Y-81306247D02*
X159234286Y-81163390D01*
X159234286Y-81163390D02*
X159281905Y-80972914D01*
X159281905Y-80972914D02*
X159329524Y-80877676D01*
X159329524Y-80877676D02*
X159424762Y-80782438D01*
X159424762Y-80782438D02*
X159567619Y-80734819D01*
X159567619Y-80734819D02*
X159662857Y-80734819D01*
X159662857Y-80734819D02*
X159805714Y-80782438D01*
X159805714Y-80782438D02*
X159853333Y-80830057D01*
X160424762Y-81163390D02*
X160329524Y-81115771D01*
X160329524Y-81115771D02*
X160281905Y-81068152D01*
X160281905Y-81068152D02*
X160234286Y-80972914D01*
X160234286Y-80972914D02*
X160234286Y-80925295D01*
X160234286Y-80925295D02*
X160281905Y-80830057D01*
X160281905Y-80830057D02*
X160329524Y-80782438D01*
X160329524Y-80782438D02*
X160424762Y-80734819D01*
X160424762Y-80734819D02*
X160615238Y-80734819D01*
X160615238Y-80734819D02*
X160710476Y-80782438D01*
X160710476Y-80782438D02*
X160758095Y-80830057D01*
X160758095Y-80830057D02*
X160805714Y-80925295D01*
X160805714Y-80925295D02*
X160805714Y-80972914D01*
X160805714Y-80972914D02*
X160758095Y-81068152D01*
X160758095Y-81068152D02*
X160710476Y-81115771D01*
X160710476Y-81115771D02*
X160615238Y-81163390D01*
X160615238Y-81163390D02*
X160424762Y-81163390D01*
X160424762Y-81163390D02*
X160329524Y-81211009D01*
X160329524Y-81211009D02*
X160281905Y-81258628D01*
X160281905Y-81258628D02*
X160234286Y-81353866D01*
X160234286Y-81353866D02*
X160234286Y-81544342D01*
X160234286Y-81544342D02*
X160281905Y-81639580D01*
X160281905Y-81639580D02*
X160329524Y-81687200D01*
X160329524Y-81687200D02*
X160424762Y-81734819D01*
X160424762Y-81734819D02*
X160615238Y-81734819D01*
X160615238Y-81734819D02*
X160710476Y-81687200D01*
X160710476Y-81687200D02*
X160758095Y-81639580D01*
X160758095Y-81639580D02*
X160805714Y-81544342D01*
X160805714Y-81544342D02*
X160805714Y-81353866D01*
X160805714Y-81353866D02*
X160758095Y-81258628D01*
X160758095Y-81258628D02*
X160710476Y-81211009D01*
X160710476Y-81211009D02*
X160615238Y-81163390D01*
X123728819Y-127674666D02*
X123252628Y-128007999D01*
X123728819Y-128246094D02*
X122728819Y-128246094D01*
X122728819Y-128246094D02*
X122728819Y-127865142D01*
X122728819Y-127865142D02*
X122776438Y-127769904D01*
X122776438Y-127769904D02*
X122824057Y-127722285D01*
X122824057Y-127722285D02*
X122919295Y-127674666D01*
X122919295Y-127674666D02*
X123062152Y-127674666D01*
X123062152Y-127674666D02*
X123157390Y-127722285D01*
X123157390Y-127722285D02*
X123205009Y-127769904D01*
X123205009Y-127769904D02*
X123252628Y-127865142D01*
X123252628Y-127865142D02*
X123252628Y-128246094D01*
X123062152Y-126817523D02*
X123728819Y-126817523D01*
X122681200Y-127055618D02*
X123395485Y-127293713D01*
X123395485Y-127293713D02*
X123395485Y-126674666D01*
X180848095Y-121169819D02*
X180848095Y-121979342D01*
X180848095Y-121979342D02*
X180895714Y-122074580D01*
X180895714Y-122074580D02*
X180943333Y-122122200D01*
X180943333Y-122122200D02*
X181038571Y-122169819D01*
X181038571Y-122169819D02*
X181229047Y-122169819D01*
X181229047Y-122169819D02*
X181324285Y-122122200D01*
X181324285Y-122122200D02*
X181371904Y-122074580D01*
X181371904Y-122074580D02*
X181419523Y-121979342D01*
X181419523Y-121979342D02*
X181419523Y-121169819D01*
X182371904Y-121169819D02*
X181895714Y-121169819D01*
X181895714Y-121169819D02*
X181848095Y-121646009D01*
X181848095Y-121646009D02*
X181895714Y-121598390D01*
X181895714Y-121598390D02*
X181990952Y-121550771D01*
X181990952Y-121550771D02*
X182229047Y-121550771D01*
X182229047Y-121550771D02*
X182324285Y-121598390D01*
X182324285Y-121598390D02*
X182371904Y-121646009D01*
X182371904Y-121646009D02*
X182419523Y-121741247D01*
X182419523Y-121741247D02*
X182419523Y-121979342D01*
X182419523Y-121979342D02*
X182371904Y-122074580D01*
X182371904Y-122074580D02*
X182324285Y-122122200D01*
X182324285Y-122122200D02*
X182229047Y-122169819D01*
X182229047Y-122169819D02*
X181990952Y-122169819D01*
X181990952Y-122169819D02*
X181895714Y-122122200D01*
X181895714Y-122122200D02*
X181848095Y-122074580D01*
X141678819Y-81192666D02*
X141202628Y-81525999D01*
X141678819Y-81764094D02*
X140678819Y-81764094D01*
X140678819Y-81764094D02*
X140678819Y-81383142D01*
X140678819Y-81383142D02*
X140726438Y-81287904D01*
X140726438Y-81287904D02*
X140774057Y-81240285D01*
X140774057Y-81240285D02*
X140869295Y-81192666D01*
X140869295Y-81192666D02*
X141012152Y-81192666D01*
X141012152Y-81192666D02*
X141107390Y-81240285D01*
X141107390Y-81240285D02*
X141155009Y-81287904D01*
X141155009Y-81287904D02*
X141202628Y-81383142D01*
X141202628Y-81383142D02*
X141202628Y-81764094D01*
X140678819Y-80859332D02*
X140678819Y-80192666D01*
X140678819Y-80192666D02*
X141678819Y-80621237D01*
X82804095Y-63446819D02*
X82804095Y-62446819D01*
X82804095Y-62923009D02*
X83375523Y-62923009D01*
X83375523Y-63446819D02*
X83375523Y-62446819D01*
X84375523Y-63446819D02*
X83804095Y-63446819D01*
X84089809Y-63446819D02*
X84089809Y-62446819D01*
X84089809Y-62446819D02*
X83994571Y-62589676D01*
X83994571Y-62589676D02*
X83899333Y-62684914D01*
X83899333Y-62684914D02*
X83804095Y-62732533D01*
X163014819Y-69222857D02*
X162538628Y-69556190D01*
X163014819Y-69794285D02*
X162014819Y-69794285D01*
X162014819Y-69794285D02*
X162014819Y-69413333D01*
X162014819Y-69413333D02*
X162062438Y-69318095D01*
X162062438Y-69318095D02*
X162110057Y-69270476D01*
X162110057Y-69270476D02*
X162205295Y-69222857D01*
X162205295Y-69222857D02*
X162348152Y-69222857D01*
X162348152Y-69222857D02*
X162443390Y-69270476D01*
X162443390Y-69270476D02*
X162491009Y-69318095D01*
X162491009Y-69318095D02*
X162538628Y-69413333D01*
X162538628Y-69413333D02*
X162538628Y-69794285D01*
X163014819Y-68270476D02*
X163014819Y-68841904D01*
X163014819Y-68556190D02*
X162014819Y-68556190D01*
X162014819Y-68556190D02*
X162157676Y-68651428D01*
X162157676Y-68651428D02*
X162252914Y-68746666D01*
X162252914Y-68746666D02*
X162300533Y-68841904D01*
X162014819Y-67651428D02*
X162014819Y-67556190D01*
X162014819Y-67556190D02*
X162062438Y-67460952D01*
X162062438Y-67460952D02*
X162110057Y-67413333D01*
X162110057Y-67413333D02*
X162205295Y-67365714D01*
X162205295Y-67365714D02*
X162395771Y-67318095D01*
X162395771Y-67318095D02*
X162633866Y-67318095D01*
X162633866Y-67318095D02*
X162824342Y-67365714D01*
X162824342Y-67365714D02*
X162919580Y-67413333D01*
X162919580Y-67413333D02*
X162967200Y-67460952D01*
X162967200Y-67460952D02*
X163014819Y-67556190D01*
X163014819Y-67556190D02*
X163014819Y-67651428D01*
X163014819Y-67651428D02*
X162967200Y-67746666D01*
X162967200Y-67746666D02*
X162919580Y-67794285D01*
X162919580Y-67794285D02*
X162824342Y-67841904D01*
X162824342Y-67841904D02*
X162633866Y-67889523D01*
X162633866Y-67889523D02*
X162395771Y-67889523D01*
X162395771Y-67889523D02*
X162205295Y-67841904D01*
X162205295Y-67841904D02*
X162110057Y-67794285D01*
X162110057Y-67794285D02*
X162062438Y-67746666D01*
X162062438Y-67746666D02*
X162014819Y-67651428D01*
X90950905Y-141354819D02*
X90950905Y-140354819D01*
X90950905Y-140354819D02*
X91189000Y-140354819D01*
X91189000Y-140354819D02*
X91331857Y-140402438D01*
X91331857Y-140402438D02*
X91427095Y-140497676D01*
X91427095Y-140497676D02*
X91474714Y-140592914D01*
X91474714Y-140592914D02*
X91522333Y-140783390D01*
X91522333Y-140783390D02*
X91522333Y-140926247D01*
X91522333Y-140926247D02*
X91474714Y-141116723D01*
X91474714Y-141116723D02*
X91427095Y-141211961D01*
X91427095Y-141211961D02*
X91331857Y-141307200D01*
X91331857Y-141307200D02*
X91189000Y-141354819D01*
X91189000Y-141354819D02*
X90950905Y-141354819D01*
X92474714Y-141354819D02*
X91903286Y-141354819D01*
X92189000Y-141354819D02*
X92189000Y-140354819D01*
X92189000Y-140354819D02*
X92093762Y-140497676D01*
X92093762Y-140497676D02*
X91998524Y-140592914D01*
X91998524Y-140592914D02*
X91903286Y-140640533D01*
X153082666Y-147453919D02*
X153082666Y-148168204D01*
X153082666Y-148168204D02*
X153035047Y-148311061D01*
X153035047Y-148311061D02*
X152939809Y-148406300D01*
X152939809Y-148406300D02*
X152796952Y-148453919D01*
X152796952Y-148453919D02*
X152701714Y-148453919D01*
X154035047Y-147453919D02*
X153558857Y-147453919D01*
X153558857Y-147453919D02*
X153511238Y-147930109D01*
X153511238Y-147930109D02*
X153558857Y-147882490D01*
X153558857Y-147882490D02*
X153654095Y-147834871D01*
X153654095Y-147834871D02*
X153892190Y-147834871D01*
X153892190Y-147834871D02*
X153987428Y-147882490D01*
X153987428Y-147882490D02*
X154035047Y-147930109D01*
X154035047Y-147930109D02*
X154082666Y-148025347D01*
X154082666Y-148025347D02*
X154082666Y-148263442D01*
X154082666Y-148263442D02*
X154035047Y-148358680D01*
X154035047Y-148358680D02*
X153987428Y-148406300D01*
X153987428Y-148406300D02*
X153892190Y-148453919D01*
X153892190Y-148453919D02*
X153654095Y-148453919D01*
X153654095Y-148453919D02*
X153558857Y-148406300D01*
X153558857Y-148406300D02*
X153511238Y-148358680D01*
X118316476Y-146101719D02*
X118316476Y-146816004D01*
X118316476Y-146816004D02*
X118268857Y-146958861D01*
X118268857Y-146958861D02*
X118173619Y-147054100D01*
X118173619Y-147054100D02*
X118030762Y-147101719D01*
X118030762Y-147101719D02*
X117935524Y-147101719D01*
X119316476Y-147101719D02*
X118745048Y-147101719D01*
X119030762Y-147101719D02*
X119030762Y-146101719D01*
X119030762Y-146101719D02*
X118935524Y-146244576D01*
X118935524Y-146244576D02*
X118840286Y-146339814D01*
X118840286Y-146339814D02*
X118745048Y-146387433D01*
X119935524Y-146101719D02*
X120030762Y-146101719D01*
X120030762Y-146101719D02*
X120126000Y-146149338D01*
X120126000Y-146149338D02*
X120173619Y-146196957D01*
X120173619Y-146196957D02*
X120221238Y-146292195D01*
X120221238Y-146292195D02*
X120268857Y-146482671D01*
X120268857Y-146482671D02*
X120268857Y-146720766D01*
X120268857Y-146720766D02*
X120221238Y-146911242D01*
X120221238Y-146911242D02*
X120173619Y-147006480D01*
X120173619Y-147006480D02*
X120126000Y-147054100D01*
X120126000Y-147054100D02*
X120030762Y-147101719D01*
X120030762Y-147101719D02*
X119935524Y-147101719D01*
X119935524Y-147101719D02*
X119840286Y-147054100D01*
X119840286Y-147054100D02*
X119792667Y-147006480D01*
X119792667Y-147006480D02*
X119745048Y-146911242D01*
X119745048Y-146911242D02*
X119697429Y-146720766D01*
X119697429Y-146720766D02*
X119697429Y-146482671D01*
X119697429Y-146482671D02*
X119745048Y-146292195D01*
X119745048Y-146292195D02*
X119792667Y-146196957D01*
X119792667Y-146196957D02*
X119840286Y-146149338D01*
X119840286Y-146149338D02*
X119935524Y-146101719D01*
X102227142Y-147684819D02*
X101893809Y-147208628D01*
X101655714Y-147684819D02*
X101655714Y-146684819D01*
X101655714Y-146684819D02*
X102036666Y-146684819D01*
X102036666Y-146684819D02*
X102131904Y-146732438D01*
X102131904Y-146732438D02*
X102179523Y-146780057D01*
X102179523Y-146780057D02*
X102227142Y-146875295D01*
X102227142Y-146875295D02*
X102227142Y-147018152D01*
X102227142Y-147018152D02*
X102179523Y-147113390D01*
X102179523Y-147113390D02*
X102131904Y-147161009D01*
X102131904Y-147161009D02*
X102036666Y-147208628D01*
X102036666Y-147208628D02*
X101655714Y-147208628D01*
X102560476Y-146684819D02*
X103179523Y-146684819D01*
X103179523Y-146684819D02*
X102846190Y-147065771D01*
X102846190Y-147065771D02*
X102989047Y-147065771D01*
X102989047Y-147065771D02*
X103084285Y-147113390D01*
X103084285Y-147113390D02*
X103131904Y-147161009D01*
X103131904Y-147161009D02*
X103179523Y-147256247D01*
X103179523Y-147256247D02*
X103179523Y-147494342D01*
X103179523Y-147494342D02*
X103131904Y-147589580D01*
X103131904Y-147589580D02*
X103084285Y-147637200D01*
X103084285Y-147637200D02*
X102989047Y-147684819D01*
X102989047Y-147684819D02*
X102703333Y-147684819D01*
X102703333Y-147684819D02*
X102608095Y-147637200D01*
X102608095Y-147637200D02*
X102560476Y-147589580D01*
X104131904Y-147684819D02*
X103560476Y-147684819D01*
X103846190Y-147684819D02*
X103846190Y-146684819D01*
X103846190Y-146684819D02*
X103750952Y-146827676D01*
X103750952Y-146827676D02*
X103655714Y-146922914D01*
X103655714Y-146922914D02*
X103560476Y-146970533D01*
X126833333Y-143361580D02*
X126785714Y-143409200D01*
X126785714Y-143409200D02*
X126642857Y-143456819D01*
X126642857Y-143456819D02*
X126547619Y-143456819D01*
X126547619Y-143456819D02*
X126404762Y-143409200D01*
X126404762Y-143409200D02*
X126309524Y-143313961D01*
X126309524Y-143313961D02*
X126261905Y-143218723D01*
X126261905Y-143218723D02*
X126214286Y-143028247D01*
X126214286Y-143028247D02*
X126214286Y-142885390D01*
X126214286Y-142885390D02*
X126261905Y-142694914D01*
X126261905Y-142694914D02*
X126309524Y-142599676D01*
X126309524Y-142599676D02*
X126404762Y-142504438D01*
X126404762Y-142504438D02*
X126547619Y-142456819D01*
X126547619Y-142456819D02*
X126642857Y-142456819D01*
X126642857Y-142456819D02*
X126785714Y-142504438D01*
X126785714Y-142504438D02*
X126833333Y-142552057D01*
X127166667Y-142456819D02*
X127785714Y-142456819D01*
X127785714Y-142456819D02*
X127452381Y-142837771D01*
X127452381Y-142837771D02*
X127595238Y-142837771D01*
X127595238Y-142837771D02*
X127690476Y-142885390D01*
X127690476Y-142885390D02*
X127738095Y-142933009D01*
X127738095Y-142933009D02*
X127785714Y-143028247D01*
X127785714Y-143028247D02*
X127785714Y-143266342D01*
X127785714Y-143266342D02*
X127738095Y-143361580D01*
X127738095Y-143361580D02*
X127690476Y-143409200D01*
X127690476Y-143409200D02*
X127595238Y-143456819D01*
X127595238Y-143456819D02*
X127309524Y-143456819D01*
X127309524Y-143456819D02*
X127214286Y-143409200D01*
X127214286Y-143409200D02*
X127166667Y-143361580D01*
X117802819Y-127242729D02*
X117802819Y-127718919D01*
X117802819Y-127718919D02*
X116802819Y-127718919D01*
X117802819Y-126385586D02*
X117802819Y-126957014D01*
X117802819Y-126671300D02*
X116802819Y-126671300D01*
X116802819Y-126671300D02*
X116945676Y-126766538D01*
X116945676Y-126766538D02*
X117040914Y-126861776D01*
X117040914Y-126861776D02*
X117088533Y-126957014D01*
X198828819Y-114942857D02*
X198352628Y-115276190D01*
X198828819Y-115514285D02*
X197828819Y-115514285D01*
X197828819Y-115514285D02*
X197828819Y-115133333D01*
X197828819Y-115133333D02*
X197876438Y-115038095D01*
X197876438Y-115038095D02*
X197924057Y-114990476D01*
X197924057Y-114990476D02*
X198019295Y-114942857D01*
X198019295Y-114942857D02*
X198162152Y-114942857D01*
X198162152Y-114942857D02*
X198257390Y-114990476D01*
X198257390Y-114990476D02*
X198305009Y-115038095D01*
X198305009Y-115038095D02*
X198352628Y-115133333D01*
X198352628Y-115133333D02*
X198352628Y-115514285D01*
X197924057Y-114561904D02*
X197876438Y-114514285D01*
X197876438Y-114514285D02*
X197828819Y-114419047D01*
X197828819Y-114419047D02*
X197828819Y-114180952D01*
X197828819Y-114180952D02*
X197876438Y-114085714D01*
X197876438Y-114085714D02*
X197924057Y-114038095D01*
X197924057Y-114038095D02*
X198019295Y-113990476D01*
X198019295Y-113990476D02*
X198114533Y-113990476D01*
X198114533Y-113990476D02*
X198257390Y-114038095D01*
X198257390Y-114038095D02*
X198828819Y-114609523D01*
X198828819Y-114609523D02*
X198828819Y-113990476D01*
X198828819Y-113514285D02*
X198828819Y-113323809D01*
X198828819Y-113323809D02*
X198781200Y-113228571D01*
X198781200Y-113228571D02*
X198733580Y-113180952D01*
X198733580Y-113180952D02*
X198590723Y-113085714D01*
X198590723Y-113085714D02*
X198400247Y-113038095D01*
X198400247Y-113038095D02*
X198019295Y-113038095D01*
X198019295Y-113038095D02*
X197924057Y-113085714D01*
X197924057Y-113085714D02*
X197876438Y-113133333D01*
X197876438Y-113133333D02*
X197828819Y-113228571D01*
X197828819Y-113228571D02*
X197828819Y-113419047D01*
X197828819Y-113419047D02*
X197876438Y-113514285D01*
X197876438Y-113514285D02*
X197924057Y-113561904D01*
X197924057Y-113561904D02*
X198019295Y-113609523D01*
X198019295Y-113609523D02*
X198257390Y-113609523D01*
X198257390Y-113609523D02*
X198352628Y-113561904D01*
X198352628Y-113561904D02*
X198400247Y-113514285D01*
X198400247Y-113514285D02*
X198447866Y-113419047D01*
X198447866Y-113419047D02*
X198447866Y-113228571D01*
X198447866Y-113228571D02*
X198400247Y-113133333D01*
X198400247Y-113133333D02*
X198352628Y-113085714D01*
X198352628Y-113085714D02*
X198257390Y-113038095D01*
X125730095Y-129890231D02*
X125730095Y-130699754D01*
X125730095Y-130699754D02*
X125777714Y-130794992D01*
X125777714Y-130794992D02*
X125825333Y-130842612D01*
X125825333Y-130842612D02*
X125920571Y-130890231D01*
X125920571Y-130890231D02*
X126111047Y-130890231D01*
X126111047Y-130890231D02*
X126206285Y-130842612D01*
X126206285Y-130842612D02*
X126253904Y-130794992D01*
X126253904Y-130794992D02*
X126301523Y-130699754D01*
X126301523Y-130699754D02*
X126301523Y-129890231D01*
X126730095Y-129985469D02*
X126777714Y-129937850D01*
X126777714Y-129937850D02*
X126872952Y-129890231D01*
X126872952Y-129890231D02*
X127111047Y-129890231D01*
X127111047Y-129890231D02*
X127206285Y-129937850D01*
X127206285Y-129937850D02*
X127253904Y-129985469D01*
X127253904Y-129985469D02*
X127301523Y-130080707D01*
X127301523Y-130080707D02*
X127301523Y-130175945D01*
X127301523Y-130175945D02*
X127253904Y-130318802D01*
X127253904Y-130318802D02*
X126682476Y-130890231D01*
X126682476Y-130890231D02*
X127301523Y-130890231D01*
X137501333Y-113389580D02*
X137453714Y-113437200D01*
X137453714Y-113437200D02*
X137310857Y-113484819D01*
X137310857Y-113484819D02*
X137215619Y-113484819D01*
X137215619Y-113484819D02*
X137072762Y-113437200D01*
X137072762Y-113437200D02*
X136977524Y-113341961D01*
X136977524Y-113341961D02*
X136929905Y-113246723D01*
X136929905Y-113246723D02*
X136882286Y-113056247D01*
X136882286Y-113056247D02*
X136882286Y-112913390D01*
X136882286Y-112913390D02*
X136929905Y-112722914D01*
X136929905Y-112722914D02*
X136977524Y-112627676D01*
X136977524Y-112627676D02*
X137072762Y-112532438D01*
X137072762Y-112532438D02*
X137215619Y-112484819D01*
X137215619Y-112484819D02*
X137310857Y-112484819D01*
X137310857Y-112484819D02*
X137453714Y-112532438D01*
X137453714Y-112532438D02*
X137501333Y-112580057D01*
X137834667Y-112484819D02*
X138501333Y-112484819D01*
X138501333Y-112484819D02*
X138072762Y-113484819D01*
X168094819Y-94622857D02*
X167618628Y-94956190D01*
X168094819Y-95194285D02*
X167094819Y-95194285D01*
X167094819Y-95194285D02*
X167094819Y-94813333D01*
X167094819Y-94813333D02*
X167142438Y-94718095D01*
X167142438Y-94718095D02*
X167190057Y-94670476D01*
X167190057Y-94670476D02*
X167285295Y-94622857D01*
X167285295Y-94622857D02*
X167428152Y-94622857D01*
X167428152Y-94622857D02*
X167523390Y-94670476D01*
X167523390Y-94670476D02*
X167571009Y-94718095D01*
X167571009Y-94718095D02*
X167618628Y-94813333D01*
X167618628Y-94813333D02*
X167618628Y-95194285D01*
X168094819Y-93670476D02*
X168094819Y-94241904D01*
X168094819Y-93956190D02*
X167094819Y-93956190D01*
X167094819Y-93956190D02*
X167237676Y-94051428D01*
X167237676Y-94051428D02*
X167332914Y-94146666D01*
X167332914Y-94146666D02*
X167380533Y-94241904D01*
X168094819Y-92718095D02*
X168094819Y-93289523D01*
X168094819Y-93003809D02*
X167094819Y-93003809D01*
X167094819Y-93003809D02*
X167237676Y-93099047D01*
X167237676Y-93099047D02*
X167332914Y-93194285D01*
X167332914Y-93194285D02*
X167380533Y-93289523D01*
X102870763Y-60072666D02*
X102394572Y-60405999D01*
X102870763Y-60644094D02*
X101870763Y-60644094D01*
X101870763Y-60644094D02*
X101870763Y-60263142D01*
X101870763Y-60263142D02*
X101918382Y-60167904D01*
X101918382Y-60167904D02*
X101966001Y-60120285D01*
X101966001Y-60120285D02*
X102061239Y-60072666D01*
X102061239Y-60072666D02*
X102204096Y-60072666D01*
X102204096Y-60072666D02*
X102299334Y-60120285D01*
X102299334Y-60120285D02*
X102346953Y-60167904D01*
X102346953Y-60167904D02*
X102394572Y-60263142D01*
X102394572Y-60263142D02*
X102394572Y-60644094D01*
X102870763Y-59120285D02*
X102870763Y-59691713D01*
X102870763Y-59405999D02*
X101870763Y-59405999D01*
X101870763Y-59405999D02*
X102013620Y-59501237D01*
X102013620Y-59501237D02*
X102108858Y-59596475D01*
X102108858Y-59596475D02*
X102156477Y-59691713D01*
X136344819Y-81446666D02*
X135868628Y-81779999D01*
X136344819Y-82018094D02*
X135344819Y-82018094D01*
X135344819Y-82018094D02*
X135344819Y-81637142D01*
X135344819Y-81637142D02*
X135392438Y-81541904D01*
X135392438Y-81541904D02*
X135440057Y-81494285D01*
X135440057Y-81494285D02*
X135535295Y-81446666D01*
X135535295Y-81446666D02*
X135678152Y-81446666D01*
X135678152Y-81446666D02*
X135773390Y-81494285D01*
X135773390Y-81494285D02*
X135821009Y-81541904D01*
X135821009Y-81541904D02*
X135868628Y-81637142D01*
X135868628Y-81637142D02*
X135868628Y-82018094D01*
X135344819Y-80589523D02*
X135344819Y-80779999D01*
X135344819Y-80779999D02*
X135392438Y-80875237D01*
X135392438Y-80875237D02*
X135440057Y-80922856D01*
X135440057Y-80922856D02*
X135582914Y-81018094D01*
X135582914Y-81018094D02*
X135773390Y-81065713D01*
X135773390Y-81065713D02*
X136154342Y-81065713D01*
X136154342Y-81065713D02*
X136249580Y-81018094D01*
X136249580Y-81018094D02*
X136297200Y-80970475D01*
X136297200Y-80970475D02*
X136344819Y-80875237D01*
X136344819Y-80875237D02*
X136344819Y-80684761D01*
X136344819Y-80684761D02*
X136297200Y-80589523D01*
X136297200Y-80589523D02*
X136249580Y-80541904D01*
X136249580Y-80541904D02*
X136154342Y-80494285D01*
X136154342Y-80494285D02*
X135916247Y-80494285D01*
X135916247Y-80494285D02*
X135821009Y-80541904D01*
X135821009Y-80541904D02*
X135773390Y-80589523D01*
X135773390Y-80589523D02*
X135725771Y-80684761D01*
X135725771Y-80684761D02*
X135725771Y-80875237D01*
X135725771Y-80875237D02*
X135773390Y-80970475D01*
X135773390Y-80970475D02*
X135821009Y-81018094D01*
X135821009Y-81018094D02*
X135916247Y-81065713D01*
D11*
%TO.C,U1*%
X112445944Y-63684900D02*
X112445944Y-74084900D01*
X112445944Y-74084900D02*
X122945944Y-74084900D01*
X115445944Y-63744900D02*
X115445944Y-74024900D01*
X115445944Y-74024900D02*
X119945944Y-74024900D01*
X116695944Y-63744900D02*
X115445944Y-63744900D01*
X119945944Y-63744900D02*
X118695944Y-63744900D01*
X119945944Y-74024900D02*
X119945944Y-63744900D01*
X122945944Y-63684900D02*
X112445944Y-63684900D01*
X122945944Y-74084900D02*
X122945944Y-63684900D01*
X116695944Y-63744900D02*
G75*
G03*
X118695944Y-63744900I1000000J0D01*
G01*
%TO.C,J4*%
X139676000Y-144780000D02*
G75*
G03*
X136676000Y-144780000I-1500000J0D01*
G01*
X136676000Y-144780000D02*
G75*
G03*
X139676000Y-144780000I1500000J0D01*
G01*
%TO.C,C9*%
X151230000Y-92940000D02*
X148490000Y-92940000D01*
X151230000Y-92940000D02*
X151230000Y-100180000D01*
X148490000Y-92940000D02*
X148490000Y-100180000D01*
X151230000Y-100180000D02*
X148490000Y-100180000D01*
%TO.C,J14*%
X197081000Y-85290588D02*
G75*
G03*
X194081000Y-85290588I-1500000J0D01*
G01*
X194081000Y-85290588D02*
G75*
G03*
X197081000Y-85290588I1500000J0D01*
G01*
%TO.C,J9*%
X197080000Y-99060000D02*
G75*
G03*
X194080000Y-99060000I-1500000J0D01*
G01*
X194080000Y-99060000D02*
G75*
G03*
X197080000Y-99060000I1500000J0D01*
G01*
%TO.C,R8*%
X144780000Y-103100000D02*
X144780000Y-102330000D01*
X143410000Y-102330000D02*
X146150000Y-102330000D01*
X146150000Y-102330000D02*
X146150000Y-95790000D01*
X143410000Y-95790000D02*
X143410000Y-102330000D01*
X146150000Y-95790000D02*
X143410000Y-95790000D01*
X144780000Y-95020000D02*
X144780000Y-95790000D01*
%TO.C,J2*%
X91215944Y-78523271D02*
G75*
G03*
X88215944Y-78523271I-1500000J0D01*
G01*
X88215944Y-78523271D02*
G75*
G03*
X91215944Y-78523271I1500000J0D01*
G01*
%TO.C,R24*%
X180340000Y-72620000D02*
X180340000Y-71850000D01*
X178970000Y-71850000D02*
X181710000Y-71850000D01*
X181710000Y-71850000D02*
X181710000Y-65310000D01*
X178970000Y-65310000D02*
X178970000Y-71850000D01*
X181710000Y-65310000D02*
X178970000Y-65310000D01*
X180340000Y-64540000D02*
X180340000Y-65310000D01*
D12*
%TO.C,U4*%
X106553000Y-109963600D02*
X116967000Y-109963600D01*
X116967000Y-109963600D02*
X116967000Y-99709600D01*
X106553000Y-99709600D02*
X106553000Y-109963600D01*
X116967000Y-99709600D02*
X106553000Y-99709600D01*
D13*
X108331000Y-111186600D02*
G75*
G03*
X107569000Y-111186600I-381000J0D01*
G01*
X107569000Y-111186600D02*
G75*
G03*
X108331000Y-111186600I381000J0D01*
G01*
D11*
%TO.C,J12*%
X183956000Y-142215000D02*
X183956000Y-129455000D01*
X183956000Y-142215000D02*
X181296000Y-142215000D01*
X183956000Y-129455000D02*
X181296000Y-129455000D01*
X182626000Y-144815000D02*
X181296000Y-144815000D01*
X181296000Y-144815000D02*
X181296000Y-143485000D01*
X181296000Y-142215000D02*
X181296000Y-129455000D01*
%TO.C,R2*%
X105971944Y-64200000D02*
X105971944Y-63430000D01*
X104601944Y-63430000D02*
X107341944Y-63430000D01*
X107341944Y-63430000D02*
X107341944Y-56890000D01*
X104601944Y-56890000D02*
X104601944Y-63430000D01*
X107341944Y-56890000D02*
X104601944Y-56890000D01*
X105971944Y-56120000D02*
X105971944Y-56890000D01*
D14*
%TO.C,SW1*%
X98500000Y-135470000D02*
X98500000Y-136190000D01*
X98500000Y-138290000D02*
X98500000Y-139010000D01*
X98500000Y-139010000D02*
X104700000Y-139010000D01*
X104700000Y-135470000D02*
X98500000Y-135470000D01*
X104700000Y-136190000D02*
X104700000Y-135470000D01*
X104700000Y-139010000D02*
X104700000Y-138290000D01*
D15*
X96450000Y-136930000D02*
G75*
G03*
X96250000Y-136930000I-100000J0D01*
G01*
X96250000Y-136930000D02*
G75*
G03*
X96450000Y-136930000I100000J0D01*
G01*
D12*
%TO.C,J6*%
X93932344Y-62573000D02*
X85499544Y-62573000D01*
X85499544Y-62573000D02*
X85499544Y-72987000D01*
X93932344Y-72987000D02*
X93932344Y-62573000D01*
X85499544Y-72987000D02*
X93932344Y-72987000D01*
D13*
X90096944Y-61938000D02*
G75*
G03*
X89334944Y-61938000I-381000J0D01*
G01*
X89334944Y-61938000D02*
G75*
G03*
X90096944Y-61938000I381000J0D01*
G01*
D11*
%TO.C,J11*%
X109450000Y-114300000D02*
G75*
G03*
X106450000Y-114300000I-1500000J0D01*
G01*
X106450000Y-114300000D02*
G75*
G03*
X109450000Y-114300000I1500000J0D01*
G01*
%TO.C,J13*%
X158296000Y-132055000D02*
X158296000Y-144815000D01*
X158296000Y-132055000D02*
X160956000Y-132055000D01*
X158296000Y-144815000D02*
X160956000Y-144815000D01*
X159626000Y-129455000D02*
X160956000Y-129455000D01*
X160956000Y-129455000D02*
X160956000Y-130785000D01*
X160956000Y-132055000D02*
X160956000Y-144815000D01*
%TO.C,R23*%
X175260000Y-64540000D02*
X175260000Y-65310000D01*
X176630000Y-65310000D02*
X173890000Y-65310000D01*
X173890000Y-65310000D02*
X173890000Y-71850000D01*
X176630000Y-71850000D02*
X176630000Y-65310000D01*
X173890000Y-71850000D02*
X176630000Y-71850000D01*
X175260000Y-72620000D02*
X175260000Y-71850000D01*
%TO.C,R9*%
X154940000Y-64540000D02*
X154940000Y-65310000D01*
X156310000Y-65310000D02*
X153570000Y-65310000D01*
X153570000Y-65310000D02*
X153570000Y-71850000D01*
X156310000Y-71850000D02*
X156310000Y-65310000D01*
X153570000Y-71850000D02*
X156310000Y-71850000D01*
X154940000Y-72620000D02*
X154940000Y-71850000D01*
%TO.C,R12*%
X149098000Y-105180000D02*
X149098000Y-105950000D01*
X150468000Y-105950000D02*
X147728000Y-105950000D01*
X147728000Y-105950000D02*
X147728000Y-112490000D01*
X150468000Y-112490000D02*
X150468000Y-105950000D01*
X147728000Y-112490000D02*
X150468000Y-112490000D01*
X149098000Y-113260000D02*
X149098000Y-112490000D01*
%TO.C,J1*%
X91292000Y-57820588D02*
G75*
G03*
X88292000Y-57820588I-1500000J0D01*
G01*
X88292000Y-57820588D02*
G75*
G03*
X91292000Y-57820588I1500000J0D01*
G01*
%TO.C,C1*%
X101262000Y-130656063D02*
X106002000Y-130656063D01*
X101262000Y-130656063D02*
X101262000Y-123416063D01*
X106002000Y-130656063D02*
X106002000Y-123416063D01*
X101262000Y-123416063D02*
X106002000Y-123416063D01*
%TO.C,C4*%
X144067000Y-71085888D02*
X144067000Y-70585888D01*
X143817000Y-70835888D02*
X144317000Y-70835888D01*
X142962000Y-68281113D02*
X148122000Y-68281113D01*
X142962000Y-68241113D02*
X148122000Y-68241113D01*
X142963000Y-68201113D02*
X148121000Y-68201113D01*
X142964000Y-68161113D02*
X148120000Y-68161113D01*
X142966000Y-68121113D02*
X148118000Y-68121113D01*
X142969000Y-68081113D02*
X148115000Y-68081113D01*
X142973000Y-68041113D02*
X144502000Y-68041113D01*
X146582000Y-68041113D02*
X148111000Y-68041113D01*
X142977000Y-68001113D02*
X144502000Y-68001113D01*
X146582000Y-68001113D02*
X148107000Y-68001113D01*
X142981000Y-67961113D02*
X144502000Y-67961113D01*
X146582000Y-67961113D02*
X148103000Y-67961113D01*
X142986000Y-67921113D02*
X144502000Y-67921113D01*
X146582000Y-67921113D02*
X148098000Y-67921113D01*
X142992000Y-67881113D02*
X144502000Y-67881113D01*
X146582000Y-67881113D02*
X148092000Y-67881113D01*
X142999000Y-67841113D02*
X144502000Y-67841113D01*
X146582000Y-67841113D02*
X148085000Y-67841113D01*
X143006000Y-67801113D02*
X144502000Y-67801113D01*
X146582000Y-67801113D02*
X148078000Y-67801113D01*
X143014000Y-67761113D02*
X144502000Y-67761113D01*
X146582000Y-67761113D02*
X148070000Y-67761113D01*
X143022000Y-67721113D02*
X144502000Y-67721113D01*
X146582000Y-67721113D02*
X148062000Y-67721113D01*
X143031000Y-67681113D02*
X144502000Y-67681113D01*
X146582000Y-67681113D02*
X148053000Y-67681113D01*
X143041000Y-67641113D02*
X144502000Y-67641113D01*
X146582000Y-67641113D02*
X148043000Y-67641113D01*
X143051000Y-67601113D02*
X144502000Y-67601113D01*
X146582000Y-67601113D02*
X148033000Y-67601113D01*
X143062000Y-67560113D02*
X144502000Y-67560113D01*
X146582000Y-67560113D02*
X148022000Y-67560113D01*
X143074000Y-67520113D02*
X144502000Y-67520113D01*
X146582000Y-67520113D02*
X148010000Y-67520113D01*
X143087000Y-67480113D02*
X144502000Y-67480113D01*
X146582000Y-67480113D02*
X147997000Y-67480113D01*
X143100000Y-67440113D02*
X144502000Y-67440113D01*
X146582000Y-67440113D02*
X147984000Y-67440113D01*
X143114000Y-67400113D02*
X144502000Y-67400113D01*
X146582000Y-67400113D02*
X147970000Y-67400113D01*
X143128000Y-67360113D02*
X144502000Y-67360113D01*
X146582000Y-67360113D02*
X147956000Y-67360113D01*
X143144000Y-67320113D02*
X144502000Y-67320113D01*
X146582000Y-67320113D02*
X147940000Y-67320113D01*
X143160000Y-67280113D02*
X144502000Y-67280113D01*
X146582000Y-67280113D02*
X147924000Y-67280113D01*
X143177000Y-67240113D02*
X144502000Y-67240113D01*
X146582000Y-67240113D02*
X147907000Y-67240113D01*
X143194000Y-67200113D02*
X144502000Y-67200113D01*
X146582000Y-67200113D02*
X147890000Y-67200113D01*
X143213000Y-67160113D02*
X144502000Y-67160113D01*
X146582000Y-67160113D02*
X147871000Y-67160113D01*
X143232000Y-67120113D02*
X144502000Y-67120113D01*
X146582000Y-67120113D02*
X147852000Y-67120113D01*
X143252000Y-67080113D02*
X144502000Y-67080113D01*
X146582000Y-67080113D02*
X147832000Y-67080113D01*
X143274000Y-67040113D02*
X144502000Y-67040113D01*
X146582000Y-67040113D02*
X147810000Y-67040113D01*
X143295000Y-67000113D02*
X144502000Y-67000113D01*
X146582000Y-67000113D02*
X147789000Y-67000113D01*
X143318000Y-66960113D02*
X144502000Y-66960113D01*
X146582000Y-66960113D02*
X147766000Y-66960113D01*
X143342000Y-66920113D02*
X144502000Y-66920113D01*
X146582000Y-66920113D02*
X147742000Y-66920113D01*
X143367000Y-66880113D02*
X144502000Y-66880113D01*
X146582000Y-66880113D02*
X147717000Y-66880113D01*
X143393000Y-66840113D02*
X144502000Y-66840113D01*
X146582000Y-66840113D02*
X147691000Y-66840113D01*
X143420000Y-66800113D02*
X144502000Y-66800113D01*
X146582000Y-66800113D02*
X147664000Y-66800113D01*
X143447000Y-66760113D02*
X144502000Y-66760113D01*
X146582000Y-66760113D02*
X147637000Y-66760113D01*
X143477000Y-66720113D02*
X144502000Y-66720113D01*
X146582000Y-66720113D02*
X147607000Y-66720113D01*
X143507000Y-66680113D02*
X144502000Y-66680113D01*
X146582000Y-66680113D02*
X147577000Y-66680113D01*
X143538000Y-66640113D02*
X144502000Y-66640113D01*
X146582000Y-66640113D02*
X147546000Y-66640113D01*
X143571000Y-66600113D02*
X144502000Y-66600113D01*
X146582000Y-66600113D02*
X147513000Y-66600113D01*
X143605000Y-66560113D02*
X144502000Y-66560113D01*
X146582000Y-66560113D02*
X147479000Y-66560113D01*
X143641000Y-66520113D02*
X144502000Y-66520113D01*
X146582000Y-66520113D02*
X147443000Y-66520113D01*
X143678000Y-66480113D02*
X144502000Y-66480113D01*
X146582000Y-66480113D02*
X147406000Y-66480113D01*
X143716000Y-66440113D02*
X144502000Y-66440113D01*
X146582000Y-66440113D02*
X147368000Y-66440113D01*
X143757000Y-66400113D02*
X144502000Y-66400113D01*
X146582000Y-66400113D02*
X147327000Y-66400113D01*
X143799000Y-66360113D02*
X144502000Y-66360113D01*
X146582000Y-66360113D02*
X147285000Y-66360113D01*
X143843000Y-66320113D02*
X144502000Y-66320113D01*
X146582000Y-66320113D02*
X147241000Y-66320113D01*
X143889000Y-66280113D02*
X144502000Y-66280113D01*
X146582000Y-66280113D02*
X147195000Y-66280113D01*
X143937000Y-66240113D02*
X144502000Y-66240113D01*
X146582000Y-66240113D02*
X147147000Y-66240113D01*
X143988000Y-66200113D02*
X144502000Y-66200113D01*
X146582000Y-66200113D02*
X147096000Y-66200113D01*
X144042000Y-66160113D02*
X144502000Y-66160113D01*
X146582000Y-66160113D02*
X147042000Y-66160113D01*
X144099000Y-66120113D02*
X144502000Y-66120113D01*
X146582000Y-66120113D02*
X146985000Y-66120113D01*
X144159000Y-66080113D02*
X144502000Y-66080113D01*
X146582000Y-66080113D02*
X146925000Y-66080113D01*
X144223000Y-66040113D02*
X144502000Y-66040113D01*
X146582000Y-66040113D02*
X146861000Y-66040113D01*
X144291000Y-66000113D02*
X144502000Y-66000113D01*
X146582000Y-66000113D02*
X146793000Y-66000113D01*
X144364000Y-65960113D02*
X146720000Y-65960113D01*
X144444000Y-65920113D02*
X146640000Y-65920113D01*
X144531000Y-65880113D02*
X146553000Y-65880113D01*
X144627000Y-65840113D02*
X146457000Y-65840113D01*
X144737000Y-65800113D02*
X146347000Y-65800113D01*
X144865000Y-65760113D02*
X146219000Y-65760113D01*
X145024000Y-65720113D02*
X146060000Y-65720113D01*
X145258000Y-65680113D02*
X145826000Y-65680113D01*
X148162000Y-68281113D02*
G75*
G03*
X142922000Y-68281113I-2620000J0D01*
G01*
X142922000Y-68281113D02*
G75*
G03*
X148162000Y-68281113I2620000J0D01*
G01*
%TO.C,J3*%
X147296000Y-144780000D02*
G75*
G03*
X144296000Y-144780000I-1500000J0D01*
G01*
X144296000Y-144780000D02*
G75*
G03*
X147296000Y-144780000I1500000J0D01*
G01*
%TO.C,R28*%
X182880000Y-87860000D02*
X182880000Y-87090000D01*
X181510000Y-87090000D02*
X184250000Y-87090000D01*
X184250000Y-87090000D02*
X184250000Y-80550000D01*
X181510000Y-80550000D02*
X181510000Y-87090000D01*
X184250000Y-80550000D02*
X181510000Y-80550000D01*
X182880000Y-79780000D02*
X182880000Y-80550000D01*
%TO.C,R22*%
X177800000Y-87860000D02*
X177800000Y-87090000D01*
X176430000Y-87090000D02*
X179170000Y-87090000D01*
X179170000Y-87090000D02*
X179170000Y-80550000D01*
X176430000Y-80550000D02*
X176430000Y-87090000D01*
X179170000Y-80550000D02*
X176430000Y-80550000D01*
X177800000Y-79780000D02*
X177800000Y-80550000D01*
%TO.C,R13*%
X148072000Y-73855000D02*
X143002000Y-73855000D01*
X148072000Y-73855000D02*
X148072000Y-83625000D01*
X143002000Y-73855000D02*
X143002000Y-83625000D01*
X148072000Y-83625000D02*
X143002000Y-83625000D01*
%TO.C,R21*%
X170180000Y-95020000D02*
X170180000Y-95790000D01*
X171550000Y-95790000D02*
X168810000Y-95790000D01*
X168810000Y-95790000D02*
X168810000Y-102330000D01*
X171550000Y-102330000D02*
X171550000Y-95790000D01*
X168810000Y-102330000D02*
X171550000Y-102330000D01*
X170180000Y-103100000D02*
X170180000Y-102330000D01*
%TO.C,C11*%
X173516113Y-92505000D02*
X174016113Y-92505000D01*
X173766113Y-92255000D02*
X173766113Y-92755000D01*
X176320888Y-91400000D02*
X176320888Y-96560000D01*
X176360888Y-91400000D02*
X176360888Y-96560000D01*
X176400888Y-91401000D02*
X176400888Y-96559000D01*
X176440888Y-91402000D02*
X176440888Y-96558000D01*
X176480888Y-91404000D02*
X176480888Y-96556000D01*
X176520888Y-91407000D02*
X176520888Y-96553000D01*
X176560888Y-91411000D02*
X176560888Y-92940000D01*
X176560888Y-95020000D02*
X176560888Y-96549000D01*
X176600888Y-91415000D02*
X176600888Y-92940000D01*
X176600888Y-95020000D02*
X176600888Y-96545000D01*
X176640888Y-91419000D02*
X176640888Y-92940000D01*
X176640888Y-95020000D02*
X176640888Y-96541000D01*
X176680888Y-91424000D02*
X176680888Y-92940000D01*
X176680888Y-95020000D02*
X176680888Y-96536000D01*
X176720888Y-91430000D02*
X176720888Y-92940000D01*
X176720888Y-95020000D02*
X176720888Y-96530000D01*
X176760888Y-91437000D02*
X176760888Y-92940000D01*
X176760888Y-95020000D02*
X176760888Y-96523000D01*
X176800888Y-91444000D02*
X176800888Y-92940000D01*
X176800888Y-95020000D02*
X176800888Y-96516000D01*
X176840888Y-91452000D02*
X176840888Y-92940000D01*
X176840888Y-95020000D02*
X176840888Y-96508000D01*
X176880888Y-91460000D02*
X176880888Y-92940000D01*
X176880888Y-95020000D02*
X176880888Y-96500000D01*
X176920888Y-91469000D02*
X176920888Y-92940000D01*
X176920888Y-95020000D02*
X176920888Y-96491000D01*
X176960888Y-91479000D02*
X176960888Y-92940000D01*
X176960888Y-95020000D02*
X176960888Y-96481000D01*
X177000888Y-91489000D02*
X177000888Y-92940000D01*
X177000888Y-95020000D02*
X177000888Y-96471000D01*
X177041888Y-91500000D02*
X177041888Y-92940000D01*
X177041888Y-95020000D02*
X177041888Y-96460000D01*
X177081888Y-91512000D02*
X177081888Y-92940000D01*
X177081888Y-95020000D02*
X177081888Y-96448000D01*
X177121888Y-91525000D02*
X177121888Y-92940000D01*
X177121888Y-95020000D02*
X177121888Y-96435000D01*
X177161888Y-91538000D02*
X177161888Y-92940000D01*
X177161888Y-95020000D02*
X177161888Y-96422000D01*
X177201888Y-91552000D02*
X177201888Y-92940000D01*
X177201888Y-95020000D02*
X177201888Y-96408000D01*
X177241888Y-91566000D02*
X177241888Y-92940000D01*
X177241888Y-95020000D02*
X177241888Y-96394000D01*
X177281888Y-91582000D02*
X177281888Y-92940000D01*
X177281888Y-95020000D02*
X177281888Y-96378000D01*
X177321888Y-91598000D02*
X177321888Y-92940000D01*
X177321888Y-95020000D02*
X177321888Y-96362000D01*
X177361888Y-91615000D02*
X177361888Y-92940000D01*
X177361888Y-95020000D02*
X177361888Y-96345000D01*
X177401888Y-91632000D02*
X177401888Y-92940000D01*
X177401888Y-95020000D02*
X177401888Y-96328000D01*
X177441888Y-91651000D02*
X177441888Y-92940000D01*
X177441888Y-95020000D02*
X177441888Y-96309000D01*
X177481888Y-91670000D02*
X177481888Y-92940000D01*
X177481888Y-95020000D02*
X177481888Y-96290000D01*
X177521888Y-91690000D02*
X177521888Y-92940000D01*
X177521888Y-95020000D02*
X177521888Y-96270000D01*
X177561888Y-91712000D02*
X177561888Y-92940000D01*
X177561888Y-95020000D02*
X177561888Y-96248000D01*
X177601888Y-91733000D02*
X177601888Y-92940000D01*
X177601888Y-95020000D02*
X177601888Y-96227000D01*
X177641888Y-91756000D02*
X177641888Y-92940000D01*
X177641888Y-95020000D02*
X177641888Y-96204000D01*
X177681888Y-91780000D02*
X177681888Y-92940000D01*
X177681888Y-95020000D02*
X177681888Y-96180000D01*
X177721888Y-91805000D02*
X177721888Y-92940000D01*
X177721888Y-95020000D02*
X177721888Y-96155000D01*
X177761888Y-91831000D02*
X177761888Y-92940000D01*
X177761888Y-95020000D02*
X177761888Y-96129000D01*
X177801888Y-91858000D02*
X177801888Y-92940000D01*
X177801888Y-95020000D02*
X177801888Y-96102000D01*
X177841888Y-91885000D02*
X177841888Y-92940000D01*
X177841888Y-95020000D02*
X177841888Y-96075000D01*
X177881888Y-91915000D02*
X177881888Y-92940000D01*
X177881888Y-95020000D02*
X177881888Y-96045000D01*
X177921888Y-91945000D02*
X177921888Y-92940000D01*
X177921888Y-95020000D02*
X177921888Y-96015000D01*
X177961888Y-91976000D02*
X177961888Y-92940000D01*
X177961888Y-95020000D02*
X177961888Y-95984000D01*
X178001888Y-92009000D02*
X178001888Y-92940000D01*
X178001888Y-95020000D02*
X178001888Y-95951000D01*
X178041888Y-92043000D02*
X178041888Y-92940000D01*
X178041888Y-95020000D02*
X178041888Y-95917000D01*
X178081888Y-92079000D02*
X178081888Y-92940000D01*
X178081888Y-95020000D02*
X178081888Y-95881000D01*
X178121888Y-92116000D02*
X178121888Y-92940000D01*
X178121888Y-95020000D02*
X178121888Y-95844000D01*
X178161888Y-92154000D02*
X178161888Y-92940000D01*
X178161888Y-95020000D02*
X178161888Y-95806000D01*
X178201888Y-92195000D02*
X178201888Y-92940000D01*
X178201888Y-95020000D02*
X178201888Y-95765000D01*
X178241888Y-92237000D02*
X178241888Y-92940000D01*
X178241888Y-95020000D02*
X178241888Y-95723000D01*
X178281888Y-92281000D02*
X178281888Y-92940000D01*
X178281888Y-95020000D02*
X178281888Y-95679000D01*
X178321888Y-92327000D02*
X178321888Y-92940000D01*
X178321888Y-95020000D02*
X178321888Y-95633000D01*
X178361888Y-92375000D02*
X178361888Y-92940000D01*
X178361888Y-95020000D02*
X178361888Y-95585000D01*
X178401888Y-92426000D02*
X178401888Y-92940000D01*
X178401888Y-95020000D02*
X178401888Y-95534000D01*
X178441888Y-92480000D02*
X178441888Y-92940000D01*
X178441888Y-95020000D02*
X178441888Y-95480000D01*
X178481888Y-92537000D02*
X178481888Y-92940000D01*
X178481888Y-95020000D02*
X178481888Y-95423000D01*
X178521888Y-92597000D02*
X178521888Y-92940000D01*
X178521888Y-95020000D02*
X178521888Y-95363000D01*
X178561888Y-92661000D02*
X178561888Y-92940000D01*
X178561888Y-95020000D02*
X178561888Y-95299000D01*
X178601888Y-92729000D02*
X178601888Y-92940000D01*
X178601888Y-95020000D02*
X178601888Y-95231000D01*
X178641888Y-92802000D02*
X178641888Y-95158000D01*
X178681888Y-92882000D02*
X178681888Y-95078000D01*
X178721888Y-92969000D02*
X178721888Y-94991000D01*
X178761888Y-93065000D02*
X178761888Y-94895000D01*
X178801888Y-93175000D02*
X178801888Y-94785000D01*
X178841888Y-93303000D02*
X178841888Y-94657000D01*
X178881888Y-93462000D02*
X178881888Y-94498000D01*
X178921888Y-93696000D02*
X178921888Y-94264000D01*
X178940888Y-93980000D02*
G75*
G03*
X173700888Y-93980000I-2620000J0D01*
G01*
X173700888Y-93980000D02*
G75*
G03*
X178940888Y-93980000I2620000J0D01*
G01*
%TO.C,C2*%
X126272113Y-66089000D02*
X126772113Y-66089000D01*
X126522113Y-65839000D02*
X126522113Y-66339000D01*
X129076888Y-64984000D02*
X129076888Y-70144000D01*
X129116888Y-64984000D02*
X129116888Y-70144000D01*
X129156888Y-64985000D02*
X129156888Y-70143000D01*
X129196888Y-64986000D02*
X129196888Y-70142000D01*
X129236888Y-64988000D02*
X129236888Y-70140000D01*
X129276888Y-64991000D02*
X129276888Y-70137000D01*
X129316888Y-64995000D02*
X129316888Y-66524000D01*
X129316888Y-68604000D02*
X129316888Y-70133000D01*
X129356888Y-64999000D02*
X129356888Y-66524000D01*
X129356888Y-68604000D02*
X129356888Y-70129000D01*
X129396888Y-65003000D02*
X129396888Y-66524000D01*
X129396888Y-68604000D02*
X129396888Y-70125000D01*
X129436888Y-65008000D02*
X129436888Y-66524000D01*
X129436888Y-68604000D02*
X129436888Y-70120000D01*
X129476888Y-65014000D02*
X129476888Y-66524000D01*
X129476888Y-68604000D02*
X129476888Y-70114000D01*
X129516888Y-65021000D02*
X129516888Y-66524000D01*
X129516888Y-68604000D02*
X129516888Y-70107000D01*
X129556888Y-65028000D02*
X129556888Y-66524000D01*
X129556888Y-68604000D02*
X129556888Y-70100000D01*
X129596888Y-65036000D02*
X129596888Y-66524000D01*
X129596888Y-68604000D02*
X129596888Y-70092000D01*
X129636888Y-65044000D02*
X129636888Y-66524000D01*
X129636888Y-68604000D02*
X129636888Y-70084000D01*
X129676888Y-65053000D02*
X129676888Y-66524000D01*
X129676888Y-68604000D02*
X129676888Y-70075000D01*
X129716888Y-65063000D02*
X129716888Y-66524000D01*
X129716888Y-68604000D02*
X129716888Y-70065000D01*
X129756888Y-65073000D02*
X129756888Y-66524000D01*
X129756888Y-68604000D02*
X129756888Y-70055000D01*
X129797888Y-65084000D02*
X129797888Y-66524000D01*
X129797888Y-68604000D02*
X129797888Y-70044000D01*
X129837888Y-65096000D02*
X129837888Y-66524000D01*
X129837888Y-68604000D02*
X129837888Y-70032000D01*
X129877888Y-65109000D02*
X129877888Y-66524000D01*
X129877888Y-68604000D02*
X129877888Y-70019000D01*
X129917888Y-65122000D02*
X129917888Y-66524000D01*
X129917888Y-68604000D02*
X129917888Y-70006000D01*
X129957888Y-65136000D02*
X129957888Y-66524000D01*
X129957888Y-68604000D02*
X129957888Y-69992000D01*
X129997888Y-65150000D02*
X129997888Y-66524000D01*
X129997888Y-68604000D02*
X129997888Y-69978000D01*
X130037888Y-65166000D02*
X130037888Y-66524000D01*
X130037888Y-68604000D02*
X130037888Y-69962000D01*
X130077888Y-65182000D02*
X130077888Y-66524000D01*
X130077888Y-68604000D02*
X130077888Y-69946000D01*
X130117888Y-65199000D02*
X130117888Y-66524000D01*
X130117888Y-68604000D02*
X130117888Y-69929000D01*
X130157888Y-65216000D02*
X130157888Y-66524000D01*
X130157888Y-68604000D02*
X130157888Y-69912000D01*
X130197888Y-65235000D02*
X130197888Y-66524000D01*
X130197888Y-68604000D02*
X130197888Y-69893000D01*
X130237888Y-65254000D02*
X130237888Y-66524000D01*
X130237888Y-68604000D02*
X130237888Y-69874000D01*
X130277888Y-65274000D02*
X130277888Y-66524000D01*
X130277888Y-68604000D02*
X130277888Y-69854000D01*
X130317888Y-65296000D02*
X130317888Y-66524000D01*
X130317888Y-68604000D02*
X130317888Y-69832000D01*
X130357888Y-65317000D02*
X130357888Y-66524000D01*
X130357888Y-68604000D02*
X130357888Y-69811000D01*
X130397888Y-65340000D02*
X130397888Y-66524000D01*
X130397888Y-68604000D02*
X130397888Y-69788000D01*
X130437888Y-65364000D02*
X130437888Y-66524000D01*
X130437888Y-68604000D02*
X130437888Y-69764000D01*
X130477888Y-65389000D02*
X130477888Y-66524000D01*
X130477888Y-68604000D02*
X130477888Y-69739000D01*
X130517888Y-65415000D02*
X130517888Y-66524000D01*
X130517888Y-68604000D02*
X130517888Y-69713000D01*
X130557888Y-65442000D02*
X130557888Y-66524000D01*
X130557888Y-68604000D02*
X130557888Y-69686000D01*
X130597888Y-65469000D02*
X130597888Y-66524000D01*
X130597888Y-68604000D02*
X130597888Y-69659000D01*
X130637888Y-65499000D02*
X130637888Y-66524000D01*
X130637888Y-68604000D02*
X130637888Y-69629000D01*
X130677888Y-65529000D02*
X130677888Y-66524000D01*
X130677888Y-68604000D02*
X130677888Y-69599000D01*
X130717888Y-65560000D02*
X130717888Y-66524000D01*
X130717888Y-68604000D02*
X130717888Y-69568000D01*
X130757888Y-65593000D02*
X130757888Y-66524000D01*
X130757888Y-68604000D02*
X130757888Y-69535000D01*
X130797888Y-65627000D02*
X130797888Y-66524000D01*
X130797888Y-68604000D02*
X130797888Y-69501000D01*
X130837888Y-65663000D02*
X130837888Y-66524000D01*
X130837888Y-68604000D02*
X130837888Y-69465000D01*
X130877888Y-65700000D02*
X130877888Y-66524000D01*
X130877888Y-68604000D02*
X130877888Y-69428000D01*
X130917888Y-65738000D02*
X130917888Y-66524000D01*
X130917888Y-68604000D02*
X130917888Y-69390000D01*
X130957888Y-65779000D02*
X130957888Y-66524000D01*
X130957888Y-68604000D02*
X130957888Y-69349000D01*
X130997888Y-65821000D02*
X130997888Y-66524000D01*
X130997888Y-68604000D02*
X130997888Y-69307000D01*
X131037888Y-65865000D02*
X131037888Y-66524000D01*
X131037888Y-68604000D02*
X131037888Y-69263000D01*
X131077888Y-65911000D02*
X131077888Y-66524000D01*
X131077888Y-68604000D02*
X131077888Y-69217000D01*
X131117888Y-65959000D02*
X131117888Y-66524000D01*
X131117888Y-68604000D02*
X131117888Y-69169000D01*
X131157888Y-66010000D02*
X131157888Y-66524000D01*
X131157888Y-68604000D02*
X131157888Y-69118000D01*
X131197888Y-66064000D02*
X131197888Y-66524000D01*
X131197888Y-68604000D02*
X131197888Y-69064000D01*
X131237888Y-66121000D02*
X131237888Y-66524000D01*
X131237888Y-68604000D02*
X131237888Y-69007000D01*
X131277888Y-66181000D02*
X131277888Y-66524000D01*
X131277888Y-68604000D02*
X131277888Y-68947000D01*
X131317888Y-66245000D02*
X131317888Y-66524000D01*
X131317888Y-68604000D02*
X131317888Y-68883000D01*
X131357888Y-66313000D02*
X131357888Y-66524000D01*
X131357888Y-68604000D02*
X131357888Y-68815000D01*
X131397888Y-66386000D02*
X131397888Y-68742000D01*
X131437888Y-66466000D02*
X131437888Y-68662000D01*
X131477888Y-66553000D02*
X131477888Y-68575000D01*
X131517888Y-66649000D02*
X131517888Y-68479000D01*
X131557888Y-66759000D02*
X131557888Y-68369000D01*
X131597888Y-66887000D02*
X131597888Y-68241000D01*
X131637888Y-67046000D02*
X131637888Y-68082000D01*
X131677888Y-67280000D02*
X131677888Y-67848000D01*
X131696888Y-67564000D02*
G75*
G03*
X126456888Y-67564000I-2620000J0D01*
G01*
X126456888Y-67564000D02*
G75*
G03*
X131696888Y-67564000I2620000J0D01*
G01*
D14*
%TO.C,BT1*%
X83175944Y-137410963D02*
X83175944Y-138410963D01*
X83175944Y-137410963D02*
X82175944Y-137410963D01*
X83175944Y-137410963D02*
X84175944Y-137410963D01*
X83175944Y-136410963D02*
X83175944Y-137410963D01*
X79810944Y-136055963D02*
X84975944Y-136055963D01*
X79810944Y-136055963D02*
X79810944Y-129455963D01*
X94540944Y-136055963D02*
X89375944Y-136055963D01*
X79810944Y-129455963D02*
X82020944Y-129455963D01*
X82020944Y-129455963D02*
X82020944Y-124365963D01*
X79810944Y-124365963D02*
X79810944Y-117765963D01*
X82020944Y-124365963D02*
X79810944Y-124365963D01*
X79810944Y-117765963D02*
X84975944Y-117765963D01*
X94540944Y-117765963D02*
X94540944Y-136055963D01*
X94540944Y-117765963D02*
X89375944Y-117765963D01*
X83175944Y-115410963D02*
X83175944Y-117410963D01*
D11*
%TO.C,R5*%
X128270000Y-77240000D02*
X128270000Y-78010000D01*
X129640000Y-78010000D02*
X126900000Y-78010000D01*
X126900000Y-78010000D02*
X126900000Y-84550000D01*
X129640000Y-84550000D02*
X129640000Y-78010000D01*
X126900000Y-84550000D02*
X129640000Y-84550000D01*
X128270000Y-85320000D02*
X128270000Y-84550000D01*
%TO.C,R3*%
X99875944Y-71360000D02*
X99875944Y-72130000D01*
X101245944Y-72130000D02*
X98505944Y-72130000D01*
X98505944Y-72130000D02*
X98505944Y-78670000D01*
X101245944Y-78670000D02*
X101245944Y-72130000D01*
X98505944Y-78670000D02*
X101245944Y-78670000D01*
X99875944Y-79440000D02*
X99875944Y-78670000D01*
%TO.C,C5*%
X114842113Y-113079000D02*
X115342113Y-113079000D01*
X115092113Y-112829000D02*
X115092113Y-113329000D01*
X117646888Y-111974000D02*
X117646888Y-117134000D01*
X117686888Y-111974000D02*
X117686888Y-117134000D01*
X117726888Y-111975000D02*
X117726888Y-117133000D01*
X117766888Y-111976000D02*
X117766888Y-117132000D01*
X117806888Y-111978000D02*
X117806888Y-117130000D01*
X117846888Y-111981000D02*
X117846888Y-117127000D01*
X117886888Y-111985000D02*
X117886888Y-113514000D01*
X117886888Y-115594000D02*
X117886888Y-117123000D01*
X117926888Y-111989000D02*
X117926888Y-113514000D01*
X117926888Y-115594000D02*
X117926888Y-117119000D01*
X117966888Y-111993000D02*
X117966888Y-113514000D01*
X117966888Y-115594000D02*
X117966888Y-117115000D01*
X118006888Y-111998000D02*
X118006888Y-113514000D01*
X118006888Y-115594000D02*
X118006888Y-117110000D01*
X118046888Y-112004000D02*
X118046888Y-113514000D01*
X118046888Y-115594000D02*
X118046888Y-117104000D01*
X118086888Y-112011000D02*
X118086888Y-113514000D01*
X118086888Y-115594000D02*
X118086888Y-117097000D01*
X118126888Y-112018000D02*
X118126888Y-113514000D01*
X118126888Y-115594000D02*
X118126888Y-117090000D01*
X118166888Y-112026000D02*
X118166888Y-113514000D01*
X118166888Y-115594000D02*
X118166888Y-117082000D01*
X118206888Y-112034000D02*
X118206888Y-113514000D01*
X118206888Y-115594000D02*
X118206888Y-117074000D01*
X118246888Y-112043000D02*
X118246888Y-113514000D01*
X118246888Y-115594000D02*
X118246888Y-117065000D01*
X118286888Y-112053000D02*
X118286888Y-113514000D01*
X118286888Y-115594000D02*
X118286888Y-117055000D01*
X118326888Y-112063000D02*
X118326888Y-113514000D01*
X118326888Y-115594000D02*
X118326888Y-117045000D01*
X118367888Y-112074000D02*
X118367888Y-113514000D01*
X118367888Y-115594000D02*
X118367888Y-117034000D01*
X118407888Y-112086000D02*
X118407888Y-113514000D01*
X118407888Y-115594000D02*
X118407888Y-117022000D01*
X118447888Y-112099000D02*
X118447888Y-113514000D01*
X118447888Y-115594000D02*
X118447888Y-117009000D01*
X118487888Y-112112000D02*
X118487888Y-113514000D01*
X118487888Y-115594000D02*
X118487888Y-116996000D01*
X118527888Y-112126000D02*
X118527888Y-113514000D01*
X118527888Y-115594000D02*
X118527888Y-116982000D01*
X118567888Y-112140000D02*
X118567888Y-113514000D01*
X118567888Y-115594000D02*
X118567888Y-116968000D01*
X118607888Y-112156000D02*
X118607888Y-113514000D01*
X118607888Y-115594000D02*
X118607888Y-116952000D01*
X118647888Y-112172000D02*
X118647888Y-113514000D01*
X118647888Y-115594000D02*
X118647888Y-116936000D01*
X118687888Y-112189000D02*
X118687888Y-113514000D01*
X118687888Y-115594000D02*
X118687888Y-116919000D01*
X118727888Y-112206000D02*
X118727888Y-113514000D01*
X118727888Y-115594000D02*
X118727888Y-116902000D01*
X118767888Y-112225000D02*
X118767888Y-113514000D01*
X118767888Y-115594000D02*
X118767888Y-116883000D01*
X118807888Y-112244000D02*
X118807888Y-113514000D01*
X118807888Y-115594000D02*
X118807888Y-116864000D01*
X118847888Y-112264000D02*
X118847888Y-113514000D01*
X118847888Y-115594000D02*
X118847888Y-116844000D01*
X118887888Y-112286000D02*
X118887888Y-113514000D01*
X118887888Y-115594000D02*
X118887888Y-116822000D01*
X118927888Y-112307000D02*
X118927888Y-113514000D01*
X118927888Y-115594000D02*
X118927888Y-116801000D01*
X118967888Y-112330000D02*
X118967888Y-113514000D01*
X118967888Y-115594000D02*
X118967888Y-116778000D01*
X119007888Y-112354000D02*
X119007888Y-113514000D01*
X119007888Y-115594000D02*
X119007888Y-116754000D01*
X119047888Y-112379000D02*
X119047888Y-113514000D01*
X119047888Y-115594000D02*
X119047888Y-116729000D01*
X119087888Y-112405000D02*
X119087888Y-113514000D01*
X119087888Y-115594000D02*
X119087888Y-116703000D01*
X119127888Y-112432000D02*
X119127888Y-113514000D01*
X119127888Y-115594000D02*
X119127888Y-116676000D01*
X119167888Y-112459000D02*
X119167888Y-113514000D01*
X119167888Y-115594000D02*
X119167888Y-116649000D01*
X119207888Y-112489000D02*
X119207888Y-113514000D01*
X119207888Y-115594000D02*
X119207888Y-116619000D01*
X119247888Y-112519000D02*
X119247888Y-113514000D01*
X119247888Y-115594000D02*
X119247888Y-116589000D01*
X119287888Y-112550000D02*
X119287888Y-113514000D01*
X119287888Y-115594000D02*
X119287888Y-116558000D01*
X119327888Y-112583000D02*
X119327888Y-113514000D01*
X119327888Y-115594000D02*
X119327888Y-116525000D01*
X119367888Y-112617000D02*
X119367888Y-113514000D01*
X119367888Y-115594000D02*
X119367888Y-116491000D01*
X119407888Y-112653000D02*
X119407888Y-113514000D01*
X119407888Y-115594000D02*
X119407888Y-116455000D01*
X119447888Y-112690000D02*
X119447888Y-113514000D01*
X119447888Y-115594000D02*
X119447888Y-116418000D01*
X119487888Y-112728000D02*
X119487888Y-113514000D01*
X119487888Y-115594000D02*
X119487888Y-116380000D01*
X119527888Y-112769000D02*
X119527888Y-113514000D01*
X119527888Y-115594000D02*
X119527888Y-116339000D01*
X119567888Y-112811000D02*
X119567888Y-113514000D01*
X119567888Y-115594000D02*
X119567888Y-116297000D01*
X119607888Y-112855000D02*
X119607888Y-113514000D01*
X119607888Y-115594000D02*
X119607888Y-116253000D01*
X119647888Y-112901000D02*
X119647888Y-113514000D01*
X119647888Y-115594000D02*
X119647888Y-116207000D01*
X119687888Y-112949000D02*
X119687888Y-113514000D01*
X119687888Y-115594000D02*
X119687888Y-116159000D01*
X119727888Y-113000000D02*
X119727888Y-113514000D01*
X119727888Y-115594000D02*
X119727888Y-116108000D01*
X119767888Y-113054000D02*
X119767888Y-113514000D01*
X119767888Y-115594000D02*
X119767888Y-116054000D01*
X119807888Y-113111000D02*
X119807888Y-113514000D01*
X119807888Y-115594000D02*
X119807888Y-115997000D01*
X119847888Y-113171000D02*
X119847888Y-113514000D01*
X119847888Y-115594000D02*
X119847888Y-115937000D01*
X119887888Y-113235000D02*
X119887888Y-113514000D01*
X119887888Y-115594000D02*
X119887888Y-115873000D01*
X119927888Y-113303000D02*
X119927888Y-113514000D01*
X119927888Y-115594000D02*
X119927888Y-115805000D01*
X119967888Y-113376000D02*
X119967888Y-115732000D01*
X120007888Y-113456000D02*
X120007888Y-115652000D01*
X120047888Y-113543000D02*
X120047888Y-115565000D01*
X120087888Y-113639000D02*
X120087888Y-115469000D01*
X120127888Y-113749000D02*
X120127888Y-115359000D01*
X120167888Y-113877000D02*
X120167888Y-115231000D01*
X120207888Y-114036000D02*
X120207888Y-115072000D01*
X120247888Y-114270000D02*
X120247888Y-114838000D01*
X120266888Y-114554000D02*
G75*
G03*
X115026888Y-114554000I-2620000J0D01*
G01*
X115026888Y-114554000D02*
G75*
G03*
X120266888Y-114554000I2620000J0D01*
G01*
%TO.C,J7*%
X133580000Y-58420000D02*
G75*
G03*
X130580000Y-58420000I-1500000J0D01*
G01*
X130580000Y-58420000D02*
G75*
G03*
X133580000Y-58420000I1500000J0D01*
G01*
%TO.C,U3*%
X131158000Y-92092000D02*
X131158000Y-102492000D01*
X131158000Y-102492000D02*
X141658000Y-102492000D01*
X134158000Y-92152000D02*
X134158000Y-102432000D01*
X134158000Y-102432000D02*
X138658000Y-102432000D01*
X135408000Y-92152000D02*
X134158000Y-92152000D01*
X138658000Y-92152000D02*
X137408000Y-92152000D01*
X138658000Y-102432000D02*
X138658000Y-92152000D01*
X141658000Y-92092000D02*
X131158000Y-92092000D01*
X141658000Y-102492000D02*
X141658000Y-92092000D01*
X135408000Y-92152000D02*
G75*
G03*
X137408000Y-92152000I1000000J0D01*
G01*
%TO.C,C10*%
X159850000Y-92940000D02*
X155110000Y-92940000D01*
X159850000Y-92940000D02*
X159850000Y-100180000D01*
X155110000Y-92940000D02*
X155110000Y-100180000D01*
X159850000Y-100180000D02*
X155110000Y-100180000D01*
%TO.C,R30*%
X190500000Y-110260000D02*
X190500000Y-111030000D01*
X191870000Y-111030000D02*
X189130000Y-111030000D01*
X189130000Y-111030000D02*
X189130000Y-117570000D01*
X191870000Y-117570000D02*
X191870000Y-111030000D01*
X189130000Y-117570000D02*
X191870000Y-117570000D01*
X190500000Y-118340000D02*
X190500000Y-117570000D01*
%TO.C,R26*%
X170678000Y-63695000D02*
X165608000Y-63695000D01*
X170678000Y-63695000D02*
X170678000Y-73465000D01*
X165608000Y-63695000D02*
X165608000Y-73465000D01*
X170678000Y-73465000D02*
X165608000Y-73465000D01*
%TO.C,J8*%
X146280000Y-58420000D02*
G75*
G03*
X143280000Y-58420000I-1500000J0D01*
G01*
X143280000Y-58420000D02*
G75*
G03*
X146280000Y-58420000I1500000J0D01*
G01*
%TO.C,C6*%
X122985000Y-105121888D02*
X122985000Y-104621888D01*
X122735000Y-104871888D02*
X123235000Y-104871888D01*
X121880000Y-102317113D02*
X127040000Y-102317113D01*
X121880000Y-102277113D02*
X127040000Y-102277113D01*
X121881000Y-102237113D02*
X127039000Y-102237113D01*
X121882000Y-102197113D02*
X127038000Y-102197113D01*
X121884000Y-102157113D02*
X127036000Y-102157113D01*
X121887000Y-102117113D02*
X127033000Y-102117113D01*
X121891000Y-102077113D02*
X123420000Y-102077113D01*
X125500000Y-102077113D02*
X127029000Y-102077113D01*
X121895000Y-102037113D02*
X123420000Y-102037113D01*
X125500000Y-102037113D02*
X127025000Y-102037113D01*
X121899000Y-101997113D02*
X123420000Y-101997113D01*
X125500000Y-101997113D02*
X127021000Y-101997113D01*
X121904000Y-101957113D02*
X123420000Y-101957113D01*
X125500000Y-101957113D02*
X127016000Y-101957113D01*
X121910000Y-101917113D02*
X123420000Y-101917113D01*
X125500000Y-101917113D02*
X127010000Y-101917113D01*
X121917000Y-101877113D02*
X123420000Y-101877113D01*
X125500000Y-101877113D02*
X127003000Y-101877113D01*
X121924000Y-101837113D02*
X123420000Y-101837113D01*
X125500000Y-101837113D02*
X126996000Y-101837113D01*
X121932000Y-101797113D02*
X123420000Y-101797113D01*
X125500000Y-101797113D02*
X126988000Y-101797113D01*
X121940000Y-101757113D02*
X123420000Y-101757113D01*
X125500000Y-101757113D02*
X126980000Y-101757113D01*
X121949000Y-101717113D02*
X123420000Y-101717113D01*
X125500000Y-101717113D02*
X126971000Y-101717113D01*
X121959000Y-101677113D02*
X123420000Y-101677113D01*
X125500000Y-101677113D02*
X126961000Y-101677113D01*
X121969000Y-101637113D02*
X123420000Y-101637113D01*
X125500000Y-101637113D02*
X126951000Y-101637113D01*
X121980000Y-101596113D02*
X123420000Y-101596113D01*
X125500000Y-101596113D02*
X126940000Y-101596113D01*
X121992000Y-101556113D02*
X123420000Y-101556113D01*
X125500000Y-101556113D02*
X126928000Y-101556113D01*
X122005000Y-101516113D02*
X123420000Y-101516113D01*
X125500000Y-101516113D02*
X126915000Y-101516113D01*
X122018000Y-101476113D02*
X123420000Y-101476113D01*
X125500000Y-101476113D02*
X126902000Y-101476113D01*
X122032000Y-101436113D02*
X123420000Y-101436113D01*
X125500000Y-101436113D02*
X126888000Y-101436113D01*
X122046000Y-101396113D02*
X123420000Y-101396113D01*
X125500000Y-101396113D02*
X126874000Y-101396113D01*
X122062000Y-101356113D02*
X123420000Y-101356113D01*
X125500000Y-101356113D02*
X126858000Y-101356113D01*
X122078000Y-101316113D02*
X123420000Y-101316113D01*
X125500000Y-101316113D02*
X126842000Y-101316113D01*
X122095000Y-101276113D02*
X123420000Y-101276113D01*
X125500000Y-101276113D02*
X126825000Y-101276113D01*
X122112000Y-101236113D02*
X123420000Y-101236113D01*
X125500000Y-101236113D02*
X126808000Y-101236113D01*
X122131000Y-101196113D02*
X123420000Y-101196113D01*
X125500000Y-101196113D02*
X126789000Y-101196113D01*
X122150000Y-101156113D02*
X123420000Y-101156113D01*
X125500000Y-101156113D02*
X126770000Y-101156113D01*
X122170000Y-101116113D02*
X123420000Y-101116113D01*
X125500000Y-101116113D02*
X126750000Y-101116113D01*
X122192000Y-101076113D02*
X123420000Y-101076113D01*
X125500000Y-101076113D02*
X126728000Y-101076113D01*
X122213000Y-101036113D02*
X123420000Y-101036113D01*
X125500000Y-101036113D02*
X126707000Y-101036113D01*
X122236000Y-100996113D02*
X123420000Y-100996113D01*
X125500000Y-100996113D02*
X126684000Y-100996113D01*
X122260000Y-100956113D02*
X123420000Y-100956113D01*
X125500000Y-100956113D02*
X126660000Y-100956113D01*
X122285000Y-100916113D02*
X123420000Y-100916113D01*
X125500000Y-100916113D02*
X126635000Y-100916113D01*
X122311000Y-100876113D02*
X123420000Y-100876113D01*
X125500000Y-100876113D02*
X126609000Y-100876113D01*
X122338000Y-100836113D02*
X123420000Y-100836113D01*
X125500000Y-100836113D02*
X126582000Y-100836113D01*
X122365000Y-100796113D02*
X123420000Y-100796113D01*
X125500000Y-100796113D02*
X126555000Y-100796113D01*
X122395000Y-100756113D02*
X123420000Y-100756113D01*
X125500000Y-100756113D02*
X126525000Y-100756113D01*
X122425000Y-100716113D02*
X123420000Y-100716113D01*
X125500000Y-100716113D02*
X126495000Y-100716113D01*
X122456000Y-100676113D02*
X123420000Y-100676113D01*
X125500000Y-100676113D02*
X126464000Y-100676113D01*
X122489000Y-100636113D02*
X123420000Y-100636113D01*
X125500000Y-100636113D02*
X126431000Y-100636113D01*
X122523000Y-100596113D02*
X123420000Y-100596113D01*
X125500000Y-100596113D02*
X126397000Y-100596113D01*
X122559000Y-100556113D02*
X123420000Y-100556113D01*
X125500000Y-100556113D02*
X126361000Y-100556113D01*
X122596000Y-100516113D02*
X123420000Y-100516113D01*
X125500000Y-100516113D02*
X126324000Y-100516113D01*
X122634000Y-100476113D02*
X123420000Y-100476113D01*
X125500000Y-100476113D02*
X126286000Y-100476113D01*
X122675000Y-100436113D02*
X123420000Y-100436113D01*
X125500000Y-100436113D02*
X126245000Y-100436113D01*
X122717000Y-100396113D02*
X123420000Y-100396113D01*
X125500000Y-100396113D02*
X126203000Y-100396113D01*
X122761000Y-100356113D02*
X123420000Y-100356113D01*
X125500000Y-100356113D02*
X126159000Y-100356113D01*
X122807000Y-100316113D02*
X123420000Y-100316113D01*
X125500000Y-100316113D02*
X126113000Y-100316113D01*
X122855000Y-100276113D02*
X123420000Y-100276113D01*
X125500000Y-100276113D02*
X126065000Y-100276113D01*
X122906000Y-100236113D02*
X123420000Y-100236113D01*
X125500000Y-100236113D02*
X126014000Y-100236113D01*
X122960000Y-100196113D02*
X123420000Y-100196113D01*
X125500000Y-100196113D02*
X125960000Y-100196113D01*
X123017000Y-100156113D02*
X123420000Y-100156113D01*
X125500000Y-100156113D02*
X125903000Y-100156113D01*
X123077000Y-100116113D02*
X123420000Y-100116113D01*
X125500000Y-100116113D02*
X125843000Y-100116113D01*
X123141000Y-100076113D02*
X123420000Y-100076113D01*
X125500000Y-100076113D02*
X125779000Y-100076113D01*
X123209000Y-100036113D02*
X123420000Y-100036113D01*
X125500000Y-100036113D02*
X125711000Y-100036113D01*
X123282000Y-99996113D02*
X125638000Y-99996113D01*
X123362000Y-99956113D02*
X125558000Y-99956113D01*
X123449000Y-99916113D02*
X125471000Y-99916113D01*
X123545000Y-99876113D02*
X125375000Y-99876113D01*
X123655000Y-99836113D02*
X125265000Y-99836113D01*
X123783000Y-99796113D02*
X125137000Y-99796113D01*
X123942000Y-99756113D02*
X124978000Y-99756113D01*
X124176000Y-99716113D02*
X124744000Y-99716113D01*
X127080000Y-102317113D02*
G75*
G03*
X121840000Y-102317113I-2620000J0D01*
G01*
X121840000Y-102317113D02*
G75*
G03*
X127080000Y-102317113I2620000J0D01*
G01*
%TO.C,C8*%
X156400000Y-82450000D02*
X156400000Y-85190000D01*
X156400000Y-82450000D02*
X163640000Y-82450000D01*
X156400000Y-85190000D02*
X163640000Y-85190000D01*
X163640000Y-82450000D02*
X163640000Y-85190000D01*
%TO.C,R4*%
X120904000Y-123468000D02*
X120904000Y-124238000D01*
X122274000Y-124238000D02*
X119534000Y-124238000D01*
X119534000Y-124238000D02*
X119534000Y-130778000D01*
X122274000Y-130778000D02*
X122274000Y-124238000D01*
X119534000Y-130778000D02*
X122274000Y-130778000D01*
X120904000Y-131548000D02*
X120904000Y-130778000D01*
%TO.C,U5*%
X183860000Y-120715000D02*
X183860000Y-102815000D01*
X183860000Y-102815000D02*
X179360000Y-102815000D01*
X182610000Y-120715000D02*
X183860000Y-120715000D01*
X179360000Y-120715000D02*
X180610000Y-120715000D01*
X179360000Y-102815000D02*
X179360000Y-120715000D01*
X182610000Y-120715000D02*
G75*
G03*
X180610000Y-120715000I-1000000J0D01*
G01*
%TO.C,R7*%
X138684000Y-77240000D02*
X138684000Y-78010000D01*
X140054000Y-78010000D02*
X137314000Y-78010000D01*
X137314000Y-78010000D02*
X137314000Y-84550000D01*
X140054000Y-84550000D02*
X140054000Y-78010000D01*
X137314000Y-84550000D02*
X140054000Y-84550000D01*
X138684000Y-85320000D02*
X138684000Y-84550000D01*
%TO.C,R10*%
X160020000Y-64540000D02*
X160020000Y-65310000D01*
X161390000Y-65310000D02*
X158650000Y-65310000D01*
X158650000Y-65310000D02*
X158650000Y-71850000D01*
X161390000Y-71850000D02*
X161390000Y-65310000D01*
X158650000Y-71850000D02*
X161390000Y-71850000D01*
X160020000Y-72620000D02*
X160020000Y-71850000D01*
%TO.C,D1*%
X89129000Y-143315000D02*
X89129000Y-146405000D01*
X94678999Y-144860462D02*
G75*
G03*
X89129001Y-143315170I-2989999J462D01*
G01*
X89129000Y-146404830D02*
G75*
G03*
X94679000Y-144859538I2560000J1544830D01*
G01*
X94189000Y-144860000D02*
G75*
G03*
X89189000Y-144860000I-2500000J0D01*
G01*
X89189000Y-144860000D02*
G75*
G03*
X94189000Y-144860000I2500000J0D01*
G01*
%TO.C,J5*%
X154916000Y-144780000D02*
G75*
G03*
X151916000Y-144780000I-1500000J0D01*
G01*
X151916000Y-144780000D02*
G75*
G03*
X154916000Y-144780000I1500000J0D01*
G01*
%TO.C,J10*%
X115800000Y-147320000D02*
G75*
G03*
X112800000Y-147320000I-1500000J0D01*
G01*
X112800000Y-147320000D02*
G75*
G03*
X115800000Y-147320000I1500000J0D01*
G01*
%TO.C,R31*%
X106910000Y-144860000D02*
X106140000Y-144860000D01*
X106140000Y-146230000D02*
X106140000Y-143490000D01*
X106140000Y-143490000D02*
X99600000Y-143490000D01*
X99600000Y-146230000D02*
X106140000Y-146230000D01*
X99600000Y-143490000D02*
X99600000Y-146230000D01*
X98830000Y-144860000D02*
X99600000Y-144860000D01*
%TO.C,C3*%
X129315000Y-132790302D02*
X129315000Y-133590302D01*
X129715000Y-133190302D02*
X128915000Y-133190302D01*
X131080000Y-137200000D02*
X122920000Y-137200000D01*
X131080000Y-137240000D02*
X122920000Y-137240000D01*
X131080000Y-137280000D02*
X122920000Y-137280000D01*
X131079000Y-137320000D02*
X122921000Y-137320000D01*
X131077000Y-137360000D02*
X122923000Y-137360000D01*
X131076000Y-137400000D02*
X122924000Y-137400000D01*
X131074000Y-137440000D02*
X122926000Y-137440000D01*
X131071000Y-137480000D02*
X122929000Y-137480000D01*
X131068000Y-137520000D02*
X122932000Y-137520000D01*
X131065000Y-137560000D02*
X122935000Y-137560000D01*
X131061000Y-137600000D02*
X122939000Y-137600000D01*
X131057000Y-137640000D02*
X122943000Y-137640000D01*
X131052000Y-137680000D02*
X122948000Y-137680000D01*
X131048000Y-137720000D02*
X122952000Y-137720000D01*
X131042000Y-137760000D02*
X122958000Y-137760000D01*
X131037000Y-137800000D02*
X122963000Y-137800000D01*
X131030000Y-137840000D02*
X122970000Y-137840000D01*
X131024000Y-137880000D02*
X122976000Y-137880000D01*
X131017000Y-137921000D02*
X122983000Y-137921000D01*
X131010000Y-137961000D02*
X122990000Y-137961000D01*
X131002000Y-138001000D02*
X122998000Y-138001000D01*
X130994000Y-138041000D02*
X123006000Y-138041000D01*
X130985000Y-138081000D02*
X123015000Y-138081000D01*
X130976000Y-138121000D02*
X123024000Y-138121000D01*
X130967000Y-138161000D02*
X123033000Y-138161000D01*
X130957000Y-138201000D02*
X123043000Y-138201000D01*
X130947000Y-138241000D02*
X123053000Y-138241000D01*
X130936000Y-138281000D02*
X123064000Y-138281000D01*
X130925000Y-138321000D02*
X123075000Y-138321000D01*
X130914000Y-138361000D02*
X123086000Y-138361000D01*
X130902000Y-138401000D02*
X123098000Y-138401000D01*
X130889000Y-138441000D02*
X123111000Y-138441000D01*
X130877000Y-138481000D02*
X123123000Y-138481000D01*
X130863000Y-138521000D02*
X123137000Y-138521000D01*
X130850000Y-138561000D02*
X123150000Y-138561000D01*
X130835000Y-138601000D02*
X123165000Y-138601000D01*
X130821000Y-138641000D02*
X123179000Y-138641000D01*
X130805000Y-138681000D02*
X128040000Y-138681000D01*
X125960000Y-138681000D02*
X123195000Y-138681000D01*
X130790000Y-138721000D02*
X128040000Y-138721000D01*
X125960000Y-138721000D02*
X123210000Y-138721000D01*
X130774000Y-138761000D02*
X128040000Y-138761000D01*
X125960000Y-138761000D02*
X123226000Y-138761000D01*
X130757000Y-138801000D02*
X128040000Y-138801000D01*
X125960000Y-138801000D02*
X123243000Y-138801000D01*
X130740000Y-138841000D02*
X128040000Y-138841000D01*
X125960000Y-138841000D02*
X123260000Y-138841000D01*
X130722000Y-138881000D02*
X128040000Y-138881000D01*
X125960000Y-138881000D02*
X123278000Y-138881000D01*
X130704000Y-138921000D02*
X128040000Y-138921000D01*
X125960000Y-138921000D02*
X123296000Y-138921000D01*
X130686000Y-138961000D02*
X128040000Y-138961000D01*
X125960000Y-138961000D02*
X123314000Y-138961000D01*
X130666000Y-139001000D02*
X128040000Y-139001000D01*
X125960000Y-139001000D02*
X123334000Y-139001000D01*
X130647000Y-139041000D02*
X128040000Y-139041000D01*
X125960000Y-139041000D02*
X123353000Y-139041000D01*
X130627000Y-139081000D02*
X128040000Y-139081000D01*
X125960000Y-139081000D02*
X123373000Y-139081000D01*
X130606000Y-139121000D02*
X128040000Y-139121000D01*
X125960000Y-139121000D02*
X123394000Y-139121000D01*
X130584000Y-139161000D02*
X128040000Y-139161000D01*
X125960000Y-139161000D02*
X123416000Y-139161000D01*
X130562000Y-139201000D02*
X128040000Y-139201000D01*
X125960000Y-139201000D02*
X123438000Y-139201000D01*
X130540000Y-139241000D02*
X128040000Y-139241000D01*
X125960000Y-139241000D02*
X123460000Y-139241000D01*
X130517000Y-139281000D02*
X128040000Y-139281000D01*
X125960000Y-139281000D02*
X123483000Y-139281000D01*
X130493000Y-139321000D02*
X128040000Y-139321000D01*
X125960000Y-139321000D02*
X123507000Y-139321000D01*
X130469000Y-139361000D02*
X128040000Y-139361000D01*
X125960000Y-139361000D02*
X123531000Y-139361000D01*
X130444000Y-139401000D02*
X128040000Y-139401000D01*
X125960000Y-139401000D02*
X123556000Y-139401000D01*
X130418000Y-139441000D02*
X128040000Y-139441000D01*
X125960000Y-139441000D02*
X123582000Y-139441000D01*
X130392000Y-139481000D02*
X128040000Y-139481000D01*
X125960000Y-139481000D02*
X123608000Y-139481000D01*
X130365000Y-139521000D02*
X128040000Y-139521000D01*
X125960000Y-139521000D02*
X123635000Y-139521000D01*
X130338000Y-139561000D02*
X128040000Y-139561000D01*
X125960000Y-139561000D02*
X123662000Y-139561000D01*
X130309000Y-139601000D02*
X128040000Y-139601000D01*
X125960000Y-139601000D02*
X123691000Y-139601000D01*
X130280000Y-139641000D02*
X128040000Y-139641000D01*
X125960000Y-139641000D02*
X123720000Y-139641000D01*
X130250000Y-139681000D02*
X128040000Y-139681000D01*
X125960000Y-139681000D02*
X123750000Y-139681000D01*
X130220000Y-139721000D02*
X128040000Y-139721000D01*
X125960000Y-139721000D02*
X123780000Y-139721000D01*
X130189000Y-139761000D02*
X128040000Y-139761000D01*
X125960000Y-139761000D02*
X123811000Y-139761000D01*
X130156000Y-139801000D02*
X128040000Y-139801000D01*
X125960000Y-139801000D02*
X123844000Y-139801000D01*
X130124000Y-139841000D02*
X128040000Y-139841000D01*
X125960000Y-139841000D02*
X123876000Y-139841000D01*
X130090000Y-139881000D02*
X128040000Y-139881000D01*
X125960000Y-139881000D02*
X123910000Y-139881000D01*
X130055000Y-139921000D02*
X128040000Y-139921000D01*
X125960000Y-139921000D02*
X123945000Y-139921000D01*
X130019000Y-139961000D02*
X128040000Y-139961000D01*
X125960000Y-139961000D02*
X123981000Y-139961000D01*
X129983000Y-140001000D02*
X128040000Y-140001000D01*
X125960000Y-140001000D02*
X124017000Y-140001000D01*
X129945000Y-140041000D02*
X128040000Y-140041000D01*
X125960000Y-140041000D02*
X124055000Y-140041000D01*
X129907000Y-140081000D02*
X128040000Y-140081000D01*
X125960000Y-140081000D02*
X124093000Y-140081000D01*
X129867000Y-140121000D02*
X128040000Y-140121000D01*
X125960000Y-140121000D02*
X124133000Y-140121000D01*
X129826000Y-140161000D02*
X128040000Y-140161000D01*
X125960000Y-140161000D02*
X124174000Y-140161000D01*
X129784000Y-140201000D02*
X128040000Y-140201000D01*
X125960000Y-140201000D02*
X124216000Y-140201000D01*
X129741000Y-140241000D02*
X128040000Y-140241000D01*
X125960000Y-140241000D02*
X124259000Y-140241000D01*
X129697000Y-140281000D02*
X128040000Y-140281000D01*
X125960000Y-140281000D02*
X124303000Y-140281000D01*
X129651000Y-140321000D02*
X128040000Y-140321000D01*
X125960000Y-140321000D02*
X124349000Y-140321000D01*
X129604000Y-140361000D02*
X128040000Y-140361000D01*
X125960000Y-140361000D02*
X124396000Y-140361000D01*
X129556000Y-140401000D02*
X128040000Y-140401000D01*
X125960000Y-140401000D02*
X124444000Y-140401000D01*
X129505000Y-140441000D02*
X128040000Y-140441000D01*
X125960000Y-140441000D02*
X124495000Y-140441000D01*
X129454000Y-140481000D02*
X128040000Y-140481000D01*
X125960000Y-140481000D02*
X124546000Y-140481000D01*
X129400000Y-140521000D02*
X128040000Y-140521000D01*
X125960000Y-140521000D02*
X124600000Y-140521000D01*
X129345000Y-140561000D02*
X128040000Y-140561000D01*
X125960000Y-140561000D02*
X124655000Y-140561000D01*
X129287000Y-140601000D02*
X128040000Y-140601000D01*
X125960000Y-140601000D02*
X124713000Y-140601000D01*
X129228000Y-140641000D02*
X128040000Y-140641000D01*
X125960000Y-140641000D02*
X124772000Y-140641000D01*
X129166000Y-140681000D02*
X128040000Y-140681000D01*
X125960000Y-140681000D02*
X124834000Y-140681000D01*
X129102000Y-140721000D02*
X128040000Y-140721000D01*
X125960000Y-140721000D02*
X124898000Y-140721000D01*
X129034000Y-140761000D02*
X124966000Y-140761000D01*
X128964000Y-140801000D02*
X125036000Y-140801000D01*
X128890000Y-140841000D02*
X125110000Y-140841000D01*
X128813000Y-140881000D02*
X125187000Y-140881000D01*
X128731000Y-140921000D02*
X125269000Y-140921000D01*
X128645000Y-140961000D02*
X125355000Y-140961000D01*
X128552000Y-141001000D02*
X125448000Y-141001000D01*
X128453000Y-141041000D02*
X125547000Y-141041000D01*
X128346000Y-141081000D02*
X125654000Y-141081000D01*
X128229000Y-141121000D02*
X125771000Y-141121000D01*
X128098000Y-141161000D02*
X125902000Y-141161000D01*
X127948000Y-141201000D02*
X126052000Y-141201000D01*
X127768000Y-141241000D02*
X126232000Y-141241000D01*
X127533000Y-141281000D02*
X126467000Y-141281000D01*
X131120000Y-137200000D02*
G75*
G03*
X122880000Y-137200000I-4120000J0D01*
G01*
X122880000Y-137200000D02*
G75*
G03*
X131120000Y-137200000I4120000J0D01*
G01*
D14*
%TO.C,L1*%
X115792000Y-122476063D02*
X111792000Y-122476063D01*
X115792000Y-122476063D02*
X115792000Y-131676063D01*
X113792000Y-122476063D02*
X113792000Y-121071063D01*
X111792000Y-122476063D02*
X111792000Y-131676063D01*
X115792000Y-131676063D02*
X111792000Y-131676063D01*
X113792000Y-131676063D02*
X113792000Y-133081063D01*
D11*
%TO.C,R29*%
X195580000Y-110260000D02*
X195580000Y-111030000D01*
X196950000Y-111030000D02*
X194210000Y-111030000D01*
X194210000Y-111030000D02*
X194210000Y-117570000D01*
X196950000Y-117570000D02*
X196950000Y-111030000D01*
X194210000Y-117570000D02*
X196950000Y-117570000D01*
X195580000Y-118340000D02*
X195580000Y-117570000D01*
D12*
%TO.C,U2*%
X124683774Y-126079748D02*
G75*
G03*
X124480574Y-126079748I-101600J0D01*
G01*
X124480574Y-126079748D02*
G75*
G03*
X124683774Y-126079748I101600J0D01*
G01*
D11*
%TO.C,C7*%
X134048000Y-106850000D02*
X134048000Y-111590000D01*
X134048000Y-106850000D02*
X141288000Y-106850000D01*
X134048000Y-111590000D02*
X141288000Y-111590000D01*
X141288000Y-106850000D02*
X141288000Y-111590000D01*
%TO.C,R11*%
X165100000Y-89940000D02*
X165100000Y-90710000D01*
X166470000Y-90710000D02*
X163730000Y-90710000D01*
X163730000Y-90710000D02*
X163730000Y-97250000D01*
X166470000Y-97250000D02*
X166470000Y-90710000D01*
X163730000Y-97250000D02*
X166470000Y-97250000D01*
X165100000Y-98020000D02*
X165100000Y-97250000D01*
%TO.C,R1*%
X99875944Y-64200000D02*
X99875944Y-63430000D01*
X98505944Y-63430000D02*
X101245944Y-63430000D01*
X101245944Y-63430000D02*
X101245944Y-56890000D01*
X98505944Y-56890000D02*
X98505944Y-63430000D01*
X101245944Y-56890000D02*
X98505944Y-56890000D01*
X99875944Y-56120000D02*
X99875944Y-56890000D01*
%TO.C,R6*%
X133350000Y-77240000D02*
X133350000Y-78010000D01*
X134720000Y-78010000D02*
X131980000Y-78010000D01*
X131980000Y-78010000D02*
X131980000Y-84550000D01*
X134720000Y-84550000D02*
X134720000Y-78010000D01*
X131980000Y-84550000D02*
X134720000Y-84550000D01*
X133350000Y-85320000D02*
X133350000Y-84550000D01*
%TD*%
M02*
