M48
; DRILL file {KiCad 7.0.10} date Wed Jan 17 15:01:23 2024
; FORMAT={-:-/ absolute / metric / decimal}
; #@! TF.CreationDate,2024-01-17T15:01:23-08:00
; #@! TF.GenerationSoftware,Kicad,Pcbnew,7.0.10
; #@! TF.FileFunction,Plated,1,2,PTH
FMAT,2
METRIC
; #@! TA.AperFunction,Plated,PTH,ViaDrill
T1C0.400
; #@! TA.AperFunction,Plated,PTH,ComponentDrill
T2C0.800
; #@! TA.AperFunction,Plated,PTH,ComponentDrill
T3C0.900
; #@! TA.AperFunction,Plated,PTH,ComponentDrill
T4C0.991
; #@! TA.AperFunction,Plated,PTH,ComponentDrill
T5C1.000
; #@! TA.AperFunction,Plated,PTH,ComponentDrill
T6C1.270
%
G90
G05
T1
X127.508Y-124.968
X127.508Y-129.673
X135.89Y-103.632
T2
X97.79Y-137.24
X97.79Y-144.86
X99.876Y-55.08
X99.876Y-65.24
X99.876Y-70.32
X99.876Y-80.48
X103.632Y-124.536
X103.632Y-129.536
X105.41Y-137.24
X105.972Y-55.08
X105.972Y-65.24
X107.95Y-144.86
X113.886Y-65.075
X113.886Y-67.615
X113.886Y-70.155
X113.886Y-72.695
X116.397Y-114.554
X118.897Y-114.554
X120.904Y-122.428
X120.904Y-132.588
X121.506Y-65.075
X121.506Y-67.615
X121.506Y-70.155
X121.506Y-72.695
X124.46Y-101.067
X124.46Y-103.567
X127.0Y-134.7
X127.0Y-139.7
X127.827Y-67.564
X128.27Y-76.2
X128.27Y-86.36
X130.327Y-67.564
X132.598Y-93.482
X132.598Y-96.022
X132.598Y-98.562
X132.598Y-101.102
X133.35Y-76.2
X133.35Y-86.36
X135.168Y-109.22
X138.684Y-76.2
X138.684Y-86.36
X140.168Y-109.22
X140.218Y-93.482
X140.218Y-96.022
X140.218Y-98.562
X140.218Y-101.102
X144.78Y-93.98
X144.78Y-104.14
X145.542Y-67.031
X145.542Y-69.531
X145.542Y-76.2
X145.542Y-78.74
X145.542Y-81.28
X149.098Y-104.14
X149.098Y-114.3
X149.86Y-94.06
X149.86Y-99.06
X154.94Y-63.5
X154.94Y-73.66
X157.48Y-94.06
X157.48Y-99.06
X157.52Y-83.82
X160.02Y-63.5
X160.02Y-73.66
X162.52Y-83.82
X165.1Y-88.9
X165.1Y-99.06
X168.148Y-66.04
X168.148Y-68.58
X168.148Y-71.12
X170.18Y-93.98
X170.18Y-104.14
X175.071Y-93.98
X175.26Y-63.5
X175.26Y-73.66
X177.571Y-93.98
X177.8Y-78.74
X177.8Y-88.9
X177.8Y-104.145
X177.8Y-106.685
X177.8Y-109.225
X177.8Y-111.765
X177.8Y-114.305
X177.8Y-116.845
X177.8Y-119.385
X180.34Y-63.5
X180.34Y-73.66
X182.88Y-78.74
X182.88Y-88.9
X185.42Y-104.145
X185.42Y-106.685
X185.42Y-109.225
X185.42Y-111.765
X185.42Y-114.305
X185.42Y-116.845
X185.42Y-119.385
X190.5Y-109.22
X190.5Y-119.38
X195.58Y-109.22
X195.58Y-119.38
T3
X90.419Y-144.86
X92.959Y-144.86
T4
X107.95Y-101.027
X107.95Y-108.647
X110.49Y-101.027
X110.49Y-108.647
X113.03Y-101.027
X113.03Y-108.647
X115.57Y-101.027
X115.57Y-108.647
T5
X89.716Y-78.523
X89.792Y-57.821
X107.95Y-114.3
X113.792Y-120.076
X113.792Y-134.076
X114.3Y-147.32
X132.08Y-58.42
X138.176Y-144.78
X144.78Y-58.42
X145.796Y-144.78
X153.416Y-144.78
X159.626Y-130.785
X159.626Y-133.325
X159.626Y-135.865
X159.626Y-138.405
X159.626Y-140.945
X159.626Y-143.485
X182.626Y-130.785
X182.626Y-133.325
X182.626Y-135.865
X182.626Y-138.405
X182.626Y-140.945
X182.626Y-143.485
X195.58Y-99.06
X195.581Y-85.291
T6
X89.716Y-65.24
X89.716Y-70.32
M30
